<svg width="504" height="47" viewBox="0 0 504 47" fill="none" xmlns="http://www.w3.org/2000/svg">
<path d="M274.925 14.7976C274.285 14.7976 273.739 14.5709 273.285 14.1176C272.832 13.6643 272.605 13.1176 272.605 12.4776C272.605 11.8376 272.832 11.2909 273.285 10.8376C273.739 10.3843 274.285 10.1576 274.925 10.1576C275.565 10.1576 276.112 10.3843 276.565 10.8376C277.019 11.2909 277.245 11.8376 277.245 12.4776C277.245 13.1176 277.019 13.6643 276.565 14.1176C276.112 14.5709 275.565 14.7976 274.925 14.7976ZM274.925 21.5976C274.285 21.5976 273.739 21.3709 273.285 20.9176C272.832 20.4643 272.605 19.9176 272.605 19.2776C272.605 18.6376 272.832 18.0909 273.285 17.6376C273.739 17.1843 274.285 16.9576 274.925 16.9576C275.565 16.9576 276.112 17.1843 276.565 17.6376C277.019 18.0909 277.245 18.6376 277.245 19.2776C277.245 19.9176 277.019 20.4643 276.565 20.9176C276.112 21.3709 275.565 21.5976 274.925 21.5976ZM277.37 37.2776C276.276 37.2776 275.276 37.0109 274.37 36.4776C273.463 35.9443 272.73 35.2243 272.17 34.3176C271.636 33.3843 271.37 32.3709 271.37 31.2776C271.37 30.1576 271.636 29.1443 272.17 28.2376C272.73 27.3309 273.463 26.6109 274.37 26.0776C275.276 25.5443 276.276 25.2776 277.37 25.2776C277.45 25.2776 277.583 25.2776 277.77 25.2776C278.303 25.2776 278.943 25.2643 279.69 25.2376C280.436 25.1843 281.143 25.0376 281.81 24.7976C282.503 24.5309 283.01 24.0776 283.33 23.4376V31.2776C283.33 32.3709 283.063 33.3843 282.53 34.3176C281.996 35.2243 281.276 35.9443 280.37 36.4776C279.463 37.0109 278.463 37.2776 277.37 37.2776ZM279.33 18.5976V6.15759L283.33 5.27759V16.6776L279.33 18.5976ZM279.33 24.4776V19.3976L283.33 17.4776V22.3176C282.983 22.9843 282.423 23.5043 281.65 23.8776C280.876 24.2243 280.103 24.4243 279.33 24.4776ZM277.37 33.2776C277.93 33.2776 278.396 33.0909 278.77 32.7176C279.17 32.3176 279.37 31.8376 279.37 31.2776C279.37 30.7176 279.17 30.2509 278.77 29.8776C278.396 29.4776 277.93 29.2776 277.37 29.2776C276.81 29.2776 276.33 29.4776 275.93 29.8776C275.556 30.2509 275.37 30.7176 275.37 31.2776C275.37 31.8376 275.556 32.3176 275.93 32.7176C276.33 33.0909 276.81 33.2776 277.37 33.2776ZM284.915 37.2776L287.315 33.2776H313.715C313.742 32.1576 313.515 31.2109 313.035 30.4376C312.582 29.6643 311.608 29.2776 310.115 29.2776H289.315L294.595 20.4776L294.995 20.7576L292.915 25.2776H310.115C312.035 25.2776 313.515 25.5843 314.555 26.1976C315.622 26.7843 316.368 27.5843 316.795 28.5976C317.248 29.5843 317.515 30.6643 317.595 31.8376C317.702 33.0109 317.742 34.1709 317.715 35.3176C317.715 35.5043 317.715 35.6909 317.715 35.8776C317.715 36.0376 317.715 36.1976 317.715 36.3576C317.715 36.6776 317.582 36.9043 317.315 37.0376C317.048 37.1709 316.782 37.2509 316.515 37.2776C316.248 37.2776 316.115 37.2776 316.115 37.2776H284.915ZM325.24 37.2776C324.146 37.2509 323.146 36.9709 322.24 36.4376C321.36 35.9043 320.653 35.1843 320.12 34.2776C319.586 33.3709 319.32 32.3709 319.32 31.2776C319.32 30.1576 319.586 29.1443 320.12 28.2376C320.68 27.3309 321.413 26.6109 322.32 26.0776C323.226 25.5443 324.226 25.2776 325.32 25.2776C325.4 25.2776 325.533 25.2776 325.72 25.2776C326.253 25.2776 326.893 25.2643 327.64 25.2376C328.386 25.1843 329.093 25.0376 329.76 24.7976C330.453 24.5309 330.96 24.0776 331.28 23.4376V33.2776H335.12V37.2776H331.28V38.9576C331.28 40.3709 330.973 41.5176 330.36 42.3976C329.773 43.3043 329 43.9576 328.04 44.3576C327.08 44.7843 326.066 44.9843 325 44.9576C323.96 44.9309 322.973 44.7043 322.04 44.2776C321.133 43.8776 320.413 43.3043 319.88 42.5576C321.4 42.9576 322.64 43.1309 323.6 43.0776C324.586 43.0243 325.346 42.8109 325.88 42.4376C326.413 42.0643 326.773 41.5976 326.96 41.0376C327.173 40.4776 327.28 39.9176 327.28 39.3576V37.2776H325.24ZM325.32 33.2776C325.88 33.2776 326.346 33.0909 326.72 32.7176C327.12 32.3176 327.32 31.8376 327.32 31.2776C327.32 30.7176 327.12 30.2509 326.72 29.8776C326.346 29.4776 325.88 29.2776 325.32 29.2776C324.76 29.2776 324.28 29.4776 323.88 29.8776C323.506 30.2509 323.32 30.7176 323.32 31.2776C323.32 31.8376 323.506 32.3176 323.88 32.7176C324.28 33.0909 324.76 33.2776 325.32 33.2776ZM343.521 45.5976C342.881 45.5976 342.334 45.3709 341.881 44.9176C341.427 44.4643 341.201 43.9176 341.201 43.2776C341.201 42.6376 341.427 42.0909 341.881 41.6376C342.334 41.1843 342.881 40.9576 343.521 40.9576C344.161 40.9576 344.707 41.1843 345.161 41.6376C345.614 42.0909 345.841 42.6376 345.841 43.2776C345.841 43.9176 345.614 44.4643 345.161 44.9176C344.707 45.3709 344.161 45.5976 343.521 45.5976ZM332.735 37.2776V33.2776H340.455C339.895 32.9576 339.308 32.4509 338.695 31.7576C338.108 31.0643 337.655 30.4643 337.335 29.9576L339.575 25.6776C340.508 27.1443 341.548 28.4509 342.695 29.5976C343.868 30.7443 345.082 31.6509 346.335 32.3176C347.615 32.9576 348.895 33.2776 350.175 33.2776H359.935L357.535 37.2776H332.735ZM343.118 30.6776C343.998 30.5443 344.638 30.2776 345.038 29.8776C345.438 29.4776 345.691 28.9709 345.798 28.3576C345.878 27.7176 345.918 27.0109 345.918 26.2376V6.15759L349.918 5.27759V25.2776C349.918 26.8776 349.705 28.1043 349.278 28.9576C348.825 29.7843 348.265 30.3576 347.598 30.6776C346.931 30.9709 346.265 31.1176 345.598 31.1176C345.091 31.1176 344.598 31.0643 344.118 30.9576C343.611 30.8243 343.278 30.7309 343.118 30.6776ZM368.918 34.9576C368.758 35.5443 368.385 36.0509 367.798 36.4776C367.238 36.8776 366.571 37.1576 365.798 37.3176C365.051 37.4776 364.318 37.4776 363.598 37.3176C362.905 37.1576 362.318 36.8243 361.838 36.3176C361.358 35.7843 361.118 35.0376 361.118 34.0776V6.15759L365.118 5.27759V34.0776C365.118 34.5576 365.265 34.9043 365.558 35.1176C365.851 35.3043 366.211 35.4109 366.638 35.4376C367.065 35.4376 367.491 35.3843 367.918 35.2776C368.345 35.1709 368.678 35.0643 368.918 34.9576ZM369.902 43.2776C371.422 43.6776 372.662 43.8509 373.622 43.7976C374.609 43.7443 375.369 43.5309 375.902 43.1576C376.436 42.7843 376.796 42.3176 376.982 41.7576C377.196 41.1976 377.302 40.6376 377.302 40.0776V26.1576L381.302 25.2776V39.6776C381.302 41.0909 380.996 42.2376 380.382 43.1176C379.796 44.0243 379.022 44.6776 378.062 45.0776C377.102 45.5043 376.089 45.7043 375.022 45.6776C373.982 45.6509 373.009 45.4243 372.102 44.9976C371.169 44.5976 370.436 44.0243 369.902 43.2776ZM382.887 37.2776L385.287 33.2776H411.687C411.713 32.1576 411.487 31.2109 411.007 30.4376C410.553 29.6643 409.58 29.2776 408.087 29.2776H387.287L392.567 20.4776L392.967 20.7576L390.887 25.2776H408.087C410.007 25.2776 411.487 25.5843 412.527 26.1976C413.593 26.7843 414.34 27.5843 414.767 28.5976C415.22 29.5843 415.487 30.6643 415.567 31.8376C415.673 33.0109 415.713 34.1709 415.687 35.3176C415.687 35.5043 415.687 35.6909 415.687 35.8776C415.687 36.0376 415.687 36.1976 415.687 36.3576C415.687 36.6776 415.553 36.9043 415.287 37.0376C415.02 37.1709 414.753 37.2509 414.487 37.2776C414.22 37.2776 414.087 37.2776 414.087 37.2776H382.887ZM425.091 34.9576C424.931 35.5443 424.558 36.0509 423.971 36.4776C423.411 36.8776 422.745 37.1576 421.971 37.3176C421.225 37.4776 420.491 37.4776 419.771 37.3176C419.078 37.1576 418.491 36.8243 418.011 36.3176C417.531 35.7843 417.291 35.0376 417.291 34.0776V6.15759L421.291 5.27759V34.0776C421.291 34.5576 421.438 34.9043 421.731 35.1176C422.025 35.3043 422.385 35.4109 422.811 35.4376C423.238 35.4376 423.665 35.3843 424.091 35.2776C424.518 35.1709 424.851 35.0643 425.091 34.9576ZM431.6 37.2776C430.507 37.2509 429.507 36.9709 428.6 36.4376C427.72 35.9043 427.014 35.1843 426.48 34.2776C425.947 33.3709 425.68 32.3709 425.68 31.2776C425.68 30.1576 425.947 29.1443 426.48 28.2376C427.04 27.3309 427.774 26.6109 428.68 26.0776C429.587 25.5443 430.587 25.2776 431.68 25.2776C431.76 25.2776 431.894 25.2776 432.08 25.2776C432.614 25.2776 433.254 25.2643 434 25.2376C434.747 25.1843 435.454 25.0376 436.12 24.7976C436.814 24.5309 437.32 24.0776 437.64 23.4376V33.2776H441.48V37.2776H437.64V38.9576C437.64 40.3709 437.334 41.5176 436.72 42.3976C436.134 43.3043 435.36 43.9576 434.4 44.3576C433.44 44.7843 432.427 44.9843 431.36 44.9576C430.32 44.9309 429.334 44.7043 428.4 44.2776C427.494 43.8776 426.774 43.3043 426.24 42.5576C427.76 42.9576 429 43.1309 429.96 43.0776C430.947 43.0243 431.707 42.8109 432.24 42.4376C432.774 42.0643 433.134 41.5976 433.32 41.0376C433.534 40.4776 433.64 39.9176 433.64 39.3576V37.2776H431.6ZM431.68 33.2776C432.24 33.2776 432.707 33.0909 433.08 32.7176C433.48 32.3176 433.68 31.8376 433.68 31.2776C433.68 30.7176 433.48 30.2509 433.08 29.8776C432.707 29.4776 432.24 29.2776 431.68 29.2776C431.12 29.2776 430.64 29.4776 430.24 29.8776C429.867 30.2509 429.68 30.7176 429.68 31.2776C429.68 31.8376 429.867 32.3176 430.24 32.7176C430.64 33.0909 431.12 33.2776 431.68 33.2776ZM443.632 20.5976C442.992 20.5976 442.445 20.3709 441.992 19.9176C441.538 19.4643 441.312 18.9176 441.312 18.2776C441.312 17.6376 441.538 17.0909 441.992 16.6376C442.445 16.1843 442.992 15.9576 443.632 15.9576C444.272 15.9576 444.818 16.1843 445.272 16.6376C445.725 17.0909 445.952 17.6376 445.952 18.2776C445.952 18.9176 445.725 19.4643 445.272 19.9176C444.818 20.3709 444.272 20.5976 443.632 20.5976ZM439.096 37.2776V33.2776H443.896V26.1576L447.896 25.2776V36.3576C447.896 36.6776 447.763 36.9043 447.496 37.0376C447.229 37.1709 446.963 37.2509 446.696 37.2776C446.429 37.2776 446.296 37.2776 446.296 37.2776H439.096Z" fill="#2C742F"/>
<path d="M473.846 42.1785C475.034 42.4427 476.323 42.4749 477.452 42.2494C478.926 41.9851 480.134 41.3921 480.858 40.5736C481.184 40.2062 481.389 39.813 481.476 39.407C479.158 40.8507 476.582 41.8755 473.846 42.1785ZM473.846 42.1785C475.034 42.4427 476.323 42.4749 477.452 42.2494C478.926 41.9851 480.134 41.3921 480.858 40.5736C481.184 40.2062 481.389 39.813 481.476 39.407C479.158 40.8507 476.582 41.8755 473.846 42.1785ZM473.846 42.1785C475.034 42.4427 476.323 42.4749 477.452 42.2494C478.926 41.9851 480.134 41.3921 480.858 40.5736C481.184 40.2062 481.389 39.813 481.476 39.407C479.158 40.8507 476.582 41.8755 473.846 42.1785ZM473.846 42.1785C475.034 42.4427 476.323 42.4749 477.452 42.2494C478.926 41.9851 480.134 41.3921 480.858 40.5736C481.184 40.2062 481.389 39.813 481.476 39.407C479.158 40.8507 476.582 41.8755 473.846 42.1785ZM473.846 42.1785C475.034 42.4427 476.323 42.4749 477.452 42.2494C478.926 41.9851 480.134 41.3921 480.858 40.5736C481.184 40.2062 481.389 39.813 481.476 39.407C479.158 40.8507 476.582 41.8755 473.846 42.1785ZM473.846 42.1785C475.034 42.4427 476.323 42.4749 477.452 42.2494C478.926 41.9851 480.134 41.3921 480.858 40.5736C481.184 40.2062 481.389 39.813 481.476 39.407C479.158 40.8507 476.582 41.8755 473.846 42.1785ZM473.846 42.1785C475.034 42.4427 476.323 42.4749 477.452 42.2494C478.926 41.9851 480.134 41.3921 480.858 40.5736C481.184 40.2062 481.389 39.813 481.476 39.407C479.158 40.8507 476.582 41.8755 473.846 42.1785ZM473.846 42.1785C475.034 42.4427 476.323 42.4749 477.452 42.2494C478.926 41.9851 480.134 41.3921 480.858 40.5736C481.184 40.2062 481.389 39.813 481.476 39.407C479.158 40.8507 476.582 41.8755 473.846 42.1785Z" fill="#457D2F"/>
<path d="M484.213 36.178C483.994 36.004 483.781 35.8235 483.569 35.6495C483.409 35.5206 483.257 35.3981 483.084 35.2886V35.1597C483.084 35.1597 483.084 35.1597 483.091 35.1597C483.257 35.3015 483.423 35.4368 483.595 35.5722C483.629 35.598 483.668 35.6302 483.702 35.656C483.768 35.7075 483.834 35.7591 483.901 35.8106C484.007 35.8944 484.113 35.9782 484.213 36.062C484.22 36.12 484.226 36.1522 484.213 36.178Z" fill="white"/>
<path d="M486.802 41.489L486.569 41.7983L486.323 42.1013L484.544 41.9788L484.471 41.9724C484.411 42.0304 484.351 42.0948 484.291 42.1528C483.893 42.5331 483.455 42.8812 482.983 43.197L483.594 44.3378C483.395 44.4538 482.99 44.6729 482.791 44.7761L481.217 44.1638C480.52 44.4667 479.862 44.6987 479.132 44.8985L478.972 46.1231L478.474 46.2263L477.976 46.3165L476.993 45.3626L476.954 45.3239C476.177 45.4206 475.393 45.4657 474.636 45.4528L474.384 45.7622L473.733 46.555L473.228 46.5228L472.723 46.4712L472.537 45.7235L472.458 45.4013L472.425 45.2788L472.418 45.2724C472.418 45.2724 473.368 45.2788 473.846 45.2595C473.859 45.2595 473.866 45.2595 473.879 45.2595C473.892 45.2595 473.899 45.2595 473.912 45.2595C474.417 45.2272 474.921 45.1692 475.413 45.079C475.473 45.0661 475.526 45.0597 475.586 45.0468C475.858 44.9952 476.13 44.9372 476.402 44.8728C476.409 44.8728 476.422 44.8663 476.429 44.8663C476.436 44.8663 476.449 44.8599 476.455 44.8599C479.079 44.2476 481.536 43.1325 483.747 41.6437C483.78 41.6179 483.82 41.5985 483.853 41.5728C483.886 41.5534 483.913 41.5341 483.946 41.5083L483.953 41.5019C483.959 41.4954 483.966 41.489 483.973 41.489C483.979 41.4825 483.986 41.4761 483.999 41.4696C484.444 41.1603 484.882 40.838 485.301 40.5028C485.334 40.4771 485.374 40.4448 485.407 40.419C485.414 40.4126 485.42 40.4062 485.427 40.4062C485.434 40.3997 485.44 40.3933 485.447 40.3933C485.473 40.3739 485.5 40.3481 485.527 40.3288C485.54 40.3159 485.56 40.303 485.58 40.2901L485.633 40.2515C485.646 40.2386 485.666 40.2257 485.679 40.2128C485.719 40.1806 485.752 40.1548 485.792 40.1226C485.739 40.2321 485.686 40.3353 485.626 40.4448C485.586 40.5222 485.54 40.5931 485.5 40.6704L485.546 40.6575L485.952 40.9282L486.802 41.489Z" fill="#457D2F"/>
<path d="M488.057 38.0858L488.03 38.4338L487.984 38.7819L487.957 38.7883C487.951 38.7819 487.944 38.7754 487.937 38.7754C487.705 38.595 487.473 38.4145 487.24 38.234C487.234 38.2276 487.227 38.2276 487.22 38.2211C487.214 38.2211 487.214 38.2147 487.207 38.2083C487.2 38.2147 487.194 38.2211 487.187 38.2276C487.174 38.234 487.167 38.2469 487.154 38.2534C486.895 38.4661 486.643 38.6852 486.39 38.9043C486.078 39.1815 485.753 39.4458 485.427 39.7036C485.414 39.7165 485.394 39.7293 485.381 39.7422L485.328 39.7809C485.314 39.7938 485.295 39.8067 485.275 39.8196C485.248 39.8389 485.221 39.8647 485.195 39.884C485.188 39.8905 485.182 39.8969 485.175 39.8969C485.168 39.9034 485.162 39.9098 485.155 39.9098C485.122 39.9356 485.082 39.9678 485.049 39.9936C484.624 40.3288 484.192 40.651 483.741 40.9604C483.734 40.9668 483.727 40.9733 483.714 40.9797C483.707 40.9862 483.701 40.9926 483.694 40.9926L483.687 40.9991C483.654 41.0184 483.628 41.0442 483.595 41.0635C483.561 41.0893 483.528 41.1086 483.488 41.1344C481.277 42.6233 478.813 43.7319 476.19 44.3506C476.184 44.3506 476.17 44.3571 476.164 44.3571C476.157 44.3571 476.144 44.3635 476.137 44.3635C475.865 44.428 475.593 44.486 475.32 44.5375C475.261 44.5504 475.207 44.5569 475.148 44.5698C474.65 44.66 474.152 44.718 473.647 44.7502C473.634 44.7502 473.627 44.7502 473.614 44.7502C473.6 44.7502 473.594 44.7502 473.58 44.7502C473.102 44.776 472.618 44.7696 472.139 44.7438C472.133 44.7438 472.12 44.7438 472.113 44.7438C472.106 44.7438 472.093 44.7438 472.086 44.7438C471.967 44.7374 471.847 44.7245 471.734 44.718C471.728 44.718 471.714 44.718 471.708 44.718C471.701 44.718 471.688 44.718 471.681 44.718C470.991 44.6471 470.307 44.5247 469.636 44.3442C469.629 44.3442 469.616 44.3377 469.609 44.3377C469.603 44.3377 469.589 44.3313 469.583 44.3313C469.018 44.1766 468.474 43.9833 467.943 43.7512C467.936 43.7512 467.929 43.7448 467.916 43.7383C467.909 43.7383 467.903 43.7319 467.889 43.7254C467.83 43.6997 467.777 43.6739 467.717 43.6481C467.664 43.6223 467.604 43.5965 467.551 43.5708C467.272 43.3967 467.013 43.2034 466.761 43.0036L466.581 43.0358C466.575 43.0293 466.568 43.0293 466.561 43.0229C466.495 42.9842 466.435 42.9456 466.369 42.9004C466.17 42.7651 465.97 42.6297 465.784 42.4879C465.778 42.4815 465.771 42.475 465.764 42.475C465.758 42.4686 465.751 42.4622 465.745 42.4622C465.605 42.3526 465.466 42.243 465.333 42.1334C465.326 42.127 465.32 42.1206 465.313 42.1206C465.306 42.1141 465.3 42.1077 465.293 42.1077C465.273 42.0948 465.26 42.0754 465.24 42.0625C465.233 42.0561 465.227 42.0561 465.227 42.0497L465.539 41.7854C465.2 41.3342 464.934 40.8702 464.748 40.3997L463.786 40.303C463.786 40.2965 463.779 40.2901 463.772 40.2836C463.686 40.129 463.6 39.9678 463.52 39.8067C463.52 39.8002 463.513 39.7938 463.513 39.7874C463.513 39.7809 463.507 39.7745 463.507 39.768C463.44 39.6327 463.374 39.4909 463.307 39.3491C463.307 39.3426 463.301 39.3362 463.301 39.3297L464.118 39.0268L464.131 39.0397C464.191 39.0977 464.25 39.1557 464.31 39.2137C464.363 39.2653 464.416 39.3168 464.47 39.3749C464.821 39.71 465.2 40.0129 465.598 40.2772C466.807 41.2182 468.248 41.7918 469.762 42.0754C469.769 42.0754 469.775 42.0754 469.782 42.0819C469.948 42.1141 470.114 42.1399 470.28 42.1657C470.293 42.1657 470.313 42.1721 470.333 42.1721C470.466 42.1915 470.605 42.2108 470.745 42.2237C470.791 42.2301 470.838 42.2366 470.884 42.2366C471.336 42.2817 471.787 42.301 472.246 42.301C472.339 42.301 472.438 42.301 472.531 42.2946C472.651 42.2946 472.77 42.2881 472.883 42.2817C472.91 42.2817 472.93 42.2817 472.95 42.2752C473.056 42.2688 473.162 42.2624 473.268 42.2559C473.302 42.2559 473.328 42.2495 473.361 42.2495C473.514 42.2366 473.673 42.2237 473.826 42.2043C475.015 42.4686 476.303 42.5008 477.432 42.2752C478.906 42.011 480.115 41.418 480.839 40.5995C481.164 40.2321 481.37 39.8389 481.456 39.4329C481.543 39.3813 481.629 39.3233 481.715 39.2653C481.795 39.2137 481.881 39.1557 481.961 39.1042C481.968 39.1042 481.974 39.0977 481.981 39.0913C482.054 39.0461 482.12 38.9946 482.193 38.9495C482.26 38.9043 482.326 38.8592 482.393 38.8141C482.598 38.6723 482.804 38.5241 483.01 38.3694C483.09 38.3049 483.176 38.2469 483.256 38.1825C483.269 38.1696 483.282 38.1631 483.296 38.1502C483.362 38.0987 483.422 38.0536 483.488 38.002C483.502 37.9956 483.508 37.9827 483.521 37.9762C483.595 37.9247 483.661 37.8666 483.734 37.8086C483.88 37.6926 484.026 37.5766 484.166 37.4541C484.259 37.3768 484.358 37.293 484.451 37.2157C484.504 37.1706 484.557 37.1254 484.617 37.0739C484.664 37.0352 484.71 36.9965 484.763 36.9514C484.876 36.8612 484.876 36.8612 484.863 36.7194C484.763 36.6292 484.657 36.5454 484.551 36.468C484.484 36.4165 484.418 36.3649 484.352 36.3133C484.318 36.2876 484.279 36.2553 484.245 36.2295C484.232 36.2166 484.219 36.2102 484.205 36.1973C484.212 36.1715 484.205 36.1393 484.205 36.0813C484.106 35.9911 484 35.9073 483.893 35.8299C483.827 35.7784 483.761 35.7268 483.694 35.6752C483.661 35.6495 483.621 35.6172 483.588 35.5915C483.415 35.4561 483.249 35.3208 483.083 35.179C483.827 34.9598 484.464 34.7665 485.016 34.6053C485.022 34.6053 485.036 34.5989 485.042 34.5989C485.102 34.6698 485.155 34.7407 485.215 34.8116C485.215 34.8116 485.215 34.8116 485.221 34.8116L487.094 34.7278L487.287 35.0436L487.459 35.3659L486.005 36.178C486.198 36.6678 486.304 37.1641 486.33 37.6604L488.057 38.0858Z" fill="#457D2F"/>
<path d="M466.781 42.9649L466.568 43.0036C466.575 43.01 466.582 43.0165 466.588 43.0165C466.595 43.0229 466.602 43.0293 466.615 43.0293L466.761 43.0036C466.96 43.1647 467.173 43.3194 467.398 43.4676C467.452 43.4934 467.505 43.5256 467.564 43.5514C467.618 43.5772 467.677 43.603 467.73 43.6288C467.392 43.4225 467.073 43.2034 466.781 42.9649ZM464.138 39.001C464.131 38.9946 464.131 38.9946 464.125 38.9881L463.314 39.2846C463.314 39.2911 463.321 39.2975 463.321 39.304C463.321 39.3104 463.328 39.3168 463.328 39.3233L464.151 39.0204L464.138 39.001ZM486.357 37.6411C486.331 37.1448 486.218 36.6485 486.039 36.178L487.486 35.353L487.307 35.0178L487.108 34.6891L485.235 34.7729C485.182 34.702 485.129 34.6375 485.069 34.5667C485.063 34.5667 485.056 34.5731 485.043 34.5731C485.036 34.5731 485.029 34.5795 485.016 34.5795C485.076 34.6504 485.136 34.7213 485.189 34.7922L485.195 34.7987L485.202 34.8051L487.068 34.7213L487.254 35.0307L487.42 35.3401L485.972 36.1651C486.165 36.6485 486.271 37.1512 486.304 37.6604L488.031 38.0858L488.004 38.4209L487.958 38.7561L487.938 38.7626C487.945 38.769 487.951 38.769 487.958 38.7754C487.964 38.7819 487.971 38.7819 487.978 38.7883L488.011 38.7819L488.057 38.4209L488.084 38.06L486.357 37.6411ZM465.566 41.7467H465.579C465.24 41.2956 464.975 40.8315 464.789 40.361H464.769L463.793 40.2643C463.793 40.2708 463.799 40.2772 463.806 40.2836C463.806 40.2901 463.813 40.2965 463.819 40.303L464.749 40.3932C464.935 40.8573 465.194 41.3149 465.526 41.7596L465.227 42.011C465.234 42.0174 465.24 42.0239 465.24 42.0239C465.247 42.0303 465.254 42.0303 465.254 42.0368L465.572 41.7661L465.559 41.7596L465.566 41.7467Z" fill="#457D2F"/>
<path d="M478.008 43.3323C475.219 43.8286 472.304 43.3194 470.352 42.1464C470.484 42.1657 470.624 42.1851 470.763 42.1979C470.81 42.2044 470.856 42.2108 470.903 42.2108C471.354 42.256 471.806 42.2753 472.264 42.2753C472.357 42.2753 472.457 42.2753 472.55 42.2688C472.669 42.2688 472.789 42.2624 472.902 42.256C472.928 42.256 472.948 42.256 472.968 42.2495C473.074 42.2431 473.18 42.2366 473.287 42.2302C473.32 42.2302 473.346 42.2237 473.38 42.2237C473.532 42.2108 473.692 42.198 473.845 42.1786C476.58 41.8757 479.157 40.8509 481.468 39.4071C481.554 39.3556 481.641 39.2976 481.727 39.2395C481.807 39.188 481.893 39.13 481.973 39.0784C481.979 39.0784 481.986 39.072 481.993 39.0655C482.066 39.0204 482.132 38.9688 482.205 38.9237C482.271 38.8786 482.338 38.8335 482.404 38.7884C482.61 38.6466 482.816 38.4983 483.022 38.3437C483.102 38.2792 483.188 38.2212 483.268 38.1567C483.945 40.4255 481.74 42.6685 478.008 43.3323Z" fill="#457D2F"/>
<path d="M483.501 37.9827C483.434 38.0342 483.375 38.0793 483.308 38.1309C483.295 38.1438 483.282 38.1502 483.268 38.1631C483.189 38.2276 483.102 38.292 483.023 38.35C483.242 39.2653 482.983 40.1999 482.252 41.0313C481.336 42.0754 479.802 42.8295 477.923 43.1647C475.658 43.6223 472.876 43.242 470.904 42.2172C470.857 42.2108 470.811 42.2108 470.764 42.2043C470.625 42.1915 470.492 42.1721 470.352 42.1528C470.339 42.1528 470.319 42.1463 470.299 42.1463C470.133 42.1206 469.967 42.0948 469.801 42.0625C469.795 42.0625 469.788 42.0625 469.781 42.0561C470.146 42.301 470.558 42.5266 471.023 42.7329C474.45 44.3442 480.287 44.0026 482.777 41.1989C483.713 40.1354 483.873 39.001 483.501 37.9827Z" fill="#457D2F"/>
<path d="M481.734 39.2395C481.648 39.2975 481.562 39.3491 481.475 39.4071C481.389 39.8067 481.183 40.2063 480.858 40.5737C480.141 41.3922 478.932 41.9852 477.451 42.2495C476.322 42.475 475.034 42.4428 473.845 42.1786C473.693 42.1979 473.533 42.2108 473.38 42.2237C473.347 42.2237 473.321 42.2301 473.287 42.2301C473.181 42.2366 473.075 42.243 472.969 42.2495C474.436 42.6942 476.136 42.8102 477.591 42.5137C479.702 42.1592 481.914 40.8895 481.98 39.0784C481.9 39.1364 481.814 39.1879 481.734 39.2395Z" fill="#457D2F"/>
<path d="M481.735 39.2395C481.549 40.6704 479.942 41.9465 477.518 42.3848C476.104 42.6362 474.643 42.5588 473.381 42.2237C473.534 42.2108 473.693 42.1979 473.846 42.1786C476.582 41.8756 479.158 40.8508 481.469 39.4071C481.562 39.3491 481.648 39.2975 481.735 39.2395Z" fill="#457D2F"/>
<path d="M490.091 32.2656V32.4332C490.018 33.5869 489.932 34.7406 489.845 35.8879C489.772 36.874 489.699 37.8602 489.639 38.8463C489.613 39.233 489.58 39.6197 489.533 40.0064C489.307 39.9033 489.148 39.7809 488.962 39.6133C488.643 39.3297 488.311 39.059 487.973 38.7947C487.966 38.7883 487.959 38.7818 487.953 38.7818C487.946 38.7754 487.939 38.7689 487.933 38.7689C487.7 38.5885 487.468 38.408 487.236 38.2275C487.229 38.2211 487.222 38.2211 487.216 38.2147C487.209 38.2147 487.209 38.2082 487.202 38.2018C487.196 38.2082 487.189 38.2147 487.182 38.2211C487.169 38.2275 487.163 38.2404 487.149 38.2469C486.89 38.4596 486.638 38.6787 486.386 38.8979C486.073 39.175 485.748 39.4393 485.423 39.6971C485.409 39.71 485.389 39.7229 485.376 39.7357L485.323 39.7744C485.31 39.7873 485.29 39.8002 485.27 39.8131C485.243 39.8324 485.217 39.8582 485.19 39.8775C485.184 39.884 485.177 39.8904 485.17 39.8904C485.164 39.8969 485.157 39.9033 485.15 39.9033C485.117 39.9291 485.077 39.9613 485.044 39.9871C484.619 40.3223 484.187 40.6445 483.736 40.9539C483.729 40.9604 483.723 40.9668 483.709 40.9732C483.703 40.9797 483.696 40.9861 483.689 40.9861L483.683 40.9926C483.65 41.0119 483.623 41.0377 483.59 41.057C483.557 41.0828 483.523 41.1021 483.484 41.1279C481.272 42.6168 478.809 43.7254 476.186 44.3441C476.179 44.3441 476.166 44.3506 476.159 44.3506C476.152 44.3506 476.139 44.357 476.132 44.357C475.86 44.4215 475.588 44.4795 475.316 44.5311C475.256 44.5439 475.203 44.5504 475.143 44.5633C474.645 44.6535 474.147 44.7115 473.642 44.7438C473.629 44.7438 473.622 44.7438 473.609 44.7438C473.596 44.7438 473.589 44.7438 473.576 44.7438C473.098 44.7695 472.613 44.7631 472.135 44.7373C472.128 44.7373 472.115 44.7373 472.108 44.7373C472.102 44.7373 472.088 44.7373 472.082 44.7373C471.962 44.7309 471.843 44.718 471.73 44.7115C471.723 44.7115 471.71 44.7115 471.703 44.7115C471.696 44.7115 471.683 44.7115 471.677 44.7115C470.986 44.6406 470.302 44.5182 469.631 44.3377C469.625 44.3377 469.611 44.3313 469.605 44.3313C469.598 44.3313 469.585 44.3248 469.578 44.3248C469.014 44.1701 468.469 43.9768 467.938 43.7447C467.931 43.7447 467.925 43.7383 467.911 43.7318C467.905 43.7318 467.898 43.7254 467.885 43.7189C467.825 43.6932 467.772 43.6674 467.712 43.6416C467.659 43.6158 467.599 43.59 467.546 43.5643C467.493 43.5385 467.433 43.5127 467.38 43.4805L466.596 43.0422C466.59 43.0357 466.583 43.0357 466.57 43.0293C466.563 43.0229 466.557 43.0229 466.55 43.0164C466.484 42.9777 466.424 42.9391 466.357 42.8939C466.158 42.7586 465.959 42.6232 465.773 42.4814C465.766 42.475 465.76 42.4686 465.753 42.4686C465.746 42.4621 465.74 42.4557 465.733 42.4557C465.594 42.3461 465.454 42.2365 465.321 42.127C465.315 42.1205 465.308 42.1141 465.302 42.1141C465.295 42.1076 465.288 42.1012 465.282 42.1012C465.262 42.0883 465.248 42.0689 465.229 42.0561C465.222 42.0496 465.215 42.0496 465.215 42.0432C465.209 42.0367 465.202 42.0367 465.202 42.0303C465.036 41.882 464.877 41.7338 464.717 41.5791C464.711 41.5727 464.704 41.5662 464.704 41.5662L464.691 41.5533C464.564 41.4244 464.438 41.2891 464.319 41.1602C464.312 41.1537 464.305 41.1473 464.305 41.1473C464.299 41.1408 464.292 41.1344 464.292 41.1344C463.88 40.6703 463.515 40.174 463.19 39.6455C463.183 39.6391 463.183 39.6326 463.177 39.6262C463.17 39.6197 463.17 39.6133 463.163 39.6068C463.104 39.5102 463.05 39.4199 462.997 39.3232C462.991 39.3168 462.991 39.3104 462.984 39.3039C462.984 39.2975 462.977 39.291 462.977 39.2846C462.944 39.2266 462.911 39.1686 462.884 39.1105C462.911 39.1686 462.937 39.2201 462.964 39.2781C462.964 39.2846 462.971 39.291 462.971 39.2975C462.971 39.3039 462.977 39.3104 462.977 39.3168C463.057 39.4779 463.143 39.6391 463.23 39.7938C463.23 39.8002 463.236 39.8066 463.243 39.8131C463.243 39.8195 463.25 39.826 463.256 39.8324C463.309 39.9291 463.362 40.0258 463.422 40.116C463.422 40.1225 463.429 40.1289 463.436 40.1354C463.436 40.1418 463.442 40.1482 463.449 40.1547C463.768 40.6832 464.133 41.1795 464.551 41.6436C464.558 41.65 464.558 41.6564 464.564 41.6564C464.571 41.6629 464.571 41.6693 464.578 41.6693C464.598 41.6887 464.618 41.7145 464.631 41.7338C464.571 41.6693 464.505 41.6049 464.445 41.534C464.438 41.5275 464.438 41.5211 464.432 41.5211C464.425 41.5147 464.418 41.5082 464.418 41.5082C464.007 41.0441 463.641 40.5479 463.316 40.0193C463.309 40.0129 463.309 40.0064 463.303 40C463.296 39.9936 463.296 39.9871 463.289 39.9807C463.23 39.884 463.177 39.7938 463.123 39.6971C463.117 39.6906 463.117 39.6842 463.11 39.6777C463.11 39.6713 463.104 39.6648 463.097 39.6584C463.011 39.5037 462.924 39.3426 462.845 39.1814C462.845 39.175 462.838 39.1686 462.838 39.1621C462.838 39.1557 462.831 39.1492 462.831 39.1428C462.765 39.0074 462.698 38.8656 462.632 38.7238C462.632 38.7174 462.625 38.7109 462.625 38.7045C462.625 38.698 462.619 38.6916 462.619 38.6852C462.459 38.3242 462.32 37.9504 462.194 37.5637V37.5572C462.174 37.4992 462.161 37.4477 462.141 37.3896C462.121 37.3252 462.101 37.2543 462.074 37.1898C461.908 36.6033 461.862 35.9975 461.809 35.3916C461.862 35.4689 461.908 35.5398 461.941 35.6172C461.995 35.7203 462.041 35.8234 462.087 35.9395C462.512 36.9965 463.104 37.9246 463.92 38.7303C463.927 38.7367 463.927 38.7432 463.934 38.7432L463.947 38.7561C464.007 38.8141 464.066 38.8721 464.126 38.9301C464.179 38.9816 464.232 39.0332 464.286 39.0912C464.491 39.2846 464.704 39.4715 464.923 39.6455C466.132 40.5865 467.573 41.1602 469.087 41.4438C469.093 41.4438 469.1 41.4438 469.107 41.4502C469.273 41.4824 469.439 41.5082 469.605 41.534C469.618 41.534 469.638 41.5404 469.658 41.5404C469.791 41.5598 469.93 41.5791 470.07 41.592C470.116 41.5984 470.162 41.6049 470.209 41.6049C470.661 41.65 471.112 41.6693 471.57 41.6693C471.663 41.6693 471.763 41.6693 471.856 41.6629C471.975 41.6629 472.095 41.6564 472.208 41.65C472.234 41.65 472.254 41.65 472.274 41.6436C472.38 41.6371 472.487 41.6307 472.593 41.6242C472.626 41.6242 472.653 41.6178 472.686 41.6178C472.839 41.6049 472.998 41.592 473.151 41.5727C475.887 41.2697 478.463 40.2449 480.774 38.8012C480.861 38.7496 480.947 38.6916 481.033 38.6336C481.113 38.582 481.199 38.524 481.279 38.4725C481.286 38.4725 481.292 38.466 481.299 38.4596C481.372 38.4145 481.438 38.3629 481.511 38.3178C481.578 38.2727 481.644 38.2275 481.711 38.1824C481.916 38.0406 482.122 37.8924 482.328 37.7377C482.408 37.6732 482.494 37.6152 482.574 37.5508C482.587 37.5379 482.6 37.5314 482.614 37.5186C482.68 37.467 482.74 37.4219 482.806 37.3703C482.82 37.3639 482.826 37.351 482.839 37.3445C482.912 37.293 482.979 37.235 483.052 37.177C483.198 37.0609 483.344 36.9449 483.484 36.8225C483.577 36.7451 483.676 36.6613 483.769 36.584C483.822 36.5389 483.875 36.4938 483.935 36.4422C483.982 36.4035 484.028 36.3648 484.081 36.3197C484.148 36.2682 484.174 36.2424 484.187 36.2102C484.194 36.1844 484.187 36.1521 484.187 36.0941C484.088 36.0039 483.982 35.9201 483.875 35.8428C483.809 35.7912 483.743 35.7397 483.676 35.6881C483.643 35.6623 483.603 35.6301 483.57 35.6043C483.397 35.4689 483.231 35.3336 483.065 35.1918C483.005 35.1402 482.946 35.0887 482.886 35.0436C482.727 34.9147 482.574 34.7922 482.401 34.6826V34.5537C483.145 34.3346 483.782 34.1412 484.334 33.9801C484.34 33.9801 484.354 33.9736 484.36 33.9736C484.367 33.9736 484.38 33.9672 484.387 33.9672C484.413 33.9607 484.446 33.9479 484.473 33.9414C484.48 33.9414 484.493 33.935 484.5 33.935C484.506 33.935 484.52 33.9285 484.526 33.9285C487.621 33.0068 487.88 32.9359 489.48 32.4783C489.546 32.459 489.606 32.4397 489.673 32.4203C489.732 32.4074 489.786 32.3881 489.845 32.3688C489.892 32.3559 489.938 32.343 489.991 32.3301C490.045 32.2785 490.071 32.2721 490.091 32.2656Z" fill="#457D2F"/>
<path d="M491.312 3.97732C491.711 4.32537 492.056 4.70564 492.382 5.12459C492.421 5.17615 492.461 5.22127 492.501 5.27283C493.929 7.18064 495.137 9.87478 495.038 12.2789C494.905 12.0533 494.852 11.8277 494.799 11.5763C494.241 9.32048 492.893 7.1613 490.854 5.89802C489.991 5.38884 489.114 5.02791 488.132 4.80232C488.059 4.78298 487.986 4.77009 487.912 4.75076C487.229 4.60251 486.571 4.57673 485.867 4.58318C485.781 4.58318 485.781 4.58318 485.695 4.58318C484.798 4.58963 483.955 4.65408 483.085 4.86677C482.985 4.88611 482.886 4.91189 482.786 4.93123C481 5.35017 479.26 6.22029 477.772 7.25154C477.693 7.3031 477.613 7.35466 477.54 7.41267C476.185 8.33435 474.884 9.37849 473.735 10.5386C473.589 10.6676 473.589 10.6676 473.456 10.6676C473.715 10.9318 473.987 11.1445 474.286 11.3572C474.379 11.4281 474.472 11.4926 474.565 11.5635C474.611 11.5957 474.658 11.6279 474.704 11.6666C474.917 11.8213 475.129 11.9824 475.342 12.1371L475.661 12.3756C475.661 12.4078 475.661 12.4078 475.661 12.44C475.481 12.5496 475.342 12.5947 475.129 12.6527C475.01 12.6849 475.01 12.6849 474.89 12.7172C474.804 12.7429 474.718 12.7623 474.631 12.7881C474.538 12.8138 474.452 12.8396 474.359 12.8654C474.113 12.9299 473.874 13.0008 473.629 13.0652C473.376 13.1361 473.13 13.2006 472.878 13.2715C472.579 13.3552 472.28 13.439 471.975 13.5228C471.391 13.684 470.806 13.8515 470.222 14.0127C470.029 14.0642 469.837 14.1222 469.651 14.1738C469.531 14.206 469.418 14.2383 469.299 14.2769C469.139 14.322 468.98 14.3672 468.821 14.4123C468.754 14.4316 468.754 14.4316 468.681 14.451C468.449 14.5154 468.303 14.5347 468.07 14.4638C468.104 13.7162 468.13 12.9685 468.163 12.2209C468.163 12.1629 468.17 12.1113 468.17 12.0533C468.243 10.3002 468.316 8.54705 468.402 6.78748C468.661 6.90349 468.861 7.06462 469.073 7.24509C469.153 7.30955 469.226 7.374 469.305 7.43845C469.345 7.47068 469.385 7.50291 469.425 7.53513C469.651 7.72205 469.883 7.90251 470.109 8.08298C470.295 8.23123 470.481 8.37947 470.667 8.52771C470.919 8.32146 471.165 8.11521 471.391 7.88962C471.596 7.68337 471.816 7.49002 472.041 7.3031C472.187 7.18064 472.334 7.05173 472.473 6.92283C472.838 6.59412 473.217 6.27185 473.609 5.97537C473.688 5.91736 473.768 5.85291 473.848 5.78845C476.252 3.90642 479.08 2.39822 482.129 1.81814C482.182 1.80525 482.241 1.7988 482.301 1.78591C485.535 1.20584 488.822 1.86326 491.312 3.97732Z" fill="#457D2F"/>
<path d="M490.721 0.35495C490.761 0.36784 490.807 0.374286 490.847 0.387176C493.543 1.05104 495.854 2.73327 497.361 4.99557C497.388 5.04069 497.421 5.08581 497.454 5.13093C498.995 7.46413 499.838 10.4225 499.832 13.194C499.832 13.2907 499.832 13.2907 499.832 13.3938C499.832 13.5292 499.832 13.6645 499.832 13.8063C499.832 14.0126 499.832 14.2253 499.832 14.4315C499.832 14.5669 499.832 14.6958 499.832 14.8311C499.832 14.8956 499.832 14.9536 499.832 15.018C499.832 15.3145 499.818 15.5981 499.759 15.8946C499.699 15.843 499.646 15.7915 499.586 15.7335C499.021 15.2694 498.364 14.9342 497.634 14.7989C497.534 14.7796 497.534 14.7796 497.434 14.7538C496.896 14.7022 496.372 14.7409 495.841 14.7989C495.841 14.7344 495.841 14.67 495.834 14.6055C495.748 10.6417 495.196 6.63913 492.155 3.7194C490.754 2.41745 489.074 1.64401 487.201 1.25729C487.121 1.2444 487.121 1.2444 487.048 1.22507C485.255 0.864129 483.376 1.05104 481.616 1.48288C481.557 1.49577 481.504 1.50866 481.444 1.52155C481.391 1.53444 481.344 1.54733 481.291 1.56022C481.158 1.57956 481.158 1.57956 480.959 1.51511C481.709 1.23151 482.473 0.980145 483.243 0.754559C483.323 0.728778 483.409 0.702997 483.496 0.683661C484.266 0.46452 485.03 0.284051 485.833 0.187371C485.893 0.180926 485.953 0.174481 486.019 0.16159C486.139 0.1487 486.258 0.129364 486.378 0.116473C486.477 0.103583 486.584 0.0906916 486.683 0.077801C487.991 -0.0962224 489.439 0.032684 490.721 0.35495Z" fill="#DAAE1E"/>
<path d="M459.443 14.8375C459.636 14.9599 459.695 15.0953 459.802 15.2886C459.821 15.3273 459.841 15.366 459.861 15.3982C459.908 15.4755 459.948 15.5593 459.994 15.6367C460.114 15.8494 460.233 16.0621 460.353 16.2748C460.379 16.3199 460.399 16.3586 460.426 16.4037C460.652 16.8033 460.884 17.19 461.123 17.5832C461.462 18.1375 461.787 18.6982 462.099 19.2654C462.312 19.6521 462.538 20.0195 462.77 20.3933C462.79 18.5628 462.816 16.7324 462.836 14.8503C463.381 14.8503 463.932 14.8503 464.496 14.8503C464.496 17.5961 464.496 20.3353 464.496 23.1648C463.886 23.1648 463.268 23.1648 462.637 23.1648C462.544 22.9908 462.451 22.8168 462.358 22.6363C462.079 22.1207 461.794 21.6179 461.495 21.1216C461.196 20.6189 460.904 20.1097 460.612 19.6005C460.233 18.9367 459.841 18.2793 459.456 17.6218C459.436 19.4265 459.41 21.2377 459.39 23.1003C458.865 23.1003 458.341 23.1003 457.796 23.1003C457.789 22.1142 457.789 21.1281 457.783 20.1484C457.783 19.6908 457.783 19.2332 457.776 18.7755C457.776 18.3373 457.77 17.8925 457.77 17.4543C457.77 17.2867 457.77 17.1191 457.77 16.9515C457.77 16.713 457.77 16.481 457.77 16.2425C457.77 16.1716 457.77 16.1007 457.77 16.0298C457.77 15.6238 457.796 15.308 458.102 15.005C458.493 14.7472 458.978 14.6828 459.443 14.8375Z" fill="#467E30"/>
<path d="M480.295 16.5972C480.248 16.9517 480.175 17.2933 480.089 17.6349C480.076 17.6929 480.063 17.7509 480.043 17.8089C479.837 18.6275 479.611 19.4396 479.392 20.2517C479.305 20.574 479.219 20.8898 479.133 21.2121C479.113 21.2894 479.093 21.3603 479.073 21.4376C478.92 21.9919 478.781 22.5398 478.635 23.0941C478.044 23.0941 477.453 23.0941 476.842 23.0941C476.616 22.3722 476.616 22.3722 476.563 22.1015C476.55 22.0435 476.536 21.979 476.523 21.9146C476.51 21.8501 476.496 21.7857 476.483 21.7212C476.457 21.5794 476.423 21.4376 476.397 21.2958C476.377 21.1863 476.377 21.1863 476.35 21.0703C476.251 20.574 476.145 20.0777 476.032 19.5814C476.005 19.4718 476.005 19.4718 475.985 19.3558C475.972 19.2914 475.959 19.2269 475.945 19.156C475.905 18.9626 475.872 18.7693 475.839 18.5824C475.832 18.6275 475.819 18.679 475.812 18.7306C475.72 19.1818 475.627 19.6394 475.54 20.0906C475.494 20.3226 475.447 20.5546 475.401 20.7931C475.354 21.0187 475.308 21.2443 475.261 21.4699C475.235 21.5988 475.208 21.7212 475.182 21.8501C475.155 21.9662 475.155 21.9662 475.135 22.0886C475.122 22.1595 475.109 22.224 475.095 22.2949C475.042 22.5591 474.976 22.8298 474.916 23.0941C474.305 23.0941 473.688 23.0941 473.057 23.0941C472.731 22.0628 472.419 21.0316 472.134 19.981C471.921 19.2011 471.702 18.4277 471.476 17.6542C471.456 17.5833 471.456 17.5833 471.436 17.506C471.41 17.4158 471.383 17.3255 471.357 17.2353C471.297 17.0355 471.244 16.8421 471.197 16.6423C471.788 16.6423 472.379 16.6423 472.99 16.6423C473.05 16.8873 473.103 17.1322 473.163 17.3771C473.183 17.4673 473.203 17.5576 473.223 17.6414C473.349 18.1699 473.468 18.6919 473.581 19.2205C473.601 19.3171 473.621 19.4074 473.641 19.504C473.674 19.6394 473.701 19.7812 473.734 19.9165C473.761 20.0455 473.787 20.1744 473.82 20.2968C473.834 20.3677 473.854 20.4451 473.867 20.516C473.907 20.7093 473.907 20.7093 474.053 20.8898C474.059 20.8447 474.073 20.7996 474.079 20.7544C474.166 20.329 474.245 19.9037 474.332 19.4847C474.378 19.2656 474.418 19.0464 474.464 18.8337C474.511 18.5824 474.564 18.331 474.611 18.0796C474.624 18.0023 474.644 17.9249 474.657 17.8476C474.67 17.7767 474.684 17.6994 474.704 17.622C474.723 17.5253 474.723 17.5253 474.743 17.4287C474.796 17.1644 474.863 16.9001 474.923 16.6423C475.514 16.6423 476.105 16.6423 476.716 16.6423C476.822 16.9001 476.882 17.1064 476.935 17.3771C476.948 17.4609 476.968 17.5382 476.981 17.622C477.001 17.7122 477.014 17.796 477.034 17.8863C477.068 18.0667 477.107 18.2472 477.141 18.4277C477.147 18.4728 477.161 18.5179 477.167 18.563C477.227 18.8531 477.287 19.1496 477.346 19.4396C477.36 19.5105 477.38 19.5878 477.393 19.6587C477.42 19.7941 477.453 19.9294 477.479 20.0648C477.546 20.3935 477.592 20.69 477.579 21.0251C477.625 21.0251 477.665 21.0251 477.712 21.0251C477.712 20.9865 477.718 20.9542 477.718 20.9156C477.758 20.4322 477.858 19.9617 477.957 19.4847C477.977 19.4009 477.991 19.3236 478.011 19.2398C478.117 18.7499 478.23 18.2601 478.349 17.7767C478.363 17.7251 478.376 17.6736 478.389 17.622C478.475 17.2933 478.575 16.9775 478.814 16.7197C479.252 16.5263 479.817 16.5908 480.295 16.5972Z" fill="#447D2E"/>
<path d="M475.646 39.9936C475.626 40.0129 475.606 40.0258 475.593 40.0451C475.54 40.0967 475.473 40.1289 475.407 40.1611C475.394 40.1676 475.387 40.1676 475.374 40.174C475.288 40.2063 475.195 40.232 475.102 40.2514H475.095C475.015 40.2707 474.936 40.29 474.863 40.3094C474.736 40.3416 474.61 40.3738 474.477 40.4061C474.351 40.4383 474.218 40.4705 474.092 40.4963C473.933 40.535 473.773 40.5672 473.614 40.5994C473.574 40.6059 473.534 40.6188 473.488 40.6252C473.435 40.6381 473.375 40.651 473.322 40.6574C473.269 40.6703 473.216 40.6768 473.156 40.6896C472.512 40.8057 471.854 40.8701 471.197 40.8766C471.111 40.8766 471.031 40.8766 470.945 40.8766C470.931 40.8766 470.918 40.8766 470.905 40.8766C470.885 40.8766 470.872 40.8766 470.852 40.8766C470.812 40.8766 470.772 40.8766 470.732 40.8766C470.686 40.8766 470.632 40.8701 470.586 40.8701C470.081 40.8508 469.583 40.7928 469.092 40.7025C468.966 40.6768 468.839 40.651 468.707 40.6252C468.567 40.593 468.428 40.5607 468.288 40.5221C468.149 40.4834 468.003 40.4447 467.863 40.3996C467.75 40.3674 467.644 40.3287 467.531 40.29C466.967 40.0967 466.429 39.8453 465.911 39.5488C465.871 39.5295 465.831 39.5037 465.791 39.4779C465.778 39.4715 465.765 39.465 465.752 39.4521C465.718 39.4328 465.685 39.4135 465.652 39.3941C465.433 39.2523 465.214 39.1041 465.001 38.9494C464.988 38.9365 464.975 38.9236 464.961 38.9172C464.961 38.9172 464.955 38.9172 464.955 38.9107L464.802 38.7883C464.782 38.7754 464.769 38.7625 464.749 38.7432C464.682 38.6852 464.616 38.6272 464.55 38.5691C464.516 38.5369 464.483 38.5111 464.443 38.4789C464.417 38.4531 464.39 38.4273 464.357 38.4016C464.331 38.3758 464.304 38.35 464.277 38.3242C464.271 38.3178 464.257 38.3049 464.251 38.2984C464.244 38.292 464.231 38.2855 464.224 38.2727C464.072 38.1244 463.925 37.9697 463.793 37.815C463.779 37.8022 463.773 37.7957 463.766 37.7828C463.759 37.7764 463.753 37.7635 463.739 37.757C463.394 37.351 463.102 36.9127 462.856 36.4486C462.856 36.4422 462.85 36.4422 462.85 36.4357C462.823 36.3777 462.79 36.3262 462.763 36.2682C462.757 36.2617 462.757 36.2488 462.75 36.2424C462.743 36.2359 462.743 36.2231 462.737 36.2166C462.664 36.0684 462.597 35.9201 462.538 35.7654C462.531 35.7525 462.531 35.7461 462.524 35.7332C462.518 35.7203 462.518 35.7139 462.511 35.701C462.206 34.9211 462.02 34.0896 461.953 33.2324C461.94 32.8264 461.953 32.4139 461.953 32.0078C462.139 32.1045 462.325 32.1947 462.511 32.285C463.022 32.5363 463.467 32.6072 464.038 32.5943C464.477 32.6008 464.908 32.575 465.34 32.517C465.36 32.6717 465.38 32.8264 465.406 32.9811C465.406 32.9875 465.406 32.9939 465.413 33.0068C465.413 33.0133 465.413 33.0197 465.42 33.0326C465.453 33.226 465.486 33.4258 465.526 33.6127C465.526 33.6256 465.532 33.6449 465.532 33.6578C465.532 33.6707 465.539 33.69 465.539 33.7029C465.606 34.0059 465.679 34.3023 465.765 34.5988C465.765 34.6053 465.772 34.6182 465.772 34.6246C465.772 34.6311 465.778 34.6439 465.778 34.6504C465.811 34.7664 465.845 34.876 465.884 34.992C465.924 35.1016 465.964 35.2176 466.004 35.3271C466.017 35.3658 466.031 35.398 466.044 35.4367C466.064 35.4818 466.077 35.527 466.097 35.5721C466.117 35.6172 466.13 35.6559 466.15 35.701C466.157 35.7139 466.163 35.7332 466.17 35.7461C466.19 35.7912 466.21 35.8299 466.23 35.875C466.236 35.8879 466.243 35.8943 466.243 35.9072C466.263 35.9395 466.276 35.9781 466.296 36.0168C466.402 36.2295 466.522 36.4422 466.648 36.6484C466.668 36.6807 466.695 36.7193 466.714 36.7516C466.741 36.7967 466.774 36.8418 466.801 36.8869C466.814 36.9063 466.827 36.9256 466.841 36.9449C466.934 37.0803 467.027 37.2092 467.126 37.3381C467.133 37.351 467.146 37.3639 467.153 37.3768C467.153 37.3832 467.159 37.3832 467.159 37.3896C467.166 37.3961 467.166 37.3961 467.173 37.4025C467.325 37.5959 467.485 37.7764 467.651 37.9568C467.724 38.0342 467.804 38.1115 467.883 38.1889C467.97 38.2727 468.063 38.3564 468.156 38.4338C468.189 38.466 468.222 38.4918 468.255 38.5176C468.288 38.5434 468.322 38.5756 468.355 38.6014C468.388 38.6272 468.414 38.6529 468.448 38.6723C468.454 38.6787 468.461 38.6852 468.468 38.6852C468.481 38.698 468.494 38.7045 468.507 38.7174C468.534 38.7367 468.561 38.7561 468.587 38.7818C468.693 38.8656 468.806 38.943 468.919 39.0139C469.025 39.0848 469.132 39.1492 469.245 39.2137C469.258 39.2201 469.271 39.233 469.291 39.2395C469.298 39.2395 469.298 39.2459 469.304 39.2459C469.397 39.2975 469.49 39.349 469.583 39.4006C469.603 39.4135 469.616 39.4199 469.636 39.4264C469.683 39.4522 469.729 39.4715 469.776 39.4908C469.816 39.5102 469.856 39.5295 469.889 39.5424C469.922 39.5553 469.955 39.5746 469.988 39.5875C470.035 39.6068 470.081 39.6262 470.128 39.6455C470.134 39.652 470.141 39.652 470.148 39.652C470.194 39.6713 470.234 39.6842 470.281 39.7035C470.314 39.7164 470.347 39.7293 470.38 39.7422C470.613 39.826 470.852 39.9033 471.097 39.9613C471.144 39.9742 471.19 39.9871 471.237 39.9936C471.29 40.0064 471.35 40.0258 471.403 40.0387C471.436 40.0516 471.476 40.058 471.509 40.0645C471.562 40.0773 471.622 40.0902 471.675 40.1031C471.954 40.1547 472.226 40.1869 472.505 40.1998C472.545 40.1998 472.578 40.1998 472.618 40.2063C472.651 40.2063 472.684 40.2063 472.724 40.2063C472.857 40.2127 472.99 40.2127 473.123 40.2063C473.176 40.2063 473.229 40.2063 473.282 40.2063C473.309 40.2063 473.335 40.2063 473.355 40.2063C473.408 40.2063 473.461 40.2063 473.521 40.2063C473.588 40.2063 473.654 40.1998 473.72 40.1998C473.74 40.1998 473.754 40.1998 473.773 40.1998C473.84 40.1998 473.906 40.1934 473.973 40.1869C474.046 40.1805 474.119 40.174 474.198 40.1676C474.238 40.1676 474.272 40.1611 474.311 40.1547C474.331 40.1547 474.358 40.1482 474.378 40.1482C474.617 40.1225 474.849 40.0902 475.088 40.0516C475.208 40.0387 475.321 40.0193 475.44 40.0064C475.527 40.0064 475.586 40 475.646 39.9936Z" fill="#DAAD1F"/>
<path d="M499.155 24.2671C499.487 24.2671 499.812 24.2671 500.151 24.2671C500.47 24.5765 500.49 24.6345 500.503 25.047C500.503 25.1243 500.51 25.2017 500.51 25.2854C500.51 25.3692 500.516 25.4466 500.516 25.5368C500.516 25.6206 500.523 25.7044 500.523 25.7882C500.53 25.9944 500.536 26.1942 500.543 26.4005C500.583 26.3425 500.623 26.278 500.662 26.2136C500.868 25.9235 501.114 25.756 501.473 25.6915C502.157 25.6335 502.794 25.7882 503.332 26.2071C503.75 26.5938 503.976 27.045 504.003 27.6058C504.003 27.6702 504.003 27.7347 504.003 27.7991C504.003 27.9087 504.003 27.9087 504.003 28.0183C504.003 28.0956 504.003 28.1729 504.003 28.2503C504.003 28.3276 504.003 28.4114 504.003 28.4888C504.003 28.7015 504.003 28.9077 504.003 29.1204C504.003 29.3331 504.003 29.5522 504.003 29.7649C504.003 30.1903 504.003 30.6093 504.003 31.0347C503.564 31.0347 503.126 31.0347 502.675 31.0347C502.675 30.938 502.675 30.8478 502.675 30.7446C502.675 30.3901 502.668 30.0356 502.661 29.6812C502.661 29.5265 502.661 29.3782 502.655 29.2235C502.655 29.0044 502.648 28.7853 502.648 28.5661C502.648 28.4952 502.648 28.4308 502.648 28.3599C502.635 27.8571 502.548 27.4962 502.183 27.1353C501.818 26.987 501.473 26.9806 501.081 27.0386C500.842 27.1997 500.729 27.3608 500.616 27.6187C500.596 27.7798 500.596 27.7798 500.596 27.9603C500.596 28.0312 500.596 28.0956 500.589 28.1665C500.589 28.2761 500.589 28.2761 500.589 28.3921C500.589 28.4694 500.589 28.5403 500.583 28.6177C500.576 28.8562 500.576 29.1011 500.57 29.3396C500.57 29.5007 500.563 29.6683 500.563 29.8294C500.556 30.229 500.55 30.6286 500.543 31.0282C500.085 31.0282 499.62 31.0282 499.148 31.0282C499.155 28.7981 499.155 26.5681 499.155 24.2671Z" fill="#DAAD1F"/>
<path d="M482.354 25.8139C482.812 25.8139 483.277 25.8139 483.749 25.8139C483.749 25.9234 483.749 26.0394 483.749 26.149C483.749 26.5164 483.755 26.8838 483.755 27.2512C483.755 27.4767 483.762 27.6959 483.762 27.9215C483.762 28.1793 483.769 28.4371 483.769 28.6949C483.769 28.7723 483.769 28.856 483.769 28.9398C483.769 29.3974 483.769 29.3974 483.975 29.7971C484.3 30.0678 484.665 30.0355 485.077 30.0033C485.283 29.926 485.369 29.8744 485.482 29.6939C485.548 29.5328 485.562 29.4103 485.562 29.2299C485.562 29.1654 485.562 29.101 485.562 29.0365C485.562 28.9656 485.562 28.9012 485.562 28.8303C485.562 28.6885 485.568 28.5402 485.568 28.3984C485.568 28.1728 485.575 27.9408 485.575 27.7152C485.575 27.4961 485.582 27.2769 485.582 27.0578C485.582 26.9869 485.582 26.9224 485.582 26.8515C485.588 26.4455 485.608 26.1941 485.92 25.9041C486.139 25.7816 486.305 25.7945 486.558 25.801C486.644 25.801 486.724 25.8074 486.81 25.8074C486.877 25.8074 486.936 25.8139 487.003 25.8139C487.009 26.2973 487.016 26.7807 487.016 27.264C487.016 27.4896 487.016 27.7152 487.023 27.9408C487.029 28.1986 487.029 28.4564 487.029 28.7207C487.029 28.798 487.029 28.8818 487.036 28.9592C487.036 29.5328 486.95 30.0742 486.598 30.5447C486.033 31.0539 485.376 31.1892 484.625 31.1892C484.566 31.1892 484.506 31.1892 484.446 31.1892C484.014 31.1828 483.662 31.1248 483.284 30.9057C483.171 30.8412 483.171 30.8412 483.058 30.7832C482.666 30.4803 482.434 30.1 482.354 29.6166C482.348 29.4877 482.348 29.3588 482.348 29.2299C482.348 29.1525 482.348 29.0752 482.348 28.9978C482.348 28.9141 482.348 28.8367 482.348 28.7529C482.348 28.6691 482.348 28.5853 482.348 28.5015C482.348 28.276 482.348 28.0568 482.348 27.8312C482.348 27.6056 482.348 27.3736 482.348 27.148C482.354 26.7033 482.354 26.2586 482.354 25.8139Z" fill="#DAAD1D"/>
<path d="M474.804 24.2543C474.877 24.2543 474.877 24.2543 474.95 24.2607C475.07 24.2607 475.189 24.2672 475.309 24.2736C475.315 25.0277 475.322 25.7883 475.329 26.5424C475.329 26.8904 475.335 27.2449 475.335 27.5929C475.342 27.9345 475.342 28.2697 475.342 28.6113C475.342 28.7402 475.342 28.8691 475.348 28.998C475.348 29.1785 475.348 29.359 475.348 29.5394C475.348 29.591 475.348 29.6426 475.355 29.7006C475.348 30.1968 475.129 30.5191 474.777 30.8672C474.186 31.3183 473.376 31.2926 472.659 31.2345C472.121 31.1636 471.749 30.9187 471.397 30.5256C471.178 30.1904 471.125 29.8166 471.125 29.4234C471.125 29.3718 471.125 29.3138 471.125 29.2623C471.125 29.1914 471.125 29.1269 471.125 29.056C471.125 28.8369 471.125 28.6242 471.132 28.3986C471.59 28.3986 472.055 28.3986 472.526 28.3986C472.526 28.5017 472.526 28.5984 472.526 28.7015C472.526 28.8304 472.533 28.9658 472.533 29.0947C472.533 29.1592 472.533 29.2236 472.533 29.2945C472.533 29.6619 472.533 29.6619 472.732 29.9584C472.925 30.0164 473.091 30.0357 473.29 30.0357C473.35 30.0357 473.416 30.0357 473.482 30.0357C473.648 30.0228 473.648 30.0228 473.761 29.9455C473.901 29.7521 473.881 29.5459 473.874 29.3138C473.874 29.2623 473.874 29.2107 473.874 29.1592C473.874 29.0496 473.874 28.94 473.874 28.824C473.874 28.65 473.874 28.4695 473.874 28.2955C473.874 27.7927 473.874 27.2965 473.874 26.7937C473.874 26.4908 473.874 26.1814 473.874 25.8785C473.874 25.7625 473.874 25.6465 473.874 25.5304C473.874 25.3693 473.874 25.2017 473.874 25.0406C473.874 24.9697 473.874 24.9697 473.874 24.8924C473.881 24.6668 473.901 24.5443 474.054 24.3703C474.312 24.2349 474.518 24.2349 474.804 24.2543Z" fill="#DAAD1E"/>
<path d="M503.87 16.6616C503.87 17.2352 503.87 17.8089 503.87 18.4018C503.299 18.4147 503.299 18.4147 503.12 18.4212C502.708 18.4405 502.455 18.5501 502.163 18.8401C501.898 19.2913 501.924 19.7747 501.918 20.2774C501.918 20.3612 501.918 20.4386 501.911 20.5223C501.911 20.735 501.904 20.9477 501.904 21.1604C501.904 21.3796 501.898 21.5987 501.898 21.8178C501.891 22.2432 501.884 22.6751 501.878 23.1005C501.333 23.1005 500.782 23.1005 500.218 23.1005C500.218 22.5913 500.211 22.0821 500.211 21.5729C500.211 21.3345 500.211 21.1024 500.211 20.8639C500.211 20.6319 500.211 20.4063 500.211 20.1743C500.211 20.0454 500.211 19.9165 500.211 19.7876C500.211 18.8917 500.357 18.1634 500.988 17.4802C501.811 16.7389 502.794 16.6423 503.87 16.6616Z" fill="#447C2E"/>
<path d="M465.486 24.2026C465.838 24.2026 466.19 24.2026 466.549 24.2026C466.881 24.5249 466.881 24.5249 466.921 24.6667C466.921 24.7118 466.921 24.7634 466.921 24.8085C466.921 24.8923 466.921 24.8923 466.921 24.9761C466.921 25.0341 466.921 25.0985 466.914 25.1565C466.914 25.221 466.914 25.2854 466.914 25.3499C466.914 25.5626 466.914 25.7688 466.907 25.9815C466.907 26.1298 466.907 26.2716 466.907 26.4198C466.907 26.8001 466.901 27.1868 466.901 27.5671C466.894 27.9603 466.894 28.347 466.894 28.7401C466.888 29.5071 466.888 30.2741 466.881 31.0411C466.423 31.0411 465.958 31.0411 465.486 31.0411C465.486 28.7788 465.486 26.5229 465.486 24.2026Z" fill="#DAAE20"/>
<path d="M491.053 14.792C492.228 14.792 492.228 14.7926 492.6 15.1211C492.752 15.3788 492.746 15.5851 492.746 15.875V20.0771C492.753 21.0504 492.673 21.9014 491.936 22.6426C491.205 23.2419 490.19 23.3644 489.267 23.2871C488.523 23.1969 487.905 22.9002 487.394 22.3652C487.181 22.0946 487.048 21.8172 486.936 21.4951C486.916 21.4372 486.896 21.3792 486.869 21.3213C486.544 20.2192 486.617 18.8661 487.148 17.835C487.534 17.2355 488.011 16.732 488.729 16.5322C489.486 16.4291 490.13 16.5266 490.761 16.9648C490.853 17.0483 490.854 17.0483 490.986 17.2412C491.006 16.4357 491.033 15.6233 491.053 14.792ZM490.275 18.0088C489.811 17.8284 489.326 17.9183 488.954 18.2275C488.463 18.7303 488.369 19.3107 488.376 19.9746C488.389 20.5289 488.503 21.16 488.928 21.5596C489.273 21.8237 489.558 21.8566 489.996 21.8438C490.355 21.7986 490.554 21.6695 490.8 21.4053C491.158 20.7221 491.311 19.9807 491.158 19.2266C490.986 18.6854 490.793 18.3052 490.275 18.0088Z" fill="#447D2E"/>
<path d="M492.778 24.2666C493.077 24.5566 493.077 24.5893 493.077 24.9824V28.3408C493.077 29.2366 493.024 30.0679 492.354 30.751C491.816 31.1827 491.026 31.2732 490.349 31.2539C489.565 31.183 488.947 30.9504 488.436 30.3574C487.885 29.539 487.805 28.5081 487.978 27.5674C488.19 26.852 488.535 26.2455 489.206 25.8652C489.737 25.6204 490.361 25.5816 490.926 25.749C491.271 25.9036 491.404 26.0265 491.656 26.3291C491.67 25.6461 491.696 24.969 491.716 24.2666H492.778ZM491.039 26.9805C490.488 26.8323 490.083 26.8514 489.651 27.2314C489.419 27.5602 489.359 27.8637 489.359 28.2568C489.366 28.3212 489.366 28.3795 489.366 28.4375C489.366 28.9722 489.399 29.3327 489.791 29.7451C490.096 30.0158 490.349 30.0418 490.747 30.0225C491.059 29.9838 491.192 29.8746 491.392 29.6426C491.73 29.0433 491.796 28.4373 491.67 27.7607C491.524 27.4127 491.371 27.1803 491.039 26.9805Z" fill="#DAAD1E"/>
<path d="M477.174 26.1938C478.084 25.511 479.411 25.4726 480.367 26.104C480.885 26.5036 481.218 27.0579 481.357 27.6831C481.437 28.7336 481.43 29.7457 480.693 30.5835C480.209 31.0604 479.538 31.2405 478.86 31.2534C478.097 31.2276 477.459 31.0154 476.928 30.4741C476.416 29.8683 476.257 29.0302 476.316 28.2632C476.323 28.1988 476.323 28.128 476.33 28.0571C476.403 27.361 476.629 26.6837 477.174 26.1938ZM479.231 26.9741C478.833 26.9354 478.52 26.9093 478.215 27.1606C477.783 27.6375 477.731 28.0954 477.737 28.7075C477.757 29.236 477.89 29.6106 478.288 29.978C478.56 30.094 478.8 30.1001 479.099 30.0679C479.417 29.9648 479.616 29.8165 479.782 29.5396C480.008 29.0111 480.088 28.3018 479.896 27.7476C479.749 27.3867 479.61 27.1353 479.231 26.9741Z" fill="#DAAD1E"/>
<path d="M481.563 17.0222C482.599 16.2426 484.472 16.3651 485.555 17.0095C485.853 17.2544 486.066 17.5772 486.139 17.9509C486.145 18.0604 486.152 18.1702 486.152 18.2732V19.3552C486.152 19.5099 486.152 19.6654 486.158 19.8201C486.158 20.0455 486.165 20.2714 486.165 20.4968C486.165 20.5676 486.165 20.6321 486.172 20.7029C486.172 21.4053 485.992 22.0691 485.475 22.5847C484.671 23.3065 483.695 23.3386 482.659 23.3064C482.327 23.2806 482.048 23.1906 481.756 23.0359C481.683 22.9973 481.61 22.9583 481.537 22.9197C481.159 22.6232 480.846 22.2882 480.76 21.8113C480.713 21.2183 480.667 20.5867 481.025 20.071C481.656 19.3621 482.487 19.2456 483.396 19.0974C483.947 19.0073 483.947 19.0075 484.412 18.7175C484.492 18.492 484.492 18.4919 484.479 18.2664C484.313 18.0279 484.226 18.015 483.947 17.9441C483.715 17.9183 483.715 17.9181 483.482 17.9246C483.403 17.9246 483.323 17.9251 483.243 17.9187C482.991 17.9445 482.832 18.0022 482.619 18.1375C482.593 18.1826 482.56 18.2281 482.526 18.2732C482.42 18.3955 482.42 18.3953 482.261 18.4275C482.201 18.4275 482.141 18.4271 482.081 18.4207H481.882C481.815 18.4206 481.749 18.4148 481.676 18.4148C481.57 18.4148 481.57 18.4144 481.471 18.408C481.298 18.408 481.132 18.4017 480.959 18.3953C481.005 17.8346 481.138 17.4218 481.563 17.0222ZM484.544 20.0134C484.345 20.0134 484.345 20.0133 484.146 20.0583C484 20.1034 483.86 20.1351 483.708 20.1609C483.343 20.2189 483.004 20.2899 482.672 20.4509C482.486 20.5605 482.419 20.6382 482.353 20.8445C482.319 21.1796 482.286 21.4569 482.485 21.7468C482.671 21.8757 482.791 21.9339 483.017 21.9597C483.123 21.9533 483.123 21.9529 483.223 21.9529C483.495 21.9529 483.695 21.9337 483.94 21.8113C483.987 21.7856 484.033 21.7598 484.079 21.7341C484.218 21.6568 484.219 21.6564 484.345 21.5535C484.537 21.2764 484.571 21.0509 484.564 20.7224C484.564 20.6708 484.558 20.6187 484.558 20.5671C484.551 20.3804 484.551 20.2001 484.544 20.0134Z" fill="#457D2F"/>
<path d="M465.99 16.9519C467.039 16.3074 468.753 16.3455 469.815 16.9705C470.141 17.2089 470.341 17.5126 470.467 17.8865C470.473 17.9895 470.473 18.0989 470.479 18.2019V19.2908C470.479 19.5228 470.48 19.7554 470.486 19.9939V20.6511C470.486 21.4246 470.3 22.0564 469.756 22.6365C469.072 23.268 468.069 23.3384 467.173 23.3191C466.529 23.2869 465.997 23.1134 465.532 22.6687C465.087 22.1403 465.028 21.5086 465.081 20.8513C465.187 20.4002 465.367 19.9812 465.745 19.6912C466.363 19.3303 467.06 19.2142 467.757 19.1111C468.129 19.0531 468.521 18.995 468.8 18.7244C468.82 18.5376 468.833 18.3891 468.8 18.2087C468.594 17.9832 468.354 17.9566 468.056 17.9373H467.816C467.737 17.9372 467.658 17.9314 467.578 17.9314C467.319 17.9572 467.166 18.009 466.947 18.1443C466.901 18.228 466.861 18.3119 466.814 18.4021H465.287C465.36 17.7448 465.473 17.3707 465.99 16.9519ZM468.872 20.0134C468.786 20.0134 468.785 20.0126 468.327 20.0964C468.241 20.1157 468.241 20.1158 468.161 20.1287C468.042 20.1544 467.915 20.181 467.789 20.2068C467.544 20.2519 467.311 20.2967 467.079 20.3933C466.833 20.5738 466.7 20.7478 466.634 21.0378C466.64 21.1281 466.641 21.1283 466.647 21.2185C466.654 21.4569 466.667 21.5406 466.813 21.7468C467.052 21.9015 467.252 21.9533 467.537 21.9597C467.989 21.9468 468.347 21.8693 468.673 21.5535C468.865 21.27 468.898 21.0509 468.892 20.7224C468.892 20.6708 468.885 20.6187 468.885 20.5671C468.878 20.3804 468.879 20.2001 468.872 20.0134Z" fill="#457D2F"/>
<path d="M467.877 27.7476C468.687 27.7476 469.497 27.7476 470.334 27.7476C470.334 28.1536 470.334 28.5532 470.334 28.9722C469.504 28.9722 468.667 28.9722 467.811 28.9722C467.811 27.8765 467.811 27.8765 467.877 27.7476Z" fill="#DAAD1F"/>
<path d="M461.582 24.1963H461.769C461.921 24.1963 462.074 24.2021 462.233 24.2021C462.572 24.9433 462.844 25.7106 463.123 26.4775C463.176 26.6192 463.229 26.7611 463.282 26.9092C463.362 27.1283 463.442 27.3479 463.521 27.5605C463.694 28.0245 463.866 28.495 464.039 28.959C464.105 29.133 464.166 29.3006 464.232 29.4746C464.272 29.5841 464.312 29.6938 464.352 29.7969C464.405 29.9451 464.464 30.0939 464.518 30.2422C464.531 30.2872 464.551 30.3261 464.564 30.3711C464.644 30.5901 464.704 30.7964 464.75 31.0283H463.156C463.004 30.603 462.851 30.1775 462.691 29.7393H460.168C460.015 30.1646 459.862 30.5901 459.703 31.0283H458.242C458.329 30.6609 458.401 30.351 458.534 30.0029C458.567 29.9192 458.601 29.8288 458.634 29.7451C458.654 29.7001 458.668 29.6554 458.688 29.6104C458.986 28.824 459.279 28.0307 459.551 27.2314C459.577 27.1543 459.603 27.0771 459.63 27C459.763 26.6133 459.896 26.2324 460.028 25.8457C460.075 25.704 460.128 25.5626 460.175 25.4209C460.195 25.3564 460.221 25.2916 460.241 25.2207C460.566 24.3133 460.607 24.1994 461.017 24.1895H461.396C461.456 24.1895 461.522 24.1899 461.582 24.1963ZM461.37 25.6846C461.337 25.8327 461.291 25.9813 461.251 26.123C461.224 26.1939 461.204 26.2651 461.178 26.3359C461.125 26.4969 461.072 26.6515 461.019 26.8125C460.992 26.8963 460.965 26.9744 460.938 27.0518C460.912 27.1354 460.886 27.2128 460.859 27.29C460.74 27.6574 460.739 27.6573 460.514 28.5273H462.373C462.373 28.3342 462.373 28.3341 462.34 28.2119C462.327 28.1604 462.306 28.1145 462.293 28.0693C462.267 27.9861 462.267 27.9854 462.24 27.9082C462.22 27.8503 462.201 27.7922 462.181 27.7344C462.121 27.554 462.061 27.3669 462.001 27.1865C461.961 27.0578 461.915 26.9354 461.875 26.8066C461.749 26.4328 461.629 26.0584 461.503 25.6846H461.37Z" fill="#DAAD1F"/>
<path d="M494.373 17.1838C495.363 16.2623 497.043 16.3005 498.158 16.9836C498.689 17.3703 499.088 18.0279 499.221 18.6594C499.234 18.9172 499.233 19.1754 499.233 19.4397C499.233 19.5106 499.234 19.5817 499.24 19.6526V20.0452C499.214 20.2384 499.174 20.2838 499.015 20.3997C498.849 20.4254 498.848 20.426 498.643 20.426C498.57 20.426 498.49 20.4254 498.41 20.4319H498.164C498.038 20.4319 498.038 20.4323 497.912 20.4387C497.693 20.4387 497.467 20.4446 497.248 20.4446C497.022 20.4446 496.797 20.4514 496.564 20.4514C496.12 20.4579 495.674 20.4641 495.229 20.4641C495.256 20.5993 495.282 20.7284 495.309 20.8635C495.328 20.9729 495.329 20.9736 495.355 21.0891C495.448 21.3726 495.575 21.5665 495.847 21.7083C496.258 21.8178 496.717 21.8114 497.122 21.676C497.294 21.5666 497.295 21.5666 497.414 21.3928C497.726 21.1544 498.018 21.2051 498.403 21.218C498.476 21.218 498.543 21.2184 498.623 21.2249C498.796 21.2313 498.975 21.2311 499.147 21.2375C499.001 21.9722 498.656 22.4751 498.019 22.9133C497.228 23.3 496.219 23.3901 495.362 23.1838C494.745 22.9712 494.234 22.5914 493.908 22.0374C493.583 21.3349 493.496 20.6644 493.496 19.9104V19.6907C493.496 18.7369 493.689 17.8992 494.373 17.1838ZM497.096 18.0793C496.657 17.8409 496.226 17.7958 495.768 18.0149C495.416 18.2856 495.416 18.2859 495.17 19.2395H497.627V18.9817C497.534 18.6144 497.375 18.3435 497.096 18.0793Z" fill="#457D2E"/>
<path d="M494.838 25.9617C495.608 25.5751 496.704 25.5307 497.494 25.8787C497.541 25.898 497.594 25.9174 497.641 25.9431C497.966 26.1106 498.132 26.3169 498.291 26.6326C498.424 27.0579 498.404 27.4897 498.397 27.9343V28.4373C498.397 29.2235 498.378 29.9972 497.767 30.5837C497.136 31.1187 496.372 31.2082 495.562 31.1824C495.01 31.1437 494.645 31.0085 494.227 30.6541C493.971 30.344 493.898 30.0437 493.889 29.6843V29.3777C493.902 28.9462 493.968 28.6625 494.293 28.3533C494.725 28.0246 495.243 27.9476 495.768 27.8445C495.98 27.8058 496.186 27.7539 496.398 27.7087C496.465 27.6958 496.531 27.6767 496.604 27.6638C496.777 27.6252 496.777 27.6247 496.97 27.5603C496.976 27.4766 496.983 27.3989 496.989 27.3152C496.996 27.2448 496.996 27.2446 497.003 27.1804C496.983 27.0322 496.983 27.032 496.83 26.9353C496.438 26.7677 496 26.8003 495.602 26.9421C495.429 27.0452 495.429 27.0451 495.31 27.2449C495.177 27.2642 495.177 27.2644 495.018 27.2644H494.845C494.785 27.2644 494.725 27.2576 494.665 27.2576H494.486C494.34 27.2576 494.194 27.2507 494.041 27.2507C494.061 27.1607 494.081 27.0644 494.101 26.9744C494.114 26.897 494.114 26.8964 494.134 26.8191C494.24 26.4325 494.513 26.1937 494.838 25.9617ZM497.029 28.5212C496.797 28.5212 496.604 28.566 496.385 28.6111C496.325 28.6304 496.272 28.6431 496.212 28.656C495.946 28.714 495.681 28.7727 495.442 28.908C495.27 29.0304 495.183 29.1207 495.13 29.3269C495.136 29.3847 495.137 29.4361 495.144 29.4939C495.15 29.6679 495.157 29.7777 495.236 29.9324C495.416 30.0355 495.569 30.1191 495.774 30.1384C496.166 30.1448 496.525 30.0483 496.83 29.8035C496.969 29.5908 497.029 29.4421 497.049 29.1843C497.049 29.0623 497.049 29.0619 497.042 28.946C497.035 28.8045 497.036 28.6628 497.029 28.5212Z" fill="#DAAD1F"/>
<path d="M482.885 0.999405C482.818 1.12831 482.818 1.12831 482.619 1.25722C482.38 1.32812 482.134 1.37968 481.889 1.43124C481.789 1.45702 481.789 1.45702 481.683 1.47636C481.616 1.48925 481.557 1.50214 481.49 1.52148C481.43 1.53437 481.371 1.54726 481.311 1.56015C481.158 1.57948 481.158 1.57948 480.959 1.51503C481.165 1.44413 481.371 1.36679 481.577 1.29589C481.636 1.27655 481.696 1.25077 481.756 1.23144C481.809 1.2121 481.869 1.19276 481.929 1.17343C481.982 1.15409 482.035 1.13476 482.088 1.11542C482.367 1.0123 482.586 0.99296 482.885 0.999405Z" fill="#D7AA2A"/>
<path d="M460.905 24.2026C461.343 24.2026 461.782 24.2026 462.233 24.2026C462.253 24.3122 462.28 24.4153 462.3 24.5249C462.253 24.4798 462.213 24.4411 462.167 24.396C462.034 24.3702 462.034 24.3702 461.875 24.3702C461.815 24.3702 461.762 24.3638 461.702 24.3638C461.642 24.3638 461.582 24.3573 461.523 24.3573C461.463 24.3573 461.403 24.3509 461.343 24.3509C461.197 24.3444 461.051 24.338 460.898 24.3315C460.905 24.2864 460.905 24.2478 460.905 24.2026Z" fill="#DAB032"/>
<path d="M501.817 25.6721C501.903 25.6721 501.903 25.6721 501.989 25.6721C502.136 25.685 502.136 25.685 502.268 25.8139C502.116 25.8268 501.963 25.8397 501.81 25.8526C501.684 25.8655 501.684 25.8655 501.551 25.8784C501.478 25.8784 501.405 25.8784 501.332 25.8784C501.286 25.8333 501.246 25.7946 501.199 25.7495C501.418 25.6915 501.604 25.6721 501.817 25.6721Z" fill="#D9AF2F"/>
<path d="M488.131 27.103C488.197 27.103 488.264 27.103 488.33 27.103C488.31 27.1997 488.297 27.2964 488.277 27.3866C488.264 27.4382 488.257 27.4897 488.244 27.5478C488.23 27.5929 488.211 27.638 488.197 27.6831C488.131 27.7024 488.064 27.7282 487.998 27.7476C488.031 27.522 488.058 27.3157 488.131 27.103Z" fill="#DBB02D"/>
<path d="M499.552 10.9253C499.572 10.9253 499.599 10.9253 499.619 10.9253C499.638 11.1573 499.665 11.3958 499.685 11.6343C499.638 11.6343 499.599 11.6343 499.552 11.6343C499.466 11.4731 499.492 11.3829 499.512 11.2089C499.519 11.1573 499.526 11.1058 499.532 11.0478C499.539 11.0091 499.545 10.964 499.552 10.9253Z" fill="#DAB12E"/>
<path d="M459.643 26.9741C459.689 27.0386 459.729 27.103 459.775 27.1675C459.716 27.406 459.716 27.406 459.643 27.6187C459.57 27.5155 459.57 27.5155 459.51 27.3608C459.57 27.1546 459.57 27.1546 459.643 26.9741Z" fill="#DDB331"/>
<path d="M474.252 19.8843C474.318 19.9036 474.385 19.9294 474.451 19.9487C474.431 20.097 474.405 20.2452 474.385 20.3999C474.318 20.3999 474.252 20.3999 474.186 20.3999C474.205 20.2323 474.232 20.0583 474.252 19.8843Z" fill="#4D803A"/>
</svg>
