<svg width="505" height="47" viewBox="0 0 505 47" fill="none" xmlns="http://www.w3.org/2000/svg">
<path d="M16.5775 42.1786C17.7662 42.4428 19.0545 42.4751 20.1834 42.2495C21.6576 41.9852 22.8662 41.3923 23.59 40.5737C23.9154 40.2063 24.1213 39.8132 24.2076 39.4071C21.89 40.8509 19.3135 41.8757 16.5775 42.1786ZM16.5775 42.1786C17.7662 42.4428 19.0545 42.4751 20.1834 42.2495C21.6576 41.9852 22.8662 41.3923 23.59 40.5737C23.9154 40.2063 24.1213 39.8132 24.2076 39.4071C21.89 40.8509 19.3135 41.8757 16.5775 42.1786ZM16.5775 42.1786C17.7662 42.4428 19.0545 42.4751 20.1834 42.2495C21.6576 41.9852 22.8662 41.3923 23.59 40.5737C23.9154 40.2063 24.1213 39.8132 24.2076 39.4071C21.89 40.8509 19.3135 41.8757 16.5775 42.1786ZM16.5775 42.1786C17.7662 42.4428 19.0545 42.4751 20.1834 42.2495C21.6576 41.9852 22.8662 41.3923 23.59 40.5737C23.9154 40.2063 24.1213 39.8132 24.2076 39.4071C21.89 40.8509 19.3135 41.8757 16.5775 42.1786ZM16.5775 42.1786C17.7662 42.4428 19.0545 42.4751 20.1834 42.2495C21.6576 41.9852 22.8662 41.3923 23.59 40.5737C23.9154 40.2063 24.1213 39.8132 24.2076 39.4071C21.89 40.8509 19.3135 41.8757 16.5775 42.1786ZM16.5775 42.1786C17.7662 42.4428 19.0545 42.4751 20.1834 42.2495C21.6576 41.9852 22.8662 41.3923 23.59 40.5737C23.9154 40.2063 24.1213 39.8132 24.2076 39.4071C21.89 40.8509 19.3135 41.8757 16.5775 42.1786ZM16.5775 42.1786C17.7662 42.4428 19.0545 42.4751 20.1834 42.2495C21.6576 41.9852 22.8662 41.3923 23.59 40.5737C23.9154 40.2063 24.1213 39.8132 24.2076 39.4071C21.89 40.8509 19.3135 41.8757 16.5775 42.1786ZM16.5775 42.1786C17.7662 42.4428 19.0545 42.4751 20.1834 42.2495C21.6576 41.9852 22.8662 41.3923 23.59 40.5737C23.9154 40.2063 24.1213 39.8132 24.2076 39.4071C21.89 40.8509 19.3135 41.8757 16.5775 42.1786Z" fill="#457D2F"/>
<path d="M26.9436 36.178C26.7244 36.004 26.5119 35.8235 26.2994 35.6495C26.14 35.5206 25.9873 35.3981 25.8147 35.2886V35.1597C25.8147 35.1597 25.8146 35.1597 25.8213 35.1597C25.9873 35.3015 26.1533 35.4368 26.326 35.5722C26.3592 35.598 26.399 35.6302 26.4322 35.656C26.4986 35.7075 26.565 35.7591 26.6314 35.8106C26.7377 35.8944 26.8439 35.9782 26.9436 36.062C26.9502 36.12 26.9568 36.1522 26.9436 36.178Z" fill="white"/>
<path d="M29.5334 41.489L29.301 41.7983L29.0553 42.1013L27.2756 41.9788L27.2025 41.9724C27.1428 42.0304 27.083 42.0948 27.0232 42.1528C26.6248 42.5331 26.1865 42.8812 25.715 43.197L26.326 44.3378C26.1268 44.4538 25.7217 44.6729 25.5225 44.7761L23.9486 44.1638C23.2514 44.4667 22.5939 44.6987 21.8635 44.8985L21.7041 46.1231L21.2061 46.2263L20.708 46.3165L19.7252 45.3626L19.6854 45.3239C18.9084 45.4206 18.1248 45.4657 17.3678 45.4528L17.1154 45.7622L16.4647 46.555L15.96 46.5228L15.4553 46.4712L15.2693 45.7235L15.1897 45.4013L15.1564 45.2788L15.1498 45.2724C15.1498 45.2724 16.0994 45.2788 16.5775 45.2595C16.5908 45.2595 16.5975 45.2595 16.6107 45.2595C16.624 45.2595 16.6307 45.2595 16.644 45.2595C17.1486 45.2272 17.6533 45.1692 18.1447 45.079C18.2045 45.0661 18.2576 45.0597 18.3174 45.0468C18.5897 44.9952 18.8619 44.9372 19.1342 44.8728C19.1408 44.8728 19.1541 44.8663 19.1607 44.8663C19.1674 44.8663 19.1807 44.8599 19.1873 44.8599C21.8104 44.2476 24.2674 43.1325 26.4787 41.6437C26.5119 41.6179 26.5518 41.5985 26.585 41.5728C26.6182 41.5534 26.6447 41.5341 26.6779 41.5083L26.6846 41.5019C26.6912 41.4954 26.6979 41.489 26.7045 41.489C26.7111 41.4825 26.7178 41.4761 26.7311 41.4696C27.176 41.1603 27.6143 40.838 28.0326 40.5028C28.0658 40.4771 28.1057 40.4448 28.1389 40.419C28.1455 40.4126 28.1522 40.4062 28.1588 40.4062C28.1654 40.3997 28.1721 40.3933 28.1787 40.3933C28.2053 40.3739 28.2318 40.3481 28.2584 40.3288C28.2717 40.3159 28.2916 40.303 28.3115 40.2901L28.3647 40.2515C28.3779 40.2386 28.3979 40.2257 28.4111 40.2128C28.451 40.1806 28.4842 40.1548 28.524 40.1226C28.4709 40.2321 28.4178 40.3353 28.358 40.4448C28.3182 40.5222 28.2717 40.5931 28.2318 40.6704L28.2783 40.6575L28.6834 40.9282L29.5334 41.489Z" fill="#457D2F"/>
<path d="M30.7885 38.0858L30.7619 38.4338L30.7154 38.7819L30.6889 38.7883C30.6822 38.7819 30.6756 38.7754 30.6689 38.7754C30.4365 38.595 30.2041 38.4145 29.9717 38.234C29.965 38.2276 29.9584 38.2276 29.9518 38.2211C29.9451 38.2211 29.9451 38.2147 29.9385 38.2083C29.9318 38.2147 29.9252 38.2211 29.9186 38.2276C29.9053 38.234 29.8986 38.2469 29.8854 38.2534C29.6264 38.4661 29.374 38.6852 29.1217 38.9043C28.8096 39.1815 28.4842 39.4458 28.1588 39.7036C28.1455 39.7165 28.1256 39.7293 28.1123 39.7422L28.0592 39.7809C28.0459 39.7938 28.026 39.8067 28.0061 39.8196C27.9795 39.8389 27.9529 39.8647 27.9264 39.884C27.9197 39.8905 27.9131 39.8969 27.9064 39.8969C27.8998 39.9034 27.8932 39.9098 27.8865 39.9098C27.8533 39.9356 27.8135 39.9678 27.7803 39.9936C27.3553 40.3288 26.9236 40.651 26.4721 40.9604C26.4654 40.9668 26.4588 40.9733 26.4455 40.9797C26.4389 40.9862 26.4322 40.9926 26.4256 40.9926L26.4189 40.9991C26.3857 41.0184 26.3592 41.0442 26.326 41.0635C26.2928 41.0893 26.2596 41.1086 26.2197 41.1344C24.0084 42.6233 21.5447 43.7319 18.9217 44.3506C18.915 44.3506 18.9018 44.3571 18.8951 44.3571C18.8885 44.3571 18.8752 44.3635 18.8686 44.3635C18.5963 44.428 18.324 44.486 18.0518 44.5375C17.992 44.5504 17.9389 44.5569 17.8791 44.5698C17.3811 44.66 16.883 44.718 16.3783 44.7502C16.365 44.7502 16.3584 44.7502 16.3451 44.7502C16.3318 44.7502 16.3252 44.7502 16.3119 44.7502C15.8338 44.776 15.349 44.7696 14.8709 44.7438C14.8643 44.7438 14.851 44.7438 14.8443 44.7438C14.8377 44.7438 14.8244 44.7438 14.8178 44.7438C14.6982 44.7374 14.5787 44.7245 14.4658 44.718C14.4592 44.718 14.4459 44.718 14.4393 44.718C14.4326 44.718 14.4193 44.718 14.4127 44.718C13.7221 44.6471 13.0381 44.5247 12.3674 44.3442C12.3607 44.3442 12.3475 44.3377 12.3408 44.3377C12.3342 44.3377 12.3209 44.3313 12.3143 44.3313C11.7498 44.1766 11.2053 43.9833 10.674 43.7512C10.6674 43.7512 10.6607 43.7448 10.6475 43.7383C10.6408 43.7383 10.6342 43.7319 10.6209 43.7254C10.5611 43.6997 10.508 43.6739 10.4482 43.6481C10.3951 43.6223 10.3353 43.5965 10.2822 43.5708C10.0033 43.3967 9.74434 43.2034 9.49199 43.0036L9.3127 43.0358C9.30605 43.0293 9.29941 43.0293 9.29277 43.0229C9.22637 42.9842 9.1666 42.9456 9.10019 42.9004C8.90098 42.7651 8.70176 42.6297 8.51582 42.4879C8.50918 42.4815 8.50254 42.475 8.4959 42.475C8.48926 42.4686 8.48262 42.4622 8.47598 42.4622C8.33652 42.3526 8.19707 42.243 8.06426 42.1334C8.05762 42.127 8.05098 42.1206 8.04434 42.1206C8.03769 42.1141 8.03105 42.1077 8.02441 42.1077C8.00449 42.0948 7.99121 42.0754 7.97129 42.0625C7.96465 42.0561 7.95801 42.0561 7.95801 42.0497L8.27012 41.7854C7.93144 41.3342 7.66582 40.8702 7.47988 40.3997L6.51699 40.303C6.51699 40.2965 6.51035 40.2901 6.50371 40.2836C6.41738 40.129 6.33105 39.9678 6.25137 39.8067C6.25137 39.8002 6.24473 39.7938 6.24473 39.7874C6.24473 39.7809 6.23809 39.7745 6.23809 39.768C6.17168 39.6327 6.10527 39.4909 6.03887 39.3491C6.03887 39.3426 6.03223 39.3362 6.03223 39.3297L6.84902 39.0268L6.8623 39.0397C6.92207 39.0977 6.98183 39.1557 7.0416 39.2137C7.09473 39.2653 7.14785 39.3168 7.20098 39.3749C7.55293 39.71 7.93145 40.0129 8.32988 40.2772C9.53848 41.2182 10.9795 41.7918 12.4936 42.0754C12.5002 42.0754 12.5068 42.0754 12.5135 42.0819C12.6795 42.1141 12.8455 42.1399 13.0115 42.1657C13.0248 42.1657 13.0447 42.1721 13.0646 42.1721C13.1975 42.1915 13.3369 42.2108 13.4764 42.2237C13.5229 42.2301 13.5693 42.2366 13.6158 42.2366C14.0674 42.2817 14.5189 42.301 14.9771 42.301C15.0701 42.301 15.1697 42.301 15.2627 42.2946C15.3822 42.2946 15.5018 42.2881 15.6146 42.2817C15.6412 42.2817 15.6611 42.2817 15.6811 42.2752C15.7873 42.2688 15.8936 42.2624 15.9998 42.2559C16.033 42.2559 16.0596 42.2495 16.0928 42.2495C16.2455 42.2366 16.4049 42.2237 16.5576 42.2043C17.7463 42.4686 19.0346 42.5008 20.1635 42.2752C21.6377 42.011 22.8463 41.418 23.5701 40.5995C23.8955 40.2321 24.1014 39.8389 24.1877 39.4329C24.274 39.3813 24.3604 39.3233 24.4467 39.2653C24.5264 39.2137 24.6127 39.1557 24.6924 39.1042C24.699 39.1042 24.7057 39.0977 24.7123 39.0913C24.7854 39.0461 24.8518 38.9946 24.9248 38.9495C24.9912 38.9043 25.0576 38.8592 25.124 38.8141C25.3299 38.6723 25.5357 38.5241 25.7416 38.3694C25.8213 38.3049 25.9076 38.2469 25.9873 38.1825C26.0006 38.1696 26.0139 38.1631 26.0271 38.1502C26.0936 38.0987 26.1533 38.0536 26.2197 38.002C26.233 37.9956 26.2396 37.9827 26.2529 37.9762C26.326 37.9247 26.3924 37.8666 26.4654 37.8086C26.6115 37.6926 26.7576 37.5766 26.8971 37.4541C26.99 37.3768 27.0896 37.293 27.1826 37.2157C27.2357 37.1706 27.2889 37.1254 27.3486 37.0739C27.3951 37.0352 27.4416 36.9965 27.4947 36.9514C27.6076 36.8612 27.6076 36.8612 27.5943 36.7194C27.4947 36.6292 27.3885 36.5454 27.2822 36.468C27.2158 36.4165 27.1494 36.3649 27.083 36.3133C27.0498 36.2876 27.01 36.2553 26.9768 36.2295C26.9635 36.2166 26.9502 36.2102 26.9369 36.1973C26.9436 36.1715 26.9369 36.1393 26.9369 36.0813C26.8373 35.9911 26.7311 35.9073 26.6248 35.8299C26.5584 35.7784 26.492 35.7268 26.4256 35.6752C26.3924 35.6495 26.3525 35.6172 26.3193 35.5915C26.1467 35.4561 25.9807 35.3208 25.8146 35.179C26.5584 34.9598 27.1959 34.7665 27.7471 34.6053C27.7537 34.6053 27.767 34.5989 27.7736 34.5989C27.8334 34.6698 27.8865 34.7407 27.9463 34.8116C27.9463 34.8116 27.9463 34.8116 27.9529 34.8116L29.8256 34.7278L30.0182 35.0436L30.1908 35.3659L28.7365 36.178C28.9291 36.6678 29.0354 37.1641 29.0619 37.6604L30.7885 38.0858Z" fill="#457D2F"/>
<path d="M9.51179 42.9649L9.29929 43.0036C9.30593 43.01 9.31257 43.0165 9.31921 43.0165C9.32585 43.0229 9.33249 43.0293 9.34577 43.0293L9.49187 43.0036C9.69108 43.1647 9.90358 43.3194 10.1294 43.4676C10.1825 43.4934 10.2356 43.5256 10.2954 43.5514C10.3485 43.5772 10.4083 43.603 10.4614 43.6288C10.1227 43.4225 9.80397 43.2034 9.51179 42.9649ZM6.86882 39.001C6.86218 38.9946 6.86218 38.9946 6.85554 38.9881L6.04538 39.2846C6.04538 39.2911 6.05202 39.2975 6.05202 39.304C6.05202 39.3104 6.05866 39.3168 6.05866 39.3233L6.8821 39.0204L6.86882 39.001ZM29.0883 37.6411C29.0618 37.1448 28.9489 36.6485 28.7696 36.178L30.2173 35.353L30.038 35.0178L29.8387 34.6891L27.9661 34.7729C27.913 34.702 27.8598 34.6375 27.8001 34.5667C27.7934 34.5667 27.7868 34.5731 27.7735 34.5731C27.7669 34.5731 27.7602 34.5795 27.7469 34.5795C27.8067 34.6504 27.8665 34.7213 27.9196 34.7922L27.9262 34.7987L27.9329 34.8051L29.7989 34.7213L29.9848 35.0307L30.1508 35.3401L28.7032 36.1651C28.8958 36.6485 29.002 37.1512 29.0352 37.6604L30.7618 38.0858L30.7352 38.4209L30.6887 38.7561L30.6688 38.7626C30.6755 38.769 30.6821 38.769 30.6887 38.7754C30.6954 38.7819 30.702 38.7819 30.7087 38.7883L30.7419 38.7819L30.7884 38.4209L30.8149 38.06L29.0883 37.6411ZM8.29655 41.7467H8.30983C7.97116 41.2956 7.70554 40.8315 7.5196 40.361H7.49968L6.52351 40.2643C6.52351 40.2708 6.53015 40.2772 6.53679 40.2836C6.53679 40.2901 6.54343 40.2965 6.55007 40.303L7.47976 40.3932C7.66569 40.8573 7.92468 41.3149 8.25671 41.7596L7.95788 42.011C7.96452 42.0174 7.97116 42.0239 7.97116 42.0239C7.9778 42.0303 7.98444 42.0303 7.98444 42.0368L8.30319 41.7661L8.28991 41.7596L8.29655 41.7467Z" fill="#457D2F"/>
<path d="M20.7412 43.3323C17.9521 43.8286 15.0369 43.3194 13.0846 42.1464C13.2174 42.1657 13.3568 42.1851 13.4963 42.1979C13.5428 42.2044 13.5893 42.2108 13.6357 42.2108C14.0873 42.256 14.5389 42.2753 14.9971 42.2753C15.09 42.2753 15.1896 42.2753 15.2826 42.2688C15.4021 42.2688 15.5217 42.2624 15.6346 42.256C15.6611 42.256 15.6811 42.256 15.701 42.2495C15.8072 42.2431 15.9135 42.2366 16.0197 42.2302C16.0529 42.2302 16.0795 42.2237 16.1127 42.2237C16.2654 42.2108 16.4248 42.198 16.5775 42.1786C19.3135 41.8757 21.89 40.8509 24.201 39.4071C24.2873 39.3556 24.3736 39.2976 24.46 39.2395C24.5396 39.188 24.626 39.13 24.7057 39.0784C24.7123 39.0784 24.7189 39.072 24.7256 39.0655C24.7986 39.0204 24.865 38.9688 24.9381 38.9237C25.0045 38.8786 25.0709 38.8335 25.1373 38.7884C25.3432 38.6466 25.549 38.4983 25.7549 38.3437C25.8346 38.2792 25.9209 38.2212 26.0006 38.1567C26.6779 40.4255 24.4732 42.6685 20.7412 43.3323Z" fill="#457D2F"/>
<path d="M26.233 37.9827C26.1666 38.0342 26.1068 38.0793 26.0404 38.1309C26.0271 38.1438 26.0139 38.1502 26.0006 38.1631C25.9209 38.2276 25.8346 38.292 25.7549 38.35C25.974 39.2653 25.715 40.1999 24.9846 41.0313C24.0682 42.0754 22.5342 42.8295 20.6549 43.1647C18.3904 43.6223 15.608 43.242 13.6357 42.2172C13.5893 42.2108 13.5428 42.2108 13.4963 42.2043C13.3568 42.1915 13.224 42.1721 13.0846 42.1528C13.0713 42.1528 13.0514 42.1463 13.0314 42.1463C12.8654 42.1206 12.6994 42.0948 12.5334 42.0625C12.5268 42.0625 12.5201 42.0625 12.5135 42.0561C12.8787 42.301 13.2904 42.5266 13.7553 42.7329C17.1818 44.3442 23.0189 44.0026 25.5092 41.1989C26.4455 40.1354 26.6049 39.001 26.233 37.9827Z" fill="#457D2F"/>
<path d="M24.4666 39.2395C24.3803 39.2975 24.2939 39.3491 24.2076 39.4071C24.1213 39.8067 23.9154 40.2063 23.59 40.5737C22.8728 41.3922 21.6643 41.9852 20.1834 42.2495C19.0545 42.475 17.7662 42.4428 16.5775 42.1786C16.4248 42.1979 16.2654 42.2108 16.1127 42.2237C16.0795 42.2237 16.0529 42.2301 16.0197 42.2301C15.9135 42.2366 15.8072 42.243 15.701 42.2495C17.1686 42.6942 18.8686 42.8102 20.3228 42.5137C22.4346 42.1592 24.6459 40.8895 24.7123 39.0784C24.6326 39.1364 24.5463 39.1879 24.4666 39.2395Z" fill="#457D2F"/>
<path d="M24.4666 39.2395C24.2807 40.6704 22.6736 41.9465 20.2498 42.3848C18.8353 42.6362 17.3744 42.5588 16.1127 42.2237C16.2654 42.2108 16.4248 42.1979 16.5775 42.1786C19.3135 41.8756 21.89 40.8508 24.201 39.4071C24.2939 39.3491 24.3803 39.2975 24.4666 39.2395Z" fill="#457D2F"/>
<path d="M32.8205 32.2657V32.4333C32.7475 33.587 32.6611 34.7407 32.5748 35.888C32.5018 36.8741 32.4287 37.8603 32.3689 38.8464C32.3424 39.2331 32.3092 39.6199 32.2627 40.0066C32.0369 39.9034 31.8775 39.781 31.6916 39.6134C31.3729 39.3298 31.0408 39.0591 30.7021 38.7949C30.6955 38.7884 30.6889 38.782 30.6822 38.782C30.6756 38.7755 30.6689 38.7691 30.6623 38.7691C30.4299 38.5886 30.1975 38.4081 29.965 38.2277C29.9584 38.2212 29.9518 38.2212 29.9451 38.2148C29.9385 38.2148 29.9385 38.2083 29.9318 38.2019C29.9252 38.2083 29.9186 38.2148 29.9119 38.2212C29.8986 38.2277 29.892 38.2406 29.8787 38.247C29.6197 38.4597 29.3674 38.6788 29.115 38.898C28.8029 39.1751 28.4775 39.4394 28.1521 39.6972C28.1389 39.7101 28.1189 39.723 28.1057 39.7359L28.0525 39.7745C28.0393 39.7874 28.0193 39.8003 27.9994 39.8132C27.9729 39.8325 27.9463 39.8583 27.9197 39.8777C27.9131 39.8841 27.9064 39.8906 27.8998 39.8906C27.8932 39.897 27.8865 39.9034 27.8799 39.9034C27.8467 39.9292 27.8068 39.9615 27.7736 39.9872C27.3486 40.3224 26.917 40.6447 26.4654 40.954C26.4588 40.9605 26.4522 40.9669 26.4389 40.9734C26.4322 40.9798 26.4256 40.9863 26.4189 40.9863L26.4123 40.9927C26.3791 41.012 26.3525 41.0378 26.3193 41.0572C26.2861 41.0829 26.2529 41.1023 26.2131 41.1281C24.0018 42.6169 21.5381 43.7255 18.915 44.3443C18.9084 44.3443 18.8951 44.3507 18.8885 44.3507C18.8818 44.3507 18.8686 44.3572 18.8619 44.3572C18.5896 44.4216 18.3174 44.4796 18.0451 44.5312C17.9854 44.5441 17.9322 44.5505 17.8725 44.5634C17.3744 44.6536 16.8764 44.7116 16.3717 44.7439C16.3584 44.7439 16.3518 44.7439 16.3385 44.7439C16.3252 44.7439 16.3186 44.7439 16.3053 44.7439C15.8271 44.7697 15.3424 44.7632 14.8643 44.7374C14.8576 44.7374 14.8443 44.7374 14.8377 44.7374C14.8311 44.7374 14.8178 44.7374 14.8111 44.7374C14.6916 44.731 14.5721 44.7181 14.4592 44.7116C14.4525 44.7116 14.4393 44.7116 14.4326 44.7116C14.426 44.7116 14.4127 44.7116 14.4061 44.7116C13.7154 44.6407 13.0314 44.5183 12.3607 44.3378C12.3541 44.3378 12.3408 44.3314 12.3342 44.3314C12.3275 44.3314 12.3143 44.3249 12.3076 44.3249C11.7432 44.1702 11.1986 43.9769 10.6674 43.7449C10.6607 43.7449 10.6541 43.7384 10.6408 43.732C10.6342 43.732 10.6275 43.7255 10.6143 43.7191C10.5545 43.6933 10.5014 43.6675 10.4416 43.6417C10.3885 43.6159 10.3287 43.5902 10.2756 43.5644C10.2225 43.5386 10.1627 43.5128 10.1096 43.4806L9.32598 43.0423C9.31934 43.0359 9.31269 43.0359 9.29941 43.0294C9.29277 43.023 9.28613 43.023 9.27949 43.0165C9.21309 42.9779 9.15332 42.9392 9.08691 42.8941C8.8877 42.7587 8.68848 42.6234 8.50254 42.4816C8.4959 42.4751 8.48926 42.4687 8.48262 42.4687C8.47598 42.4622 8.46934 42.4558 8.4627 42.4558C8.32324 42.3462 8.18379 42.2366 8.05098 42.1271C8.04434 42.1206 8.0377 42.1142 8.03105 42.1142C8.02441 42.1077 8.01777 42.1013 8.01113 42.1013C7.99121 42.0884 7.97793 42.0691 7.95801 42.0562C7.95137 42.0497 7.94473 42.0497 7.94473 42.0433C7.93809 42.0368 7.93145 42.0368 7.93145 42.0304C7.76543 41.8822 7.60605 41.7339 7.44668 41.5792C7.44004 41.5728 7.4334 41.5663 7.4334 41.5663L7.42012 41.5534C7.29394 41.4245 7.16777 41.2892 7.04824 41.1603C7.0416 41.1538 7.03496 41.1474 7.03496 41.1474C7.02832 41.1409 7.02168 41.1345 7.02168 41.1345C6.60996 40.6704 6.24473 40.1741 5.91934 39.6456C5.91269 39.6392 5.9127 39.6327 5.90606 39.6263C5.89941 39.6198 5.89941 39.6134 5.89277 39.607C5.83301 39.5103 5.77988 39.42 5.72676 39.3234C5.72012 39.3169 5.72012 39.3105 5.71348 39.304C5.71348 39.2976 5.70684 39.2911 5.70684 39.2847C5.67363 39.2267 5.64043 39.1687 5.61387 39.1107C5.64043 39.1687 5.66699 39.2202 5.69355 39.2783C5.69355 39.2847 5.7002 39.2911 5.7002 39.2976C5.7002 39.304 5.70684 39.3105 5.70684 39.3169C5.78652 39.4781 5.87285 39.6392 5.95918 39.7939C5.95918 39.8003 5.96582 39.8068 5.97246 39.8132C5.97246 39.8197 5.9791 39.8261 5.98574 39.8325C6.03887 39.9292 6.09199 40.0259 6.15176 40.1161C6.15176 40.1226 6.1584 40.129 6.16504 40.1355C6.16504 40.1419 6.17168 40.1484 6.17832 40.1548C6.49707 40.6833 6.8623 41.1796 7.28066 41.6437C7.2873 41.6501 7.2873 41.6566 7.29395 41.6566C7.30059 41.663 7.30058 41.6695 7.30723 41.6695C7.32715 41.6888 7.34707 41.7146 7.36035 41.7339C7.30059 41.6695 7.23418 41.605 7.17441 41.5341C7.16777 41.5277 7.16777 41.5212 7.16113 41.5212C7.15449 41.5148 7.14785 41.5083 7.14785 41.5083C6.73613 41.0443 6.3709 40.548 6.04551 40.0195C6.03887 40.013 6.03887 40.0066 6.03223 40.0001C6.02559 39.9937 6.02559 39.9872 6.01894 39.9808C5.95918 39.8841 5.90605 39.7939 5.85293 39.6972C5.84629 39.6908 5.84629 39.6843 5.83965 39.6779C5.83965 39.6714 5.83301 39.665 5.82637 39.6585C5.74004 39.5038 5.65371 39.3427 5.57402 39.1816C5.57402 39.1751 5.56738 39.1687 5.56738 39.1622C5.56738 39.1558 5.56074 39.1493 5.56074 39.1429C5.49434 39.0075 5.42793 38.8657 5.36152 38.724C5.36152 38.7175 5.35488 38.7111 5.35488 38.7046C5.35488 38.6982 5.34824 38.6917 5.34824 38.6853C5.18887 38.3243 5.04941 37.9505 4.92324 37.5638V37.5574C4.90332 37.4993 4.89004 37.4478 4.87012 37.3898C4.8502 37.3253 4.83027 37.2544 4.80371 37.19C4.6377 36.6034 4.59121 35.9976 4.53809 35.3917C4.59121 35.4691 4.6377 35.54 4.6709 35.6173C4.72402 35.7204 4.77051 35.8236 4.81699 35.9396C5.24199 36.9966 5.83301 37.9247 6.6498 38.7304C6.65644 38.7368 6.65645 38.7433 6.66309 38.7433L6.67637 38.7562C6.73613 38.8142 6.7959 38.8722 6.85566 38.9302C6.90879 38.9818 6.96191 39.0333 7.01504 39.0913C7.2209 39.2847 7.4334 39.4716 7.65254 39.6456C8.86113 40.5866 10.3021 41.1603 11.8162 41.4439C11.8229 41.4439 11.8295 41.4439 11.8361 41.4503C12.0021 41.4825 12.1682 41.5083 12.3342 41.5341C12.3475 41.5341 12.3674 41.5406 12.3873 41.5406C12.5201 41.5599 12.6596 41.5792 12.799 41.5921C12.8455 41.5986 12.892 41.605 12.9385 41.605C13.39 41.6501 13.8416 41.6695 14.2998 41.6695C14.3928 41.6695 14.4924 41.6695 14.5854 41.663C14.7049 41.663 14.8244 41.6566 14.9373 41.6501C14.9639 41.6501 14.9838 41.6501 15.0037 41.6437C15.11 41.6372 15.2162 41.6308 15.3225 41.6243C15.3557 41.6243 15.3822 41.6179 15.4154 41.6179C15.5682 41.605 15.7275 41.5921 15.8803 41.5728C18.6162 41.2698 21.1928 40.245 23.5037 38.8013C23.59 38.7497 23.6764 38.6917 23.7627 38.6337C23.8424 38.5822 23.9287 38.5241 24.0084 38.4726C24.015 38.4726 24.0217 38.4661 24.0283 38.4597C24.1014 38.4146 24.1678 38.363 24.2408 38.3179C24.3072 38.2728 24.3736 38.2277 24.44 38.1825C24.6459 38.0408 24.8518 37.8925 25.0576 37.7378C25.1373 37.6734 25.2236 37.6154 25.3033 37.5509C25.3166 37.538 25.3299 37.5316 25.3432 37.5187C25.4096 37.4671 25.4693 37.422 25.5357 37.3704C25.549 37.364 25.5557 37.3511 25.5689 37.3447C25.642 37.2931 25.7084 37.2351 25.7814 37.1771C25.9275 37.0611 26.0736 36.945 26.2131 36.8226C26.3061 36.7452 26.4057 36.6615 26.4986 36.5841C26.5518 36.539 26.6049 36.4939 26.6646 36.4423C26.7111 36.4036 26.7576 36.365 26.8107 36.3198C26.8771 36.2683 26.9037 36.2425 26.917 36.2103C26.9236 36.1845 26.917 36.1523 26.917 36.0943C26.8174 36.004 26.7111 35.9202 26.6049 35.8429C26.5385 35.7913 26.4721 35.7398 26.4057 35.6882C26.3725 35.6624 26.3326 35.6302 26.2994 35.6044C26.1268 35.4691 25.9607 35.3337 25.7947 35.1919C25.735 35.1404 25.6752 35.0888 25.6154 35.0437C25.4561 34.9148 25.3033 34.7923 25.1307 34.6827V34.5538C25.8744 34.3347 26.5119 34.1413 27.0631 33.9802C27.0697 33.9802 27.083 33.9738 27.0896 33.9738C27.0963 33.9738 27.1096 33.9673 27.1162 33.9673C27.1428 33.9609 27.176 33.948 27.2025 33.9415C27.2092 33.9415 27.2225 33.9351 27.2291 33.9351C27.2357 33.9351 27.249 33.9286 27.2557 33.9286C30.3502 33.007 30.6092 32.9361 32.2096 32.4784C32.276 32.4591 32.3357 32.4398 32.4021 32.4204C32.4619 32.4075 32.515 32.3882 32.5748 32.3689C32.6213 32.356 32.6678 32.3431 32.7209 32.3302C32.774 32.2786 32.8006 32.2722 32.8205 32.2657Z" fill="#457D2F"/>
<path d="M34.042 3.9772C34.4404 4.32524 34.7857 4.70552 35.1111 5.12446C35.151 5.17603 35.1908 5.22114 35.2307 5.27271C36.6584 7.18052 37.867 9.87466 37.7674 12.2788C37.6346 12.0532 37.5814 11.8276 37.5283 11.5762C36.9705 9.32036 35.6225 7.16118 33.5838 5.8979C32.7205 5.38872 31.8439 5.02778 30.8611 4.8022C30.7881 4.78286 30.715 4.76997 30.642 4.75064C29.958 4.60239 29.3006 4.57661 28.5967 4.58306C28.5104 4.58306 28.5103 4.58306 28.424 4.58306C27.5275 4.5895 26.6842 4.65396 25.8143 4.86665C25.7146 4.88599 25.615 4.91177 25.5154 4.9311C23.7291 5.35005 21.9893 6.22017 20.5018 7.25142C20.4221 7.30298 20.3424 7.35454 20.2693 7.41255C18.9146 8.33423 17.6131 9.37837 16.4643 10.5385C16.3182 10.6674 16.3182 10.6674 16.1853 10.6674C16.4443 10.9317 16.7166 11.1444 17.0154 11.3571C17.1084 11.428 17.2014 11.4924 17.2943 11.5633C17.3408 11.5956 17.3873 11.6278 17.4338 11.6665C17.6463 11.8211 17.8588 11.9823 18.0713 12.137L18.39 12.3754C18.39 12.4077 18.39 12.4077 18.39 12.4399C18.2107 12.5495 18.0713 12.5946 17.8588 12.6526C17.7393 12.6848 17.7393 12.6848 17.6197 12.717C17.5334 12.7428 17.4471 12.7622 17.3607 12.7879C17.2678 12.8137 17.1814 12.8395 17.0885 12.8653C16.8428 12.9297 16.6037 13.0006 16.358 13.0651C16.1057 13.136 15.86 13.2004 15.6076 13.2713C15.3088 13.3551 15.01 13.4389 14.7045 13.5227C14.1201 13.6838 13.5357 13.8514 12.9514 14.0125C12.7588 14.0641 12.5662 14.1221 12.3803 14.1737C12.2607 14.2059 12.1479 14.2381 12.0283 14.2768C11.8689 14.3219 11.7096 14.367 11.5502 14.4122C11.4838 14.4315 11.4838 14.4315 11.4107 14.4508C11.1783 14.5153 11.0322 14.5346 10.7998 14.4637C10.833 13.7161 10.8596 12.9684 10.8928 12.2208C10.8928 12.1627 10.8994 12.1112 10.8994 12.0532C10.9725 10.3 11.0455 8.54692 11.1318 6.78735C11.3908 6.90337 11.59 7.0645 11.8025 7.24497C11.8822 7.30942 11.9553 7.37388 12.035 7.43833C12.0748 7.47056 12.1146 7.50278 12.1545 7.53501C12.3803 7.72192 12.6127 7.90239 12.8385 8.08286C13.0244 8.2311 13.2104 8.37935 13.3963 8.52759C13.6486 8.32134 13.8943 8.11509 14.1201 7.8895C14.326 7.68325 14.5451 7.48989 14.7709 7.30298C14.917 7.18052 15.0631 7.05161 15.2025 6.92271C15.5678 6.59399 15.9463 6.27173 16.3381 5.97524C16.4178 5.91724 16.4975 5.85278 16.5771 5.78833C18.9811 3.9063 21.81 2.3981 24.858 1.81802C24.9111 1.80513 24.9709 1.79868 25.0307 1.78579C28.2646 1.20571 31.5518 1.86314 34.042 3.9772Z" fill="#457D2F"/>
<path d="M33.4512 0.35495C33.491 0.36784 33.5375 0.374286 33.5773 0.387176C36.2734 1.05104 38.5844 2.73327 40.0918 4.99557C40.1184 5.04069 40.1516 5.08581 40.1848 5.13093C41.7254 7.46413 42.5688 10.4225 42.5621 13.194C42.5621 13.2907 42.5621 13.2907 42.5621 13.3938C42.5621 13.5292 42.5621 13.6645 42.5621 13.8063C42.5621 14.0126 42.5621 14.2253 42.5621 14.4315C42.5621 14.5669 42.5621 14.6958 42.5621 14.8311C42.5621 14.8956 42.5621 14.9536 42.5621 15.018C42.5621 15.3145 42.5488 15.5981 42.4891 15.8946C42.4293 15.843 42.3762 15.7915 42.3164 15.7335C41.752 15.2694 41.0945 14.9342 40.3641 14.7989C40.2645 14.7796 40.2645 14.7796 40.1648 14.7538C39.627 14.7022 39.1023 14.7409 38.5711 14.7989C38.5711 14.7344 38.5711 14.67 38.5645 14.6055C38.4781 10.6417 37.927 6.63913 34.8855 3.7194C33.4844 2.41745 31.8043 1.64401 29.9316 1.25729C29.852 1.2444 29.852 1.2444 29.7789 1.22507C27.9859 0.864129 26.1066 1.05104 24.3469 1.48288C24.2871 1.49577 24.234 1.50866 24.1742 1.52155C24.1211 1.53444 24.0746 1.54733 24.0215 1.56022C23.8887 1.57956 23.8887 1.57956 23.6895 1.51511C24.4398 1.23151 25.2035 0.980145 25.9738 0.754559C26.0535 0.728778 26.1398 0.702997 26.2262 0.683661C26.9965 0.46452 27.7602 0.284051 28.5637 0.187371C28.6234 0.180926 28.6832 0.174481 28.7496 0.16159C28.8691 0.1487 28.9887 0.129364 29.1082 0.116473C29.2078 0.103583 29.3141 0.0906916 29.4137 0.077801C30.7219 -0.0962224 32.1695 0.032684 33.4512 0.35495Z" fill="#DAAE1E"/>
<path d="M2.17344 14.8376C2.36602 14.96 2.42578 15.0954 2.53203 15.2888C2.55195 15.3274 2.57188 15.3661 2.5918 15.3983C2.63828 15.4757 2.67812 15.5595 2.72461 15.6368C2.84414 15.8495 2.96367 16.0622 3.0832 16.2749C3.10977 16.32 3.12969 16.3587 3.15625 16.4038C3.38203 16.8034 3.61445 17.1901 3.85352 17.5833C4.19219 18.1376 4.51758 18.6983 4.82969 19.2655C5.04219 19.6522 5.26797 20.0196 5.50039 20.3934C5.52031 18.563 5.54688 16.7325 5.5668 14.8505C6.11133 14.8505 6.6625 14.8505 7.22695 14.8505C7.22695 17.5962 7.22695 20.3354 7.22695 23.1649C6.61602 23.1649 5.99844 23.1649 5.36758 23.1649C5.27461 22.9909 5.18164 22.8169 5.08867 22.6364C4.80977 22.1208 4.52422 21.618 4.22539 21.1218C3.92656 20.619 3.63438 20.1098 3.34219 19.6007C2.96367 18.9368 2.57188 18.2794 2.18672 17.622C2.1668 19.4266 2.14024 21.2378 2.12031 23.1005C1.5957 23.1005 1.0711 23.1005 0.526564 23.1005C0.519923 22.1143 0.519923 21.1282 0.513282 20.1485C0.513282 19.6909 0.513282 19.2333 0.506641 18.7757C0.506641 18.3374 0.5 17.8927 0.5 17.4544C0.5 17.2868 0.5 17.1192 0.5 16.9516C0.5 16.7132 0.5 16.4811 0.5 16.2427C0.5 16.1718 0.5 16.1009 0.5 16.03C0.5 15.6239 0.526563 15.3081 0.832031 15.0052C1.22383 14.7473 1.70859 14.6829 2.17344 14.8376Z" fill="#467E30"/>
<path d="M23.0254 16.5971C22.9789 16.9516 22.9059 17.2932 22.8195 17.6348C22.8063 17.6928 22.793 17.7508 22.773 17.8088C22.5672 18.6274 22.3414 19.4395 22.1223 20.2516C22.0359 20.5738 21.9496 20.8897 21.8633 21.2119C21.8434 21.2893 21.8234 21.3602 21.8035 21.4375C21.6508 21.9918 21.5113 22.5397 21.3652 23.094C20.7742 23.094 20.1832 23.094 19.5723 23.094C19.3465 22.3721 19.3465 22.3721 19.2934 22.1014C19.2801 22.0434 19.2668 21.9789 19.2535 21.9145C19.2402 21.85 19.227 21.7856 19.2137 21.7211C19.1871 21.5793 19.1539 21.4375 19.1273 21.2957C19.1074 21.1862 19.1074 21.1862 19.0809 21.0701C18.9812 20.5738 18.875 20.0776 18.7621 19.5813C18.7355 19.4717 18.7355 19.4717 18.7156 19.3557C18.7023 19.2912 18.6891 19.2268 18.6758 19.1559C18.6359 18.9625 18.6027 18.7692 18.5695 18.5822C18.5629 18.6274 18.5496 18.6789 18.543 18.7305C18.45 19.1817 18.357 19.6393 18.2707 20.0904C18.2242 20.3225 18.1777 20.5545 18.1312 20.793C18.0848 21.0186 18.0383 21.2442 17.9918 21.4697C17.9652 21.5987 17.9387 21.7211 17.9121 21.85C17.8855 21.966 17.8855 21.966 17.8656 22.0885C17.8523 22.1594 17.8391 22.2238 17.8258 22.2947C17.7727 22.559 17.7062 22.8297 17.6465 23.094C17.0355 23.094 16.418 23.094 15.7871 23.094C15.4617 22.0627 15.1496 21.0315 14.8641 19.9809C14.6516 19.201 14.4324 18.4276 14.2066 17.6541C14.1867 17.5832 14.1867 17.5832 14.1668 17.5059C14.1402 17.4156 14.1137 17.3254 14.0871 17.2352C14.0273 17.0354 13.9742 16.842 13.9277 16.6422C14.5187 16.6422 15.1098 16.6422 15.7207 16.6422C15.7805 16.8871 15.8336 17.132 15.8934 17.377C15.9133 17.4672 15.9332 17.5574 15.9531 17.6412C16.0793 18.1697 16.1988 18.6918 16.3117 19.2203C16.3316 19.317 16.3516 19.4072 16.3715 19.5039C16.4047 19.6393 16.4313 19.7811 16.4645 19.9164C16.491 20.0453 16.5176 20.1742 16.5508 20.2967C16.5641 20.3676 16.584 20.4449 16.5973 20.5158C16.6371 20.7092 16.6371 20.7092 16.7832 20.8897C16.7898 20.8445 16.8031 20.7994 16.8098 20.7543C16.8961 20.3289 16.9758 19.9035 17.0621 19.4846C17.1086 19.2654 17.1484 19.0463 17.1949 18.8336C17.2414 18.5822 17.2945 18.3309 17.341 18.0795C17.3543 18.0022 17.3742 17.9248 17.3875 17.8475C17.4008 17.7766 17.4141 17.6992 17.434 17.6219C17.4539 17.5252 17.4539 17.5252 17.4738 17.4285C17.527 17.1643 17.5934 16.9 17.6531 16.6422C18.2441 16.6422 18.8352 16.6422 19.4461 16.6422C19.5523 16.9 19.6121 17.1063 19.6652 17.377C19.6785 17.4608 19.6984 17.5381 19.7117 17.6219C19.7316 17.7121 19.7449 17.7959 19.7648 17.8862C19.798 18.0666 19.8379 18.2471 19.8711 18.4276C19.8777 18.4727 19.891 18.5178 19.8977 18.5629C19.9574 18.8529 20.0172 19.1494 20.077 19.4395C20.0902 19.5104 20.1102 19.5877 20.1234 19.6586C20.15 19.794 20.1832 19.9293 20.2098 20.0647C20.2762 20.3934 20.3227 20.6899 20.3094 21.025C20.3559 21.025 20.3957 21.025 20.4422 21.025C20.4422 20.9863 20.4488 20.9541 20.4488 20.9154C20.4887 20.432 20.5883 19.9615 20.6879 19.4846C20.7078 19.4008 20.7211 19.3235 20.741 19.2397C20.8473 18.7498 20.9602 18.26 21.0797 17.7766C21.093 17.725 21.1062 17.6735 21.1195 17.6219C21.2059 17.2932 21.3055 16.9774 21.5445 16.7195C21.9828 16.5262 22.5473 16.5906 23.0254 16.5971Z" fill="#447D2E"/>
<path d="M18.3766 39.9937C18.3567 40.013 18.3368 40.0259 18.3235 40.0452C18.2704 40.0968 18.204 40.129 18.1375 40.1613C18.1243 40.1677 18.1176 40.1677 18.1043 40.1741C18.018 40.2064 17.925 40.2322 17.8321 40.2515H17.8254C17.7457 40.2708 17.6661 40.2902 17.593 40.3095C17.4668 40.3417 17.3407 40.374 17.2079 40.4062C17.0817 40.4384 16.9489 40.4706 16.8227 40.4964C16.6633 40.5351 16.504 40.5673 16.3446 40.5995C16.3047 40.606 16.2649 40.6189 16.2184 40.6253C16.1653 40.6382 16.1055 40.6511 16.0524 40.6575C15.9993 40.6704 15.9461 40.6769 15.8864 40.6898C15.2422 40.8058 14.5848 40.8702 13.9274 40.8767C13.8411 40.8767 13.7614 40.8767 13.675 40.8767C13.6618 40.8767 13.6485 40.8767 13.6352 40.8767C13.6153 40.8767 13.602 40.8767 13.5821 40.8767C13.5422 40.8767 13.5024 40.8767 13.4625 40.8767C13.4161 40.8767 13.3629 40.8702 13.3164 40.8702C12.8118 40.8509 12.3137 40.7929 11.8223 40.7027C11.6961 40.6769 11.57 40.6511 11.4372 40.6253C11.2977 40.5931 11.1582 40.5609 11.0188 40.5222C10.8793 40.4835 10.7332 40.4448 10.5938 40.3997C10.4809 40.3675 10.3747 40.3288 10.2618 40.2902C9.69731 40.0968 9.15942 39.8454 8.64145 39.549C8.60161 39.5296 8.56176 39.5038 8.52192 39.4781C8.50864 39.4716 8.49536 39.4652 8.48208 39.4523C8.44887 39.4329 8.41567 39.4136 8.38247 39.3943C8.16333 39.2525 7.94419 39.1042 7.73169 38.9495C7.7184 38.9366 7.70512 38.9238 7.69184 38.9173C7.69184 38.9173 7.6852 38.9173 7.6852 38.9109L7.53247 38.7884C7.51255 38.7755 7.49926 38.7626 7.47934 38.7433C7.41293 38.6853 7.34653 38.6273 7.28012 38.5693C7.24692 38.537 7.21372 38.5113 7.17387 38.479C7.14731 38.4532 7.12075 38.4275 7.08754 38.4017C7.06098 38.3759 7.03442 38.3501 7.00786 38.3243C7.00122 38.3179 6.98793 38.305 6.98129 38.2986C6.97465 38.2921 6.96137 38.2857 6.95473 38.2728C6.802 38.1245 6.6559 37.9699 6.52309 37.8152C6.50981 37.8023 6.50317 37.7958 6.49653 37.7829C6.48989 37.7765 6.48325 37.7636 6.46997 37.7572C6.12465 37.3511 5.83247 36.9128 5.58676 36.4488C5.58676 36.4423 5.58012 36.4423 5.58012 36.4359C5.55356 36.3779 5.52036 36.3263 5.49379 36.2683C5.48715 36.2618 5.48715 36.249 5.48051 36.2425C5.47387 36.2361 5.47387 36.2232 5.46723 36.2167C5.39419 36.0685 5.32778 35.9202 5.26801 35.7656C5.26137 35.7527 5.26137 35.7462 5.25473 35.7333C5.24809 35.7204 5.24809 35.714 5.24145 35.7011C4.93598 34.9212 4.75004 34.0898 4.68364 33.2325C4.67036 32.8265 4.68364 32.414 4.68364 32.0079C4.86957 32.1046 5.05551 32.1949 5.24145 32.2851C5.75278 32.5365 6.1977 32.6074 6.7688 32.5945C7.20708 32.6009 7.63872 32.5751 8.07036 32.5171C8.09028 32.6718 8.1102 32.8265 8.13676 32.9812C8.13676 32.9876 8.13676 32.9941 8.1434 33.007C8.1434 33.0134 8.1434 33.0199 8.15004 33.0327C8.18325 33.2261 8.21645 33.4259 8.25629 33.6128C8.25629 33.6257 8.26294 33.645 8.26294 33.6579C8.26294 33.6708 8.26957 33.6902 8.26957 33.7031C8.33598 34.006 8.40903 34.3025 8.49536 34.599C8.49536 34.6054 8.502 34.6183 8.502 34.6247C8.502 34.6312 8.50864 34.6441 8.50864 34.6505C8.54184 34.7665 8.57504 34.8761 8.61489 34.9921C8.65473 35.1017 8.69457 35.2177 8.73442 35.3273C8.7477 35.3659 8.76098 35.3982 8.77426 35.4368C8.79418 35.482 8.80747 35.5271 8.82739 35.5722C8.84731 35.6173 8.86059 35.656 8.88051 35.7011C8.88715 35.714 8.89379 35.7333 8.90043 35.7462C8.92036 35.7913 8.94028 35.83 8.9602 35.8751C8.96684 35.888 8.97348 35.8945 8.97348 35.9073C8.9934 35.9396 9.00669 35.9782 9.02661 36.0169C9.13286 36.2296 9.25239 36.4423 9.37856 36.6486C9.39848 36.6808 9.42504 36.7195 9.44497 36.7517C9.47153 36.7968 9.50473 36.8419 9.53129 36.887C9.54457 36.9064 9.55786 36.9257 9.57114 36.945C9.66411 37.0804 9.75708 37.2093 9.85669 37.3382C9.86333 37.3511 9.87661 37.364 9.88325 37.3769C9.88325 37.3833 9.88989 37.3833 9.88989 37.3898C9.89653 37.3962 9.89653 37.3962 9.90317 37.4027C10.0559 37.596 10.2153 37.7765 10.3813 37.957C10.4543 38.0343 10.534 38.1116 10.6137 38.189C10.7 38.2728 10.793 38.3566 10.886 38.4339C10.9192 38.4661 10.9524 38.4919 10.9856 38.5177C11.0188 38.5435 11.052 38.5757 11.0852 38.6015C11.1184 38.6273 11.145 38.6531 11.1782 38.6724C11.1848 38.6788 11.1915 38.6853 11.1981 38.6853C11.2114 38.6982 11.2247 38.7046 11.2379 38.7175C11.2645 38.7368 11.2911 38.7562 11.3176 38.782C11.4239 38.8657 11.5368 38.9431 11.6497 39.014C11.7559 39.0849 11.8622 39.1493 11.975 39.2138C11.9883 39.2202 12.0016 39.2331 12.0215 39.2396C12.0282 39.2396 12.0282 39.246 12.0348 39.246C12.1278 39.2976 12.2207 39.3491 12.3137 39.4007C12.3336 39.4136 12.3469 39.42 12.3668 39.4265C12.4133 39.4523 12.4598 39.4716 12.5063 39.4909C12.5461 39.5103 12.586 39.5296 12.6192 39.5425C12.6524 39.5554 12.6856 39.5747 12.7188 39.5876C12.7653 39.607 12.8118 39.6263 12.8582 39.6456C12.8649 39.6521 12.8715 39.6521 12.8782 39.6521C12.9247 39.6714 12.9645 39.6843 13.011 39.7036C13.0442 39.7165 13.0774 39.7294 13.1106 39.7423C13.343 39.8261 13.5821 39.9034 13.8278 39.9615C13.8743 39.9743 13.9207 39.9872 13.9672 39.9937C14.0204 40.0066 14.0801 40.0259 14.1332 40.0388C14.1664 40.0517 14.2063 40.0581 14.2395 40.0646C14.2926 40.0775 14.3524 40.0904 14.4055 40.1032C14.6844 40.1548 14.9567 40.187 15.2356 40.1999C15.2754 40.1999 15.3086 40.1999 15.3485 40.2064C15.3817 40.2064 15.4149 40.2064 15.4547 40.2064C15.5875 40.2128 15.7204 40.2128 15.8532 40.2064C15.9063 40.2064 15.9594 40.2064 16.0125 40.2064C16.0391 40.2064 16.0657 40.2064 16.0856 40.2064C16.1387 40.2064 16.1918 40.2064 16.2516 40.2064C16.318 40.2064 16.3844 40.1999 16.4508 40.1999C16.4707 40.1999 16.484 40.1999 16.5039 40.1999C16.5704 40.1999 16.6368 40.1935 16.7032 40.187C16.7762 40.1806 16.8493 40.1741 16.929 40.1677C16.9688 40.1677 17.002 40.1613 17.0418 40.1548C17.0618 40.1548 17.0883 40.1484 17.1082 40.1484C17.3473 40.1226 17.5797 40.0904 17.8188 40.0517C17.9383 40.0388 18.0512 40.0195 18.1707 40.0066C18.2571 40.0066 18.3168 40.0001 18.3766 39.9937Z" fill="#DAAD1F"/>
<path d="M41.8846 24.2671C42.2166 24.2671 42.542 24.2671 42.8807 24.2671C43.1994 24.5765 43.2193 24.6345 43.2326 25.047C43.2326 25.1243 43.2393 25.2017 43.2393 25.2854C43.2393 25.3692 43.2459 25.4466 43.2459 25.5368C43.2459 25.6206 43.2525 25.7044 43.2525 25.7882C43.2592 25.9944 43.2658 26.1942 43.2725 26.4005C43.3123 26.3425 43.3521 26.278 43.392 26.2136C43.5978 25.9235 43.8436 25.756 44.2021 25.6915C44.8861 25.6335 45.5236 25.7882 46.0615 26.2071C46.4799 26.5938 46.7057 27.045 46.7322 27.6058C46.7322 27.6702 46.7322 27.7347 46.7322 27.7991C46.7322 27.9087 46.7322 27.9087 46.7322 28.0183C46.7322 28.0956 46.7322 28.1729 46.7322 28.2503C46.7322 28.3276 46.7322 28.4114 46.7322 28.4888C46.7322 28.7015 46.7322 28.9077 46.7322 29.1204C46.7322 29.3331 46.7322 29.5522 46.7322 29.7649C46.7322 30.1903 46.7322 30.6093 46.7322 31.0347C46.2939 31.0347 45.8557 31.0347 45.4041 31.0347C45.4041 30.938 45.4041 30.8478 45.4041 30.7446C45.4041 30.3901 45.3975 30.0356 45.3908 29.6812C45.3908 29.5265 45.3908 29.3782 45.3842 29.2235C45.3842 29.0044 45.3775 28.7853 45.3775 28.5661C45.3775 28.4952 45.3775 28.4308 45.3775 28.3599C45.3643 27.8571 45.2779 27.4962 44.9127 27.1353C44.5475 26.987 44.2021 26.9806 43.8104 27.0386C43.5713 27.1997 43.4584 27.3608 43.3455 27.6187C43.3256 27.7798 43.3256 27.7798 43.3256 27.9603C43.3256 28.0312 43.3256 28.0956 43.3189 28.1665C43.3189 28.2761 43.3189 28.2761 43.3189 28.3921C43.3189 28.4694 43.3189 28.5403 43.3123 28.6177C43.3057 28.8562 43.3057 29.1011 43.299 29.3396C43.299 29.5007 43.2924 29.6683 43.2924 29.8294C43.2857 30.229 43.2791 30.6286 43.2725 31.0282C42.8143 31.0282 42.3494 31.0282 41.8779 31.0282C41.8846 28.7981 41.8846 26.5681 41.8846 24.2671Z" fill="#DAAD1F"/>
<path d="M25.0838 25.814C25.542 25.814 26.0068 25.814 26.4783 25.814C26.4783 25.9235 26.4783 26.0396 26.4783 26.1491C26.4783 26.5165 26.485 26.8839 26.485 27.2513C26.485 27.4769 26.4916 27.696 26.4916 27.9216C26.4916 28.1794 26.4982 28.4372 26.4982 28.695C26.4982 28.7724 26.4982 28.8562 26.4982 28.94C26.4982 29.3976 26.4982 29.3976 26.7041 29.7972C27.0295 30.0679 27.3947 30.0357 27.8064 30.0034C28.0123 29.9261 28.0986 29.8745 28.2115 29.6941C28.2779 29.5329 28.2912 29.4105 28.2912 29.23C28.2912 29.1655 28.2912 29.1011 28.2912 29.0366C28.2912 28.9657 28.2912 28.9013 28.2912 28.8304C28.2912 28.6886 28.2979 28.5403 28.2979 28.3985C28.2979 28.173 28.3045 27.9409 28.3045 27.7153C28.3045 27.4962 28.3111 27.2771 28.3111 27.0579C28.3111 26.987 28.3111 26.9226 28.3111 26.8517C28.3178 26.4456 28.3377 26.1943 28.6498 25.9042C28.8689 25.7818 29.035 25.7946 29.2873 25.8011C29.3736 25.8011 29.4533 25.8075 29.5396 25.8075C29.6061 25.8075 29.6658 25.814 29.7322 25.814C29.7389 26.2974 29.7455 26.7808 29.7455 27.2642C29.7455 27.4898 29.7455 27.7153 29.7521 27.9409C29.7588 28.1987 29.7588 28.4566 29.7588 28.7208C29.7588 28.7982 29.7588 28.8819 29.7654 28.9593C29.7654 29.5329 29.6791 30.0743 29.3271 30.5448C28.7627 31.054 28.1053 31.1894 27.3549 31.1894C27.2951 31.1894 27.2353 31.1894 27.1756 31.1894C26.7439 31.1829 26.392 31.1249 26.0135 30.9058C25.9006 30.8413 25.9006 30.8413 25.7877 30.7833C25.3959 30.4804 25.1635 30.1001 25.0838 29.6167C25.0771 29.4878 25.0771 29.3589 25.0771 29.23C25.0771 29.1526 25.0771 29.0753 25.0771 28.998C25.0771 28.9142 25.0771 28.8368 25.0771 28.753C25.0771 28.6692 25.0771 28.5855 25.0771 28.5017C25.0771 28.2761 25.0771 28.0569 25.0771 27.8314C25.0771 27.6058 25.0771 27.3737 25.0771 27.1482C25.0838 26.7034 25.0838 26.2587 25.0838 25.814Z" fill="#DAAD1D"/>
<path d="M17.5334 24.2541C17.6064 24.2541 17.6064 24.2542 17.6795 24.2606C17.799 24.2606 17.9186 24.267 18.0381 24.2735C18.0447 25.0276 18.0514 25.7881 18.058 26.5422C18.058 26.8903 18.0646 27.2448 18.0646 27.5928C18.0713 27.9344 18.0713 28.2696 18.0713 28.6112C18.0713 28.7401 18.0713 28.869 18.0779 28.9979C18.0779 29.1784 18.0779 29.3588 18.0779 29.5393C18.0779 29.5909 18.0779 29.6424 18.0846 29.7004C18.0779 30.1967 17.8588 30.519 17.5068 30.867C16.9158 31.3182 16.1057 31.2924 15.3885 31.2344C14.8506 31.1635 14.4787 30.9186 14.1268 30.5254C13.9076 30.1903 13.8545 29.8165 13.8545 29.4233C13.8545 29.3717 13.8545 29.3137 13.8545 29.2622C13.8545 29.1913 13.8545 29.1268 13.8545 29.0559C13.8545 28.8368 13.8545 28.6241 13.8611 28.3985C14.3193 28.3985 14.7842 28.3985 15.2557 28.3985C15.2557 28.5016 15.2557 28.5983 15.2557 28.7014C15.2557 28.8303 15.2623 28.9657 15.2623 29.0946C15.2623 29.159 15.2623 29.2235 15.2623 29.2944C15.2623 29.6618 15.2623 29.6618 15.4615 29.9582C15.6541 30.0163 15.8201 30.0356 16.0193 30.0356C16.0791 30.0356 16.1455 30.0356 16.2119 30.0356C16.3779 30.0227 16.3779 30.0227 16.4908 29.9454C16.6303 29.752 16.6103 29.5457 16.6037 29.3137C16.6037 29.2622 16.6037 29.2106 16.6037 29.159C16.6037 29.0495 16.6037 28.9399 16.6037 28.8239C16.6037 28.6499 16.6037 28.4694 16.6037 28.2954C16.6037 27.7926 16.6037 27.2963 16.6037 26.7936C16.6037 26.4907 16.6037 26.1813 16.6037 25.8784C16.6037 25.7624 16.6037 25.6463 16.6037 25.5303C16.6037 25.3692 16.6037 25.2016 16.6037 25.0405C16.6037 24.9696 16.6037 24.9696 16.6037 24.8922C16.6103 24.6666 16.6303 24.5442 16.783 24.3702C17.042 24.2348 17.2478 24.2348 17.5334 24.2541Z" fill="#DAAD1E"/>
<path d="M46.5994 16.6616C46.5994 17.2352 46.5994 17.8089 46.5994 18.4018C46.0283 18.4147 46.0283 18.4147 45.849 18.4212C45.4373 18.4405 45.185 18.5501 44.8928 18.8401C44.6272 19.2913 44.6537 19.7747 44.6471 20.2774C44.6471 20.3612 44.6471 20.4386 44.6404 20.5223C44.6404 20.735 44.6338 20.9477 44.6338 21.1604C44.6338 21.3796 44.6272 21.5987 44.6272 21.8178C44.6205 22.2432 44.6139 22.6751 44.6072 23.1005C44.0627 23.1005 43.5115 23.1005 42.9471 23.1005C42.9471 22.5913 42.9404 22.0821 42.9404 21.5729C42.9404 21.3345 42.9404 21.1024 42.9404 20.8639C42.9404 20.6319 42.9404 20.4063 42.9404 20.1743C42.9404 20.0454 42.9404 19.9165 42.9404 19.7876C42.9404 18.8917 43.0865 18.1634 43.7174 17.4802C44.5408 16.7389 45.5236 16.6423 46.5994 16.6616Z" fill="#447C2E"/>
<path d="M8.2168 24.2026C8.56875 24.2026 8.9207 24.2026 9.2793 24.2026C9.61133 24.5249 9.61133 24.5249 9.65117 24.6667C9.65117 24.7118 9.65117 24.7634 9.65117 24.8085C9.65117 24.8923 9.65117 24.8923 9.65117 24.9761C9.65117 25.0341 9.65117 25.0985 9.64453 25.1565C9.64453 25.221 9.64453 25.2854 9.64453 25.3499C9.64453 25.5626 9.64453 25.7688 9.63789 25.9815C9.63789 26.1298 9.63789 26.2716 9.63789 26.4198C9.63789 26.8001 9.63125 27.1868 9.63125 27.5671C9.62461 27.9603 9.62461 28.347 9.62461 28.7401C9.61797 29.5071 9.61797 30.2741 9.61133 31.0411C9.15312 31.0411 8.68828 31.0411 8.2168 31.0411C8.2168 28.7788 8.2168 26.5229 8.2168 24.2026Z" fill="#DAAE20"/>
<path d="M33.7833 14.792C34.9584 14.792 34.9586 14.7926 35.3302 15.1211C35.4829 15.3788 35.4767 15.5851 35.4767 15.875V20.0771C35.4833 21.0504 35.4032 21.9014 34.6661 22.6426C33.9357 23.2419 32.9201 23.3644 31.9972 23.2871C31.2534 23.1969 30.6355 22.9002 30.1241 22.3652C29.9118 22.0946 29.779 21.8172 29.6661 21.4951C29.6463 21.4372 29.6262 21.3792 29.5997 21.3213C29.2744 20.2192 29.3479 18.8661 29.879 17.835C30.2642 17.2355 30.7419 16.732 31.4591 16.5322C32.2161 16.4291 32.8605 16.5266 33.4913 16.9648C33.584 17.0483 33.5844 17.0483 33.7169 17.2412C33.7368 16.4357 33.7634 15.6233 33.7833 14.792ZM33.006 18.0088C32.5412 17.8284 32.0565 17.9183 31.6847 18.2275C31.1933 18.7303 31.0999 19.3107 31.1066 19.9746C31.1199 20.5289 31.2334 21.16 31.6583 21.5596C32.0035 21.8237 32.2886 21.8566 32.7267 21.8438C33.0852 21.7986 33.2847 21.6695 33.5304 21.4053C33.889 20.7221 34.0415 19.9807 33.8888 19.2266C33.7162 18.6854 33.5238 18.3052 33.006 18.0088Z" fill="#447D2E"/>
<path d="M35.509 24.2666C35.8078 24.5566 35.8079 24.5893 35.8079 24.9824V28.3408C35.8078 29.2366 35.7549 30.0679 35.0842 30.751C34.5464 31.1827 33.7566 31.2732 33.0793 31.2539C32.2958 31.183 31.6776 30.9504 31.1663 30.3574C30.6154 29.539 30.5357 28.5081 30.7083 27.5674C30.9208 26.852 31.2661 26.2455 31.9368 25.8652C32.4679 25.6204 33.0922 25.5816 33.6565 25.749C34.0017 25.9036 34.1348 26.0265 34.387 26.3291C34.4002 25.6461 34.4266 24.969 34.4465 24.2666H35.509ZM33.7698 26.9805C33.2188 26.8323 32.8136 26.8514 32.3821 27.2314C32.1497 27.5602 32.0901 27.8637 32.0901 28.2568C32.0967 28.3212 32.0969 28.3795 32.0969 28.4375C32.0969 28.9722 32.1301 29.3327 32.5217 29.7451C32.8272 30.0158 33.0793 30.0418 33.4778 30.0225C33.7898 29.9838 33.9231 29.8746 34.1223 29.6426C34.4609 29.0433 34.5267 28.4373 34.4006 27.7607C34.2545 27.4127 34.1018 27.1803 33.7698 26.9805Z" fill="#DAAD1E"/>
<path d="M19.9051 26.1938C20.8148 25.511 22.1424 25.4726 23.0985 26.104C23.6164 26.5036 23.9492 27.0579 24.0887 27.6831C24.1684 28.7336 24.1616 29.7457 23.4246 30.5835C22.9399 31.0604 22.2689 31.2405 21.5916 31.2534C20.828 31.2276 20.1902 31.0154 19.659 30.4741C19.1477 29.8683 18.9879 29.0302 19.0477 28.2632C19.0543 28.1988 19.0547 28.128 19.0614 28.0571C19.1344 27.361 19.3606 26.6837 19.9051 26.1938ZM21.9627 26.9741C21.5643 26.9354 21.2516 26.9093 20.9461 27.1606C20.5146 27.6375 20.462 28.0954 20.4686 28.7075C20.4885 29.236 20.6209 29.6106 21.0194 29.978C21.2916 30.094 21.5311 30.1001 21.8299 30.0679C22.1484 29.9648 22.3476 29.8165 22.5135 29.5396C22.7393 29.0111 22.8193 28.3018 22.6268 27.7476C22.4807 27.3867 22.341 27.1353 21.9627 26.9741Z" fill="#DAAD1E"/>
<path d="M24.2943 17.0222C25.3303 16.2426 27.2032 16.3651 28.2855 17.0095C28.5842 17.2544 28.7965 17.5772 28.8695 17.9509C28.8761 18.0604 28.8831 18.1702 28.8831 18.2732V19.3552C28.8831 19.5099 28.8824 19.6654 28.889 19.8201C28.889 20.0455 28.8958 20.2714 28.8958 20.4968C28.8958 20.5676 28.896 20.6321 28.9027 20.7029C28.9027 21.4053 28.7233 22.0691 28.2054 22.5847C27.402 23.3065 26.4258 23.3386 25.39 23.3064C25.058 23.2806 24.7788 23.1906 24.4867 23.0359C24.4137 22.9973 24.3409 22.9583 24.2679 22.9197C23.8894 22.6232 23.5769 22.2882 23.4906 21.8113C23.4441 21.2183 23.3976 20.5867 23.7562 20.071C24.387 19.3621 25.2176 19.2456 26.1273 19.0974C26.6779 19.0073 26.6782 19.0075 27.1429 18.7175C27.2226 18.492 27.2226 18.4919 27.2093 18.2664C27.0433 18.0279 26.9569 18.015 26.6781 17.9441C26.4457 17.9183 26.4455 17.9181 26.2132 17.9246C26.1335 17.9246 26.0537 17.9251 25.974 17.9187C25.7217 17.9445 25.5624 18.0022 25.3499 18.1375C25.3234 18.1826 25.2904 18.2281 25.2572 18.2732C25.151 18.3955 25.1506 18.3953 24.9915 18.4275C24.9318 18.4275 24.8716 18.4271 24.8119 18.4207H24.6126C24.5463 18.4206 24.4796 18.4148 24.4066 18.4148C24.3008 18.4148 24.3006 18.4144 24.2015 18.408C24.0289 18.408 23.8624 18.4017 23.6898 18.3953C23.7363 17.8346 23.8693 17.4218 24.2943 17.0222ZM27.2747 20.0134C27.0759 20.0134 27.0754 20.0133 26.8763 20.0583C26.7305 20.1034 26.5912 20.1351 26.4388 20.1609C26.0737 20.2189 25.7346 20.2899 25.4027 20.4509C25.2167 20.5605 25.1497 20.6382 25.0833 20.8445C25.0501 21.1796 25.0171 21.4569 25.2162 21.7468C25.402 21.8757 25.5218 21.9339 25.7474 21.9597C25.8536 21.9533 25.854 21.9529 25.9535 21.9529C26.2257 21.9529 26.4255 21.9337 26.6712 21.8113C26.7175 21.7856 26.7636 21.7598 26.8099 21.7341C26.9493 21.6568 26.9495 21.6564 27.0755 21.5535C27.268 21.2764 27.3019 21.0509 27.2953 20.7224C27.2953 20.6708 27.2884 20.6187 27.2884 20.5671C27.2818 20.3804 27.2814 20.2001 27.2747 20.0134Z" fill="#457D2F"/>
<path d="M8.72145 16.9519C9.77055 16.3074 11.4841 16.3455 12.5466 16.9705C12.872 17.2089 13.0718 17.5126 13.198 17.8865C13.2046 17.9895 13.2041 18.0989 13.2107 18.2019V19.2908C13.2107 19.5228 13.2109 19.7554 13.2175 19.9939V20.6511C13.2175 21.4246 13.0316 22.0564 12.4871 22.6365C11.8031 23.268 10.8005 23.3384 9.90407 23.3191C9.25993 23.2869 8.72829 23.1134 8.26344 22.6687C7.81861 22.1403 7.75919 21.5086 7.81227 20.8513C7.91852 20.4002 8.09785 19.9812 8.47633 19.6912C9.09384 19.3303 9.79087 19.2142 10.4881 19.1111C10.8599 19.0531 11.2521 18.995 11.531 18.7244C11.5509 18.5376 11.5641 18.3891 11.531 18.2087C11.3252 17.9832 11.0857 17.9566 10.7869 17.9373H10.5476C10.4682 17.9372 10.3888 17.9314 10.3093 17.9314C10.0504 17.9572 9.89756 18.009 9.67848 18.1443C9.63202 18.228 9.59214 18.3119 9.54567 18.4021H8.01833C8.09135 17.7448 8.20383 17.3707 8.72145 16.9519ZM11.6033 20.0134C11.517 20.0134 11.5166 20.0126 11.0584 20.0964C10.9722 20.1157 10.972 20.1158 10.8923 20.1287C10.7729 20.1544 10.6464 20.181 10.5203 20.2068C10.2748 20.2519 10.0425 20.2967 9.81032 20.3933C9.56462 20.5738 9.43141 20.7478 9.36501 21.0378C9.37165 21.1281 9.37204 21.1283 9.37868 21.2185C9.38532 21.4569 9.39863 21.5406 9.54469 21.7468C9.78371 21.9015 9.98283 21.9533 10.2683 21.9597C10.7199 21.9468 11.0787 21.8693 11.4041 21.5535C11.5965 21.27 11.6294 21.0509 11.6228 20.7224C11.6228 20.6708 11.616 20.6187 11.616 20.5671C11.6094 20.3804 11.6099 20.2001 11.6033 20.0134Z" fill="#457D2F"/>
<path d="M10.6074 27.7476C11.4176 27.7476 12.2277 27.7476 13.0645 27.7476C13.0645 28.1536 13.0645 28.5532 13.0645 28.9722C12.2344 28.9722 11.3977 28.9722 10.541 28.9722C10.541 27.8765 10.541 27.8765 10.6074 27.7476Z" fill="#DAAD1F"/>
<path d="M4.31152 24.1963H4.49805C4.65072 24.1963 4.80358 24.2021 4.96289 24.2021C5.30153 24.9433 5.57366 25.7106 5.85254 26.4775C5.90561 26.6192 5.95865 26.7611 6.01172 26.9092C6.0914 27.1283 6.1713 27.3479 6.25098 27.5605C6.42359 28.0245 6.59594 28.495 6.76855 28.959C6.83495 29.133 6.89552 29.3006 6.96191 29.4746C7.00173 29.5841 7.04124 29.6938 7.08105 29.7969C7.13418 29.9451 7.19395 30.0939 7.24707 30.2422C7.26035 30.2872 7.28069 30.3261 7.29395 30.3711C7.37356 30.5901 7.43304 30.7964 7.47949 31.0283H5.88574C5.73302 30.603 5.58026 30.1775 5.4209 29.7393H2.89746C2.74474 30.1646 2.59198 30.5901 2.43262 31.0283H0.97168C1.05801 30.6609 1.13086 30.351 1.26367 30.0029C1.29683 29.9192 1.33012 29.8288 1.36328 29.7451C1.38313 29.7001 1.39712 29.6554 1.41699 29.6104C1.71582 28.824 2.00801 28.0307 2.28027 27.2314C2.30676 27.1543 2.33289 27.0771 2.35938 27C2.49219 26.6133 2.625 26.2324 2.75781 25.8457C2.80426 25.704 2.85786 25.5626 2.9043 25.4209C2.92422 25.3564 2.95078 25.2916 2.9707 25.2207C3.29589 24.3133 3.33659 24.1994 3.74609 24.1895H4.12598C4.18562 24.1895 4.25185 24.1899 4.31152 24.1963ZM4.09961 25.6846C4.06643 25.8327 4.02029 25.9813 3.98047 26.123C3.95391 26.1939 3.93378 26.2651 3.90723 26.3359C3.85415 26.4969 3.80112 26.6515 3.74805 26.8125C3.72148 26.8963 3.69453 26.9744 3.66797 27.0518C3.64144 27.1354 3.61539 27.2128 3.58887 27.29C3.46934 27.6574 3.46893 27.6573 3.24316 28.5273H5.10254C5.10254 28.3342 5.10245 28.3341 5.06934 28.2119C5.05605 28.1604 5.03574 28.1145 5.02246 28.0693C4.99607 27.9861 4.99623 27.9854 4.96973 27.9082C4.94985 27.8503 4.93003 27.7922 4.91016 27.7344C4.85041 27.554 4.79021 27.3669 4.73047 27.1865C4.69066 27.0578 4.6443 26.9354 4.60449 26.8066C4.47832 26.4328 4.35859 26.0584 4.23242 25.6846H4.09961Z" fill="#DAAD1F"/>
<path d="M37.1035 17.1837C38.093 16.2622 39.7731 16.3004 40.8887 16.9835C41.4198 17.3702 41.8183 18.0278 41.9512 18.6593C41.9645 18.9171 41.9639 19.1753 41.9639 19.4396C41.9639 19.5104 41.9641 19.5816 41.9707 19.6525V20.045C41.9442 20.2383 41.9043 20.2837 41.7451 20.3995C41.5791 20.4253 41.5789 20.4259 41.373 20.4259C41.3 20.4259 41.2203 20.4253 41.1406 20.4318H40.8945C40.7687 20.4318 40.7686 20.4322 40.6426 20.4386C40.4234 20.4386 40.1977 20.4445 39.9785 20.4445C39.7529 20.4445 39.5272 20.4513 39.2949 20.4513C38.8501 20.4577 38.4048 20.464 37.96 20.464C37.9865 20.5992 38.0125 20.7282 38.0391 20.8634C38.059 20.9728 38.0595 20.9734 38.0859 21.089C38.1789 21.3725 38.305 21.5663 38.5771 21.7081C38.9889 21.8177 39.4475 21.8113 39.8525 21.6759C40.0249 21.5665 40.0252 21.5665 40.1445 21.3927C40.4566 21.1543 40.7487 21.205 41.1338 21.2179C41.2068 21.2179 41.2738 21.2183 41.3535 21.2247C41.5261 21.2312 41.7054 21.231 41.8779 21.2374C41.7319 21.9721 41.3864 22.475 40.749 22.9132C39.9588 23.2999 38.9494 23.3899 38.0928 23.1837C37.4753 22.9711 36.9641 22.5913 36.6387 22.0372C36.3133 21.3348 36.2266 20.6643 36.2266 19.9103V19.6906C36.2266 18.7368 36.4196 17.8991 37.1035 17.1837ZM39.8262 18.0792C39.388 17.8408 38.9562 17.7957 38.498 18.0148C38.1461 18.2854 38.146 18.2857 37.9004 19.2394H40.3574V18.9816C40.2644 18.6143 40.105 18.3434 39.8262 18.0792Z" fill="#457D2E"/>
<path d="M37.5684 25.9617C38.3387 25.5751 39.4345 25.5307 40.2246 25.8787C40.2711 25.898 40.3247 25.9174 40.3711 25.9431C40.6962 26.1106 40.8622 26.3169 41.0215 26.6326C41.1542 27.0579 41.1346 27.4897 41.1279 27.9343V28.4373C41.1279 29.2235 41.108 29.9972 40.4971 30.5837C39.8662 31.1187 39.1021 31.2082 38.292 31.1824C37.7409 31.1437 37.3753 31.0085 36.957 30.6541C36.7016 30.344 36.6289 30.0437 36.6191 29.6843V29.3777C36.6325 28.9462 36.6983 28.6625 37.0234 28.3533C37.4551 28.0246 37.9734 27.9476 38.498 27.8445C38.7105 27.8058 38.9164 27.7539 39.1289 27.7087C39.1953 27.6958 39.2619 27.6767 39.335 27.6638C39.5074 27.6252 39.5077 27.6247 39.7002 27.5603C39.7068 27.4766 39.7131 27.3989 39.7197 27.3152C39.7263 27.2448 39.7268 27.2446 39.7334 27.1804C39.7135 27.0322 39.7133 27.032 39.5605 26.9353C39.1688 26.7677 38.7305 26.8003 38.332 26.9421C38.1595 27.0452 38.1595 27.0451 38.04 27.2449C37.9074 27.2642 37.907 27.2644 37.748 27.2644H37.5752C37.5154 27.2644 37.4553 27.2576 37.3955 27.2576H37.2168C37.0707 27.2576 36.9242 27.2507 36.7715 27.2507C36.7913 27.1607 36.8112 27.0644 36.8311 26.9744C36.8443 26.897 36.8443 26.8964 36.8643 26.8191C36.9705 26.4325 37.243 26.1937 37.5684 25.9617ZM39.7598 28.5212C39.5273 28.5212 39.3344 28.566 39.1152 28.6111C39.0555 28.6304 39.0021 28.6431 38.9424 28.656C38.6769 28.714 38.4118 28.7727 38.1729 28.908C38.0002 29.0304 37.9135 29.1207 37.8604 29.3269C37.8669 29.3847 37.8674 29.4361 37.874 29.4939C37.8807 29.6679 37.8871 29.7777 37.9668 29.9324C38.146 30.0355 38.2991 30.1191 38.5049 30.1384C38.8965 30.1448 39.2552 30.0483 39.5605 29.8035C39.6999 29.5908 39.7594 29.4421 39.7793 29.1843C39.7793 29.0623 39.7791 29.0619 39.7725 28.946C39.7658 28.8045 39.7664 28.6628 39.7598 28.5212Z" fill="#DAAD1F"/>
<path d="M25.6152 0.999527C25.5488 1.12843 25.5488 1.12843 25.3496 1.25734C25.1105 1.32824 24.8648 1.3798 24.6191 1.43136C24.5195 1.45714 24.5195 1.45714 24.4133 1.47648C24.3469 1.48937 24.2871 1.50226 24.2207 1.5216C24.1609 1.53449 24.1012 1.54738 24.0414 1.56027C23.8887 1.5796 23.8887 1.57961 23.6895 1.51515C23.8953 1.44425 24.1012 1.36691 24.307 1.29601C24.3668 1.27668 24.4266 1.25089 24.4863 1.23156C24.5395 1.21222 24.5992 1.19289 24.659 1.17355C24.7121 1.15421 24.7652 1.13488 24.8184 1.11554C25.0973 1.01242 25.3164 0.993082 25.6152 0.999527Z" fill="#D7AA2A"/>
<path d="M3.63457 24.2026C4.07285 24.2026 4.51113 24.2026 4.9627 24.2026C4.98262 24.3122 5.00918 24.4153 5.0291 24.5249C4.98262 24.4798 4.94277 24.4411 4.89629 24.396C4.76348 24.3702 4.76348 24.3702 4.6041 24.3702C4.54434 24.3702 4.49121 24.3638 4.43145 24.3638C4.37168 24.3638 4.31191 24.3573 4.25215 24.3573C4.19238 24.3573 4.13262 24.3509 4.07285 24.3509C3.92676 24.3444 3.78066 24.338 3.62793 24.3315C3.63457 24.2864 3.63457 24.2478 3.63457 24.2026Z" fill="#DAB032"/>
<path d="M44.5473 25.6721C44.6336 25.6721 44.6336 25.6721 44.7199 25.6721C44.866 25.685 44.866 25.685 44.9988 25.8139C44.8461 25.8268 44.6934 25.8397 44.5406 25.8526C44.4144 25.8655 44.4144 25.8655 44.2816 25.8784C44.2086 25.8784 44.1355 25.8784 44.0625 25.8784C44.016 25.8333 43.9762 25.7946 43.9297 25.7495C44.1488 25.6915 44.3348 25.6721 44.5473 25.6721Z" fill="#D9AF2F"/>
<path d="M30.8613 27.103C30.9277 27.103 30.9941 27.103 31.0605 27.103C31.0406 27.1997 31.0273 27.2964 31.0074 27.3866C30.9941 27.4382 30.9875 27.4897 30.9742 27.5478C30.9609 27.5929 30.941 27.638 30.9277 27.6831C30.8613 27.7024 30.7949 27.7282 30.7285 27.7476C30.7617 27.522 30.7883 27.3157 30.8613 27.103Z" fill="#DBB02D"/>
<path d="M42.2836 10.9253C42.3035 10.9253 42.33 10.9253 42.35 10.9253C42.3699 11.1573 42.3964 11.3958 42.4164 11.6343C42.3699 11.6343 42.33 11.6343 42.2836 11.6343C42.1972 11.4731 42.2238 11.3829 42.2437 11.2089C42.2504 11.1573 42.257 11.1058 42.2636 11.0478C42.2703 11.0091 42.2769 10.964 42.2836 10.9253Z" fill="#DAB12E"/>
<path d="M2.37305 26.9741C2.41953 27.0386 2.45937 27.103 2.50586 27.1675C2.44609 27.406 2.44609 27.406 2.37305 27.6187C2.3 27.5155 2.3 27.5155 2.24023 27.3608C2.3 27.1546 2.3 27.1546 2.37305 26.9741Z" fill="#DDB331"/>
<path d="M16.9824 19.8843C17.0488 19.9036 17.1152 19.9294 17.1816 19.9487C17.1617 20.097 17.1352 20.2452 17.1152 20.3999C17.0488 20.3999 16.9824 20.3999 16.916 20.3999C16.9359 20.2323 16.9625 20.0583 16.9824 19.8843Z" fill="#4D803A"/>
<path d="M75.4042 34.2775H71.7562L60.7802 17.6695V34.2775H57.1322V12.0055H60.7802L71.7562 28.5815V12.0055H75.4042V34.2775ZM78.0187 25.3815C78.0187 23.6108 78.3814 22.0428 79.1067 20.6775C79.8534 19.3121 80.8561 18.2561 82.1147 17.5095C83.3947 16.7415 84.8027 16.3575 86.3387 16.3575C87.7254 16.3575 88.9307 16.6348 89.9547 17.1895C91.0001 17.7228 91.8321 18.3948 92.4507 19.2055V16.6455H96.1307V34.2775H92.4507V31.6535C91.8321 32.4855 90.9894 33.1788 89.9227 33.7335C88.8561 34.2881 87.6401 34.5655 86.2747 34.5655C84.7601 34.5655 83.3734 34.1815 82.1147 33.4135C80.8561 32.6241 79.8534 31.5361 79.1067 30.1495C78.3814 28.7415 78.0187 27.1521 78.0187 25.3815ZM92.4507 25.4455C92.4507 24.2295 92.1947 23.1735 91.6827 22.2775C91.1921 21.3815 90.5414 20.6988 89.7307 20.2295C88.9201 19.7601 88.0454 19.5255 87.1067 19.5255C86.1681 19.5255 85.2934 19.7601 84.4827 20.2295C83.6721 20.6775 83.0107 21.3495 82.4987 22.2455C82.0081 23.1201 81.7627 24.1655 81.7627 25.3815C81.7627 26.5975 82.0081 27.6641 82.4987 28.5815C83.0107 29.4988 83.6721 30.2028 84.4827 30.6935C85.3147 31.1628 86.1894 31.3975 87.1067 31.3975C88.0454 31.3975 88.9201 31.1628 89.7307 30.6935C90.5414 30.2241 91.1921 29.5415 91.6827 28.6455C92.1947 27.7281 92.4507 26.6615 92.4507 25.4455ZM123.642 16.6455L118.17 34.2775H114.33L110.778 21.2535L107.226 34.2775H103.386L97.8822 16.6455H101.594L105.274 30.8215L109.018 16.6455H112.826L116.41 30.7575L120.058 16.6455H123.642ZM124.192 25.3815C124.192 23.6108 124.555 22.0428 125.28 20.6775C126.027 19.3121 127.03 18.2561 128.288 17.5095C129.568 16.7415 130.976 16.3575 132.512 16.3575C133.899 16.3575 135.104 16.6348 136.128 17.1895C137.174 17.7228 138.006 18.3948 138.624 19.2055V16.6455H142.304V34.2775H138.624V31.6535C138.006 32.4855 137.163 33.1788 136.096 33.7335C135.03 34.2881 133.814 34.5655 132.448 34.5655C130.934 34.5655 129.547 34.1815 128.288 33.4135C127.03 32.6241 126.027 31.5361 125.28 30.1495C124.555 28.7415 124.192 27.1521 124.192 25.3815ZM138.624 25.4455C138.624 24.2295 138.368 23.1735 137.856 22.2775C137.366 21.3815 136.715 20.6988 135.904 20.2295C135.094 19.7601 134.219 19.5255 133.28 19.5255C132.342 19.5255 131.467 19.7601 130.656 20.2295C129.846 20.6775 129.184 21.3495 128.672 22.2455C128.182 23.1201 127.936 24.1655 127.936 25.3815C127.936 26.5975 128.182 27.6641 128.672 28.5815C129.184 29.4988 129.846 30.2028 130.656 30.6935C131.488 31.1628 132.363 31.3975 133.28 31.3975C134.219 31.3975 135.094 31.1628 135.904 30.6935C136.715 30.2241 137.366 29.5415 137.856 28.6455C138.368 27.7281 138.624 26.6615 138.624 25.4455ZM144.92 25.3815C144.92 23.6108 145.283 22.0428 146.008 20.6775C146.755 19.3121 147.757 18.2561 149.016 17.5095C150.296 16.7415 151.715 16.3575 153.272 16.3575C154.424 16.3575 155.555 16.6135 156.664 17.1255C157.795 17.6161 158.691 18.2775 159.352 19.1095V10.5975H163.032V34.2775H159.352V31.6215C158.755 32.4748 157.923 33.1788 156.856 33.7335C155.811 34.2881 154.605 34.5655 153.24 34.5655C151.704 34.5655 150.296 34.1815 149.016 33.4135C147.757 32.6241 146.755 31.5361 146.008 30.1495C145.283 28.7415 144.92 27.1521 144.92 25.3815ZM159.352 25.4455C159.352 24.2295 159.096 23.1735 158.584 22.2775C158.093 21.3815 157.443 20.6988 156.632 20.2295C155.821 19.7601 154.947 19.5255 154.008 19.5255C153.069 19.5255 152.195 19.7601 151.384 20.2295C150.573 20.6775 149.912 21.3495 149.4 22.2455C148.909 23.1201 148.664 24.1655 148.664 25.3815C148.664 26.5975 148.909 27.6641 149.4 28.5815C149.912 29.4988 150.573 30.2028 151.384 30.6935C152.216 31.1628 153.091 31.3975 154.008 31.3975C154.947 31.3975 155.821 31.1628 156.632 30.6935C157.443 30.2241 158.093 29.5415 158.584 28.6455C159.096 27.7281 159.352 26.6615 159.352 25.4455ZM183.023 25.0295C183.023 25.6908 182.981 26.2881 182.895 26.8215H169.423C169.53 28.2295 170.053 29.3601 170.991 30.2135C171.93 31.0668 173.082 31.4935 174.447 31.4935C176.41 31.4935 177.797 30.6721 178.607 29.0295H182.543C182.01 30.6508 181.039 31.9841 179.631 33.0295C178.245 34.0535 176.517 34.5655 174.447 34.5655C172.762 34.5655 171.247 34.1921 169.903 33.4455C168.581 32.6775 167.535 31.6108 166.767 30.2455C166.021 28.8588 165.647 27.2588 165.647 25.4455C165.647 23.6321 166.01 22.0428 166.735 20.6775C167.482 19.2908 168.517 18.2241 169.839 17.4775C171.183 16.7308 172.719 16.3575 174.447 16.3575C176.111 16.3575 177.594 16.7201 178.895 17.4455C180.197 18.1708 181.21 19.1948 181.935 20.5175C182.661 21.8188 183.023 23.3228 183.023 25.0295ZM179.215 23.8775C179.194 22.5335 178.714 21.4561 177.775 20.6455C176.837 19.8348 175.674 19.4295 174.287 19.4295C173.029 19.4295 171.951 19.8348 171.055 20.6455C170.159 21.4348 169.626 22.5121 169.455 23.8775H179.215ZM189.301 19.2055C189.835 18.3095 190.539 17.6161 191.413 17.1255C192.309 16.6135 193.365 16.3575 194.581 16.3575V20.1335H193.653C192.224 20.1335 191.136 20.4961 190.389 21.2215C189.664 21.9468 189.301 23.2055 189.301 24.9975V34.2775H185.653V16.6455H189.301V19.2055ZM217.735 29.7335H208.423L206.823 34.2775H203.015L210.983 12.0055H215.207L223.175 34.2775H219.335L217.735 29.7335ZM216.711 26.7575L213.095 16.4215L209.447 26.7575H216.711ZM229.328 10.5975V34.2775H225.68V10.5975H229.328ZM246.693 21.1575V24.2295H233.541V21.1575H246.693ZM263.044 12.0375V28.0695C263.044 30.0535 262.436 31.6215 261.22 32.7735C260.025 33.9255 258.447 34.5015 256.484 34.5015C254.521 34.5015 252.932 33.9255 251.716 32.7735C250.521 31.6215 249.924 30.0535 249.924 28.0695H253.604C253.625 29.0508 253.871 29.8295 254.34 30.4055C254.831 30.9815 255.545 31.2695 256.484 31.2695C257.423 31.2695 258.137 30.9815 258.628 30.4055C259.119 29.8081 259.364 29.0295 259.364 28.0695V12.0375H263.044ZM275.666 34.5655C274.002 34.5655 272.498 34.1921 271.154 33.4455C269.81 32.6775 268.754 31.6108 267.986 30.2455C267.218 28.8588 266.834 27.2588 266.834 25.4455C266.834 23.6535 267.229 22.0641 268.018 20.6775C268.808 19.2908 269.885 18.2241 271.25 17.4775C272.616 16.7308 274.141 16.3575 275.826 16.3575C277.512 16.3575 279.037 16.7308 280.402 17.4775C281.768 18.2241 282.845 19.2908 283.634 20.6775C284.424 22.0641 284.818 23.6535 284.818 25.4455C284.818 27.2375 284.413 28.8268 283.602 30.2135C282.792 31.6001 281.682 32.6775 280.274 33.4455C278.888 34.1921 277.352 34.5655 275.666 34.5655ZM275.666 31.3975C276.605 31.3975 277.48 31.1735 278.29 30.7255C279.122 30.2775 279.794 29.6055 280.306 28.7095C280.818 27.8135 281.074 26.7255 281.074 25.4455C281.074 24.1655 280.829 23.0881 280.338 22.2135C279.848 21.3175 279.197 20.6455 278.386 20.1975C277.576 19.7495 276.701 19.5255 275.762 19.5255C274.824 19.5255 273.949 19.7495 273.138 20.1975C272.349 20.6455 271.72 21.3175 271.25 22.2135C270.781 23.0881 270.546 24.1655 270.546 25.4455C270.546 27.3441 271.026 28.8161 271.986 29.8615C272.968 30.8855 274.194 31.3975 275.666 31.3975ZM303.433 16.6455V34.2775H299.785V32.1975C299.209 32.9228 298.451 33.4988 297.513 33.9255C296.595 34.3308 295.614 34.5335 294.569 34.5335C293.182 34.5335 291.934 34.2455 290.825 33.6695C289.737 33.0935 288.873 32.2401 288.233 31.1095C287.614 29.9788 287.305 28.6135 287.305 27.0135V16.6455H290.921V26.4695C290.921 28.0481 291.315 29.2641 292.105 30.1175C292.894 30.9495 293.971 31.3655 295.337 31.3655C296.702 31.3655 297.779 30.9495 298.569 30.1175C299.379 29.2641 299.785 28.0481 299.785 26.4695V16.6455H303.433ZM306.07 25.3815C306.07 23.6108 306.433 22.0428 307.158 20.6775C307.905 19.3121 308.907 18.2561 310.166 17.5095C311.446 16.7415 312.865 16.3575 314.422 16.3575C315.574 16.3575 316.705 16.6135 317.814 17.1255C318.945 17.6161 319.841 18.2775 320.502 19.1095V10.5975H324.182V34.2775H320.502V31.6215C319.905 32.4748 319.073 33.1788 318.006 33.7335C316.961 34.2881 315.755 34.5655 314.39 34.5655C312.854 34.5655 311.446 34.1815 310.166 33.4135C308.907 32.6241 307.905 31.5361 307.158 30.1495C306.433 28.7415 306.07 27.1521 306.07 25.3815ZM320.502 25.4455C320.502 24.2295 320.246 23.1735 319.734 22.2775C319.243 21.3815 318.593 20.6988 317.782 20.2295C316.971 19.7601 316.097 19.5255 315.158 19.5255C314.219 19.5255 313.345 19.7601 312.534 20.2295C311.723 20.6775 311.062 21.3495 310.55 22.2455C310.059 23.1201 309.814 24.1655 309.814 25.3815C309.814 26.5975 310.059 27.6641 310.55 28.5815C311.062 29.4988 311.723 30.2028 312.534 30.6935C313.366 31.1628 314.241 31.3975 315.158 31.3975C316.097 31.3975 316.971 31.1628 317.782 30.6935C318.593 30.2241 319.243 29.5415 319.734 28.6455C320.246 27.7281 320.502 26.6615 320.502 25.4455ZM326.797 25.3815C326.797 23.6108 327.16 22.0428 327.885 20.6775C328.632 19.3121 329.635 18.2561 330.893 17.5095C332.173 16.7415 333.581 16.3575 335.117 16.3575C336.504 16.3575 337.709 16.6348 338.733 17.1895C339.779 17.7228 340.611 18.3948 341.229 19.2055V16.6455H344.909V34.2775H341.229V31.6535C340.611 32.4855 339.768 33.1788 338.701 33.7335C337.635 34.2881 336.419 34.5655 335.053 34.5655C333.539 34.5655 332.152 34.1815 330.893 33.4135C329.635 32.6241 328.632 31.5361 327.885 30.1495C327.16 28.7415 326.797 27.1521 326.797 25.3815ZM341.229 25.4455C341.229 24.2295 340.973 23.1735 340.461 22.2775C339.971 21.3815 339.32 20.6988 338.509 20.2295C337.699 19.7601 336.824 19.5255 335.885 19.5255C334.947 19.5255 334.072 19.7601 333.261 20.2295C332.451 20.6775 331.789 21.3495 331.277 22.2455C330.787 23.1201 330.541 24.1655 330.541 25.3815C330.541 26.5975 330.787 27.6641 331.277 28.5815C331.789 29.4988 332.451 30.2028 333.261 30.6935C334.093 31.1628 334.968 31.3975 335.885 31.3975C336.824 31.3975 337.699 31.1628 338.509 30.6935C339.32 30.2241 339.971 29.5415 340.461 28.6455C340.973 27.7281 341.229 26.6615 341.229 25.4455Z" fill="#173B1A"/>
</svg>
