<svg width="47" height="47" viewBox="0 0 47 47" fill="none" xmlns="http://www.w3.org/2000/svg">
<path d="M16.4609 42.1785C17.6496 42.4427 18.9379 42.4749 20.0668 42.2494C21.541 41.9851 22.7496 41.3921 23.4734 40.5736C23.7988 40.2062 24.0047 39.813 24.091 39.407C21.7734 40.8507 19.1969 41.8755 16.4609 42.1785ZM16.4609 42.1785C17.6496 42.4427 18.9379 42.4749 20.0668 42.2494C21.541 41.9851 22.7496 41.3921 23.4734 40.5736C23.7988 40.2062 24.0047 39.813 24.091 39.407C21.7734 40.8507 19.1969 41.8755 16.4609 42.1785ZM16.4609 42.1785C17.6496 42.4427 18.9379 42.4749 20.0668 42.2494C21.541 41.9851 22.7496 41.3921 23.4734 40.5736C23.7988 40.2062 24.0047 39.813 24.091 39.407C21.7734 40.8507 19.1969 41.8755 16.4609 42.1785ZM16.4609 42.1785C17.6496 42.4427 18.9379 42.4749 20.0668 42.2494C21.541 41.9851 22.7496 41.3921 23.4734 40.5736C23.7988 40.2062 24.0047 39.813 24.091 39.407C21.7734 40.8507 19.1969 41.8755 16.4609 42.1785ZM16.4609 42.1785C17.6496 42.4427 18.9379 42.4749 20.0668 42.2494C21.541 41.9851 22.7496 41.3921 23.4734 40.5736C23.7988 40.2062 24.0047 39.813 24.091 39.407C21.7734 40.8507 19.1969 41.8755 16.4609 42.1785ZM16.4609 42.1785C17.6496 42.4427 18.9379 42.4749 20.0668 42.2494C21.541 41.9851 22.7496 41.3921 23.4734 40.5736C23.7988 40.2062 24.0047 39.813 24.091 39.407C21.7734 40.8507 19.1969 41.8755 16.4609 42.1785ZM16.4609 42.1785C17.6496 42.4427 18.9379 42.4749 20.0668 42.2494C21.541 41.9851 22.7496 41.3921 23.4734 40.5736C23.7988 40.2062 24.0047 39.813 24.091 39.407C21.7734 40.8507 19.1969 41.8755 16.4609 42.1785ZM16.4609 42.1785C17.6496 42.4427 18.9379 42.4749 20.0668 42.2494C21.541 41.9851 22.7496 41.3921 23.4734 40.5736C23.7988 40.2062 24.0047 39.813 24.091 39.407C21.7734 40.8507 19.1969 41.8755 16.4609 42.1785Z" fill="#457D2F"/>
<path d="M26.8242 36.178C26.6051 36.004 26.3926 35.8235 26.1801 35.6495C26.0207 35.5206 25.868 35.3981 25.6953 35.2886V35.1597C25.6953 35.1597 25.6953 35.1597 25.702 35.1597C25.868 35.3015 26.034 35.4368 26.2066 35.5722C26.2398 35.598 26.2797 35.6302 26.3129 35.656C26.3793 35.7075 26.4457 35.7591 26.5121 35.8106C26.6184 35.8944 26.7246 35.9782 26.8242 36.062C26.8309 36.12 26.8375 36.1522 26.8242 36.178Z" fill="white"/>
<path d="M29.4148 41.489L29.1824 41.7983L28.9367 42.1013L27.157 41.9788L27.084 41.9724C27.0242 42.0304 26.9645 42.0948 26.9047 42.1528C26.5062 42.5331 26.068 42.8812 25.5965 43.197L26.2074 44.3378C26.0082 44.4538 25.6031 44.6729 25.4039 44.7761L23.8301 44.1638C23.1328 44.4667 22.4754 44.6987 21.7449 44.8985L21.5855 46.1231L21.0875 46.2263L20.5894 46.3165L19.6066 45.3626L19.5668 45.3239C18.7898 45.4206 18.0062 45.4657 17.2492 45.4528L16.9969 45.7622L16.3461 46.555L15.8414 46.5228L15.3367 46.4712L15.1508 45.7235L15.0711 45.4013L15.0379 45.2788L15.0312 45.2724C15.0312 45.2724 15.9809 45.2788 16.459 45.2595C16.4723 45.2595 16.4789 45.2595 16.4922 45.2595C16.5055 45.2595 16.5121 45.2595 16.5254 45.2595C17.0301 45.2272 17.5348 45.1692 18.0262 45.079C18.0859 45.0661 18.1391 45.0597 18.1988 45.0468C18.4711 44.9952 18.7434 44.9372 19.0156 44.8728C19.0223 44.8728 19.0355 44.8663 19.0422 44.8663C19.0488 44.8663 19.0621 44.8599 19.0687 44.8599C21.6918 44.2476 24.1488 43.1325 26.3602 41.6437C26.3934 41.6179 26.4332 41.5985 26.4664 41.5728C26.4996 41.5534 26.5262 41.5341 26.5594 41.5083L26.566 41.5019C26.5727 41.4954 26.5793 41.489 26.5859 41.489C26.5926 41.4825 26.5992 41.4761 26.6125 41.4696C27.0574 41.1603 27.4957 40.838 27.9141 40.5028C27.9473 40.4771 27.9871 40.4448 28.0203 40.419C28.027 40.4126 28.0336 40.4062 28.0402 40.4062C28.0469 40.3997 28.0535 40.3933 28.0602 40.3933C28.0867 40.3739 28.1133 40.3481 28.1398 40.3288C28.1531 40.3159 28.173 40.303 28.193 40.2901L28.2461 40.2515C28.2594 40.2386 28.2793 40.2257 28.2926 40.2128C28.3324 40.1806 28.3656 40.1548 28.4055 40.1226C28.3523 40.2321 28.2992 40.3353 28.2395 40.4448C28.1996 40.5222 28.1531 40.5931 28.1133 40.6704L28.1598 40.6575L28.5648 40.9282L29.4148 41.489Z" fill="#457D2F"/>
<path d="M30.6703 38.0858L30.6437 38.4338L30.5973 38.7819L30.5707 38.7883C30.5641 38.7819 30.5574 38.7754 30.5508 38.7754C30.3184 38.595 30.0859 38.4145 29.8535 38.234C29.8469 38.2276 29.8402 38.2276 29.8336 38.2211C29.827 38.2211 29.827 38.2147 29.8203 38.2083C29.8137 38.2147 29.807 38.2211 29.8004 38.2276C29.7871 38.234 29.7805 38.2469 29.7672 38.2534C29.5082 38.4661 29.2559 38.6852 29.0035 38.9043C28.6914 39.1815 28.366 39.4458 28.0406 39.7036C28.0273 39.7165 28.0074 39.7293 27.9941 39.7422L27.941 39.7809C27.9277 39.7938 27.9078 39.8067 27.8879 39.8196C27.8613 39.8389 27.8348 39.8647 27.8082 39.884C27.8016 39.8905 27.7949 39.8969 27.7883 39.8969C27.7816 39.9034 27.775 39.9098 27.7684 39.9098C27.7352 39.9356 27.6953 39.9678 27.6621 39.9936C27.2371 40.3288 26.8055 40.651 26.3539 40.9604C26.3473 40.9668 26.3406 40.9733 26.3273 40.9797C26.3207 40.9862 26.3141 40.9926 26.3074 40.9926L26.3008 40.9991C26.2676 41.0184 26.241 41.0442 26.2078 41.0635C26.1746 41.0893 26.1414 41.1086 26.1016 41.1344C23.8902 42.6233 21.4266 43.7319 18.8035 44.3506C18.7969 44.3506 18.7836 44.3571 18.777 44.3571C18.7703 44.3571 18.757 44.3635 18.7504 44.3635C18.4781 44.428 18.2059 44.486 17.9336 44.5375C17.8738 44.5504 17.8207 44.5569 17.7609 44.5698C17.2629 44.66 16.7648 44.718 16.2602 44.7502C16.2469 44.7502 16.2402 44.7502 16.227 44.7502C16.2137 44.7502 16.207 44.7502 16.1938 44.7502C15.7156 44.776 15.2309 44.7696 14.7527 44.7438C14.7461 44.7438 14.7328 44.7438 14.7262 44.7438C14.7195 44.7438 14.7063 44.7438 14.6996 44.7438C14.5801 44.7374 14.4605 44.7245 14.3477 44.718C14.341 44.718 14.3277 44.718 14.3211 44.718C14.3145 44.718 14.3012 44.718 14.2945 44.718C13.6039 44.6471 12.9199 44.5247 12.2492 44.3442C12.2426 44.3442 12.2293 44.3377 12.2227 44.3377C12.216 44.3377 12.2027 44.3313 12.1961 44.3313C11.6316 44.1766 11.0871 43.9833 10.5559 43.7512C10.5492 43.7512 10.5426 43.7448 10.5293 43.7383C10.5227 43.7383 10.516 43.7319 10.5027 43.7254C10.443 43.6997 10.3898 43.6739 10.3301 43.6481C10.277 43.6223 10.2172 43.5965 10.1641 43.5708C9.88515 43.3967 9.62617 43.2034 9.37383 43.0036L9.19453 43.0358C9.18789 43.0293 9.18125 43.0293 9.17461 43.0229C9.1082 42.9842 9.04844 42.9456 8.98203 42.9004C8.78281 42.7651 8.58359 42.6297 8.39766 42.4879C8.39102 42.4815 8.38438 42.475 8.37773 42.475C8.37109 42.4686 8.36445 42.4622 8.35781 42.4622C8.21836 42.3526 8.07891 42.243 7.94609 42.1334C7.93945 42.127 7.93281 42.1206 7.92617 42.1206C7.91953 42.1141 7.91289 42.1077 7.90625 42.1077C7.88633 42.0948 7.87305 42.0754 7.85312 42.0625C7.84648 42.0561 7.83984 42.0561 7.83984 42.0497L8.15195 41.7854C7.81328 41.3342 7.54766 40.8702 7.36172 40.3997L6.39883 40.303C6.39883 40.2965 6.39219 40.2901 6.38555 40.2836C6.29922 40.129 6.21289 39.9678 6.1332 39.8067C6.1332 39.8002 6.12656 39.7938 6.12656 39.7874C6.12656 39.7809 6.11992 39.7745 6.11992 39.768C6.05352 39.6327 5.98711 39.4909 5.9207 39.3491C5.9207 39.3426 5.91406 39.3362 5.91406 39.3297L6.73086 39.0268L6.74414 39.0397C6.80391 39.0977 6.86367 39.1557 6.92344 39.2137C6.97656 39.2653 7.02969 39.3168 7.08281 39.3749C7.43477 39.71 7.81328 40.0129 8.21172 40.2772C9.42031 41.2182 10.8613 41.7918 12.3754 42.0754C12.382 42.0754 12.3887 42.0754 12.3953 42.0819C12.5613 42.1141 12.7273 42.1399 12.8934 42.1657C12.9066 42.1657 12.9266 42.1721 12.9465 42.1721C13.0793 42.1915 13.2188 42.2108 13.3582 42.2237C13.4047 42.2301 13.4512 42.2366 13.4977 42.2366C13.9492 42.2817 14.4008 42.301 14.859 42.301C14.952 42.301 15.0516 42.301 15.1445 42.2946C15.2641 42.2946 15.3836 42.2881 15.4965 42.2817C15.523 42.2817 15.543 42.2817 15.5629 42.2752C15.6691 42.2688 15.7754 42.2624 15.8816 42.2559C15.9148 42.2559 15.9414 42.2495 15.9746 42.2495C16.1273 42.2366 16.2867 42.2237 16.4395 42.2043C17.6281 42.4686 18.9164 42.5008 20.0453 42.2752C21.5195 42.011 22.7281 41.418 23.452 40.5995C23.7773 40.2321 23.9832 39.8389 24.0695 39.4329C24.1559 39.3813 24.2422 39.3233 24.3285 39.2653C24.4082 39.2137 24.4945 39.1557 24.5742 39.1042C24.5809 39.1042 24.5875 39.0977 24.5941 39.0913C24.6672 39.0461 24.7336 38.9946 24.8066 38.9495C24.873 38.9043 24.9395 38.8592 25.0059 38.8141C25.2117 38.6723 25.4176 38.5241 25.6234 38.3694C25.7031 38.3049 25.7895 38.2469 25.8691 38.1825C25.8824 38.1696 25.8957 38.1631 25.909 38.1502C25.9754 38.0987 26.0352 38.0536 26.1016 38.002C26.1148 37.9956 26.1215 37.9827 26.1348 37.9762C26.2078 37.9247 26.2742 37.8666 26.3473 37.8086C26.4934 37.6926 26.6395 37.5766 26.7789 37.4541C26.8719 37.3768 26.9715 37.293 27.0645 37.2157C27.1176 37.1706 27.1707 37.1254 27.2305 37.0739C27.277 37.0352 27.3234 36.9965 27.3766 36.9514C27.4895 36.8612 27.4895 36.8612 27.4762 36.7194C27.3766 36.6292 27.2703 36.5454 27.1641 36.468C27.0977 36.4165 27.0312 36.3649 26.9648 36.3133C26.9316 36.2876 26.8918 36.2553 26.8586 36.2295C26.8453 36.2166 26.832 36.2102 26.8188 36.1973C26.8254 36.1715 26.8188 36.1393 26.8188 36.0813C26.7191 35.9911 26.6129 35.9073 26.5066 35.8299C26.4402 35.7784 26.3738 35.7268 26.3074 35.6752C26.2742 35.6495 26.2344 35.6172 26.2012 35.5915C26.0285 35.4561 25.8625 35.3208 25.6965 35.179C26.4402 34.9598 27.0777 34.7665 27.6289 34.6053C27.6355 34.6053 27.6488 34.5989 27.6555 34.5989C27.7152 34.6698 27.7684 34.7407 27.8281 34.8116C27.8281 34.8116 27.8281 34.8116 27.8348 34.8116L29.7074 34.7278L29.9 35.0436L30.0727 35.3659L28.6184 36.178C28.8109 36.6678 28.9172 37.1641 28.9438 37.6604L30.6703 38.0858Z" fill="#457D2F"/>
<path d="M9.39219 42.9649L9.17969 43.0036C9.18633 43.01 9.19297 43.0165 9.19961 43.0165C9.20625 43.0229 9.21289 43.0293 9.22617 43.0293L9.37227 43.0036C9.57149 43.1647 9.78398 43.3194 10.0098 43.4676C10.0629 43.4934 10.116 43.5256 10.1758 43.5514C10.2289 43.5772 10.2887 43.603 10.3418 43.6288C10.0031 43.4225 9.68438 43.2034 9.39219 42.9649ZM6.74922 39.001C6.74258 38.9946 6.74258 38.9946 6.73594 38.9881L5.92578 39.2846C5.92578 39.2911 5.93242 39.2975 5.93242 39.304C5.93242 39.3104 5.93906 39.3168 5.93906 39.3233L6.7625 39.0204L6.74922 39.001ZM28.9688 37.6411C28.9422 37.1448 28.8293 36.6485 28.65 36.178L30.0977 35.353L29.9184 35.0178L29.7191 34.6891L27.8465 34.7729C27.7934 34.702 27.7402 34.6375 27.6805 34.5667C27.6738 34.5667 27.6672 34.5731 27.6539 34.5731C27.6473 34.5731 27.6406 34.5795 27.6273 34.5795C27.6871 34.6504 27.7469 34.7213 27.8 34.7922L27.8066 34.7987L27.8133 34.8051L29.6793 34.7213L29.8652 35.0307L30.0312 35.3401L28.5836 36.1651C28.7762 36.6485 28.8824 37.1512 28.9156 37.6604L30.6422 38.0858L30.6156 38.4209L30.5691 38.7561L30.5492 38.7626C30.5559 38.769 30.5625 38.769 30.5691 38.7754C30.5758 38.7819 30.5824 38.7819 30.5891 38.7883L30.6223 38.7819L30.6688 38.4209L30.6953 38.06L28.9688 37.6411ZM8.17695 41.7467H8.19023C7.85156 41.2956 7.58594 40.8315 7.4 40.361H7.38008L6.40391 40.2643C6.40391 40.2708 6.41055 40.2772 6.41719 40.2836C6.41719 40.2901 6.42383 40.2965 6.43047 40.303L7.36016 40.3932C7.54609 40.8573 7.80508 41.3149 8.13711 41.7596L7.83828 42.011C7.84492 42.0174 7.85156 42.0239 7.85156 42.0239C7.8582 42.0303 7.86484 42.0303 7.86484 42.0368L8.18359 41.7661L8.17031 41.7596L8.17695 41.7467Z" fill="#457D2F"/>
<path d="M20.6215 43.3323C17.8324 43.8286 14.9172 43.3194 12.9648 42.1464C13.0977 42.1657 13.2371 42.1851 13.3766 42.1979C13.423 42.2044 13.4695 42.2108 13.516 42.2108C13.9676 42.256 14.4191 42.2753 14.8773 42.2753C14.9703 42.2753 15.0699 42.2753 15.1629 42.2688C15.2824 42.2688 15.402 42.2624 15.5148 42.256C15.5414 42.256 15.5613 42.256 15.5813 42.2495C15.6875 42.2431 15.7938 42.2366 15.9 42.2302C15.9332 42.2302 15.9598 42.2237 15.993 42.2237C16.1457 42.2108 16.3051 42.198 16.4578 42.1786C19.1938 41.8757 21.7703 40.8509 24.0813 39.4071C24.1676 39.3556 24.2539 39.2976 24.3402 39.2395C24.4199 39.188 24.5063 39.13 24.5859 39.0784C24.5926 39.0784 24.5992 39.072 24.6059 39.0655C24.6789 39.0204 24.7453 38.9688 24.8184 38.9237C24.8848 38.8786 24.9512 38.8335 25.0176 38.7884C25.2234 38.6466 25.4293 38.4983 25.6352 38.3437C25.7148 38.2792 25.8012 38.2212 25.8809 38.1567C26.5582 40.4255 24.3535 42.6685 20.6215 43.3323Z" fill="#457D2F"/>
<path d="M26.1141 37.9827C26.0477 38.0342 25.9879 38.0793 25.9215 38.1309C25.9082 38.1438 25.8949 38.1502 25.8816 38.1631C25.802 38.2276 25.7156 38.292 25.6359 38.35C25.8551 39.2653 25.5961 40.1999 24.8656 41.0313C23.9492 42.0754 22.4152 42.8295 20.5359 43.1647C18.2715 43.6223 15.4891 43.242 13.5168 42.2172C13.4703 42.2108 13.4238 42.2108 13.3773 42.2043C13.2379 42.1915 13.1051 42.1721 12.9656 42.1528C12.9523 42.1528 12.9324 42.1463 12.9125 42.1463C12.7465 42.1206 12.5805 42.0948 12.4145 42.0625C12.4078 42.0625 12.4012 42.0625 12.3945 42.0561C12.7598 42.301 13.1715 42.5266 13.6363 42.7329C17.0629 44.3442 22.9 44.0026 25.3902 41.1989C26.3266 40.1354 26.4859 39.001 26.1141 37.9827Z" fill="#457D2F"/>
<path d="M24.3477 39.2395C24.2613 39.2975 24.175 39.3491 24.0887 39.4071C24.0023 39.8067 23.7965 40.2063 23.4711 40.5737C22.7539 41.3922 21.5453 41.9852 20.0645 42.2495C18.9355 42.475 17.6473 42.4428 16.4586 42.1786C16.3059 42.1979 16.1465 42.2108 15.9938 42.2237C15.9605 42.2237 15.934 42.2301 15.9008 42.2301C15.7945 42.2366 15.6883 42.243 15.582 42.2495C17.0496 42.6942 18.7496 42.8102 20.2039 42.5137C22.3156 42.1592 24.527 40.8895 24.5934 39.0784C24.5137 39.1364 24.4273 39.1879 24.3477 39.2395Z" fill="#457D2F"/>
<path d="M24.3461 39.2395C24.1602 40.6704 22.5531 41.9465 20.1293 42.3848C18.7148 42.6362 17.2539 42.5588 15.9922 42.2237C16.1449 42.2108 16.3043 42.1979 16.457 42.1786C19.193 41.8756 21.7695 40.8508 24.0805 39.4071C24.1734 39.3491 24.2598 39.2975 24.3461 39.2395Z" fill="#457D2F"/>
<path d="M32.7043 32.2656V32.4332C32.6313 33.5869 32.5449 34.7406 32.4586 35.8879C32.3855 36.874 32.3125 37.8602 32.2527 38.8463C32.2262 39.233 32.193 39.6197 32.1465 40.0064C31.9207 39.9033 31.7613 39.7809 31.5754 39.6133C31.2566 39.3297 30.9246 39.059 30.5859 38.7947C30.5793 38.7883 30.5727 38.7818 30.566 38.7818C30.5594 38.7754 30.5527 38.7689 30.5461 38.7689C30.3137 38.5885 30.0812 38.408 29.8488 38.2275C29.8422 38.2211 29.8355 38.2211 29.8289 38.2147C29.8223 38.2147 29.8223 38.2082 29.8156 38.2018C29.809 38.2082 29.8023 38.2147 29.7957 38.2211C29.7824 38.2275 29.7758 38.2404 29.7625 38.2469C29.5035 38.4596 29.2512 38.6787 28.9988 38.8979C28.6867 39.175 28.3613 39.4393 28.0359 39.6971C28.0227 39.71 28.0027 39.7229 27.9895 39.7357L27.9363 39.7744C27.923 39.7873 27.9031 39.8002 27.8832 39.8131C27.8566 39.8324 27.8301 39.8582 27.8035 39.8775C27.7969 39.884 27.7902 39.8904 27.7836 39.8904C27.777 39.8969 27.7703 39.9033 27.7637 39.9033C27.7305 39.9291 27.6906 39.9613 27.6574 39.9871C27.2324 40.3223 26.8008 40.6445 26.3492 40.9539C26.3426 40.9604 26.3359 40.9668 26.3227 40.9732C26.316 40.9797 26.3094 40.9861 26.3027 40.9861L26.2961 40.9926C26.2629 41.0119 26.2363 41.0377 26.2031 41.057C26.1699 41.0828 26.1367 41.1021 26.0969 41.1279C23.8855 42.6168 21.4219 43.7254 18.7988 44.3441C18.7922 44.3441 18.7789 44.3506 18.7723 44.3506C18.7656 44.3506 18.7523 44.357 18.7457 44.357C18.4734 44.4215 18.2012 44.4795 17.9289 44.5311C17.8691 44.5439 17.816 44.5504 17.7563 44.5633C17.2582 44.6535 16.7602 44.7115 16.2555 44.7438C16.2422 44.7438 16.2355 44.7438 16.2223 44.7438C16.209 44.7438 16.2023 44.7438 16.1891 44.7438C15.7109 44.7695 15.2262 44.7631 14.748 44.7373C14.7414 44.7373 14.7281 44.7373 14.7215 44.7373C14.7148 44.7373 14.7016 44.7373 14.6949 44.7373C14.5754 44.7309 14.4559 44.718 14.343 44.7115C14.3363 44.7115 14.323 44.7115 14.3164 44.7115C14.3098 44.7115 14.2965 44.7115 14.2898 44.7115C13.5992 44.6406 12.9152 44.5182 12.2445 44.3377C12.2379 44.3377 12.2246 44.3313 12.218 44.3313C12.2113 44.3313 12.198 44.3248 12.1914 44.3248C11.627 44.1701 11.0824 43.9768 10.5512 43.7447C10.5445 43.7447 10.5379 43.7383 10.5246 43.7318C10.518 43.7318 10.5113 43.7254 10.498 43.7189C10.4383 43.6932 10.3852 43.6674 10.3254 43.6416C10.2723 43.6158 10.2125 43.59 10.1594 43.5643C10.1062 43.5385 10.0465 43.5127 9.99336 43.4805L9.20977 43.0422C9.20313 43.0357 9.19648 43.0357 9.1832 43.0293C9.17656 43.0229 9.16992 43.0229 9.16328 43.0164C9.09687 42.9777 9.03711 42.9391 8.9707 42.8939C8.77148 42.7586 8.57226 42.6232 8.38633 42.4814C8.37969 42.475 8.37305 42.4686 8.36641 42.4686C8.35977 42.4621 8.35313 42.4557 8.34648 42.4557C8.20703 42.3461 8.06758 42.2365 7.93477 42.127C7.92812 42.1205 7.92148 42.1141 7.91484 42.1141C7.9082 42.1076 7.90156 42.1012 7.89492 42.1012C7.875 42.0883 7.86172 42.0689 7.8418 42.0561C7.83516 42.0496 7.82851 42.0496 7.82851 42.0432C7.82187 42.0367 7.81523 42.0367 7.81523 42.0303C7.64922 41.882 7.48984 41.7338 7.33047 41.5791C7.32383 41.5727 7.31719 41.5662 7.31719 41.5662L7.30391 41.5533C7.17773 41.4244 7.05156 41.2891 6.93203 41.1602C6.92539 41.1537 6.91875 41.1473 6.91875 41.1473C6.91211 41.1408 6.90547 41.1344 6.90547 41.1344C6.49375 40.6703 6.12851 40.174 5.80312 39.6455C5.79648 39.6391 5.79648 39.6326 5.78984 39.6262C5.7832 39.6197 5.7832 39.6133 5.77656 39.6068C5.7168 39.5102 5.66367 39.4199 5.61055 39.3232C5.60391 39.3168 5.60391 39.3104 5.59726 39.3039C5.59726 39.2975 5.59063 39.291 5.59063 39.2846C5.55742 39.2266 5.52422 39.1686 5.49766 39.1105C5.52422 39.1686 5.55078 39.2201 5.57734 39.2781C5.57734 39.2846 5.58398 39.291 5.58398 39.2975C5.58398 39.3039 5.59063 39.3104 5.59063 39.3168C5.67031 39.4779 5.75664 39.6391 5.84297 39.7938C5.84297 39.8002 5.84961 39.8066 5.85625 39.8131C5.85625 39.8195 5.86289 39.826 5.86953 39.8324C5.92266 39.9291 5.97578 40.0258 6.03555 40.116C6.03555 40.1225 6.04219 40.1289 6.04883 40.1354C6.04883 40.1418 6.05547 40.1482 6.06211 40.1547C6.38086 40.6832 6.74609 41.1795 7.16445 41.6436C7.17109 41.65 7.17109 41.6564 7.17773 41.6564C7.18438 41.6629 7.18437 41.6693 7.19101 41.6693C7.21094 41.6887 7.23086 41.7145 7.24414 41.7338C7.18438 41.6693 7.11797 41.6049 7.0582 41.534C7.05156 41.5275 7.05156 41.5211 7.04492 41.5211C7.03828 41.5147 7.03164 41.5082 7.03164 41.5082C6.61992 41.0441 6.25469 40.5479 5.9293 40.0193C5.92265 40.0129 5.92266 40.0064 5.91602 40C5.90937 39.9936 5.90937 39.9871 5.90273 39.9807C5.84297 39.884 5.78984 39.7938 5.73672 39.6971C5.73008 39.6906 5.73008 39.6842 5.72344 39.6777C5.72344 39.6713 5.7168 39.6648 5.71016 39.6584C5.62383 39.5037 5.5375 39.3426 5.45781 39.1814C5.45781 39.175 5.45117 39.1686 5.45117 39.1621C5.45117 39.1557 5.44453 39.1492 5.44453 39.1428C5.37812 39.0074 5.31172 38.8656 5.24531 38.7238C5.24531 38.7174 5.23867 38.7109 5.23867 38.7045C5.23867 38.698 5.23203 38.6916 5.23203 38.6852C5.07266 38.3242 4.9332 37.9504 4.80703 37.5637V37.5572C4.78711 37.4992 4.77383 37.4477 4.75391 37.3896C4.73398 37.3252 4.71406 37.2543 4.6875 37.1898C4.52148 36.6033 4.475 35.9975 4.42188 35.3916C4.475 35.4689 4.52148 35.5398 4.55469 35.6172C4.60781 35.7203 4.6543 35.8234 4.70078 35.9395C5.12578 36.9965 5.7168 37.9246 6.53359 38.7303C6.54023 38.7367 6.54023 38.7432 6.54688 38.7432L6.56015 38.7561C6.61992 38.8141 6.67969 38.8721 6.73945 38.9301C6.79258 38.9816 6.8457 39.0332 6.89883 39.0912C7.10469 39.2846 7.31719 39.4715 7.53633 39.6455C8.74492 40.5865 10.1859 41.1602 11.7 41.4438C11.7066 41.4438 11.7133 41.4438 11.7199 41.4502C11.8859 41.4824 12.052 41.5082 12.218 41.534C12.2312 41.534 12.2512 41.5404 12.2711 41.5404C12.4039 41.5598 12.5434 41.5791 12.6828 41.592C12.7293 41.5984 12.7758 41.6049 12.8223 41.6049C13.2738 41.65 13.7254 41.6693 14.1836 41.6693C14.2766 41.6693 14.3762 41.6693 14.4691 41.6629C14.5887 41.6629 14.7082 41.6564 14.8211 41.65C14.8477 41.65 14.8676 41.65 14.8875 41.6436C14.9938 41.6371 15.1 41.6307 15.2062 41.6242C15.2395 41.6242 15.266 41.6178 15.2992 41.6178C15.452 41.6049 15.6113 41.592 15.7641 41.5727C18.5 41.2697 21.0766 40.2449 23.3875 38.8012C23.4738 38.7496 23.5602 38.6916 23.6465 38.6336C23.7262 38.582 23.8125 38.524 23.8922 38.4725C23.8988 38.4725 23.9055 38.466 23.9121 38.4596C23.9852 38.4145 24.0516 38.3629 24.1246 38.3178C24.191 38.2727 24.2574 38.2275 24.3238 38.1824C24.5297 38.0406 24.7355 37.8924 24.9414 37.7377C25.0211 37.6732 25.1074 37.6152 25.1871 37.5508C25.2004 37.5379 25.2137 37.5314 25.227 37.5186C25.2934 37.467 25.3531 37.4219 25.4195 37.3703C25.4328 37.3639 25.4395 37.351 25.4527 37.3445C25.5258 37.293 25.5922 37.235 25.6652 37.177C25.8113 37.0609 25.9574 36.9449 26.0969 36.8225C26.1898 36.7451 26.2895 36.6613 26.3824 36.584C26.4355 36.5389 26.4887 36.4938 26.5484 36.4422C26.5949 36.4035 26.6414 36.3648 26.6945 36.3197C26.7609 36.2682 26.7875 36.2424 26.8008 36.2102C26.8074 36.1844 26.8008 36.1521 26.8008 36.0941C26.7012 36.0039 26.5949 35.9201 26.4887 35.8428C26.4223 35.7912 26.3559 35.7397 26.2895 35.6881C26.2563 35.6623 26.2164 35.6301 26.1832 35.6043C26.0105 35.4689 25.8445 35.3336 25.6785 35.1918C25.6187 35.1402 25.559 35.0887 25.4992 35.0436C25.3398 34.9147 25.1871 34.7922 25.0145 34.6826V34.5537C25.7582 34.3346 26.3957 34.1412 26.9469 33.9801C26.9535 33.9801 26.9668 33.9736 26.9734 33.9736C26.9801 33.9736 26.9934 33.9672 27 33.9672C27.0266 33.9607 27.0598 33.9479 27.0863 33.9414C27.093 33.9414 27.1062 33.935 27.1129 33.935C27.1195 33.935 27.1328 33.9285 27.1395 33.9285C30.234 33.0068 30.493 32.9359 32.0934 32.4783C32.1598 32.459 32.2195 32.4397 32.2859 32.4203C32.3457 32.4074 32.3988 32.3881 32.4586 32.3688C32.5051 32.3559 32.5516 32.343 32.6047 32.3301C32.6578 32.2785 32.6844 32.2721 32.7043 32.2656Z" fill="#457D2F"/>
<path d="M33.9258 3.97732C34.3242 4.32537 34.6695 4.70564 34.9949 5.12459C35.0348 5.17615 35.0746 5.22127 35.1145 5.27283C36.5422 7.18064 37.7508 9.87478 37.6512 12.2789C37.5184 12.0533 37.4652 11.8277 37.4121 11.5763C36.8543 9.32048 35.5062 7.1613 33.4676 5.89802C32.6043 5.38884 31.7277 5.02791 30.7449 4.80232C30.6719 4.78298 30.5988 4.77009 30.5258 4.75076C29.8418 4.60251 29.1844 4.57673 28.4805 4.58318C28.3941 4.58318 28.3941 4.58318 28.3078 4.58318C27.4113 4.58963 26.568 4.65408 25.698 4.86677C25.5984 4.88611 25.4988 4.91189 25.3992 4.93123C23.6129 5.35017 21.873 6.22029 20.3855 7.25154C20.3059 7.3031 20.2262 7.35466 20.1531 7.41267C18.7984 8.33435 17.4969 9.37849 16.348 10.5386C16.202 10.6676 16.202 10.6676 16.0691 10.6676C16.3281 10.9318 16.6004 11.1445 16.8992 11.3572C16.9922 11.4281 17.0852 11.4926 17.1781 11.5635C17.2246 11.5957 17.2711 11.6279 17.3176 11.6666C17.5301 11.8213 17.7426 11.9824 17.9551 12.1371L18.2738 12.3756C18.2738 12.4078 18.2738 12.4078 18.2738 12.44C18.0945 12.5496 17.9551 12.5947 17.7426 12.6527C17.623 12.6849 17.623 12.6849 17.5035 12.7172C17.4172 12.7429 17.3309 12.7623 17.2445 12.7881C17.1516 12.8138 17.0652 12.8396 16.9723 12.8654C16.7266 12.9299 16.4875 13.0008 16.2418 13.0652C15.9894 13.1361 15.7437 13.2006 15.4914 13.2715C15.1926 13.3552 14.8937 13.439 14.5883 13.5228C14.0039 13.684 13.4195 13.8515 12.8352 14.0127C12.6426 14.0642 12.45 14.1222 12.2641 14.1738C12.1445 14.206 12.0316 14.2383 11.9121 14.2769C11.7527 14.322 11.5934 14.3672 11.434 14.4123C11.3676 14.4316 11.3676 14.4316 11.2945 14.451C11.0621 14.5154 10.916 14.5347 10.6836 14.4638C10.7168 13.7162 10.7434 12.9685 10.7766 12.2209C10.7766 12.1629 10.7832 12.1113 10.7832 12.0533C10.8563 10.3002 10.9293 8.54705 11.0156 6.78748C11.2746 6.90349 11.4738 7.06462 11.6863 7.24509C11.766 7.30955 11.8391 7.374 11.9187 7.43845C11.9586 7.47068 11.9984 7.50291 12.0383 7.53513C12.2641 7.72205 12.4965 7.90251 12.7223 8.08298C12.9082 8.23123 13.0941 8.37947 13.2801 8.52771C13.5324 8.32146 13.7781 8.11521 14.0039 7.88962C14.2098 7.68337 14.4289 7.49002 14.6547 7.3031C14.8008 7.18064 14.9469 7.05173 15.0863 6.92283C15.4516 6.59412 15.8301 6.27185 16.2219 5.97537C16.3016 5.91736 16.3812 5.85291 16.4609 5.78845C18.8648 3.90642 21.6937 2.39822 24.7418 1.81814C24.7949 1.80525 24.8547 1.7988 24.9145 1.78591C28.1484 1.20584 31.4355 1.86326 33.9258 3.97732Z" fill="#457D2F"/>
<path d="M33.332 0.35495C33.3719 0.36784 33.4184 0.374286 33.4582 0.387176C36.1543 1.05104 38.4652 2.73327 39.9727 4.99557C39.9992 5.04069 40.0324 5.08581 40.0656 5.13093C41.6063 7.46413 42.4496 10.4225 42.443 13.194C42.443 13.2907 42.443 13.2907 42.443 13.3938C42.443 13.5292 42.443 13.6645 42.443 13.8063C42.443 14.0126 42.443 14.2253 42.443 14.4315C42.443 14.5669 42.443 14.6958 42.443 14.8311C42.443 14.8956 42.443 14.9536 42.443 15.018C42.443 15.3145 42.4297 15.5981 42.3699 15.8946C42.3102 15.843 42.257 15.7915 42.1973 15.7335C41.6328 15.2694 40.9754 14.9342 40.2449 14.7989C40.1453 14.7796 40.1453 14.7796 40.0457 14.7538C39.5078 14.7022 38.9832 14.7409 38.452 14.7989C38.452 14.7344 38.452 14.67 38.4453 14.6055C38.359 10.6417 37.8078 6.63913 34.7664 3.7194C33.3652 2.41745 31.6852 1.64401 29.8125 1.25729C29.7328 1.2444 29.7328 1.2444 29.6598 1.22507C27.8668 0.864129 25.9875 1.05104 24.2277 1.48288C24.168 1.49577 24.1148 1.50866 24.0551 1.52155C24.002 1.53444 23.9555 1.54733 23.9023 1.56022C23.7695 1.57956 23.7695 1.57956 23.5703 1.51511C24.3207 1.23151 25.0844 0.980145 25.8547 0.754559C25.9344 0.728778 26.0207 0.702997 26.107 0.683661C26.8773 0.46452 27.641 0.284051 28.4445 0.187371C28.5043 0.180926 28.5641 0.174481 28.6305 0.16159C28.75 0.1487 28.8695 0.129364 28.9891 0.116473C29.0887 0.103583 29.1949 0.0906916 29.2945 0.077801C30.6027 -0.0962224 32.0504 0.032684 33.332 0.35495Z" fill="#DAAE1E"/>
<path d="M2.05625 14.8375C2.24883 14.9599 2.30859 15.0953 2.41484 15.2886C2.43477 15.3273 2.45469 15.366 2.47461 15.3982C2.52109 15.4755 2.56094 15.5593 2.60742 15.6367C2.72695 15.8494 2.84649 16.0621 2.96602 16.2748C2.99258 16.3199 3.0125 16.3586 3.03906 16.4037C3.26484 16.8033 3.49727 17.19 3.73633 17.5832C4.075 18.1375 4.40039 18.6982 4.7125 19.2654C4.925 19.6521 5.15078 20.0195 5.3832 20.3933C5.40313 18.5628 5.42969 16.7324 5.44961 14.8503C5.99414 14.8503 6.54531 14.8503 7.10977 14.8503C7.10977 17.5961 7.10977 20.3353 7.10977 23.1648C6.49883 23.1648 5.88125 23.1648 5.25039 23.1648C5.15742 22.9908 5.06445 22.8168 4.97148 22.6363C4.69258 22.1207 4.40703 21.6179 4.1082 21.1216C3.80938 20.6189 3.51719 20.1097 3.225 19.6005C2.84649 18.9367 2.45469 18.2793 2.06953 17.6218C2.04961 19.4265 2.02305 21.2377 2.00313 23.1003C1.47852 23.1003 0.953908 23.1003 0.409377 23.1003C0.402736 22.1142 0.402735 21.1281 0.396095 20.1484C0.396095 19.6908 0.396094 19.2332 0.389454 18.7755C0.389454 18.3373 0.382812 17.8925 0.382812 17.4543C0.382812 17.2867 0.382812 17.1191 0.382812 16.9515C0.382812 16.713 0.382812 16.481 0.382812 16.2425C0.382812 16.1716 0.382812 16.1007 0.382812 16.0298C0.382812 15.6238 0.409375 15.308 0.714844 15.005C1.10664 14.7472 1.59141 14.6828 2.05625 14.8375Z" fill="#467E30"/>
<path d="M22.9102 16.5972C22.8637 16.9517 22.7906 17.2933 22.7043 17.6349C22.691 17.6929 22.6777 17.7509 22.6578 17.8089C22.452 18.6275 22.2262 19.4396 22.007 20.2517C21.9207 20.574 21.8344 20.8898 21.748 21.2121C21.7281 21.2894 21.7082 21.3603 21.6883 21.4376C21.5355 21.9919 21.3961 22.5398 21.25 23.0941C20.659 23.0941 20.068 23.0941 19.457 23.0941C19.2312 22.3722 19.2312 22.3722 19.1781 22.1015C19.1648 22.0435 19.1516 21.979 19.1383 21.9146C19.125 21.8501 19.1117 21.7857 19.0984 21.7212C19.0719 21.5794 19.0387 21.4376 19.0121 21.2958C18.9922 21.1863 18.9922 21.1863 18.9656 21.0703C18.866 20.574 18.7598 20.0777 18.6469 19.5814C18.6203 19.4718 18.6203 19.4718 18.6004 19.3558C18.5871 19.2914 18.5738 19.2269 18.5605 19.156C18.5207 18.9626 18.4875 18.7693 18.4543 18.5824C18.4477 18.6275 18.4344 18.679 18.4277 18.7306C18.3348 19.1818 18.2418 19.6394 18.1555 20.0906C18.109 20.3226 18.0625 20.5546 18.016 20.7931C17.9695 21.0187 17.923 21.2443 17.8766 21.4699C17.85 21.5988 17.8234 21.7212 17.7969 21.8501C17.7703 21.9662 17.7703 21.9662 17.7504 22.0886C17.7371 22.1595 17.7238 22.224 17.7105 22.2949C17.6574 22.5591 17.591 22.8298 17.5312 23.0941C16.9203 23.0941 16.3027 23.0941 15.6719 23.0941C15.3465 22.0628 15.0344 21.0316 14.7488 19.981C14.5363 19.2011 14.3172 18.4277 14.0914 17.6542C14.0715 17.5833 14.0715 17.5833 14.0516 17.506C14.025 17.4158 13.9984 17.3255 13.9719 17.2353C13.9121 17.0355 13.859 16.8421 13.8125 16.6423C14.4035 16.6423 14.9945 16.6423 15.6055 16.6423C15.6652 16.8873 15.7184 17.1322 15.7781 17.3771C15.798 17.4673 15.818 17.5576 15.8379 17.6414C15.9641 18.1699 16.0836 18.6919 16.1965 19.2205C16.2164 19.3171 16.2363 19.4074 16.2562 19.504C16.2895 19.6394 16.316 19.7812 16.3492 19.9165C16.3758 20.0455 16.4023 20.1744 16.4355 20.2968C16.4488 20.3677 16.4688 20.4451 16.482 20.516C16.5219 20.7093 16.5219 20.7093 16.668 20.8898C16.6746 20.8447 16.6879 20.7996 16.6945 20.7544C16.7809 20.329 16.8605 19.9037 16.9469 19.4847C16.9934 19.2656 17.0332 19.0464 17.0797 18.8337C17.1262 18.5824 17.1793 18.331 17.2258 18.0796C17.2391 18.0023 17.259 17.9249 17.2723 17.8476C17.2855 17.7767 17.2988 17.6994 17.3187 17.622C17.3387 17.5253 17.3387 17.5253 17.3586 17.4287C17.4117 17.1644 17.4781 16.9001 17.5379 16.6423C18.1289 16.6423 18.7199 16.6423 19.3309 16.6423C19.4371 16.9001 19.4969 17.1064 19.55 17.3771C19.5633 17.4609 19.5832 17.5382 19.5965 17.622C19.6164 17.7122 19.6297 17.796 19.6496 17.8863C19.6828 18.0667 19.7227 18.2472 19.7559 18.4277C19.7625 18.4728 19.7758 18.5179 19.7824 18.563C19.8422 18.8531 19.902 19.1496 19.9617 19.4396C19.975 19.5105 19.9949 19.5878 20.0082 19.6587C20.0348 19.7941 20.068 19.9294 20.0945 20.0648C20.1609 20.3935 20.2074 20.69 20.1941 21.0251C20.2406 21.0251 20.2805 21.0251 20.327 21.0251C20.327 20.9865 20.3336 20.9542 20.3336 20.9156C20.3734 20.4322 20.473 19.9617 20.5727 19.4847C20.5926 19.4009 20.6059 19.3236 20.6258 19.2398C20.732 18.7499 20.8449 18.2601 20.9645 17.7767C20.9777 17.7251 20.991 17.6736 21.0043 17.622C21.0906 17.2933 21.1902 16.9775 21.4293 16.7197C21.8676 16.5263 22.432 16.5908 22.9102 16.5972Z" fill="#447D2E"/>
<path d="M18.2614 39.9936C18.2415 40.0129 18.2215 40.0258 18.2082 40.0451C18.1551 40.0967 18.0887 40.1289 18.0223 40.1611C18.009 40.1676 18.0024 40.1676 17.9891 40.174C17.9028 40.2063 17.8098 40.232 17.7168 40.2514H17.7102C17.6305 40.2707 17.5508 40.29 17.4778 40.3094C17.3516 40.3416 17.2254 40.3738 17.0926 40.4061C16.9665 40.4383 16.8336 40.4705 16.7075 40.4963C16.5481 40.535 16.3887 40.5672 16.2293 40.5994C16.1895 40.6059 16.1497 40.6188 16.1032 40.6252C16.05 40.6381 15.9903 40.651 15.9372 40.6574C15.884 40.6703 15.8309 40.6768 15.7711 40.6896C15.127 40.8057 14.4696 40.8701 13.8122 40.8766C13.7258 40.8766 13.6461 40.8766 13.5598 40.8766C13.5465 40.8766 13.5332 40.8766 13.52 40.8766C13.5 40.8766 13.4868 40.8766 13.4668 40.8766C13.427 40.8766 13.3872 40.8766 13.3473 40.8766C13.3008 40.8766 13.2477 40.8701 13.2012 40.8701C12.6965 40.8508 12.1985 40.7928 11.7071 40.7025C11.5809 40.6768 11.4547 40.651 11.3219 40.6252C11.1825 40.593 11.043 40.5607 10.9036 40.5221C10.7641 40.4834 10.618 40.4447 10.4786 40.3996C10.3657 40.3674 10.2594 40.3287 10.1465 40.29C9.58207 40.0967 9.04418 39.8453 8.52622 39.5488C8.48637 39.5295 8.44653 39.5037 8.40669 39.4779C8.3934 39.4715 8.38012 39.465 8.36684 39.4521C8.33364 39.4328 8.30043 39.4135 8.26723 39.3941C8.04809 39.2523 7.82895 39.1041 7.61645 38.9494C7.60317 38.9365 7.58989 38.9236 7.57661 38.9172C7.57661 38.9172 7.56997 38.9172 7.56997 38.9107L7.41723 38.7883C7.39731 38.7754 7.38403 38.7625 7.36411 38.7432C7.2977 38.6852 7.23129 38.6272 7.16489 38.5691C7.13168 38.5369 7.09848 38.5111 7.05864 38.4789C7.03207 38.4531 7.00551 38.4273 6.97231 38.4016C6.94575 38.3758 6.91918 38.35 6.89262 38.3242C6.88598 38.3178 6.8727 38.3049 6.86606 38.2984C6.85942 38.292 6.84614 38.2855 6.8395 38.2727C6.68676 38.1244 6.54067 37.9697 6.40786 37.815C6.39458 37.8022 6.38794 37.7957 6.38129 37.7828C6.37465 37.7764 6.36801 37.7635 6.35473 37.757C6.00942 37.351 5.71723 36.9127 5.47153 36.4486C5.47153 36.4422 5.46489 36.4422 5.46489 36.4357C5.43832 36.3777 5.40512 36.3262 5.37856 36.2682C5.37192 36.2617 5.37192 36.2488 5.36528 36.2424C5.35864 36.2359 5.35864 36.2231 5.352 36.2166C5.27895 36.0684 5.21254 35.9201 5.15278 35.7654C5.14614 35.7525 5.14614 35.7461 5.1395 35.7332C5.13286 35.7203 5.13286 35.7139 5.12622 35.701C4.82075 34.9211 4.63481 34.0896 4.5684 33.2324C4.55512 32.8264 4.5684 32.4139 4.5684 32.0078C4.75434 32.1045 4.94028 32.1947 5.12622 32.285C5.63754 32.5363 6.08247 32.6072 6.65356 32.5943C7.09184 32.6008 7.52348 32.575 7.95512 32.517C7.97504 32.6717 7.99497 32.8264 8.02153 32.9811C8.02153 32.9875 8.02153 32.9939 8.02817 33.0068C8.02817 33.0133 8.02817 33.0197 8.03481 33.0326C8.06801 33.226 8.10122 33.4258 8.14106 33.6127C8.14106 33.6256 8.1477 33.6449 8.1477 33.6578C8.1477 33.6707 8.15434 33.69 8.15434 33.7029C8.22075 34.0059 8.2938 34.3023 8.38012 34.5988C8.38012 34.6053 8.38676 34.6182 8.38676 34.6246C8.38676 34.6311 8.3934 34.6439 8.3934 34.6504C8.42661 34.7664 8.45981 34.876 8.49965 34.992C8.5395 35.1016 8.57934 35.2176 8.61918 35.3271C8.63247 35.3658 8.64575 35.398 8.65903 35.4367C8.67895 35.4818 8.69223 35.527 8.71215 35.5721C8.73208 35.6172 8.74536 35.6559 8.76528 35.701C8.77192 35.7139 8.77856 35.7332 8.7852 35.7461C8.80512 35.7912 8.82505 35.8299 8.84497 35.875C8.85161 35.8879 8.85825 35.8943 8.85825 35.9072C8.87817 35.9395 8.89145 35.9781 8.91137 36.0168C9.01762 36.2295 9.13715 36.4422 9.26333 36.6484C9.28325 36.6807 9.30981 36.7193 9.32973 36.7516C9.35629 36.7967 9.3895 36.8418 9.41606 36.8869C9.42934 36.9063 9.44262 36.9256 9.45591 36.9449C9.54887 37.0803 9.64184 37.2092 9.74145 37.3381C9.74809 37.351 9.76137 37.3639 9.76801 37.3768C9.76801 37.3832 9.77465 37.3832 9.77465 37.3896C9.7813 37.3961 9.7813 37.3961 9.78794 37.4025C9.94067 37.5959 10.1 37.7764 10.2661 37.9568C10.3391 38.0342 10.4188 38.1115 10.4985 38.1889C10.5848 38.2727 10.6778 38.3564 10.7707 38.4338C10.804 38.466 10.8372 38.4918 10.8704 38.5176C10.9036 38.5434 10.9368 38.5756 10.97 38.6014C11.0032 38.6272 11.0297 38.6529 11.0629 38.6723C11.0696 38.6787 11.0762 38.6852 11.0829 38.6852C11.0961 38.698 11.1094 38.7045 11.1227 38.7174C11.1493 38.7367 11.1758 38.7561 11.2024 38.7818C11.3086 38.8656 11.4215 38.943 11.5344 39.0139C11.6407 39.0848 11.7469 39.1492 11.8598 39.2137C11.8731 39.2201 11.8864 39.233 11.9063 39.2395C11.9129 39.2395 11.9129 39.2459 11.9196 39.2459C12.0125 39.2975 12.1055 39.349 12.1985 39.4006C12.2184 39.4135 12.2317 39.4199 12.2516 39.4264C12.2981 39.4522 12.3446 39.4715 12.3911 39.4908C12.4309 39.5102 12.4707 39.5295 12.5039 39.5424C12.5372 39.5553 12.5704 39.5746 12.6036 39.5875C12.65 39.6068 12.6965 39.6262 12.743 39.6455C12.7497 39.652 12.7563 39.652 12.7629 39.652C12.8094 39.6713 12.8493 39.6842 12.8957 39.7035C12.929 39.7164 12.9622 39.7293 12.9954 39.7422C13.2278 39.826 13.4668 39.9033 13.7125 39.9613C13.759 39.9742 13.8055 39.9871 13.852 39.9936C13.9051 40.0064 13.9649 40.0258 14.018 40.0387C14.0512 40.0516 14.0911 40.058 14.1243 40.0645C14.1774 40.0773 14.2372 40.0902 14.2903 40.1031C14.5692 40.1547 14.8415 40.1869 15.1204 40.1998C15.1602 40.1998 15.1934 40.1998 15.2332 40.2063C15.2665 40.2063 15.2997 40.2063 15.3395 40.2063C15.4723 40.2127 15.6051 40.2127 15.7379 40.2063C15.7911 40.2063 15.8442 40.2063 15.8973 40.2063C15.9239 40.2063 15.9504 40.2063 15.9704 40.2063C16.0235 40.2063 16.0766 40.2063 16.1364 40.2063C16.2028 40.2063 16.2692 40.1998 16.3356 40.1998C16.3555 40.1998 16.3688 40.1998 16.3887 40.1998C16.4551 40.1998 16.5215 40.1934 16.5879 40.1869C16.661 40.1805 16.734 40.174 16.8137 40.1676C16.8536 40.1676 16.8868 40.1611 16.9266 40.1547C16.9465 40.1547 16.9731 40.1482 16.993 40.1482C17.2321 40.1225 17.4645 40.0902 17.7036 40.0516C17.8231 40.0387 17.936 40.0193 18.0555 40.0064C18.1418 40.0064 18.2016 40 18.2614 39.9936Z" fill="#DAAD1F"/>
<path d="M41.7684 24.2671C42.1004 24.2671 42.4258 24.2671 42.7645 24.2671C43.0832 24.5765 43.1031 24.6345 43.1164 25.047C43.1164 25.1243 43.123 25.2017 43.123 25.2854C43.123 25.3692 43.1297 25.4466 43.1297 25.5368C43.1297 25.6206 43.1363 25.7044 43.1363 25.7882C43.143 25.9944 43.1496 26.1942 43.1563 26.4005C43.1961 26.3425 43.2359 26.278 43.2758 26.2136C43.4816 25.9235 43.7273 25.756 44.0859 25.6915C44.7699 25.6335 45.4074 25.7882 45.9453 26.2071C46.3637 26.5938 46.5895 27.045 46.616 27.6058C46.616 27.6702 46.616 27.7347 46.616 27.7991C46.616 27.9087 46.616 27.9087 46.616 28.0183C46.616 28.0956 46.616 28.1729 46.616 28.2503C46.616 28.3276 46.616 28.4114 46.616 28.4888C46.616 28.7015 46.616 28.9077 46.616 29.1204C46.616 29.3331 46.616 29.5522 46.616 29.7649C46.616 30.1903 46.616 30.6093 46.616 31.0347C46.1777 31.0347 45.7395 31.0347 45.2879 31.0347C45.2879 30.938 45.2879 30.8478 45.2879 30.7446C45.2879 30.3901 45.2813 30.0356 45.2746 29.6812C45.2746 29.5265 45.2746 29.3782 45.268 29.2235C45.268 29.0044 45.2613 28.7853 45.2613 28.5661C45.2613 28.4952 45.2613 28.4308 45.2613 28.3599C45.248 27.8571 45.1617 27.4962 44.7965 27.1353C44.4312 26.987 44.0859 26.9806 43.6941 27.0386C43.4551 27.1997 43.3422 27.3608 43.2293 27.6187C43.2094 27.7798 43.2094 27.7798 43.2094 27.9603C43.2094 28.0312 43.2094 28.0956 43.2027 28.1665C43.2027 28.2761 43.2027 28.2761 43.2027 28.3921C43.2027 28.4694 43.2027 28.5403 43.1961 28.6177C43.1895 28.8562 43.1895 29.1011 43.1828 29.3396C43.1828 29.5007 43.1762 29.6683 43.1762 29.8294C43.1695 30.229 43.1629 30.6286 43.1563 31.0282C42.698 31.0282 42.2332 31.0282 41.7617 31.0282C41.7684 28.7981 41.7684 26.5681 41.7684 24.2671Z" fill="#DAAD1F"/>
<path d="M24.9676 25.8139C25.4258 25.8139 25.8906 25.8139 26.3621 25.8139C26.3621 25.9234 26.3621 26.0394 26.3621 26.149C26.3621 26.5164 26.3687 26.8838 26.3687 27.2512C26.3687 27.4767 26.3754 27.6959 26.3754 27.9215C26.3754 28.1793 26.382 28.4371 26.382 28.6949C26.382 28.7723 26.382 28.856 26.382 28.9398C26.382 29.3974 26.382 29.3974 26.5879 29.7971C26.9133 30.0678 27.2785 30.0355 27.6902 30.0033C27.8961 29.926 27.9824 29.8744 28.0953 29.6939C28.1617 29.5328 28.175 29.4103 28.175 29.2299C28.175 29.1654 28.175 29.101 28.175 29.0365C28.175 28.9656 28.175 28.9012 28.175 28.8303C28.175 28.6885 28.1816 28.5402 28.1816 28.3984C28.1816 28.1728 28.1883 27.9408 28.1883 27.7152C28.1883 27.4961 28.1949 27.2769 28.1949 27.0578C28.1949 26.9869 28.1949 26.9224 28.1949 26.8515C28.2016 26.4455 28.2215 26.1941 28.5336 25.9041C28.7527 25.7816 28.9187 25.7945 29.1711 25.801C29.2574 25.801 29.3371 25.8074 29.4234 25.8074C29.4898 25.8074 29.5496 25.8139 29.616 25.8139C29.6227 26.2973 29.6293 26.7807 29.6293 27.264C29.6293 27.4896 29.6293 27.7152 29.6359 27.9408C29.6426 28.1986 29.6426 28.4564 29.6426 28.7207C29.6426 28.798 29.6426 28.8818 29.6492 28.9592C29.6492 29.5328 29.5629 30.0742 29.2109 30.5447C28.6465 31.0539 27.9891 31.1892 27.2387 31.1892C27.1789 31.1892 27.1191 31.1892 27.0594 31.1892C26.6277 31.1828 26.2758 31.1248 25.8973 30.9057C25.7844 30.8412 25.7844 30.8412 25.6715 30.7832C25.2797 30.4803 25.0473 30.1 24.9676 29.6166C24.9609 29.4877 24.9609 29.3588 24.9609 29.2299C24.9609 29.1525 24.9609 29.0752 24.9609 28.9978C24.9609 28.9141 24.9609 28.8367 24.9609 28.7529C24.9609 28.6691 24.9609 28.5853 24.9609 28.5015C24.9609 28.276 24.9609 28.0568 24.9609 27.8312C24.9609 27.6056 24.9609 27.3736 24.9609 27.148C24.9676 26.7033 24.9676 26.2586 24.9676 25.8139Z" fill="#DAAD1D"/>
<path d="M17.4172 24.2543C17.4902 24.2543 17.4902 24.2543 17.5633 24.2607C17.6828 24.2607 17.8023 24.2672 17.9219 24.2736C17.9285 25.0277 17.9352 25.7883 17.9418 26.5424C17.9418 26.8904 17.9484 27.2449 17.9484 27.5929C17.9551 27.9345 17.9551 28.2697 17.9551 28.6113C17.9551 28.7402 17.9551 28.8691 17.9617 28.998C17.9617 29.1785 17.9617 29.359 17.9617 29.5394C17.9617 29.591 17.9617 29.6426 17.9684 29.7006C17.9617 30.1968 17.7426 30.5191 17.3906 30.8672C16.7996 31.3183 15.9895 31.2926 15.2723 31.2345C14.7344 31.1636 14.3625 30.9187 14.0105 30.5256C13.7914 30.1904 13.7383 29.8166 13.7383 29.4234C13.7383 29.3718 13.7383 29.3138 13.7383 29.2623C13.7383 29.1914 13.7383 29.1269 13.7383 29.056C13.7383 28.8369 13.7383 28.6242 13.7449 28.3986C14.2031 28.3986 14.668 28.3986 15.1395 28.3986C15.1395 28.5017 15.1395 28.5984 15.1395 28.7015C15.1395 28.8304 15.1461 28.9658 15.1461 29.0947C15.1461 29.1592 15.1461 29.2236 15.1461 29.2945C15.1461 29.6619 15.1461 29.6619 15.3453 29.9584C15.5379 30.0164 15.7039 30.0357 15.9031 30.0357C15.9629 30.0357 16.0293 30.0357 16.0957 30.0357C16.2617 30.0228 16.2617 30.0228 16.3746 29.9455C16.5141 29.7521 16.4941 29.5459 16.4875 29.3138C16.4875 29.2623 16.4875 29.2107 16.4875 29.1592C16.4875 29.0496 16.4875 28.94 16.4875 28.824C16.4875 28.65 16.4875 28.4695 16.4875 28.2955C16.4875 27.7927 16.4875 27.2965 16.4875 26.7937C16.4875 26.4908 16.4875 26.1814 16.4875 25.8785C16.4875 25.7625 16.4875 25.6465 16.4875 25.5304C16.4875 25.3693 16.4875 25.2017 16.4875 25.0406C16.4875 24.9697 16.4875 24.9697 16.4875 24.8924C16.4941 24.6668 16.5141 24.5443 16.6668 24.3703C16.9258 24.2349 17.1316 24.2349 17.4172 24.2543Z" fill="#DAAD1E"/>
<path d="M46.4832 16.6616C46.4832 17.2352 46.4832 17.8089 46.4832 18.4018C45.9121 18.4147 45.9121 18.4147 45.7328 18.4212C45.3211 18.4405 45.0688 18.5501 44.7766 18.8401C44.5109 19.2913 44.5375 19.7747 44.5309 20.2774C44.5309 20.3612 44.5309 20.4386 44.5242 20.5223C44.5242 20.735 44.5176 20.9477 44.5176 21.1604C44.5176 21.3796 44.5109 21.5987 44.5109 21.8178C44.5043 22.2432 44.4977 22.6751 44.491 23.1005C43.9465 23.1005 43.3953 23.1005 42.8309 23.1005C42.8309 22.5913 42.8242 22.0821 42.8242 21.5729C42.8242 21.3345 42.8242 21.1024 42.8242 20.8639C42.8242 20.6319 42.8242 20.4063 42.8242 20.1743C42.8242 20.0454 42.8242 19.9165 42.8242 19.7876C42.8242 18.8917 42.9703 18.1634 43.6012 17.4802C44.4246 16.7389 45.4074 16.6423 46.4832 16.6616Z" fill="#447C2E"/>
<path d="M8.10156 24.2026C8.45352 24.2026 8.80547 24.2026 9.16406 24.2026C9.49609 24.5249 9.49609 24.5249 9.53594 24.6667C9.53594 24.7118 9.53594 24.7634 9.53594 24.8085C9.53594 24.8923 9.53594 24.8923 9.53594 24.9761C9.53594 25.0341 9.53594 25.0985 9.5293 25.1565C9.5293 25.221 9.5293 25.2854 9.5293 25.3499C9.5293 25.5626 9.5293 25.7688 9.52266 25.9815C9.52266 26.1298 9.52266 26.2716 9.52266 26.4198C9.52266 26.8001 9.51601 27.1868 9.51601 27.5671C9.50937 27.9603 9.50938 28.347 9.50938 28.7401C9.50274 29.5071 9.50273 30.2741 9.49609 31.0411C9.03789 31.0411 8.57305 31.0411 8.10156 31.0411C8.10156 28.7788 8.10156 26.5229 8.10156 24.2026Z" fill="#DAAE20"/>
<path d="M33.668 14.792C34.8431 14.792 34.8432 14.7926 35.2148 15.1211C35.3675 15.3788 35.3613 15.5851 35.3613 15.875V20.0771C35.368 21.0504 35.2879 21.9014 34.5508 22.6426C33.8204 23.2419 32.8048 23.3644 31.8818 23.2871C31.1381 23.1969 30.5201 22.9002 30.0088 22.3652C29.7965 22.0946 29.6636 21.8172 29.5508 21.4951C29.5309 21.4372 29.5109 21.3792 29.4844 21.3213C29.1591 20.2192 29.2325 18.8661 29.7637 17.835C30.1488 17.2355 30.6266 16.732 31.3438 16.5322C32.1007 16.4291 32.7451 16.5266 33.376 16.9648C33.4686 17.0483 33.4691 17.0483 33.6016 17.2412C33.6215 16.4357 33.6481 15.6233 33.668 14.792ZM32.8906 18.0088C32.4259 17.8284 31.9412 17.9183 31.5693 18.2275C31.0779 18.7303 30.9846 19.3107 30.9912 19.9746C31.0045 20.5289 31.118 21.16 31.543 21.5596C31.8882 21.8237 32.1733 21.8566 32.6113 21.8438C32.9699 21.7986 33.1694 21.6695 33.415 21.4053C33.7736 20.7221 33.9262 19.9807 33.7734 19.2266C33.6008 18.6854 33.4084 18.3052 32.8906 18.0088Z" fill="#447D2E"/>
<path d="M35.3936 24.2666C35.6924 24.5566 35.6924 24.5893 35.6924 24.9824V28.3408C35.6924 29.2366 35.6394 30.0679 34.9688 30.751C34.431 31.1827 33.6411 31.2732 32.9639 31.2539C32.1803 31.183 31.5621 30.9504 31.0508 30.3574C30.4999 29.539 30.4202 28.5081 30.5928 27.5674C30.8053 26.852 31.1506 26.2455 31.8213 25.8652C32.3524 25.6204 32.9767 25.5816 33.541 25.749C33.8862 25.9036 34.0193 26.0265 34.2715 26.3291C34.2848 25.6461 34.3111 24.969 34.3311 24.2666H35.3936ZM33.6543 26.9805C33.1033 26.8323 32.6981 26.8514 32.2666 27.2314C32.0342 27.5602 31.9746 27.8637 31.9746 28.2568C31.9812 28.3212 31.9814 28.3795 31.9814 28.4375C31.9815 28.9722 32.0146 29.3327 32.4062 29.7451C32.7117 30.0158 32.9639 30.0418 33.3623 30.0225C33.6744 29.9838 33.8076 29.8746 34.0068 29.6426C34.3454 29.0433 34.4112 28.4373 34.2852 27.7607C34.1391 27.4127 33.9863 27.1803 33.6543 26.9805Z" fill="#DAAD1E"/>
<path d="M19.7871 26.1938C20.6968 25.511 22.0244 25.4726 22.9805 26.104C23.4984 26.5036 23.8313 27.0579 23.9707 27.6831C24.0504 28.7336 24.0436 29.7457 23.3066 30.5835C22.8219 31.0604 22.1509 31.2405 21.4736 31.2534C20.71 31.2276 20.0722 31.0154 19.541 30.4741C19.0297 29.8683 18.8699 29.0302 18.9297 28.2632C18.9363 28.1988 18.9367 28.128 18.9434 28.0571C19.0164 27.361 19.2426 26.6837 19.7871 26.1938ZM21.8447 26.9741C21.4463 26.9354 21.1336 26.9093 20.8281 27.1606C20.3966 27.6375 20.344 28.0954 20.3506 28.7075C20.3705 29.236 20.5029 29.6106 20.9014 29.978C21.1736 30.094 21.4131 30.1001 21.7119 30.0679C22.0304 29.9648 22.2296 29.8165 22.3955 29.5396C22.6213 29.0111 22.7013 28.3018 22.5088 27.7476C22.3627 27.3867 22.223 27.1353 21.8447 26.9741Z" fill="#DAAD1E"/>
<path d="M24.1787 17.0222C25.2147 16.2426 27.0876 16.3651 28.1699 17.0095C28.4686 17.2544 28.6809 17.5772 28.7539 17.9509C28.7605 18.0604 28.7676 18.1702 28.7676 18.2732V19.3552C28.7676 19.5099 28.7668 19.6654 28.7734 19.8201C28.7734 20.0455 28.7803 20.2714 28.7803 20.4968C28.7803 20.5676 28.7805 20.6321 28.7871 20.7029C28.7871 21.4053 28.6077 22.0691 28.0898 22.5847C27.2864 23.3065 26.3102 23.3386 25.2744 23.3064C24.9424 23.2806 24.6633 23.1906 24.3711 23.0359C24.2981 22.9973 24.2253 22.9583 24.1523 22.9197C23.7738 22.6232 23.4613 22.2882 23.375 21.8113C23.3285 21.2183 23.282 20.5867 23.6406 20.071C24.2715 19.3621 25.102 19.2456 26.0117 19.0974C26.5624 19.0073 26.5627 19.0075 27.0273 18.7175C27.107 18.492 27.107 18.4919 27.0938 18.2664C26.9277 18.0279 26.8413 18.015 26.5625 17.9441C26.3301 17.9183 26.33 17.9181 26.0977 17.9246C26.018 17.9246 25.9381 17.9251 25.8584 17.9187C25.6062 17.9445 25.4468 18.0022 25.2344 18.1375C25.2078 18.1826 25.1748 18.2281 25.1416 18.2732C25.0355 18.3955 25.035 18.3953 24.876 18.4275C24.8162 18.4275 24.7561 18.4271 24.6963 18.4207H24.4971C24.4307 18.4206 24.364 18.4148 24.291 18.4148C24.1852 18.4148 24.185 18.4144 24.0859 18.408C23.9133 18.408 23.7468 18.4017 23.5742 18.3953C23.6207 17.8346 23.7537 17.4218 24.1787 17.0222ZM27.1592 20.0134C26.9603 20.0134 26.9598 20.0133 26.7607 20.0583C26.6149 20.1034 26.4757 20.1351 26.3232 20.1609C25.9581 20.2189 25.619 20.2899 25.2871 20.4509C25.1012 20.5605 25.0342 20.6382 24.9678 20.8445C24.9346 21.1796 24.9015 21.4569 25.1006 21.7468C25.2864 21.8757 25.4063 21.9339 25.6318 21.9597C25.738 21.9533 25.7384 21.9529 25.8379 21.9529C26.1102 21.9529 26.31 21.9337 26.5557 21.8113C26.6019 21.7856 26.6481 21.7598 26.6943 21.7341C26.8337 21.6568 26.834 21.6564 26.96 21.5535C27.1525 21.2764 27.1863 21.0509 27.1797 20.7224C27.1797 20.6708 27.1729 20.6187 27.1729 20.5671C27.1662 20.3804 27.1658 20.2001 27.1592 20.0134Z" fill="#457D2F"/>
<path d="M8.60547 16.9512C9.65469 16.3067 11.3682 16.3456 12.4307 16.9707C12.7559 17.2091 12.9549 17.5121 13.0811 17.8857C13.0877 17.9889 13.0881 18.099 13.0947 18.2021V19.291C13.0947 19.523 13.0949 19.7557 13.1016 19.9941V20.6514C13.1015 21.4247 12.9156 22.0567 12.3711 22.6367C11.6872 23.2682 10.6844 23.3386 9.78809 23.3193C9.14404 23.2871 8.61225 23.1135 8.14746 22.6689C7.70254 22.1404 7.64219 21.508 7.69531 20.8506C7.80156 20.3996 7.98101 19.9804 8.35938 19.6904C8.97695 19.3295 9.6748 19.2135 10.3721 19.1104C10.7439 19.0524 11.1362 18.9943 11.415 18.7236C11.4349 18.537 11.4482 18.3883 11.415 18.208C11.2092 17.9824 10.9697 17.9568 10.6709 17.9375H10.4316C10.352 17.9375 10.272 17.9316 10.1924 17.9316C9.93359 17.9574 9.78057 18.0083 9.56152 18.1436C9.51508 18.2273 9.47514 18.3112 9.42871 18.4014H7.90137C7.97442 17.7442 8.08761 17.37 8.60547 16.9512ZM11.4873 20.0127C11.401 20.0127 11.4005 20.0129 10.9424 20.0967C10.8561 20.116 10.8559 20.116 10.7764 20.1289C10.6568 20.1547 10.5305 20.1803 10.4043 20.2061C10.1587 20.2511 9.92663 20.297 9.69434 20.3936C9.44863 20.574 9.31543 20.748 9.24902 21.0381C9.25565 21.1282 9.25606 21.1286 9.2627 21.2188C9.26934 21.457 9.28269 21.5409 9.42871 21.7471C9.6676 21.9016 9.86695 21.9535 10.1523 21.96C10.6038 21.947 10.9628 21.8695 11.2881 21.5537C11.4806 21.2702 11.5135 21.0503 11.5068 20.7217C11.5068 20.6703 11.5 20.6188 11.5 20.5674C11.4934 20.3805 11.4939 20.1996 11.4873 20.0127Z" fill="#457D2F"/>
<path d="M10.4883 27.7476C11.2984 27.7476 12.1086 27.7476 12.9453 27.7476C12.9453 28.1536 12.9453 28.5532 12.9453 28.9722C12.1152 28.9722 11.2785 28.9722 10.4219 28.9722C10.4219 27.8765 10.4219 27.8765 10.4883 27.7476Z" fill="#DAAD1F"/>
<path d="M4.19531 24.1963H4.38184C4.53451 24.1963 4.68737 24.2021 4.84668 24.2021C5.18532 24.9433 5.45745 25.7106 5.73633 26.4775C5.7894 26.6192 5.84244 26.7611 5.89551 26.9092C5.97519 27.1283 6.05509 27.3479 6.13477 27.5605C6.30738 28.0245 6.47973 28.495 6.65234 28.959C6.71874 29.133 6.77931 29.3006 6.8457 29.4746C6.88552 29.5841 6.92503 29.6938 6.96484 29.7969C7.01797 29.9451 7.07773 30.0939 7.13086 30.2422C7.14414 30.2872 7.16448 30.3261 7.17773 30.3711C7.25735 30.5901 7.31683 30.7964 7.36328 31.0283H5.76953C5.61681 30.603 5.46405 30.1775 5.30469 29.7393H2.78125C2.62853 30.1646 2.47577 30.5901 2.31641 31.0283H0.855469C0.941797 30.6609 1.01465 30.351 1.14746 30.0029C1.18062 29.9192 1.21391 29.8288 1.24707 29.7451C1.26692 29.7001 1.2809 29.6554 1.30078 29.6104C1.59961 28.824 1.8918 28.0307 2.16406 27.2314C2.19054 27.1543 2.21668 27.0771 2.24316 27C2.37598 26.6133 2.50879 26.2324 2.6416 25.8457C2.68805 25.704 2.74164 25.5626 2.78809 25.4209C2.80801 25.3564 2.83457 25.2916 2.85449 25.2207C3.17968 24.3133 3.22038 24.1994 3.62988 24.1895H4.00977C4.06941 24.1895 4.13564 24.1899 4.19531 24.1963ZM3.9834 25.6846C3.95022 25.8327 3.90408 25.9813 3.86426 26.123C3.8377 26.1939 3.81757 26.2651 3.79102 26.3359C3.73794 26.4969 3.68491 26.6515 3.63184 26.8125C3.60527 26.8963 3.57832 26.9744 3.55176 27.0518C3.52523 27.1354 3.49918 27.2128 3.47266 27.29C3.35313 27.6574 3.35272 27.6573 3.12695 28.5273H4.98633C4.98633 28.3342 4.98624 28.3341 4.95312 28.2119C4.93984 28.1604 4.91953 28.1145 4.90625 28.0693C4.87985 27.9861 4.88002 27.9854 4.85352 27.9082C4.83364 27.8503 4.81382 27.7922 4.79395 27.7344C4.7342 27.554 4.674 27.3669 4.61426 27.1865C4.57445 27.0578 4.52809 26.9354 4.48828 26.8066C4.36211 26.4328 4.24238 26.0584 4.11621 25.6846H3.9834Z" fill="#DAAD1F"/>
<path d="M36.9863 17.1836C37.9758 16.2622 39.656 16.3012 40.7715 16.9844C41.3025 17.3711 41.7012 18.0287 41.834 18.6602C41.8472 18.9178 41.8467 19.1754 41.8467 19.4395C41.8467 19.5104 41.8469 19.5814 41.8535 19.6523V20.0459C41.827 20.2389 41.7872 20.2845 41.6279 20.4004C41.4619 20.4262 41.4617 20.4258 41.2559 20.4258C41.1828 20.4258 41.1031 20.4262 41.0234 20.4326H40.7773C40.6516 20.4326 40.6514 20.432 40.5254 20.4385C40.3063 20.4385 40.0805 20.4453 39.8613 20.4453C39.6357 20.4453 39.41 20.4512 39.1777 20.4512C38.7329 20.4576 38.2876 20.4648 37.8428 20.4648C37.8693 20.6 37.8953 20.7291 37.9219 20.8643C37.9418 20.9737 37.9422 20.9739 37.9688 21.0898C38.0617 21.3732 38.188 21.5663 38.46 21.708C38.8717 21.8176 39.3303 21.8111 39.7354 21.6758C39.9077 21.5664 39.9079 21.5665 40.0273 21.3926C40.3394 21.1541 40.6315 21.2058 41.0166 21.2188C41.0896 21.2188 41.1566 21.2182 41.2363 21.2246C41.4089 21.231 41.5882 21.2318 41.7607 21.2383C41.6146 21.9728 41.2692 22.4759 40.6318 22.9141C39.8417 23.3007 38.8322 23.3907 37.9756 23.1846C37.3581 22.9719 36.8469 22.5913 36.5215 22.0371C36.1961 21.3346 36.1094 20.6642 36.1094 19.9102V19.6914C36.1094 18.7375 36.3023 17.899 36.9863 17.1836ZM39.709 18.0801C39.2707 17.8416 38.8391 17.7965 38.3809 18.0156C38.0291 18.2862 38.0289 18.2865 37.7832 19.2402H40.2402V18.9824C40.1473 18.6151 39.9878 18.3443 39.709 18.0801Z" fill="#457D2E"/>
<path d="M37.4492 25.9619C38.2195 25.5753 39.3153 25.5299 40.1055 25.8779C40.152 25.8973 40.2055 25.9166 40.252 25.9424C40.5772 26.1099 40.743 26.3171 40.9023 26.6328C41.035 27.0581 41.0154 27.49 41.0088 27.9346V28.4375C41.0088 29.2235 40.9884 29.9966 40.3779 30.583C39.7471 31.118 38.983 31.2084 38.1729 31.1826C37.6218 31.1439 37.2562 31.0088 36.8379 30.6543C36.5824 30.3443 36.5097 30.0439 36.5 29.6846V29.3779C36.5133 28.9463 36.5792 28.6627 36.9043 28.3535C37.3359 28.0248 37.8543 27.9469 38.3789 27.8438C38.5914 27.8051 38.7973 27.7541 39.0098 27.709C39.0762 27.6961 39.1428 27.677 39.2158 27.6641C39.3883 27.6254 39.3885 27.625 39.5811 27.5605C39.5877 27.4768 39.5939 27.3992 39.6006 27.3154C39.6072 27.2448 39.6077 27.2447 39.6143 27.1807C39.5943 27.0325 39.594 27.0321 39.4414 26.9355C39.0497 26.768 38.6113 26.7997 38.2129 26.9414C38.0402 27.0445 38.0404 27.0453 37.9209 27.2451C37.7882 27.2644 37.7878 27.2637 37.6289 27.2637H37.4561C37.3963 27.2637 37.3361 27.2578 37.2764 27.2578H37.0977C36.9516 27.2578 36.8051 27.251 36.6523 27.251C36.6723 27.1608 36.692 27.0638 36.7119 26.9736C36.7251 26.8966 36.7252 26.8965 36.7451 26.8193C36.8514 26.4326 37.1238 26.1939 37.4492 25.9619ZM39.6406 28.5205C39.4082 28.5205 39.2152 28.5662 38.9961 28.6113C38.9364 28.6306 38.8829 28.6434 38.8232 28.6562C38.5579 28.7142 38.2925 28.7721 38.0537 28.9072C37.8812 29.0296 37.7943 29.1202 37.7412 29.3262C37.7479 29.3842 37.7482 29.4361 37.7549 29.4941C37.7615 29.6681 37.768 29.7779 37.8477 29.9326C38.0268 30.0357 38.18 30.1193 38.3857 30.1387C38.7774 30.145 39.136 30.0486 39.4414 29.8037C39.5809 29.591 39.6402 29.4424 39.6602 29.1846C39.6602 29.0623 39.66 29.0622 39.6533 28.9463C39.6467 28.8045 39.6473 28.6623 39.6406 28.5205Z" fill="#DAAD1F"/>
<path d="M25.4961 0.999405C25.4297 1.12831 25.4297 1.12831 25.2305 1.25722C24.9914 1.32812 24.7457 1.37968 24.5 1.43124C24.4004 1.45702 24.4004 1.45702 24.2941 1.47636C24.2277 1.48925 24.168 1.50214 24.1016 1.52148C24.0418 1.53437 23.982 1.54726 23.9223 1.56015C23.7695 1.57948 23.7695 1.57948 23.5703 1.51503C23.7762 1.44413 23.982 1.36679 24.1879 1.29589C24.2477 1.27655 24.3074 1.25077 24.3672 1.23144C24.4203 1.2121 24.4801 1.19276 24.5398 1.17343C24.593 1.15409 24.6461 1.13476 24.6992 1.11542C24.9781 1.0123 25.1973 0.99296 25.4961 0.999405Z" fill="#D7AA2A"/>
<path d="M3.51836 24.2026C3.95664 24.2026 4.39492 24.2026 4.84648 24.2026C4.86641 24.3122 4.89297 24.4153 4.91289 24.5249C4.86641 24.4798 4.82656 24.4411 4.78008 24.396C4.64727 24.3702 4.64727 24.3702 4.48789 24.3702C4.42813 24.3702 4.375 24.3638 4.31523 24.3638C4.25547 24.3638 4.1957 24.3573 4.13594 24.3573C4.07617 24.3573 4.01641 24.3509 3.95664 24.3509C3.81055 24.3444 3.66445 24.338 3.51172 24.3315C3.51836 24.2864 3.51836 24.2478 3.51836 24.2026Z" fill="#DAB032"/>
<path d="M44.4301 25.6721C44.5164 25.6721 44.5164 25.6721 44.6027 25.6721C44.7488 25.685 44.7488 25.685 44.8816 25.8139C44.7289 25.8268 44.5762 25.8397 44.4234 25.8526C44.2973 25.8655 44.2973 25.8655 44.1644 25.8784C44.0914 25.8784 44.0184 25.8784 43.9453 25.8784C43.8988 25.8333 43.859 25.7946 43.8125 25.7495C44.0316 25.6915 44.2176 25.6721 44.4301 25.6721Z" fill="#D9AF2F"/>
<path d="M30.7422 27.103C30.8086 27.103 30.875 27.103 30.9414 27.103C30.9215 27.1997 30.9082 27.2964 30.8883 27.3866C30.875 27.4382 30.8684 27.4897 30.8551 27.5478C30.8418 27.5929 30.8219 27.638 30.8086 27.6831C30.7422 27.7024 30.6758 27.7282 30.6094 27.7476C30.6426 27.522 30.6691 27.3157 30.7422 27.103Z" fill="#DBB02D"/>
<path d="M42.1654 10.9253C42.1853 10.9253 42.2119 10.9253 42.2318 10.9253C42.2517 11.1573 42.2783 11.3958 42.2982 11.6343C42.2517 11.6343 42.2119 11.6343 42.1654 11.6343C42.0791 11.4731 42.1056 11.3829 42.1256 11.2089C42.1322 11.1573 42.1388 11.1058 42.1455 11.0478C42.1521 11.0091 42.1588 10.964 42.1654 10.9253Z" fill="#DAB12E"/>
<path d="M2.25781 26.9741C2.3043 27.0386 2.34414 27.103 2.39062 27.1675C2.33086 27.406 2.33086 27.406 2.25781 27.6187C2.18477 27.5155 2.18477 27.5155 2.125 27.3608C2.18477 27.1546 2.18477 27.1546 2.25781 26.9741Z" fill="#DDB331"/>
<path d="M16.8633 19.8843C16.9297 19.9036 16.9961 19.9294 17.0625 19.9487C17.0426 20.097 17.016 20.2452 16.9961 20.3999C16.9297 20.3999 16.8633 20.3999 16.7969 20.3999C16.8168 20.2323 16.8434 20.0583 16.8633 19.8843Z" fill="#4D803A"/>
</svg>
