<svg width="45" height="33" viewBox="0 0 45 33" fill="none" xmlns="http://www.w3.org/2000/svg">
<rect x="0.5" y="1.05469" width="44" height="30.7647" rx="4.79412" fill="#1A1A1A" stroke="#333333"/>
<path fill-rule="evenodd" clip-rule="evenodd" d="M12.5076 11.597C12.1299 12.0628 11.5255 12.4301 10.9212 12.3777C10.8456 11.7479 11.1415 11.0788 11.4877 10.6656C11.8655 10.1867 12.5265 9.84558 13.0615 9.81934C13.1245 10.4753 12.879 11.1182 12.5076 11.597ZM13.0545 12.5023C12.522 12.4703 12.0362 12.6691 11.6438 12.8297C11.3913 12.933 11.1775 13.0205 11.0148 13.0205C10.8322 13.0205 10.6096 12.9283 10.3596 12.8248C10.032 12.6892 9.65749 12.5342 9.26475 12.5416C8.36453 12.5548 7.52727 13.0861 7.06773 13.9323C6.12345 15.6247 6.82221 18.1306 7.73502 19.5082C8.18197 20.1904 8.71707 20.9382 9.42213 20.912C9.73231 20.8998 9.95544 20.8011 10.1864 20.699C10.4522 20.5814 10.7284 20.4593 11.1596 20.4593C11.5759 20.4593 11.84 20.5783 12.0935 20.6924C12.3345 20.801 12.566 20.9052 12.9097 20.8988C13.6399 20.8857 14.0995 20.2166 14.5464 19.5344C15.0288 18.8022 15.2407 18.0876 15.2729 17.9791L15.2767 17.9666C15.2759 17.9658 15.2699 17.963 15.2594 17.9579C15.0982 17.881 13.8658 17.2931 13.8539 15.7166C13.8421 14.3933 14.8315 13.7229 14.9872 13.6173C14.9967 13.6109 15.0031 13.6066 15.006 13.6043C14.3764 12.6335 13.3944 12.5285 13.0545 12.5023ZM18.1086 20.8267V10.5999H21.7913C23.6924 10.5999 25.0207 11.9644 25.0207 13.9586C25.0207 15.9527 23.6672 17.3303 21.7409 17.3303H19.632V20.8267H18.1086ZM19.6337 11.9382H21.3901C22.7121 11.9382 23.4675 12.6729 23.4675 13.9651C23.4675 15.2574 22.7121 15.9987 21.3838 15.9987H19.6337V11.9382ZM30.0505 19.6C29.6476 20.4003 28.76 20.9054 27.8031 20.9054C26.3867 20.9054 25.3983 20.0264 25.3983 18.7013C25.3983 17.3893 26.3552 16.635 28.1241 16.5235L30.0253 16.4054V15.8412C30.0253 15.0081 29.5028 14.5555 28.5711 14.5555C27.8031 14.5555 27.2428 14.9688 27.1295 15.5985H25.7571C25.8012 14.2734 26.9973 13.3092 28.6152 13.3092C30.3589 13.3092 31.4921 14.2603 31.4921 15.7363V20.8267H30.0819V19.6H30.0505ZM28.213 19.6918C27.4009 19.6918 26.8847 19.2851 26.8847 18.6619C26.8847 18.0191 27.382 17.6452 28.3326 17.5861L30.026 17.4746V18.0519C30.026 19.0096 29.2454 19.6918 28.213 19.6918ZM36.1713 21.2268C35.5607 23.0177 34.8619 23.608 33.3763 23.608C33.263 23.608 32.8853 23.5949 32.7971 23.5687V22.342C32.8916 22.3551 33.1245 22.3682 33.2441 22.3682C33.9177 22.3682 34.2954 22.073 34.5283 21.3055L34.6668 20.8529L32.0858 13.4075H33.6784L35.4726 19.4491H35.5041L37.2982 13.4075H38.8468L36.1713 21.2268Z" fill="white"/>
</svg>
