<svg width="40" height="29" viewBox="0 0 40 29" fill="none" xmlns="http://www.w3.org/2000/svg">
<path d="M32.7021 20.8591C31.7247 20.8591 30.7962 21.242 30.0957 21.9343C29.3952 22.6347 29.0043 23.547 29.0043 24.5244C29.0043 25.5018 29.3871 26.414 30.0957 27.1145C30.8043 27.8068 31.7247 28.1896 32.7021 28.1896C34.7058 28.1896 36.3348 26.5443 36.3348 24.5244C36.3348 22.5044 34.7058 20.8591 32.7021 20.8591ZM32.7021 26.5606C31.5781 26.5606 30.6333 25.6321 30.6333 24.5244C30.6333 23.4167 31.5781 22.4881 32.7021 22.4881C33.8098 22.4881 34.7058 23.4004 34.7058 24.5244C34.7058 25.6484 33.8098 26.5606 32.7021 26.5606ZM33.6469 8.64981C33.5003 8.51135 33.3048 8.43804 33.1012 8.43804H28.9228C28.4749 8.43804 28.1083 8.80457 28.1083 9.25254V15.9314C28.1083 16.3794 28.4749 16.7459 28.9228 16.7459H35.5528C36.0008 16.7459 36.3673 16.3794 36.3673 15.9314V11.4598C36.3673 11.2318 36.2696 11.0119 36.0986 10.8571L33.6469 8.64981ZM34.7383 15.1169H29.7373V10.0589H32.7835L34.7383 11.8182V15.1169ZM12.8121 20.8591C11.8347 20.8591 10.9061 21.242 10.2057 21.9343C9.50519 22.6347 9.11423 23.547 9.11423 24.5244C9.11423 25.5018 9.49705 26.414 10.2057 27.1145C10.9143 27.8068 11.8347 28.1896 12.8121 28.1896C14.8157 28.1896 16.4447 26.5443 16.4447 24.5244C16.4447 22.5044 14.8157 20.8591 12.8121 20.8591ZM12.8121 26.5606C11.688 26.5606 10.7432 25.6321 10.7432 24.5244C10.7432 23.4167 11.688 22.4881 12.8121 22.4881C13.9198 22.4881 14.8157 23.4004 14.8157 24.5244C14.8157 25.6484 13.9198 26.5606 12.8121 26.5606ZM7.37935 21.861H5.74221V19.6944C5.74221 19.2464 5.37569 18.8799 4.92771 18.8799C4.47974 18.8799 4.11322 19.2464 4.11322 19.6944V22.6755C4.11322 23.1234 4.47974 23.49 4.92771 23.49H7.37935C7.82733 23.49 8.19385 23.1234 8.19385 22.6755C8.19385 22.2275 7.82733 21.861 7.37935 21.861ZM11.5089 17.422C11.5089 16.974 11.1423 16.6075 10.6944 16.6075H0.814498C0.366524 16.6075 0 16.974 0 17.422C0 17.8699 0.366524 18.2365 0.814498 18.2365H10.6944C11.1423 18.2365 11.5089 17.8781 11.5089 17.422ZM2.46793 14.4816L12.3478 14.5386C12.7958 14.5386 13.1623 14.1803 13.1704 13.7323C13.1786 13.2762 12.8121 12.9096 12.3641 12.9096L2.48422 12.8526C2.47607 12.8526 2.47607 12.8526 2.47607 12.8526C2.0281 12.8526 1.66158 13.211 1.66158 13.659C1.65343 14.1151 2.01996 14.4816 2.46793 14.4816ZM4.12951 10.7838H14.0094C14.4573 10.7838 14.8239 10.4173 14.8239 9.9693C14.8239 9.52132 14.4573 9.1548 14.0094 9.1548H4.12951C3.68153 9.1548 3.31501 9.52132 3.31501 9.9693C3.31501 10.4173 3.68153 10.7838 4.12951 10.7838ZM39.6986 9.68422L33.8668 4.85425C33.7202 4.73208 33.541 4.66692 33.3456 4.66692H26.4875V1.73473C26.4875 1.28675 26.121 0.920227 25.673 0.920227H4.92771C4.47974 0.920227 4.11322 1.28675 4.11322 1.73473V7.69685C4.11322 8.14483 4.47974 8.51135 4.92771 8.51135C5.37569 8.51135 5.74221 8.14483 5.74221 7.69685V2.54922H24.8666V21.861H18.1877C17.7398 21.861 17.3732 22.2275 17.3732 22.6755C17.3732 23.1234 17.7398 23.49 18.1877 23.49H28.1328C28.5807 23.49 28.9473 23.1234 28.9473 22.6755C28.9473 22.2275 28.5807 21.861 28.1328 21.861H26.4956V6.29591H33.0605L38.371 10.6942L38.314 21.8447H37.4669C37.0189 21.8447 36.6524 22.2112 36.6524 22.6592C36.6524 23.1071 37.0189 23.4737 37.4669 23.4737H39.1203C39.5683 23.4737 39.9348 23.1153 39.9348 22.6673L40 10.3195C39.9919 10.0752 39.886 9.83898 39.6986 9.68422Z" fill="#00B307"/>
</svg>
