<svg width="45" height="33" viewBox="0 0 45 33" fill="none" xmlns="http://www.w3.org/2000/svg">
<rect x="0.5" y="1.05469" width="44" height="30.7647" rx="4.79412" fill="#1A1A1A" stroke="#333333"/>
<path d="M18.5293 31.2314L43.6764 23.6211V27.2608C43.6764 29.4537 41.8987 31.2314 39.7058 31.2314H18.5293Z" fill="#FD6020"/>
<path fill-rule="evenodd" clip-rule="evenodd" d="M38.9044 12.6135C40.2878 12.6135 41.0488 13.2535 41.0488 14.4623C41.1179 15.3868 40.4954 16.169 39.6653 16.3112L41.533 18.9422H40.0803L38.4893 16.3823H38.351V18.9422H37.175V12.6135H38.9044ZM38.3506 15.529H38.6964C39.4574 15.529 39.8032 15.1734 39.8032 14.5335C39.8032 13.9646 39.4574 13.609 38.6964 13.609H38.3506V15.529ZM33.0933 18.9422H36.4136V17.8756H34.2692V16.169H36.3444V15.1023H34.2692V13.6801H36.4136V12.6135H33.0933V18.9422ZM29.6349 16.88L28.0439 12.6135H26.7988L29.3582 19.0844H29.9808L32.5402 12.6135H31.2951L29.6349 16.88ZM15.5927 15.8134C15.5927 17.5912 16.9762 19.0844 18.7055 19.0844C19.2589 19.0844 19.7431 18.9422 20.2274 18.7289V17.3067C19.8815 17.7334 19.3973 18.0178 18.8439 18.0178C17.7371 18.0178 16.8378 17.1645 16.8378 16.0268V15.8845C16.7687 14.7468 17.6679 13.7513 18.7747 13.6801C19.3281 13.6801 19.8815 13.9646 20.2274 14.3912V12.9691C19.8123 12.6846 19.2589 12.6135 18.7747 12.6135C16.9762 12.4713 15.5927 13.9646 15.5927 15.8134ZM13.4467 15.0312C12.7549 14.7468 12.5474 14.6046 12.5474 14.249C12.6166 13.8224 12.9625 13.4668 13.3775 13.5379C13.7234 13.5379 14.0692 13.7513 14.3459 14.0357L14.9685 13.1824C14.4843 12.7557 13.8617 12.4713 13.2392 12.4713C12.2707 12.4002 11.4406 13.1824 11.3715 14.1779V14.249C11.3715 15.1023 11.7173 15.6001 12.8241 15.9556C13.1008 16.0267 13.3775 16.169 13.6542 16.3112C13.8617 16.4534 14.0001 16.6667 14.0001 16.9512C14.0001 17.4489 13.585 17.8756 13.17 17.8756H13.1008C12.5474 17.8756 12.0632 17.52 11.8557 17.0223L11.0948 17.8045C11.5098 18.5867 12.3399 19.0133 13.17 19.0133C14.2768 19.0844 15.176 18.2311 15.2452 17.0934V16.8801C15.176 16.0267 14.8302 15.6001 13.4467 15.0312ZM9.43519 18.9422H10.6111V12.6135H9.43519V18.9422ZM3.97046 12.6135H5.69981H6.04568C7.70585 12.6846 9.02015 14.1068 8.95098 15.8134C8.95098 16.7378 8.53594 17.5911 7.8442 18.2311C7.22163 18.7289 6.46072 19.0133 5.69981 18.9422H3.97046V12.6135ZM5.4924 17.8755C6.04579 17.9467 6.66835 17.7333 7.0834 17.3778C7.49844 16.9511 7.70596 16.3823 7.70596 15.7423C7.70596 15.1734 7.49844 14.6045 7.0834 14.1779C6.66835 13.8223 6.04579 13.609 5.4924 13.6801H5.14653V17.8755H5.4924Z" fill="white"/>
<path fill-rule="evenodd" clip-rule="evenodd" d="M23.7534 12.4668C22.0241 12.4668 20.5714 13.889 20.5714 15.7378C20.5714 17.5156 21.9549 19.0088 23.7534 19.08C25.5519 19.1511 26.9354 17.6578 27.0046 15.8089C26.9354 13.9601 25.5519 12.4668 23.7534 12.4668V12.4668Z" fill="#FD6020"/>
</svg>
