<svg width="40" height="41" viewBox="0 0 40 41" fill="none" xmlns="http://www.w3.org/2000/svg">
<g clip-path="url(#clip0_629_3527)">
<path d="M33.6848 15.765V14.2272C33.6848 10.5465 32.3823 7.12636 30.021 4.58855C27.6008 1.9835 24.2731 0.554932 20.6428 0.554932H19.3739C15.7437 0.554932 12.4159 1.9835 9.99575 4.58855C7.6344 7.12636 6.33188 10.5465 6.33188 14.2272V15.765C3.46634 15.9583 1.18903 18.3448 1.18903 21.2608V23.6642C1.18903 26.6978 3.65961 29.1684 6.69323 29.1684H9.79407C10.3487 29.1684 10.8025 28.7146 10.8025 28.16V16.7566C10.8025 16.202 10.3487 15.7482 9.79407 15.7482H8.34869V14.2272C8.34869 7.58014 13.0882 2.57174 19.3655 2.57174H20.6344C26.9201 2.57174 31.6512 7.58014 31.6512 14.2272V15.7482H30.2058C29.6512 15.7482 29.1974 16.202 29.1974 16.7566V28.1516C29.1974 28.7062 29.6512 29.16 30.2058 29.16H31.6176C31.2058 34.4205 27.584 35.639 25.9033 35.9163C25.4411 34.4961 24.105 33.4709 22.5336 33.4709H20.0126C18.063 33.4709 16.4747 35.0591 16.4747 37.0087C16.4747 38.9583 18.063 40.5549 20.0126 40.5549H22.542C24.1722 40.5549 25.542 39.4457 25.9537 37.9499C26.7773 37.8322 28.0798 37.5381 29.3739 36.7818C31.1974 35.7146 33.3571 33.5381 33.6428 29.1516C36.5252 28.9751 38.8109 26.5801 38.8109 23.6558V21.2524C38.8193 18.3448 36.5504 15.9499 33.6848 15.765ZM8.80247 27.1432H6.71003C4.78566 27.1432 3.22264 25.5801 3.22264 23.6558V21.2524C3.22264 19.328 4.78566 17.765 6.71003 17.765H8.80247V27.1432ZM22.542 38.5381H20.0126C19.1722 38.5381 18.4916 37.8575 18.4916 37.0171C18.4916 36.1768 19.1722 35.4961 20.0126 35.4961H22.542C23.3823 35.4961 24.063 36.1768 24.063 37.0171C24.063 37.8575 23.3823 38.5381 22.542 38.5381ZM36.8025 23.6558C36.8025 25.5801 35.2395 27.1432 33.3151 27.1432H31.2226V17.765H33.3151C35.2395 17.765 36.8025 19.328 36.8025 21.2524V23.6558Z" fill="#00B307"/>
</g>
<defs>
<clipPath id="clip0_629_3527">
<rect width="40" height="40" fill="white" transform="translate(0 0.554932)"/>
</clipPath>
</defs>
</svg>
