<svg width="32" height="32" viewBox="0 0 32 32" fill="none" xmlns="http://www.w3.org/2000/svg">
<g clip-path="url(#clip0_3002_18639)">
<path d="M31.9848 16.2989C31.9848 14.9879 31.876 14.0312 31.6403 13.0391H16.3188V18.9564H25.3122C25.131 20.4269 24.1518 22.6415 21.976 24.1296L21.9455 24.3277L26.7898 27.9947L27.1255 28.0274C30.2078 25.2458 31.9848 21.1533 31.9848 16.2989Z" fill="#4285F4"/>
<path d="M16.3188 31.8901C20.7248 31.8901 24.4237 30.4727 27.1255 28.0279L21.976 24.1301C20.598 25.0691 18.7485 25.7246 16.3188 25.7246C12.0035 25.7246 8.34085 22.9432 7.03522 19.0986L6.84385 19.1145L1.8066 22.9236L1.74072 23.1025C4.42422 28.3112 9.93635 31.8901 16.3188 31.8901Z" fill="#34A853"/>
<path d="M7.03512 19.0987C6.69062 18.1066 6.49125 17.0435 6.49125 15.9451C6.49125 14.8466 6.69062 13.7837 7.017 12.7915L7.00787 12.5803L1.9075 8.70996L1.74062 8.78752C0.634625 10.949 0 13.3762 0 15.9451C0 18.5141 0.634625 20.9412 1.74062 23.1026L7.03512 19.0987Z" fill="#FBBC05"/>
<path d="M16.3188 6.16537C19.3831 6.16537 21.4501 7.45869 22.6287 8.53948L27.2342 4.14571C24.4057 1.57679 20.7248 0 16.3188 0C9.93635 0 4.42422 3.57875 1.74072 8.78742L7.0171 12.7915C8.34085 8.94693 12.0035 6.16537 16.3188 6.16537Z" fill="#EB4335"/>
</g>
<defs>
<clipPath id="clip0_3002_18639">
<rect width="32" height="32" fill="white"/>
</clipPath>
</defs>
</svg>
