<svg width="45" height="33" viewBox="0 0 45 33" fill="none" xmlns="http://www.w3.org/2000/svg">
<rect x="0.5" y="1.05469" width="44" height="30.7647" rx="4.79412" fill="#1A1A1A" stroke="#333333"/>
<path fill-rule="evenodd" clip-rule="evenodd" d="M28.5583 24.9472C33.5147 24.9472 37.5327 20.977 37.5327 16.0796C37.5327 11.1821 33.5147 7.21191 28.5583 7.21191C26.3369 7.21191 24.3041 8.00937 22.7369 9.33035C21.1698 8.00937 19.137 7.21192 16.9156 7.21192C11.9592 7.21192 7.94116 11.1821 7.94116 16.0796C7.94116 20.977 11.9592 24.9472 16.9156 24.9472C19.137 24.9472 21.1698 24.1498 22.737 22.8288C24.3041 24.1498 26.3369 24.9472 28.5583 24.9472Z" fill="#ED0006"/>
<path fill-rule="evenodd" clip-rule="evenodd" d="M22.7363 22.8287C24.6658 21.2022 25.8893 18.7821 25.8893 16.0796C25.8893 13.3771 24.6658 10.9569 22.7363 9.33045C24.3035 8.00941 26.3364 7.21191 28.5578 7.21191C33.5142 7.21191 37.5322 11.1821 37.5322 16.0796C37.5322 20.977 33.5142 24.9472 28.5578 24.9472C26.3364 24.9472 24.3035 24.1497 22.7363 22.8287Z" fill="#F9A000"/>
<path fill-rule="evenodd" clip-rule="evenodd" d="M22.737 22.8283C24.6665 21.2018 25.8899 18.7817 25.8899 16.0792C25.8899 13.3767 24.6665 10.9566 22.737 9.33008C20.8075 10.9566 19.584 13.3767 19.584 16.0792C19.584 18.7817 20.8075 21.2018 22.737 22.8283Z" fill="#FF5E00"/>
</svg>
