<svg width="40" height="41" viewBox="0 0 40 41" fill="none" xmlns="http://www.w3.org/2000/svg">
<g clip-path="url(#clip0_629_3586)">
<path d="M38.8088 9.98507C38.8088 9.83311 38.775 9.68115 38.7075 9.53763C38.5724 9.25058 38.3107 9.05641 38.0236 8.99731L20.8265 0.65624C20.5479 0.521162 20.2187 0.521162 19.9401 0.65624L2.57408 9.07329C2.23639 9.2337 2.01688 9.57139 2 9.9513V9.95974C2 9.96819 2 9.97663 2 9.99351V31.1164C2 31.5047 2.2195 31.8593 2.57408 32.0281L19.9401 40.4452C19.9485 40.4452 19.9485 40.4452 19.9569 40.4536C19.9823 40.4621 20.0076 40.4705 20.0329 40.4874C20.0414 40.4874 20.0498 40.4958 20.0667 40.4958C20.092 40.5043 20.1173 40.5127 20.1427 40.5212C20.1511 40.5212 20.1596 40.5296 20.168 40.5296C20.1933 40.538 20.2271 40.538 20.2524 40.5465C20.2609 40.5465 20.2693 40.5465 20.2778 40.5465C20.3115 40.5465 20.3537 40.5549 20.3875 40.5549C20.4213 40.5549 20.4635 40.5549 20.4973 40.5465C20.5057 40.5465 20.5141 40.5465 20.5226 40.5465C20.5479 40.5465 20.5817 40.538 20.607 40.5296C20.6154 40.5296 20.6239 40.5212 20.6323 40.5212C20.6577 40.5127 20.683 40.5043 20.7083 40.4958C20.7168 40.4958 20.7252 40.4874 20.7421 40.4874C20.7674 40.479 20.7927 40.4705 20.8181 40.4536C20.8265 40.4536 20.8265 40.4536 20.8349 40.4452L38.2516 32.0028C38.5977 31.834 38.8257 31.4794 38.8257 31.091V10.0104C38.8088 10.002 38.8088 9.99351 38.8088 9.98507ZM20.3791 2.69085L35.4403 9.99351L29.8936 12.6866L14.8324 5.38397L20.3791 2.69085ZM20.3791 17.2962L5.31786 9.99351L12.5108 6.50681L27.572 13.8095L20.3791 17.2962ZM4.02617 11.6229L19.366 19.0606V37.9125L4.02617 30.4747V11.6229ZM21.3921 37.9125V19.0606L28.5935 15.5655V20.4958C28.5935 21.053 29.0494 21.5089 29.6066 21.5089C30.1638 21.5089 30.6197 21.053 30.6197 20.4958V14.5777L36.7826 11.5891V30.441L21.3921 37.9125Z" fill="#00B307"/>
</g>
<defs>
<clipPath id="clip0_629_3586">
<rect width="40" height="40" fill="white" transform="translate(0 0.554932)"/>
</clipPath>
</defs>
</svg>
