<svg width="132" height="33" viewBox="0 0 132 33" fill="none" xmlns="http://www.w3.org/2000/svg">
<g clip-path="url(#clip0_629_3421)">
<path d="M113.682 0.554932C111.612 0.554932 109.919 2.22673 109.924 4.29682C109.919 6.3774 111.627 8.04396 113.703 8.03872C115.773 8.04396 117.429 6.3774 117.429 4.29682C117.424 2.23197 115.752 0.554932 113.682 0.554932ZM45.7513 0.617821C43.6707 0.617821 41.9937 2.2739 41.9937 4.34399C41.9937 6.42457 43.676 8.11733 45.7513 8.12257C47.8162 8.12257 49.4932 6.42457 49.4932 4.34399C49.4984 2.2739 47.8162 0.617821 45.7513 0.617821ZM101.649 4.8209C99.5842 4.8209 97.8915 6.4927 97.8915 8.56279C97.8915 10.6329 99.579 12.3204 101.649 12.3204C103.724 12.3204 105.391 10.6381 105.391 8.56279C105.396 6.49794 103.724 4.8209 101.649 4.8209ZM125.788 4.8209C123.723 4.8209 122.03 6.4927 122.03 8.56279C122.03 10.6329 123.723 12.3204 125.788 12.3204C127.869 12.3204 129.514 10.6329 129.514 8.56279C129.514 6.4927 127.869 4.81566 125.788 4.8209ZM57.5901 4.88379C55.5253 4.88379 53.8325 6.57655 53.8325 8.6414C53.8325 10.7167 55.5201 12.3833 57.5901 12.3833C59.6498 12.3833 61.332 10.7115 61.332 8.6414C61.332 6.57655 59.655 4.88379 57.5901 4.88379ZM33.6923 4.98336C31.6275 4.97812 29.9504 6.64992 29.9504 8.71477V8.7305C29.9504 10.8058 31.617 12.4934 33.6923 12.4881C35.752 12.4881 37.4342 10.8006 37.4342 8.7305C37.4342 6.65516 35.752 4.98336 33.6923 4.98336ZM114.966 13.7249C114.966 13.7249 107.519 13.7721 107.43 13.7721C106.161 13.7721 105.087 14.8517 105.087 16.1147L105.071 29.6568H105.087C105.145 31.2605 106.486 32.5549 108.1 32.5549C109.73 32.5549 111.072 31.2605 111.13 29.6568V24.9506C111.13 24.9506 114.106 24.9349 114.206 24.9349C115.354 24.9349 116.307 24.023 116.307 22.87C116.307 21.7118 115.359 20.7685 114.206 20.7685H111.13V19.516H114.971C116.564 19.516 117.843 18.2425 117.838 16.6493C117.833 15.0718 116.559 13.7249 114.966 13.7249ZM128.67 13.7249C128.67 13.7249 121.223 13.7721 121.134 13.7721C119.855 13.7721 118.792 14.8464 118.792 16.1147V29.6568H118.807C118.86 31.2605 120.18 32.5549 121.805 32.5549C123.44 32.5549 124.75 31.2657 124.803 29.6568H124.818V24.9506C124.818 24.9506 127.79 24.9349 127.895 24.9349C129.042 24.9349 129.996 24.023 129.996 22.87C129.996 21.7118 129.042 20.7685 127.895 20.7685H124.813V19.516H128.655C130.237 19.516 131.521 18.2425 131.521 16.6493C131.521 15.0718 130.253 13.7197 128.67 13.7249ZM61.2639 13.7564C59.676 13.7564 58.3972 15.0351 58.3972 16.6073C58.3972 16.7122 58.4182 16.8222 58.4287 16.9323L58.4129 29.6306L58.4287 29.7773C58.5073 31.2762 59.7493 32.4816 61.2796 32.4816C62.8676 32.4816 64.1463 31.2081 64.1463 29.6306C64.1463 29.4472 64.1306 29.2742 64.0992 29.1118V25.3437L68.3651 31.0718C68.428 31.1661 68.4961 31.2605 68.559 31.3653L68.5747 31.3967C69.125 32.0361 69.9583 32.4396 70.8702 32.4396C72.5315 32.4396 73.8679 31.098 73.8679 29.4419C73.8731 28.8654 73.7107 28.2994 73.3962 27.8121L73.3491 27.7492C73.3071 27.681 73.2705 27.6129 73.218 27.5553L69.3609 22.3774L72.5001 18.5831H72.4843C72.8931 18.0852 73.1499 17.4511 73.1499 16.7436C73.1447 15.1294 71.8345 13.7983 70.2203 13.7983C69.1617 13.7983 68.2446 14.3591 67.731 15.1976L64.0992 19.5788V17.0371C64.1149 16.8956 64.1306 16.7436 64.1306 16.5969C64.1306 15.0351 62.8466 13.7564 61.2639 13.7564ZM3.04446 13.7721C1.64518 13.7721 0.523657 14.9146 0.523657 16.2929C0.523657 16.2929 0.507935 29.7407 0.507935 29.966C0.507935 31.3967 1.59801 32.4711 3.02873 32.4711L9.53774 32.4868C12.7346 32.4868 15.334 29.9031 15.334 26.7063C15.334 24.8982 14.5269 23.2893 13.2325 22.2307C13.9924 21.3293 14.4693 20.1606 14.4693 18.8766C14.4745 16.0675 12.1424 13.7616 9.30715 13.7669H3.04446V13.7721ZM46.9934 13.8559C41.8784 13.8559 37.7172 18.0119 37.7172 23.1321C37.7172 28.2523 41.8784 32.4239 46.9934 32.4239C52.1136 32.4239 56.2747 28.2523 56.2695 23.1321C56.2695 18.0119 52.1136 13.8559 46.9934 13.8559ZM26.0094 13.8874C20.884 13.8874 16.7438 18.0538 16.749 23.1845C16.749 28.2994 20.8787 32.4501 26.0094 32.4449C31.1401 32.4449 35.2855 28.2994 35.2855 23.1845C35.2855 18.059 31.1401 13.8874 26.0094 13.8874ZM94.3068 13.8874C89.1656 13.8874 84.994 18.0695 84.994 23.2159C84.994 28.3519 89.1604 32.5287 94.3068 32.5287C99.4427 32.5287 103.62 28.3519 103.62 23.2159C103.62 18.0695 99.448 13.8874 94.3068 13.8874ZM5.56525 17.9857H7.89215C8.66778 17.9857 9.29142 18.5988 9.29142 19.3849C9.29142 20.1501 8.66254 20.7528 7.89215 20.7528C7.81878 20.7528 5.56525 20.7685 5.56525 20.7685V17.9857ZM78.7994 19.2067C76.7293 19.2067 75.0628 20.8943 75.0575 22.9644C75.0628 25.0345 76.7293 26.722 78.7994 26.722C80.8748 26.722 82.5571 25.0345 82.5571 22.9644C82.5518 20.8995 80.8643 19.2067 78.7994 19.2067ZM46.9934 19.2906C49.1211 19.2906 50.8505 21.0148 50.8505 23.1478C50.8505 25.2703 49.1211 26.9893 46.9934 26.9893C44.8656 26.9893 43.1519 25.2598 43.1519 23.1321C43.1466 21.0148 44.8604 19.2958 46.9776 19.2906H46.9934ZM26.0094 19.322C28.1319 19.322 29.8666 21.0463 29.8666 23.1792C29.8666 25.307 28.1371 27.0259 26.0094 27.0207C23.9026 27.0259 22.1732 25.307 22.1679 23.1792C22.1679 21.0463 23.8974 19.322 26.0094 19.322ZM94.3068 19.3535C96.4398 19.3535 98.164 21.0672 98.164 23.2107C98.164 25.3384 96.4346 27.0679 94.3068 27.0679C92.1738 27.0679 90.4444 25.3384 90.4496 23.2107C90.4444 21.0829 92.1633 19.3587 94.2911 19.3535H94.3068ZM5.56525 24.7253L8.52628 24.741C9.33335 24.741 9.99368 25.3804 9.99368 26.1874C9.98844 27.005 9.33859 27.6548 8.52628 27.6548H5.58098L5.56525 24.7253ZM128.539 27.6548C127.187 27.6548 126.113 28.7397 126.113 30.097C126.118 31.4596 127.182 32.5392 128.539 32.5392C129.891 32.5392 130.982 31.4544 130.982 30.097C130.987 28.7502 129.897 27.6601 128.55 27.6548C128.55 27.6548 128.545 27.6548 128.539 27.6548ZM128.539 27.9011C129.745 27.9011 130.735 28.8812 130.735 30.097C130.735 31.3076 129.745 32.2929 128.539 32.2929C127.329 32.2929 126.359 31.3024 126.359 30.097C126.359 28.8812 127.329 27.9011 128.539 27.9011ZM127.434 28.6506V31.4806H128.021V30.3748H128.623C128.796 30.3748 128.922 30.3957 128.98 30.4586C129.042 30.511 129.079 30.6368 129.079 30.815V31.077C129.079 31.1661 129.09 31.2395 129.095 31.3234C129.105 31.3705 129.126 31.4282 129.142 31.4858H129.792V31.4229C129.734 31.3915 129.692 31.3181 129.677 31.2447C129.666 31.1976 129.661 31.1137 129.661 30.9827V30.8045C129.661 30.6054 129.635 30.4586 129.577 30.3643C129.525 30.2647 129.42 30.1914 129.299 30.1389C129.446 30.0865 129.577 29.9922 129.64 29.8612C129.708 29.7354 129.734 29.6044 129.739 29.4681C129.739 29.3528 129.724 29.2637 129.692 29.1747C129.65 29.0856 129.593 29.0069 129.53 28.9283C129.462 28.8392 129.367 28.7764 129.268 28.7344C129.158 28.6873 129.022 28.6611 128.828 28.6506H127.434ZM128.021 29.1537H128.702C128.833 29.1537 128.917 29.1694 128.98 29.2009C129.095 29.2585 129.158 29.3686 129.158 29.5415C129.158 29.6935 129.09 29.7983 128.98 29.8507C128.911 29.8822 128.822 29.8979 128.686 29.8979H128.021V29.1537Z" fill="#CCCCCC"/>
</g>
<defs>
<clipPath id="clip0_629_3421">
<rect width="131.019" height="32" fill="white" transform="translate(0.502686 0.554932)"/>
</clipPath>
</defs>
</svg>
