<svg width="84" height="33" viewBox="0 0 84 33" fill="none" xmlns="http://www.w3.org/2000/svg">
<g clip-path="url(#clip0_629_3413)">
<path d="M73.0414 18.9439C72.7175 18.9439 72.4746 18.863 72.2857 18.674C72.1237 18.5121 72.0158 18.2422 72.0158 17.9183V7.95885C72.0158 7.63496 72.0967 7.36506 72.2857 7.20312C72.4746 7.04117 72.7175 6.9602 73.0414 6.9602H74.8497C75.2546 6.9602 75.6055 6.98719 75.9024 7.01418C76.1993 7.06816 76.4692 7.14914 76.6581 7.31108C76.874 7.47302 77.009 7.68894 77.1169 8.01283C77.2249 8.30972 77.2789 8.74157 77.2789 9.25439V16.6498C77.2789 17.3245 77.1979 17.8103 77.009 18.1342C76.82 18.4581 76.5501 18.674 76.1993 18.782C75.8484 18.89 75.3896 18.9439 74.8497 18.917L73.0414 18.9439ZM67.2385 1.15727C66.9146 1.18426 66.6447 1.26523 66.4827 1.42717C66.3208 1.58911 66.2398 1.85902 66.2398 2.1829V23.7212C66.2398 24.0451 66.3208 24.288 66.5097 24.477C66.6717 24.6389 66.9416 24.7469 67.2654 24.7469H74.7688C76.3342 24.7469 77.6837 24.5849 78.7634 24.2611C79.843 23.9372 80.7067 23.4244 81.3544 22.7766C82.0022 22.1288 82.488 21.2651 82.7579 20.2395C83.0548 19.2138 83.1898 18.0263 83.1898 16.6498V9.25439C83.1898 7.87788 83.0548 6.6903 82.7579 5.66466C82.461 4.63903 82.0022 3.80233 81.3544 3.15456C80.7067 2.4798 79.843 1.99397 78.7634 1.67008C77.6837 1.3462 76.3612 1.18426 74.7688 1.18426L67.2385 1.15727ZM57.4139 15.3812C57.4139 16.029 57.387 16.6228 57.36 17.1356C57.306 17.6484 57.198 18.0803 57.0361 18.4581C56.8741 18.836 56.6042 19.1059 56.2264 19.2948C55.8755 19.4838 55.3897 19.5917 54.7689 19.5917C54.1481 19.5917 53.6623 19.4838 53.3114 19.2948C52.9335 19.1059 52.6906 18.836 52.5017 18.4581C52.3398 18.1072 52.2318 17.6484 52.1778 17.1356C52.1238 16.6228 52.0968 16.029 52.1238 15.3812V10.5229C52.1238 9.87517 52.1508 9.28138 52.1778 8.76856C52.2318 8.25574 52.3398 7.8239 52.5017 7.44603C52.6636 7.06816 52.9335 6.79826 53.3114 6.60933C53.6623 6.42039 54.1481 6.31243 54.7689 6.31243C55.3897 6.31243 55.8755 6.42039 56.2264 6.60933C56.6042 6.79826 56.8471 7.06816 57.0361 7.44603C57.198 7.79691 57.306 8.25574 57.36 8.76856C57.4139 9.28138 57.4139 9.87517 57.4139 10.5229V15.3812ZM63.1899 8.74157C63.1899 8.3637 63.1629 7.90487 63.1089 7.36506C63.0549 6.82525 62.947 6.25845 62.758 5.63767C62.5691 5.01689 62.2992 4.42311 61.9483 3.82932C61.5705 3.23553 61.0846 2.69572 60.4639 2.20989C59.8431 1.72406 59.0604 1.31921 58.1157 1.02231C57.171 0.725419 56.0374 0.590467 54.7149 0.563477C53.3924 0.563477 52.2588 0.725419 51.3141 1.02231C50.3694 1.31921 49.5867 1.72406 48.966 2.20989C48.3452 2.69572 47.8593 3.23553 47.4815 3.82932C47.1036 4.42311 46.8337 5.04388 46.6718 5.63767C46.4828 6.25845 46.3749 6.82525 46.3209 7.36506C46.2669 7.90487 46.2399 8.3637 46.2399 8.74157V17.1626C46.2399 17.5404 46.2669 17.9993 46.3209 18.5391C46.3749 19.0789 46.4828 19.6457 46.6718 20.2665C46.8337 20.8873 47.1306 21.481 47.4815 22.0748C47.8593 22.6686 48.3452 23.2084 48.966 23.7212C49.5867 24.2071 50.3694 24.6119 51.3141 24.8818C52.2588 25.1787 53.3924 25.3407 54.7149 25.3407C56.0374 25.3407 57.171 25.1787 58.1157 24.8818C59.0604 24.5849 59.8431 24.2071 60.4639 23.7212C61.0846 23.2354 61.5705 22.6956 61.9483 22.0748C62.3262 21.481 62.5961 20.8603 62.758 20.2665C62.92 19.6457 63.0549 19.0789 63.1089 18.5391C63.1629 17.9993 63.1899 17.5404 63.1899 17.1626V8.74157ZM37.7919 15.3812C37.7919 16.029 37.7649 16.6228 37.7379 17.1356C37.684 17.6484 37.576 18.0803 37.4141 18.4581C37.2521 18.836 36.9822 19.1059 36.6043 19.2948C36.2535 19.4838 35.7676 19.5917 35.1469 19.5917C34.5261 19.5917 34.0403 19.4838 33.6894 19.2948C33.3115 19.1059 33.0686 18.836 32.8797 18.4581C32.7177 18.1072 32.6098 17.6484 32.5558 17.1356C32.5018 16.6228 32.4748 16.029 32.5018 15.3812V10.5229C32.5018 9.87517 32.5288 9.28138 32.5558 8.76856C32.6098 8.25574 32.7177 7.8239 32.8797 7.44603C33.0416 7.06816 33.3115 6.79826 33.6894 6.60933C34.0403 6.42039 34.5261 6.31243 35.1469 6.31243C35.7676 6.31243 36.2535 6.42039 36.6043 6.60933C36.9822 6.79826 37.2251 7.06816 37.4141 7.44603C37.576 7.79691 37.684 8.25574 37.7379 8.76856C37.7919 9.28138 37.7919 9.87517 37.7919 10.5229V15.3812ZM43.5949 8.74157C43.5949 8.3637 43.5679 7.90487 43.5139 7.36506C43.4599 6.82525 43.3519 6.25845 43.163 5.63767C42.9741 5.01689 42.7042 4.42311 42.3533 3.82932C41.9754 3.23553 41.4896 2.69572 40.8688 2.20989C40.248 1.72406 39.4653 1.31921 38.5207 1.02231C37.576 0.725419 36.4424 0.590467 35.1199 0.563477C33.7973 0.563477 32.6637 0.725419 31.7191 1.02231C30.7744 1.31921 29.9917 1.72406 29.3709 2.20989C28.7501 2.69572 28.2643 3.23553 27.8864 3.82932C27.5086 4.42311 27.2387 5.04388 27.0767 5.63767C26.8878 6.25845 26.7798 6.82525 26.7259 7.36506C26.6719 7.90487 26.6449 8.3637 26.6449 8.74157V17.1626C26.6449 17.5404 26.6719 17.9993 26.7259 18.5391C26.7798 19.0789 26.8878 19.6457 27.0767 20.2665C27.2387 20.8873 27.5356 21.481 27.8864 22.0748C28.2643 22.6686 28.7501 23.2084 29.3709 23.7212C29.9917 24.2071 30.7744 24.6119 31.7191 24.8818C32.6637 25.1787 33.7973 25.3407 35.1199 25.3407C36.4424 25.3407 37.576 25.1787 38.5207 24.8818C39.4653 24.5849 40.248 24.2071 40.8688 23.7212C41.4896 23.2354 41.9754 22.6956 42.3533 22.0748C42.7312 21.481 43.0011 20.8603 43.163 20.2665C43.325 19.6457 43.4599 19.0789 43.5139 18.5391C43.5679 17.9993 43.5949 17.5404 43.5949 17.1626V8.74157ZM23.6759 1.15727C24.3507 1.15727 24.6746 1.50814 24.6746 2.15591V5.93457C24.6746 6.25845 24.5936 6.50137 24.4317 6.6903C24.2697 6.87923 23.9998 6.9602 23.6759 6.9602H14.8771C14.5532 6.9602 14.3103 7.04117 14.1213 7.20312C13.9324 7.36506 13.8514 7.63496 13.8514 7.95885V23.7482C13.8514 24.0721 13.7705 24.315 13.6085 24.504C13.4466 24.6659 13.1767 24.7739 12.8528 24.7739H8.88519C8.56131 24.7739 8.3184 24.6929 8.12946 24.504C7.96752 24.315 7.85956 24.0721 7.85956 23.7482V2.1829C7.85956 1.85902 7.94053 1.58911 8.12946 1.42717C8.3184 1.26523 8.56131 1.18426 8.88519 1.18426L23.6759 1.15727Z" fill="#CCCCCC"/>
<path d="M81.6513 30.0094C81.6513 29.9824 81.6243 29.9824 81.6243 29.9554C81.6243 29.9284 81.6243 29.9284 81.6513 29.9014L83.0008 28.0661C83.0548 27.9851 83.0548 27.9311 83.0278 27.9042C83.0008 27.8772 82.9468 27.8232 82.8659 27.8232H81.8942C81.8402 27.8232 81.7862 27.8232 81.7592 27.8502C81.7323 27.8772 81.6783 27.9042 81.6513 27.9581L80.5987 29.3886C80.5717 29.4156 80.5717 29.4156 80.5447 29.4156C80.5177 29.4156 80.5177 29.3886 80.5177 29.3616V28.0391C80.5177 27.9042 80.4637 27.8502 80.3288 27.8502H79.573C79.519 27.8502 79.4651 27.8772 79.4381 27.9042C79.4111 27.9311 79.3841 27.9851 79.3841 28.0661V32.3306C79.3841 32.3846 79.4111 32.4385 79.4381 32.4655C79.4651 32.4925 79.519 32.5195 79.573 32.5195H80.3288C80.3827 32.5195 80.4367 32.4925 80.4907 32.4655C80.5447 32.4385 80.5447 32.3846 80.5447 32.3306V31.6018V31.5479C80.5447 31.5209 80.5447 31.5209 80.5717 31.4939L80.8416 31.116C80.8416 31.089 80.8686 31.089 80.8956 31.089C80.9225 31.089 80.9225 31.089 80.9495 31.116L81.7862 32.3846C81.8132 32.4385 81.8402 32.4655 81.8942 32.4925C81.9212 32.5195 81.9752 32.5195 82.0292 32.5195H83.0278C83.1088 32.5195 83.1627 32.4925 83.1897 32.4385C83.2167 32.3846 83.2167 32.3306 83.1628 32.2766L81.6513 30.0094ZM75.6054 27.8232C75.5515 27.8232 75.4975 27.8502 75.4705 27.8772C75.4435 27.9042 75.4165 27.9581 75.4165 28.0391V31.0081C75.4165 31.089 75.4165 31.17 75.4435 31.278C75.4435 31.3859 75.4705 31.4939 75.5245 31.6288C75.5515 31.7368 75.6054 31.8717 75.6864 31.9797C75.7674 32.0877 75.8484 32.1956 75.9833 32.3036C76.1183 32.4116 76.2532 32.4655 76.4421 32.5465C76.6311 32.6005 76.847 32.6275 77.1169 32.6275C77.3868 32.6275 77.6027 32.6005 77.7917 32.5465C77.9806 32.4925 78.1425 32.4116 78.2505 32.3036C78.3855 32.1956 78.4664 32.0877 78.5474 31.9797C78.6284 31.8717 78.6823 31.7368 78.7093 31.6288C78.7363 31.5209 78.7633 31.3859 78.7633 31.278C78.7633 31.17 78.7903 31.089 78.7903 31.0081V28.0391C78.7903 27.9042 78.7363 27.8502 78.6014 27.8502H77.8456C77.7917 27.8502 77.7377 27.8772 77.7107 27.9042C77.6837 27.9311 77.6567 27.9851 77.6567 28.0661V31.035C77.6567 31.143 77.6297 31.224 77.6027 31.3049C77.5757 31.3859 77.5218 31.4399 77.4408 31.4669C77.3598 31.4939 77.2788 31.5209 77.1439 31.5209C77.0089 31.5209 76.928 31.4939 76.847 31.4669C76.766 31.4399 76.7121 31.3859 76.6851 31.3049C76.6581 31.224 76.6311 31.143 76.6311 31.035C76.6311 30.9271 76.6041 30.8191 76.6311 30.6842V28.0661C76.6311 27.9311 76.5771 27.8772 76.4421 27.8772L75.6054 27.8232ZM74.7418 31.3319C74.8767 31.3319 74.9307 31.3859 74.9307 31.5209V32.2766C74.9307 32.3306 74.9037 32.3846 74.8767 32.4116C74.8497 32.4385 74.7957 32.4655 74.7148 32.4655H73.959C73.9051 32.4655 73.8511 32.4385 73.8241 32.4116C73.7971 32.3846 73.7701 32.3306 73.7701 32.2766V31.5209C73.7701 31.4669 73.7971 31.4129 73.8241 31.3589C73.8511 31.3319 73.9051 31.3049 73.959 31.3049L74.7418 31.3319ZM72.1237 30.6302V30.9811C72.1237 31.089 72.0967 31.17 72.0697 31.251C72.0427 31.3319 71.9887 31.3859 71.9078 31.4129C71.8268 31.4399 71.7458 31.4669 71.6109 31.4669C71.4759 31.4669 71.3949 31.4399 71.314 31.4129C71.233 31.3859 71.179 31.3319 71.152 31.251C71.125 31.17 71.0981 31.089 71.0981 30.9811C71.0981 30.8731 71.0711 30.7651 71.0981 30.6302V29.6855V29.3346C71.0981 29.2267 71.125 29.1457 71.152 29.0647C71.179 28.9838 71.233 28.9298 71.314 28.9028C71.3949 28.8758 71.4759 28.8488 71.6109 28.8488C71.7458 28.8488 71.8268 28.8758 71.9078 28.9028C71.9887 28.9298 72.0427 28.9838 72.0697 29.0647C72.0967 29.1457 72.1237 29.2267 72.1237 29.3346V30.6302ZM73.2843 29.3077C73.2843 29.2267 73.2843 29.1457 73.2573 29.0378C73.2573 28.9298 73.2303 28.8218 73.2033 28.6869C73.1763 28.5789 73.1223 28.444 73.0414 28.336C72.9604 28.228 72.8794 28.1201 72.7445 28.0121C72.6095 27.9042 72.4746 27.8502 72.2856 27.7692C72.0967 27.7152 71.8808 27.6882 71.6109 27.6882C71.341 27.6882 71.125 27.7152 70.9361 27.7692C70.7472 27.8232 70.5852 27.9042 70.4773 28.0121C70.3423 28.1201 70.2614 28.228 70.1804 28.336C70.0994 28.444 70.0454 28.5789 70.0184 28.6869C69.9914 28.7948 69.9645 28.9298 69.9375 29.0378C69.9375 29.1457 69.9105 29.2267 69.9105 29.3077V30.9811C69.9105 31.062 69.9105 31.143 69.9375 31.251C69.9375 31.3589 69.9645 31.4669 70.0184 31.6018C70.0454 31.7098 70.0994 31.8448 70.1804 31.9527C70.2614 32.0607 70.3423 32.1686 70.4773 32.2766C70.6122 32.3846 70.7472 32.4385 70.9361 32.5195C71.125 32.5735 71.341 32.6005 71.6109 32.6005C71.8808 32.6005 72.0967 32.5735 72.2856 32.5195C72.4746 32.4655 72.6365 32.3846 72.7445 32.2766C72.8794 32.1686 72.9604 32.0607 73.0414 31.9527C73.1223 31.8448 73.1763 31.7098 73.2033 31.6018C73.2303 31.4939 73.2573 31.3589 73.2573 31.251C73.2573 31.143 73.2843 31.062 73.2843 30.9811V29.3077ZM66.2128 30.9811C66.2128 31.062 66.2128 31.143 66.2398 31.251C66.2398 31.3589 66.2668 31.4669 66.3208 31.6018C66.3477 31.7098 66.4017 31.8448 66.4827 31.9527C66.5637 32.0607 66.6446 32.1686 66.7796 32.2766C66.9145 32.3846 67.0495 32.4385 67.2384 32.5195C67.4274 32.5735 67.6433 32.6005 67.9132 32.6005C68.1561 32.6005 68.345 32.5735 68.534 32.5195C68.6959 32.4655 68.8579 32.4116 68.9658 32.3306C69.0738 32.2496 69.1817 32.1686 69.2627 32.0607C69.3437 31.9527 69.3977 31.8448 69.4516 31.7368C69.5056 31.6288 69.5326 31.5209 69.5326 31.4129C69.5596 31.3049 69.5596 31.224 69.5596 31.116C69.5596 31.062 69.5596 31.035 69.5326 30.9811C69.5056 30.9541 69.4786 30.9271 69.4246 30.9271L68.6689 30.7651C68.6149 30.7381 68.534 30.7651 68.507 30.7921C68.453 30.8191 68.426 30.8731 68.426 30.9541C68.426 31.062 68.399 31.143 68.345 31.224C68.318 31.3049 68.2641 31.3589 68.1831 31.3859C68.1021 31.4129 68.0211 31.4399 67.8862 31.4399C67.7512 31.4399 67.6703 31.4129 67.5893 31.3859C67.5083 31.3589 67.4543 31.3049 67.4274 31.224C67.4004 31.143 67.3734 31.062 67.3734 30.9541C67.3734 30.8461 67.3464 30.7381 67.3734 30.6032V29.6585V29.3077C67.3734 29.1997 67.4004 29.1187 67.4274 29.0378C67.4543 28.9568 67.5083 28.9028 67.5893 28.8758C67.6703 28.8488 67.7512 28.8218 67.8862 28.8218C67.9942 28.8218 68.1021 28.8488 68.1831 28.8758C68.2641 28.9028 68.318 28.9568 68.345 29.0378C68.372 29.1187 68.399 29.1997 68.399 29.2807C68.399 29.3616 68.426 29.4156 68.48 29.4426C68.534 29.4696 68.5879 29.4966 68.6689 29.4966L69.3977 29.3346C69.4516 29.3346 69.4786 29.3077 69.5056 29.2807C69.5326 29.2537 69.5326 29.1997 69.5326 29.1727C69.5326 29.0917 69.5056 28.9838 69.5056 28.8758L69.4246 28.5519C69.3707 28.444 69.3167 28.336 69.2357 28.228C69.1547 28.1201 69.0468 28.0391 68.9388 27.9581C68.8039 27.8772 68.6689 27.8232 68.507 27.7692C68.345 27.7152 68.1291 27.6882 67.8862 27.6882C67.6163 27.6882 67.4004 27.7152 67.2114 27.7692C67.0225 27.8232 66.8606 27.9042 66.7526 28.0121C66.6176 28.1201 66.5367 28.228 66.4557 28.336C66.3747 28.444 66.3208 28.5789 66.2938 28.6869C66.2668 28.7948 66.2398 28.9298 66.2128 29.0378C66.2128 29.1457 66.1858 29.2267 66.1858 29.3077V30.9811H66.2128ZM65.592 31.3319C65.727 31.3319 65.7809 31.3859 65.7809 31.5209V32.2766C65.7809 32.3306 65.754 32.3846 65.727 32.4116C65.7 32.4385 65.646 32.4655 65.565 32.4655H64.8093C64.7553 32.4655 64.7013 32.4385 64.6743 32.4116C64.6474 32.3846 64.6204 32.3306 64.6204 32.2766V31.5209C64.6204 31.4669 64.6474 31.4129 64.6743 31.3589C64.7013 31.3319 64.7553 31.3049 64.8093 31.3049L65.592 31.3319Z" fill="#CCCCCC"/>
<path d="M16.1727 13.9776C13.6626 13.7617 1.40898 15.759 0.491306 13.5997C-1.04715 10.01 11.8273 12.0343 13.5547 12.0883C14.4184 12.1153 15.498 12.2772 16.1188 12.1153C16.5506 11.9803 16.8475 11.2786 17.3333 11.0087C18.4129 10.3609 20.1673 10.7118 21.6788 10.8467C22.7044 10.9277 23.7031 11.0356 24.7827 11.1166C23.2442 11.3325 21.5978 11.5485 19.9784 11.7644C19.7894 11.7914 19.4926 11.7104 19.3576 11.9263C21.004 12.1962 22.8664 12.2502 24.6477 12.3852C22.8933 12.6551 20.923 12.7091 19.1957 13.0329C19.3036 13.2219 19.6275 13.1679 19.8164 13.1949C21.3549 13.3028 23.0553 13.4378 24.6747 13.5188C23.0013 13.7887 21.058 13.8427 19.3846 14.1665C19.4386 14.4364 19.7894 14.3555 19.9514 14.3555C21.4898 14.5444 23.2172 14.7603 24.8097 14.8953C23.0553 15.0302 20.8961 15.4351 19.0877 15.5431C17.6842 15.624 16.8475 14.8143 16.1727 13.9776Z" fill="#CCCCCC"/>
<path d="M11.8273 14.1936C13.7706 14.0317 15.417 13.8967 16.1727 13.9507C16.5236 14.3826 16.8745 14.7874 17.3603 15.0843C17.8192 15.3812 18.359 15.5701 19.0607 15.5161C20.0594 15.4622 21.166 15.3002 22.2456 15.1653C23.0283 15.0573 23.784 14.9493 24.4858 14.8954C23.784 14.8414 23.0823 14.7604 22.3535 14.6794C21.5168 14.5985 20.7071 14.4905 19.9514 14.3826H19.8164C19.6275 14.3826 19.3846 14.3826 19.3576 14.1666V14.1396H19.3846C20.3023 13.9507 21.3279 13.8427 22.3535 13.7618C23.0553 13.7078 23.757 13.6268 24.4048 13.5458C23.1902 13.4649 21.9217 13.3839 20.7341 13.3029C20.4372 13.2759 20.1403 13.249 19.8434 13.249H19.7085C19.5195 13.249 19.3036 13.249 19.1957 13.087L19.1687 13.06H19.1957C20.1673 12.8711 21.2199 12.7631 22.2726 12.6822C22.9743 12.6282 23.7031 12.5472 24.3778 12.4662C24.0269 12.4392 23.6491 12.4123 23.2982 12.3853C21.9487 12.3043 20.5722 12.2233 19.3576 12.0344H19.3036L19.3306 12.0074C19.4386 11.8455 19.6275 11.8455 19.7895 11.8455H19.9514L21.2469 11.6835C22.3265 11.5486 23.4332 11.3866 24.4588 11.2517C23.838 11.1977 23.2172 11.1437 22.6234 11.0897C22.2996 11.0627 22.0027 11.0357 21.6518 11.0088L20.8421 10.9278C19.5465 10.7928 18.197 10.6309 17.3333 11.1707C17.1174 11.3056 16.9285 11.5216 16.7665 11.7375C16.5506 11.9804 16.3617 12.2233 16.1188 12.3043C15.6869 12.4123 15.0391 12.3853 14.3914 12.3313C14.0945 12.3043 13.7976 12.2773 13.5277 12.2773C13.2308 12.2773 12.61 12.1963 11.8003 12.1154C8.88533 11.6565 3.40627 11.0897 1.27403 12.0074C0.518299 12.3313 0.194415 12.8171 0.518299 13.5998C1.13908 15.0843 7.29289 14.5715 11.8273 14.1936ZM16.1727 14.0047C15.417 13.9507 13.7706 14.0857 11.8273 14.2476C7.29289 14.6255 1.11209 15.1383 0.464319 13.5998C0.113443 12.7901 0.464319 12.2773 1.24704 11.9264C3.40627 11.0087 8.88533 11.5755 11.8273 11.8724C12.637 11.9534 13.2578 12.0344 13.5547 12.0344C13.8246 12.0344 14.1215 12.0614 14.4184 12.0884C15.0661 12.1423 15.6869 12.1693 16.1188 12.0614C16.3347 12.0074 16.5236 11.7645 16.7395 11.5216C16.9285 11.3056 17.0904 11.0897 17.3333 10.9548C18.224 10.415 19.5735 10.5769 20.8961 10.7119L21.7058 10.7928C22.0027 10.8198 22.3535 10.8468 22.6774 10.8738C23.3792 10.9278 24.0809 11.0088 24.8097 11.0357L25.1066 11.0627L24.8367 11.1167C23.7301 11.2787 22.5425 11.4406 21.3549 11.6025L20.0594 11.7645H19.8974C19.7625 11.7645 19.6005 11.7645 19.4926 11.8724C20.7071 12.0614 22.0566 12.1423 23.4062 12.2233C23.865 12.2503 24.2969 12.2773 24.7557 12.3043L25.0256 12.3313L24.7557 12.3583C24 12.4662 23.1902 12.5472 22.3805 12.6282C21.3549 12.7361 20.3023 12.8171 19.3576 13.006C19.4386 13.114 19.6275 13.114 19.7895 13.114H19.9244C20.2213 13.141 20.5182 13.168 20.8151 13.168C22.1106 13.2759 23.4601 13.3569 24.7557 13.4379L25.0256 13.4649L24.7557 13.5189C24 13.6268 23.2172 13.7078 22.4345 13.7888C21.4359 13.8967 20.4372 13.9777 19.5195 14.1666C19.5735 14.3286 19.7625 14.3016 19.9244 14.3016H20.0594C20.8421 14.3826 21.6518 14.4905 22.4615 14.5985C23.2712 14.6794 24.1079 14.7874 24.8906 14.8414V14.8954C24.1079 14.9493 23.2172 15.0843 22.3265 15.1923C21.2469 15.3272 20.1403 15.4892 19.1417 15.5431C18.4399 15.5971 17.8731 15.4082 17.4143 15.1113C16.8745 14.8414 16.4966 14.4365 16.1727 14.0047Z" fill="#CCCCCC"/>
</g>
<defs>
<clipPath id="clip0_629_3413">
<rect width="82.6446" height="32" fill="white" transform="translate(0.383301 0.554932)"/>
</clipPath>
</defs>
</svg>
