<svg width="96" height="33" viewBox="0 0 96 33" fill="none" xmlns="http://www.w3.org/2000/svg">
<path fill-rule="evenodd" clip-rule="evenodd" d="M1.33049 26.1079L9.0362 26.0042L9.05815 25.9593L0.754668 24.63L0.712298 24.4697L7.67475 24.3702C7.67475 24.3702 7.61706 24.2319 7.43942 23.8888L0.275837 22.7479L0.251334 22.5876L6.95344 22.4911L6.84879 22.0235L0.0527572 21.0087L0.0450999 20.8111L6.64715 20.7162L6.5961 20.2297L-0.00390625 19.1449L0.00732437 18.9836L6.59814 18.8887C6.56394 18.7003 6.61907 18.3195 6.61907 18.3195L0.100742 17.3271L0.12984 17.1648L6.71606 17.0882C6.71504 16.9943 6.75333 16.6487 6.75333 16.6487L0.34271 15.4975L0.371808 15.3357L7.02031 15.2397C7.02031 15.2397 7.0637 14.8753 7.13976 14.6859L0.731697 13.7078L0.778661 13.5455L7.44095 13.4495C7.44095 13.4495 7.57929 13.0636 7.65586 12.9211L1.2774 11.9589L1.32437 11.8149L8.09896 11.7174C8.09896 11.7174 8.29498 11.3095 8.34042 11.1993L2.01096 10.2197L2.0763 10.0752L8.97137 9.97617C8.97137 9.97617 9.15616 9.61321 9.32564 9.3595L3.00283 8.3804L3.06766 8.2538L10.1587 8.16958C10.1587 8.16958 10.3721 7.83368 10.5585 7.65858L4.16672 6.70092L4.28567 6.55594L11.5355 6.45181C11.5355 6.45181 11.8183 6.14347 12.0205 5.98369L5.73594 5.0245L5.83702 4.87953L13.2242 4.76722L13.7071 4.33892L7.98257 3.10203L7.96878 3.10356C10.4257 1.54659 13.4748 0.605779 17.1488 0.556773C23.9785 0.464376 29.7454 3.84529 29.9378 11.7838L21.0585 11.9032C20.7645 9.08895 19.0865 8.12976 16.696 8.16192C11.5309 8.23134 9.30012 13.769 9.37056 19.0204C9.41906 22.6055 10.9878 24.9756 14.7868 24.9236C17.3055 24.8899 19.4276 23.9654 20.3337 21.4768L16.065 21.5335L17.3433 14.984L29.8077 14.816L26.5334 31.6389L20.5996 31.7186L20.8161 28.7705L20.7298 28.6858C18.8022 31.3587 15.7858 32.5093 12.5417 32.5532C6.20048 32.639 2.9186 29.5021 1.33968 26.1334L1.33049 26.1079ZM47.0706 15.0493C46.1609 14.5123 45.0338 14.1422 43.5825 14.159C41.7754 14.1795 39.8126 14.914 39.8391 17.1862C39.8759 20.3895 46.3922 20.342 46.4499 25.3519C46.483 28.2264 44.5218 31.5077 39.9223 31.5603C37.7048 31.5864 36.1111 31.1116 34.571 30.5266L35.4184 27.9982C36.5486 28.697 38.1152 29.1718 39.4568 29.157C42.3589 29.1233 43.5702 27.3024 43.5513 25.7143C43.5069 21.827 36.9988 22.5866 36.9376 17.2755C36.8972 13.7981 40.0505 11.7904 43.1991 11.7542C44.7867 11.7358 46.3508 12.0191 47.8088 12.6046L47.0706 15.0493ZM58.0138 30.7767C56.6758 31.1208 55.2827 31.3832 53.8871 31.399C50.4924 31.4378 47.4371 30.1049 47.38 25.1768C47.3355 21.3165 49.9946 16.8227 54.9228 16.7656C58.29 16.7268 60.2022 18.7309 60.241 22.0439C60.2512 22.974 60.1512 23.7699 60.0235 24.5923L50.1947 24.7061C50.1437 24.9957 50.1196 25.2895 50.1228 25.5836C50.1565 28.5128 51.9733 29.3402 54.4649 29.3117C55.7513 29.2969 57.1439 28.9528 58.3972 28.4173L58.0138 30.7767ZM57.5921 22.704C57.6432 22.2931 57.6661 21.9643 57.6621 21.635C57.6442 19.9928 56.6171 18.8274 54.6732 18.8493C52.5654 18.8733 50.9712 20.7269 50.4479 22.7867L57.5921 22.704ZM61.9042 19.1485C62.0078 18.5722 62.1635 17.8314 62.263 17.0091L64.673 16.981L64.26 19.2036H64.3146C65.1202 17.8794 66.6118 16.6303 69.0483 16.6022C69.2944 16.5991 69.7334 16.6492 70.2286 16.8355L69.6793 19.1138C69.1846 18.9285 68.7732 18.8504 68.5818 18.8534C65.4061 18.8892 63.8848 22.3569 63.5489 24.0859L62.1768 30.9743L59.6034 31.0044L61.9042 19.1485ZM71.0234 16.907L73.5967 16.8779L70.8008 30.8742L68.2275 30.9044L71.0234 16.907ZM74.4099 13.7471L71.5073 13.7803L72.0755 10.871L74.9781 10.8379L74.4099 13.7471ZM83.8262 30.4776C82.4883 30.8217 81.0952 31.084 79.6995 31.0999C76.3048 31.1397 73.2496 29.8058 73.1929 24.8776C73.148 21.0174 75.8071 16.5236 80.7353 16.4664C84.1024 16.4281 86.0147 18.4328 86.0535 21.7448C86.0637 22.6759 85.9636 23.4707 85.836 24.2941L76.0072 24.407C75.9562 24.6966 75.9321 24.9904 75.9352 25.2845C75.9689 28.2136 77.7857 29.0411 80.2774 29.0125C81.5638 28.9987 82.9564 28.6536 84.2096 28.1192L83.8262 30.4776ZM83.4046 22.4048C83.4556 21.9939 83.4786 21.6652 83.4745 21.3359C83.4556 19.6937 82.4296 18.5283 80.4857 18.5502C78.3779 18.5752 76.7837 20.4278 76.2604 22.4875L83.4046 22.4048Z" fill="#CCCCCC"/>
<path fill-rule="evenodd" clip-rule="evenodd" d="M94.7566 19.0976C94.0409 18.7494 92.9143 18.4064 91.9561 18.4176C90.8335 18.4304 89.3588 18.7484 89.3746 20.1456C89.4027 22.5265 94.1675 22.5811 94.2124 26.4689C94.2512 29.8371 91.1694 30.9673 88.98 30.9923C86.7624 31.0183 85.937 30.7263 84.8931 30.3823L85.3596 28.1597C86.3775 28.5583 87.4506 28.9295 88.5721 28.9162C89.9688 28.9004 91.4956 28.3072 91.4762 26.7196C91.4492 24.3377 86.6813 24.0365 86.6404 20.505C86.6067 17.5478 89.5497 16.364 91.8499 16.3374C93.0812 16.3231 94.3446 16.6095 95.4998 17.0618L94.7566 19.0976Z" fill="#CCCCCC"/>
</svg>
