<svg width="68" height="33" viewBox="0 0 68 33" fill="none" xmlns="http://www.w3.org/2000/svg">
<path fill-rule="evenodd" clip-rule="evenodd" d="M2.00477 4.9853H6.21068C5.83393 4.72845 5.12467 4.40137 3.95718 4.40137C3.11212 4.40137 2.47929 4.63727 2.00477 4.9853ZM6.91683 4.9853H11.316C10.7976 4.63727 10.072 4.40137 9.05859 4.40137C7.98849 4.40137 7.29591 4.72845 6.91683 4.9853ZM1.41113 5.56924H11.9445C11.7677 5.34216 11.5554 5.14499 11.316 4.9853H6.91683C6.67201 5.15098 6.55793 5.28717 6.55793 5.28717C6.55793 5.28717 6.45318 5.15098 6.21068 4.9853H2.00477C1.78042 5.15106 1.58057 5.34765 1.41113 5.56924Z" fill="#CCCCCC"/>
<path fill-rule="evenodd" clip-rule="evenodd" d="M1.05908 6.13358H12.2866C12.1947 5.93313 12.08 5.74396 11.9448 5.56982H1.411C1.27132 5.75141 1.15531 5.94269 1.05908 6.13358Z" fill="#CCCCCC"/>
<path fill-rule="evenodd" clip-rule="evenodd" d="M0.818804 6.717H12.491C12.4408 6.51647 12.3722 6.32099 12.2861 6.13306H1.05898C0.958872 6.33171 0.880496 6.52998 0.818804 6.717ZM0.666321 7.30132H3.35282C3.52587 7.10034 3.81105 6.91875 4.27704 6.91875C4.74341 6.91875 5.0088 7.10073 5.15935 7.30132H8.13685C8.31261 7.10034 8.60283 6.91875 9.07774 6.91875C9.52627 6.91875 9.7936 7.10073 9.95268 7.30132H12.5895C12.5716 7.10442 12.5385 6.90919 12.4906 6.71738H0.818804C0.756039 6.90872 0.705115 7.10373 0.666321 7.30132Z" fill="#CCCCCC"/>
<path fill-rule="evenodd" clip-rule="evenodd" d="M0.596196 7.86528H3.09685V7.82492C3.09685 7.82492 3.13953 7.54906 3.35293 7.30151H0.666423C0.60512 7.61618 0.596196 7.82492 0.596196 7.82492V7.86528ZM5.35772 7.86528H7.87854V7.82492C7.87854 7.82492 7.92161 7.54906 8.13772 7.30151H5.16022C5.27277 7.45463 5.34121 7.63565 5.3581 7.82492V7.86528H5.35772ZM10.1786 7.86528H12.5993V7.82492C12.5993 7.82492 12.6187 7.61579 12.59 7.30151H9.95317C10.1479 7.54906 10.1786 7.82492 10.1786 7.82492V7.86528ZM0.595032 8.44921H3.09685V7.86528H0.596196L0.595032 8.44921ZM5.35772 8.44921H7.87854V7.86528H5.35772V8.44921ZM10.1786 8.44921H12.5993V7.86528H10.1786V8.44921Z" fill="#CCCCCC"/>
<path fill-rule="evenodd" clip-rule="evenodd" d="M0.593898 9.03389H3.09727V8.44995H0.59545L0.593898 9.03389ZM5.35775 9.03389H7.87857V8.44995H5.35775V9.03389ZM10.1786 9.03389H12.5994V8.44995H10.1786V9.03389ZM0.592346 9.59765H3.09688V9.03389H0.59351L0.592346 9.59765ZM5.35775 9.59765H7.87857V9.03389H5.35775V9.59765ZM10.1786 9.59765H12.5994V9.03389H10.1786V9.59765Z" fill="#CCCCCC"/>
<path fill-rule="evenodd" clip-rule="evenodd" d="M0.591618 10.1811H3.09731V9.59717H0.592394L0.591618 10.1811ZM5.35779 10.1811H7.87862V9.59717H5.35779V10.1811ZM10.1787 10.1811H12.5994V9.59717H10.1787V10.1811ZM0.590454 10.7449H3.09731V10.1811H0.591618L0.590454 10.7449ZM5.35779 10.7449H7.87862V10.1811H5.35779V10.7449ZM10.1787 10.7449H12.5994V10.1811H10.1787V10.7449Z" fill="#CCCCCC"/>
<path fill-rule="evenodd" clip-rule="evenodd" d="M0.588811 11.3292H3.09683V10.7449H0.589975L0.588811 11.3292ZM5.3577 11.3292H7.87853V10.7449H5.3577V11.3292ZM10.1786 11.3292H12.5993V10.7449H10.1786V11.3292ZM0.587646 11.9131H3.09722V11.3292H0.589198L0.587646 11.9131ZM5.3577 11.9131H7.87853V11.3292H5.3577V11.9131ZM10.1786 11.9131H12.5993V11.3292H10.1786V11.9131Z" fill="#CCCCCC"/>
<path fill-rule="evenodd" clip-rule="evenodd" d="M0.586426 12.4768H3.09717V11.9131H0.58759L0.586426 12.4768ZM5.35765 12.4768H7.87847V11.9131H5.35765V12.4768ZM10.1785 12.4768H12.5992V11.9131H10.1785V12.4768Z" fill="#CCCCCC"/>
<path fill-rule="evenodd" clip-rule="evenodd" d="M0.585327 13.0611H3.09723V12.4768H0.586491L0.585327 13.0611ZM5.35771 13.0611H7.87854V12.4768H5.35771V13.0611ZM10.1786 13.0611H12.5993V12.4768H10.1786V13.0611Z" fill="#CCCCCC"/>
<path fill-rule="evenodd" clip-rule="evenodd" d="M0.58374 13.6447H3.0972V13.0608H0.585292L0.58374 13.6447ZM5.35768 13.6447H7.8785V13.0608H5.35768V13.6447ZM10.1786 13.6447H12.5993V13.0608H10.1786V13.6447Z" fill="#CCCCCC"/>
<path fill-rule="evenodd" clip-rule="evenodd" d="M0.58306 14.2088H3.09729V13.645H0.583836L0.58306 14.2088ZM5.35777 14.2088H7.8786V13.645H5.35777V14.2088ZM10.1787 14.2088H12.5994V13.645H10.1787V14.2088ZM0.581508 14.7927H3.0969V14.2088H0.582672L0.581508 14.7927ZM5.35777 14.7927H7.8786V14.2088H5.35777V14.7927ZM10.1787 14.7927H12.5994V14.2088H10.1787V14.7927ZM0.579956 15.377H3.0969V14.7931H0.581508L0.579956 15.377ZM5.35777 15.377H7.8786V14.7931H5.35777V15.377ZM10.1787 15.377H12.5994V14.7931H10.1787V15.377Z" fill="#CCCCCC"/>
<path fill-rule="evenodd" clip-rule="evenodd" d="M0.578801 15.9405H3.09691V15.3767H0.579965L0.578801 15.9405ZM5.35778 15.9405H7.87861V15.3767H5.35778V15.9405ZM10.1787 15.9405H12.5994V15.3767H10.1787V15.9405ZM0.577637 16.5244H3.09691V15.9405H0.578801L0.577637 16.5244ZM5.35778 16.5244H7.87861V15.9405H5.35778V16.5244ZM10.1787 16.5244H12.5994V15.9405H10.1787V16.5244Z" fill="#CCCCCC"/>
<path fill-rule="evenodd" clip-rule="evenodd" d="M0.576416 17.1086H3.09724V16.5247H0.577968L0.576416 17.1086ZM5.35772 17.1086H7.87855V16.5247H5.35772V17.1086ZM10.1786 17.1086H12.5993V16.5247H10.1786V17.1086Z" fill="#CCCCCC"/>
<path fill-rule="evenodd" clip-rule="evenodd" d="M0.5752 17.6722H3.09719V17.1084H0.576363L0.5752 17.6722ZM5.35767 17.6722H7.8785V17.1084H5.35767V17.6722ZM10.1786 17.6722H12.5993V17.1084H10.1786V17.6722ZM0.574036 18.2565H3.09719V17.6722H0.5752L0.574036 18.2565ZM5.35767 18.2565H7.8785V17.6722H5.35767V18.2565ZM10.1786 18.2565H12.5993V17.6722H10.1786V18.2565Z" fill="#CCCCCC"/>
<path fill-rule="evenodd" clip-rule="evenodd" d="M0.57258 18.8201H3.0969V18.2563H0.573743L0.57258 18.8201ZM5.35777 18.8201H7.87859V18.2563H5.35777V18.8201ZM10.1786 18.8201H12.5994V18.2563H10.1786V18.8201ZM0.571416 19.4044H3.09729V18.8201H0.572967L0.571416 19.4044ZM5.35777 19.4044H7.87859V18.8201H5.35777V19.4044ZM10.1786 19.4044H12.5994V18.8201H10.1786V19.4044ZM0.570251 19.988H3.09729V19.4044H0.571416L0.570251 19.988ZM5.35777 19.988H7.87859V19.4044H5.35777V19.988ZM10.1786 19.988H12.5994V19.4044H10.1786V19.988Z" fill="#CCCCCC"/>
<path fill-rule="evenodd" clip-rule="evenodd" d="M0.568608 20.5528H3.09719V19.9883H0.57016L0.568608 20.5528ZM5.35768 20.5528H7.8785V19.9883H5.35768V20.5528ZM10.1786 20.5528H12.5993V19.9883H10.1786V20.5528ZM0.567444 21.1364H3.09681V20.5528H0.56822L0.567444 21.1364ZM5.35768 21.1364H7.8785V20.5528H5.35768V21.1364ZM10.1786 21.1364H12.5993V20.5528H10.1786V21.1364Z" fill="#CCCCCC"/>
<path fill-rule="evenodd" clip-rule="evenodd" d="M0.56631 21.7206H3.09684V21.1362H0.567474L0.56631 21.7206ZM5.35771 21.7206H7.87853V21.1362H5.35771V21.7206ZM10.1786 21.7206H12.5993V21.1362H10.1786V21.7206ZM0.564758 22.2847H3.09684V21.7209H0.56631L0.564758 22.2847ZM5.35771 22.2847H7.87853V21.7209H5.35771V22.2847ZM10.1786 22.2847H12.5993V21.7209H10.1786V22.2847Z" fill="#CCCCCC"/>
<path fill-rule="evenodd" clip-rule="evenodd" d="M0.564026 22.8685H3.09727V22.2842H0.56519L0.564026 22.8685ZM5.35775 22.8685H7.87858V22.2842H5.35775V22.8685ZM10.1786 22.8685H12.5994V22.2842H10.1786V22.8685Z" fill="#CCCCCC"/>
<path fill-rule="evenodd" clip-rule="evenodd" d="M0.562382 23.452H3.09679V22.8684H0.563546L0.562382 23.452ZM5.35766 23.452H7.87848V22.8684H5.35766V23.452ZM10.1785 23.452H12.5993V22.8684H10.1785V23.452ZM0.561218 24.0157H3.09679V23.452H0.562382L0.561218 24.0157ZM5.35766 24.0157H7.87848V23.452H5.35766V24.0157ZM10.1785 24.0157H12.5993V23.452H10.1785V24.0157Z" fill="#CCCCCC"/>
<path fill-rule="evenodd" clip-rule="evenodd" d="M0.560067 24.6002H3.0968V24.0159H0.561231L0.560067 24.6002ZM5.35767 24.6002H7.8785V24.0159H5.35767V24.6002ZM10.1786 24.6002H12.5993V24.0159H10.1786V24.6002ZM0.559291 25.1845H3.09719V24.6002H0.560455L0.559291 25.1845ZM5.35767 25.1845H7.8785V24.6002H5.35767V25.1845ZM10.1786 25.1845H12.5993V24.6002H10.1786V25.1845ZM0.557739 25.7483H3.09719V25.1845H0.559291L0.557739 25.7483ZM5.35767 25.7483H7.8785V25.1845H5.35767V25.7483ZM10.1786 25.7483H12.5993V25.1845H10.1786V25.7483Z" fill="#CCCCCC"/>
<path fill-rule="evenodd" clip-rule="evenodd" d="M0.556641 26.3316H3.09726V25.748H0.557805L0.556641 26.3316ZM5.35774 26.3316H7.87856V25.748H5.35774V26.3316ZM10.1786 26.3316H12.5993V25.748H10.1786V26.3316Z" fill="#CCCCCC"/>
<path fill-rule="evenodd" clip-rule="evenodd" d="M31.2244 4.15987H31.5546L31.2244 3.57593V4.15987ZM31.2244 4.76398H31.8968L31.5546 4.15987H31.2244V4.76398Z" fill="#CCCCCC"/>
<path fill-rule="evenodd" clip-rule="evenodd" d="M31.2244 5.36803H32.2387L31.8968 4.76392H31.2244V5.36803ZM36.1256 5.36803H38.4862V4.78409H36.1256V5.36803Z" fill="#CCCCCC"/>
<path fill-rule="evenodd" clip-rule="evenodd" d="M31.2244 5.97267H32.5809L32.2387 5.36816H31.2244V5.97267ZM36.1256 5.97267H38.4862V5.36816H36.1256V5.97267Z" fill="#CCCCCC"/>
<path fill-rule="evenodd" clip-rule="evenodd" d="M31.2244 6.55635H32.9111L32.5809 5.97241H31.2244V6.55635ZM36.1256 6.55635H38.4862V5.97241H36.1256V6.55635Z" fill="#CCCCCC"/>
<path fill-rule="evenodd" clip-rule="evenodd" d="M31.2244 7.16051H33.2533L32.9111 6.5564H31.2244V7.16051ZM36.1256 7.16051H38.4862V6.5564H36.1256V7.16051ZM31.2244 7.76462H33.5951L33.2533 7.16051H31.2244V7.76462ZM36.1256 7.76462H38.4862V7.16051H36.1256V7.76462Z" fill="#CCCCCC"/>
<path fill-rule="evenodd" clip-rule="evenodd" d="M31.2244 8.36837H33.9373L33.5951 7.76465H31.2244V8.36837ZM36.1256 8.36837H38.4862V7.76465H36.1256V8.36837ZM31.2244 8.9527H34.2675L33.9369 8.36837H31.2241V8.9527H31.2244ZM36.1256 8.9527H38.4862V8.36837H36.1256V8.9527Z" fill="#CCCCCC"/>
<path fill-rule="evenodd" clip-rule="evenodd" d="M31.2244 9.55724H34.6093L34.2675 8.95312H31.2244V9.55724ZM36.1256 9.55724H38.4862V8.95312H36.1256V9.55724ZM31.2244 10.1614H34.9519L34.6093 9.55724H31.2244V10.1614ZM36.1256 10.1614H38.4862V9.55724H36.1256V10.1614Z" fill="#CCCCCC"/>
<path fill-rule="evenodd" clip-rule="evenodd" d="M31.2244 10.7654H35.2938L34.9519 10.1609H31.2244V10.7654ZM36.1256 10.7654H38.4862V10.1609H36.1256V10.7654Z" fill="#CCCCCC"/>
<path fill-rule="evenodd" clip-rule="evenodd" d="M31.2244 11.3488H35.6239L35.2934 10.7649H31.2244V11.3488ZM36.1256 11.3488H38.4862V10.7649H36.1256V11.3488ZM31.2244 11.9529H35.9658L35.6239 11.3488H31.2244V11.9529ZM36.1256 11.9529H38.4862V11.3488H36.1256V11.9529Z" fill="#CCCCCC"/>
<path fill-rule="evenodd" clip-rule="evenodd" d="M31.2244 12.5572H38.4862V11.9531H36.1256V12.2356L35.9658 11.9531H31.2244V12.5572ZM31.2244 13.1614H33.5447V12.6178L33.8946 13.1614H38.4862V12.5572H31.2244V13.1614Z" fill="#CCCCCC"/>
<path fill-rule="evenodd" clip-rule="evenodd" d="M31.2244 13.7458H33.5447V13.1619H31.2244V13.7458ZM34.2698 13.7458H38.4862V13.1619H33.8946L34.2698 13.7458Z" fill="#CCCCCC"/>
<path fill-rule="evenodd" clip-rule="evenodd" d="M31.2244 14.35H33.5447V13.7458H31.2244V14.35ZM34.6586 14.35H38.4862V13.7458H34.2698L34.6586 14.35Z" fill="#CCCCCC"/>
<path fill-rule="evenodd" clip-rule="evenodd" d="M31.2244 14.9537H33.5447V14.3496H31.2244V14.9537ZM35.0474 14.9537H38.4862V14.3496H34.6586L35.0474 14.9537Z" fill="#CCCCCC"/>
<path fill-rule="evenodd" clip-rule="evenodd" d="M31.2244 15.5379H33.5447V14.9536H31.2244V15.5379ZM35.4226 15.5379H38.4862V14.9536H35.0474L35.4226 15.5379Z" fill="#CCCCCC"/>
<path fill-rule="evenodd" clip-rule="evenodd" d="M31.2244 16.1422H33.5447V15.5381H31.2244V16.1422ZM35.811 16.1422H38.4862V15.5381H35.4226L35.811 16.1422Z" fill="#CCCCCC"/>
<path fill-rule="evenodd" clip-rule="evenodd" d="M31.2244 16.7462H33.5447V16.1421H31.2244V16.7462ZM36.1997 16.7462H38.4862V16.1421H35.811L36.1997 16.7462ZM31.2244 17.3503H33.5447V16.7462H31.2244V17.3503ZM36.2257 17.3503H38.4862V16.7462H36.1997L36.2253 16.7866V17.3503H36.2257ZM31.2244 17.9346H33.5447V17.3503H31.2244V17.9346ZM36.2257 17.9346H38.4862V17.3503H36.2257V17.9346Z" fill="#CCCCCC"/>
<path fill-rule="evenodd" clip-rule="evenodd" d="M31.2244 18.538H33.5447V17.9338H31.2244V18.538ZM36.2257 18.538H38.4862V17.9338H36.2257V18.538ZM31.2244 19.1421H33.5447V18.538H31.2244V19.1421ZM36.2257 19.1421H38.4862V18.538H36.2257V19.1421Z" fill="#CCCCCC"/>
<path fill-rule="evenodd" clip-rule="evenodd" d="M31.2244 19.747H33.5447V19.1421H31.2244V19.747ZM36.2257 19.747H38.4862V19.1421H36.2257V19.747Z" fill="#CCCCCC"/>
<path fill-rule="evenodd" clip-rule="evenodd" d="M31.2244 20.3306H33.5447V19.7471H31.2244V20.3306ZM36.2257 20.3306H38.4862V19.7471H36.2257V20.3306ZM31.2244 20.9355H33.5447V20.3306H31.2244V20.9355ZM36.2257 20.9355H38.4862V20.3306H36.2257V20.9355Z" fill="#CCCCCC"/>
<path fill-rule="evenodd" clip-rule="evenodd" d="M31.2244 21.5397H33.5447V20.9355H31.2244V21.5397ZM36.2257 21.5397H38.4862V20.9355H36.2257V21.5397Z" fill="#CCCCCC"/>
<path fill-rule="evenodd" clip-rule="evenodd" d="M31.2244 22.1432H33.5447V21.5391H31.2244V22.1432ZM36.2257 22.1432H38.4862V21.5391H36.2257V22.1432ZM31.2244 22.7275H33.5447V22.1432H31.2244V22.7275ZM36.2257 22.7275H38.4862V22.1432H36.2257V22.7275Z" fill="#CCCCCC"/>
<path fill-rule="evenodd" clip-rule="evenodd" d="M31.2244 23.3319H33.5447V22.7278H31.2244V23.3319ZM36.2257 23.3319H38.4862V22.7278H36.2257V23.3319Z" fill="#CCCCCC"/>
<path fill-rule="evenodd" clip-rule="evenodd" d="M31.2244 23.9352H33.5447V23.3311H31.2244V23.9352ZM36.2257 23.9352H38.4862V23.3311H36.2257V23.9352Z" fill="#CCCCCC"/>
<path fill-rule="evenodd" clip-rule="evenodd" d="M31.2244 24.5397H33.5447V23.9355H31.2244V24.5397ZM36.2257 24.5397H38.4862V23.9355H36.2257V24.5397Z" fill="#CCCCCC"/>
<path fill-rule="evenodd" clip-rule="evenodd" d="M31.2244 25.1239H33.5447V24.5396H31.2244V25.1239ZM36.2257 25.1239H38.4862V24.5396H36.2257V25.1239ZM31.2244 25.728H33.5447V25.1239H31.2244V25.728ZM36.2257 25.728H38.4862V25.1239H36.2257V25.728Z" fill="#CCCCCC"/>
<path fill-rule="evenodd" clip-rule="evenodd" d="M31.2244 26.3319H33.5447V25.7278H31.2244V26.3319ZM36.2257 26.3319H38.4862V25.7278H36.2257V26.3319Z" fill="#CCCCCC"/>
<path fill-rule="evenodd" clip-rule="evenodd" d="M52.4573 1.40116H54.31V0.554932C54.31 0.554932 53.5642 0.810235 52.4573 1.40116Z" fill="#CCCCCC"/>
<path fill-rule="evenodd" clip-rule="evenodd" d="M51.0248 2.24657H54.31V1.40112H52.4573C51.9678 1.66219 51.4899 1.94427 51.0248 2.24657Z" fill="#CCCCCC"/>
<path fill-rule="evenodd" clip-rule="evenodd" d="M49.851 3.07249H54.3099V2.24683H51.0247C50.6235 2.50768 50.2321 2.78309 49.851 3.07249ZM48.8158 3.91832H54.3099V3.07249H49.851C49.4962 3.34233 49.1509 3.62444 48.8158 3.91832ZM47.9156 4.76416H53.419C53.9653 4.50769 54.3103 4.40177 54.3103 4.40177V3.91832H48.8162C48.5064 4.18982 48.206 4.47193 47.9156 4.76416Z" fill="#CCCCCC"/>
<path fill-rule="evenodd" clip-rule="evenodd" d="M47.1281 5.60965H51.9168C52.3965 5.29193 52.8985 5.00913 53.4188 4.76343H47.9154C47.6438 5.03684 47.3813 5.31906 47.1281 5.60965ZM46.4395 6.45549H50.7815C51.1437 6.15242 51.5227 5.87015 51.9168 5.61004H47.1281C46.8895 5.8843 46.6598 6.16627 46.4395 6.45549Z" fill="#CCCCCC"/>
<path fill-rule="evenodd" clip-rule="evenodd" d="M45.8346 7.3014H49.8683C50.158 7.00398 50.4628 6.72166 50.7816 6.45557H46.4395C46.2289 6.73097 46.0272 7.01306 45.8346 7.3014ZM45.3178 8.12706H49.1349C49.3667 7.84071 49.6115 7.5652 49.8686 7.3014H45.835C45.6565 7.56718 45.4846 7.84227 45.3178 8.12706Z" fill="#CCCCCC"/>
<path fill-rule="evenodd" clip-rule="evenodd" d="M44.8564 8.97255H48.5082C48.7047 8.68164 48.9138 8.39943 49.1348 8.12671H45.3177C45.1557 8.40411 45.0019 8.68618 44.8564 8.97255ZM44.4579 9.81877H47.9887C48.1555 9.52234 48.3289 9.24065 48.5086 8.97293H44.8567C44.7171 9.24686 44.5836 9.52855 44.4579 9.81877Z" fill="#CCCCCC"/>
<path fill-rule="evenodd" clip-rule="evenodd" d="M44.1169 10.6644H47.558C47.6908 10.3772 47.8343 10.095 47.9883 9.8186H44.4575C44.3363 10.0974 44.2227 10.3794 44.1169 10.6644Z" fill="#CCCCCC"/>
<path fill-rule="evenodd" clip-rule="evenodd" d="M43.83 11.5099H47.206C47.315 11.2173 47.4326 10.9349 47.5575 10.6641H44.1164C44.0151 10.9395 43.9197 11.2216 43.83 11.5099ZM43.5984 12.3356H46.9266C47.0132 12.0512 47.1063 11.7761 47.2064 11.5099H43.8304C43.7458 11.783 43.6684 12.0583 43.5984 12.3356Z" fill="#CCCCCC"/>
<path fill-rule="evenodd" clip-rule="evenodd" d="M43.4052 13.1813H46.7032C46.7707 12.8907 46.8448 12.6086 46.9267 12.3354H43.5984C43.5269 12.6157 43.4625 12.8978 43.4052 13.1813ZM43.2574 14.0271H46.5333C46.5825 13.7369 46.6392 13.4552 46.7032 13.1813H43.4052C43.3497 13.4579 43.3005 13.74 43.2574 14.0271Z" fill="#CCCCCC"/>
<path fill-rule="evenodd" clip-rule="evenodd" d="M43.1511 14.8729H46.4142C46.4468 14.5835 46.4871 14.3014 46.5333 14.0271H43.2574C43.2155 14.3082 43.18 14.5902 43.1511 14.8729ZM43.0809 15.7188H46.3416C46.3591 15.4301 46.3832 15.148 46.4146 14.8729H43.1515C43.1218 15.1543 43.0983 15.4363 43.0809 15.7188ZM43.0522 16.5444H46.3114C46.3153 16.2635 46.325 15.988 46.3416 15.7192H43.0809C43.0657 15.994 43.0562 16.2692 43.0522 16.5444Z" fill="#CCCCCC"/>
<path fill-rule="evenodd" clip-rule="evenodd" d="M43.0541 17.39H46.3203C46.3123 17.1888 46.3083 16.9873 46.3082 16.7859C46.3082 16.7048 46.3098 16.6249 46.3113 16.5442H43.0521C43.0506 16.6579 43.0475 16.7716 43.0475 16.8868C43.0475 17.0567 43.0506 17.2244 43.0541 17.39ZM51.0492 17.39H54.3099V16.8868H51.0492V17.39Z" fill="#CCCCCC"/>
<path fill-rule="evenodd" clip-rule="evenodd" d="M43.0976 18.2367H46.3796C46.352 17.9552 46.3324 17.6728 46.3207 17.3901H43.0545C43.0627 17.6773 43.077 17.9593 43.0976 18.2367ZM51.0492 18.2367H54.31V17.3901H51.0492V18.2367Z" fill="#CCCCCC"/>
<path fill-rule="evenodd" clip-rule="evenodd" d="M43.1764 19.0829H46.4895C46.4441 18.8022 46.4075 18.5201 46.3797 18.2371H43.0976C43.1178 18.5234 43.1438 18.8063 43.1764 19.0829ZM51.0492 19.0829H54.31V18.2371H51.0492V19.0829Z" fill="#CCCCCC"/>
<path fill-rule="evenodd" clip-rule="evenodd" d="M43.3013 19.9281H46.6532C46.5898 19.6479 46.5352 19.3659 46.4895 19.0823H43.1764C43.2113 19.3698 43.2536 19.6515 43.3013 19.9281ZM51.0493 19.9281H54.31V19.0823H51.0493V19.9281Z" fill="#CCCCCC"/>
<path fill-rule="evenodd" clip-rule="evenodd" d="M43.4704 20.7738H46.8759C46.7924 20.4944 46.7181 20.2123 46.6532 19.928H43.3013C43.3513 20.2159 43.4076 20.4979 43.4704 20.7738ZM51.0492 20.7738H54.31V19.928H51.0492V20.7738Z" fill="#CCCCCC"/>
<path fill-rule="evenodd" clip-rule="evenodd" d="M43.6804 21.5992H47.1534C47.0515 21.3274 46.9589 21.0521 46.876 20.7739H43.4705C43.5342 21.0552 43.6036 21.3303 43.6804 21.5992ZM51.0493 21.5992H54.31V20.7739H51.0493V21.5992ZM43.9462 22.4458H47.5057C47.3784 22.1678 47.2609 21.8854 47.1534 21.5992H43.6804C43.7623 21.8879 43.8508 22.1707 43.9462 22.4458ZM51.0493 22.4458H54.31V21.5992H51.0493V22.4458Z" fill="#CCCCCC"/>
<path fill-rule="evenodd" clip-rule="evenodd" d="M44.2681 23.2914H47.9335C47.7802 23.0149 47.6373 22.7328 47.5052 22.4456H43.9457C44.0469 22.7346 44.1544 23.0163 44.2681 23.2914ZM51.0492 23.2914H54.3099V22.4456H51.0492V23.2914Z" fill="#CCCCCC"/>
<path fill-rule="evenodd" clip-rule="evenodd" d="M44.6511 24.1373H48.4477C48.2655 23.8622 48.0942 23.58 47.934 23.2915H44.2686C44.3888 23.581 44.5169 23.863 44.6511 24.1373ZM51.0492 24.1373H54.31V23.2915H51.0492V24.1373Z" fill="#CCCCCC"/>
<path fill-rule="evenodd" clip-rule="evenodd" d="M45.0989 24.9828H49.0615C48.845 24.7097 48.6402 24.4275 48.4477 24.137H44.6511C44.7935 24.428 44.9437 24.7093 45.0989 24.9828ZM51.0492 24.9828H54.31V24.137H51.0492V24.9828Z" fill="#CCCCCC"/>
<path fill-rule="evenodd" clip-rule="evenodd" d="M45.6052 25.8082H49.7777C49.5266 25.5441 49.2876 25.2687 49.0614 24.9829H45.0988C45.2584 25.2635 45.4273 25.5388 45.6052 25.8082ZM51.0492 25.8082H54.3099V24.9829H51.0492V25.8082Z" fill="#CCCCCC"/>
<path fill-rule="evenodd" clip-rule="evenodd" d="M46.2032 26.6542H50.6819C50.3639 26.3903 50.062 26.1076 49.7778 25.8076H45.6053C45.7952 26.0963 45.9946 26.3787 46.2032 26.6542ZM51.0493 26.6542H54.31V25.8076H51.0493V26.6542Z" fill="#CCCCCC"/>
<path fill-rule="evenodd" clip-rule="evenodd" d="M46.8903 27.5004H54.31V26.6545H51.0493V26.9366C51.0493 26.9366 50.9116 26.8435 50.6819 26.6545H46.2032C46.4226 26.9442 46.6518 27.2263 46.8903 27.5004Z" fill="#CCCCCC"/>
<path fill-rule="evenodd" clip-rule="evenodd" d="M47.6806 28.3461H54.3099V27.5002H46.8902C47.1486 27.7975 47.4132 28.0784 47.6806 28.3461Z" fill="#CCCCCC"/>
<path fill-rule="evenodd" clip-rule="evenodd" d="M48.5925 29.1915H54.31V28.3457H47.6807C47.9745 28.6383 48.2786 28.9205 48.5925 29.1915Z" fill="#CCCCCC"/>
<path fill-rule="evenodd" clip-rule="evenodd" d="M49.6489 30.0375H54.3103V29.1917H48.5928C48.934 29.4868 49.2863 29.769 49.6489 30.0375ZM50.8567 30.8635H54.3099V30.0375H49.6485C50.0406 30.3281 50.4436 30.6037 50.8567 30.8635ZM52.3467 31.7094H54.3103V30.8635H50.8571C51.3926 31.1992 51.897 31.4805 52.3467 31.7094Z" fill="#CCCCCC"/>
<path fill-rule="evenodd" clip-rule="evenodd" d="M54.31 32.5551V31.7092H52.3463C53.515 32.3044 54.31 32.5551 54.31 32.5551Z" fill="#CCCCCC"/>
<path fill-rule="evenodd" clip-rule="evenodd" d="M59.8518 17.7129H62.2322V17.5515H59.8518V17.7129ZM65.0134 17.7129H67.4938V17.5515H65.0134V17.7129ZM59.8518 18.2965H62.2322V17.7129H59.8518V18.2965ZM65.0134 18.2965H67.4938V17.7129H65.0134V18.2965Z" fill="#CCCCCC"/>
<path fill-rule="evenodd" clip-rule="evenodd" d="M59.8518 18.8812H62.2322V18.2969H59.8518V18.8812ZM65.0134 18.8812H67.4938V18.2969H65.0134V18.8812Z" fill="#CCCCCC"/>
<path fill-rule="evenodd" clip-rule="evenodd" d="M59.8518 19.4644H62.2322V18.8809H59.8518V19.4644ZM65.0134 19.4644H67.4938V18.8809H65.0134V19.4644ZM59.8518 20.0487H62.2322V19.4644H59.8518V20.0487ZM65.0134 20.0487H67.4938V19.4644H65.0134V20.0487Z" fill="#CCCCCC"/>
<path fill-rule="evenodd" clip-rule="evenodd" d="M59.8518 20.6332H62.2322V20.0488H59.8518V20.6332ZM65.0134 20.6332H67.4938V20.0488H65.0134V20.6332ZM59.8518 21.2175H62.2322V20.6332H59.8518V21.2175ZM65.0134 21.2175H67.4938V20.6332H65.0134V21.2175Z" fill="#CCCCCC"/>
<path fill-rule="evenodd" clip-rule="evenodd" d="M59.8518 21.8006H62.2322V21.217H59.8518V21.8006ZM65.0134 21.8006H67.4938V21.217H65.0134V21.8006ZM59.8518 22.4047H62.2322V21.8006H59.8518V22.4047ZM65.0134 22.4047H67.4938V21.8006H65.0134V22.4047ZM59.8518 22.989H62.2322V22.4047H59.8518V22.989ZM65.0134 22.989H67.4938V22.4047H65.0134V22.989Z" fill="#CCCCCC"/>
<path fill-rule="evenodd" clip-rule="evenodd" d="M59.9103 23.5733H62.4928C62.2814 23.2792 62.2321 22.989 62.2321 22.989H59.8517C59.8517 22.989 59.8482 23.2245 59.9103 23.5733ZM64.9073 23.5733H67.4522C67.4809 23.3793 67.491 23.2203 67.4937 23.1178V22.989H65.0133C65.0133 22.989 65.042 23.2792 64.9073 23.5733ZM60.0605 24.1569H63.4842C62.9817 24.0847 62.6764 23.8279 62.4928 23.5733H59.9103C59.9413 23.7452 59.9883 23.9447 60.0605 24.1569ZM64.0607 24.1569H67.3191C67.3851 23.9447 67.4258 23.7452 67.4518 23.5733H64.907C64.7906 23.8279 64.5504 24.0847 64.0607 24.1569Z" fill="#CCCCCC"/>
<path fill-rule="evenodd" clip-rule="evenodd" d="M60.3142 24.7413H67.0836C67.1853 24.5434 67.2617 24.3452 67.3192 24.157H64.0608C63.8696 24.1848 63.6754 24.1848 63.4842 24.157H60.0605C60.1241 24.3448 60.2064 24.5434 60.3142 24.7413Z" fill="#CCCCCC"/>
<path fill-rule="evenodd" clip-rule="evenodd" d="M60.7205 25.3255H66.6965C66.8471 25.1459 66.9769 24.9499 67.0837 24.7412H60.3143C60.4277 24.9504 60.564 25.1463 60.7205 25.3255ZM61.4053 25.9091H66.031C66.2809 25.749 66.5052 25.5523 66.6965 25.3255H60.7205C60.919 25.5525 61.1498 25.7491 61.4053 25.9091Z" fill="#CCCCCC"/>
<path fill-rule="evenodd" clip-rule="evenodd" d="M66.031 25.9087H61.4053C61.9601 26.2571 62.7117 26.493 63.7325 26.493C64.7483 26.493 65.4901 26.2575 66.031 25.9087Z" fill="#CCCCCC"/>
<path fill-rule="evenodd" clip-rule="evenodd" d="M61.3932 4.82442H65.9697C65.4156 4.47522 64.6609 4.24048 63.6327 4.24048C62.655 4.24009 61.9306 4.47522 61.3932 4.82442ZM60.7286 5.40836H66.651C66.4541 5.18103 66.2244 4.98424 65.9697 4.82442H61.3932C61.1444 4.9856 60.9205 5.18233 60.7286 5.40836Z" fill="#CCCCCC"/>
<path fill-rule="evenodd" clip-rule="evenodd" d="M60.3309 5.99238H67.0495C66.9385 5.78368 66.8049 5.58785 66.651 5.40845H60.7286C60.5756 5.58838 60.4423 5.78414 60.3309 5.99238ZM60.0775 6.57632H67.2963C67.2313 6.37476 67.1486 6.17935 67.0491 5.99238H60.3305C60.2304 6.1798 60.1458 6.3751 60.0775 6.57632ZM59.9239 7.16065H62.449C62.6348 6.88866 62.977 6.63685 63.6122 6.63685C64.2578 6.63685 64.6059 6.88827 64.7929 7.16065H67.4398C67.4068 6.96268 67.359 6.76748 67.2966 6.57671H60.0779C60.0131 6.76755 59.9616 6.96266 59.9239 7.16065Z" fill="#CCCCCC"/>
<path fill-rule="evenodd" clip-rule="evenodd" d="M59.8534 7.74424H62.2376C62.2605 7.5355 62.333 7.33528 62.4491 7.1603H59.924C59.8731 7.42608 59.858 7.63599 59.8534 7.74424ZM65.0075 7.74424H67.4938V7.69807C67.4881 7.51766 67.4701 7.33786 67.4399 7.15991H64.793C64.9482 7.38456 64.9936 7.62318 65.0075 7.74424ZM59.8518 8.34835H62.2322V7.82455C62.2322 7.82455 62.2322 7.79429 62.2376 7.74424H59.8534C59.851 7.79584 59.8518 7.82455 59.8518 7.82455V8.34835ZM65.0134 8.34835H67.4938V7.74424H65.0075C65.0137 7.79429 65.0137 7.82455 65.0137 7.82455V8.34835H65.0134Z" fill="#CCCCCC"/>
<path fill-rule="evenodd" clip-rule="evenodd" d="M59.8518 8.93272H62.2322V8.34839H59.8518V8.93272ZM65.0134 8.93272H67.4938V8.34839H65.0134V8.93272ZM59.8518 9.51665H62.2322V8.93272H59.8518V9.51665ZM65.0134 9.51665H67.4938V8.93272H65.0134V9.51665Z" fill="#CCCCCC"/>
<path fill-rule="evenodd" clip-rule="evenodd" d="M59.8518 10.1003H62.2322V9.51636H59.8518V10.1003ZM65.0134 10.1003H67.4938V9.51636H65.0134V10.1003ZM59.8518 10.6846H62.2322V10.1007H59.8518V10.6846ZM65.0134 10.6846H67.4938V10.1007H65.0134V10.6846Z" fill="#CCCCCC"/>
<path fill-rule="evenodd" clip-rule="evenodd" d="M59.8518 11.2688H62.2322V10.6848H59.8518V11.2688ZM65.0134 11.2688H67.4938V10.6848H65.0134V11.2688ZM59.8518 11.8527H62.2322V11.2688H59.8518V11.8527ZM65.0134 11.8527H67.4938V11.2688H65.0134V11.8527ZM59.8518 12.4366H62.2322V11.8527H59.8518V12.4366ZM65.0134 12.4366H67.4938V11.8527H65.0134V12.4366Z" fill="#CCCCCC"/>
<path fill-rule="evenodd" clip-rule="evenodd" d="M59.8518 13.0205H62.2322V12.4365H59.8518V13.0205ZM65.0134 13.0205H67.4938V12.4365H65.0134V13.0205Z" fill="#CCCCCC"/>
<path fill-rule="evenodd" clip-rule="evenodd" d="M59.8518 13.6046H62.2322V13.0203H59.8518V13.6046ZM65.0134 13.6046H67.4938V13.0203H65.0134V13.6046Z" fill="#CCCCCC"/>
<path fill-rule="evenodd" clip-rule="evenodd" d="M59.8518 14.1884H62.2322V13.6045H59.8518V14.1884ZM65.0134 14.1884H67.4938V13.6045H65.0134V14.1884ZM59.8518 14.7728H62.2322V14.1888H59.8518V14.7728ZM65.0134 14.7728H67.4938V14.1888H65.0134V14.7728ZM59.8518 15.3769H62.2322V14.7728H59.8518V15.3769ZM65.0134 15.3769H67.4938V14.7728H65.0134V15.3769Z" fill="#CCCCCC"/>
<path fill-rule="evenodd" clip-rule="evenodd" d="M59.8518 15.9606H62.2322V15.3767H59.8518V15.9606ZM65.0134 15.9606H67.4938V15.3767H65.0134V15.9606ZM59.8518 16.5446H62.2322V15.9606H59.8518V16.5446ZM65.0134 16.5446H67.4938V15.9606H65.0134V16.5446Z" fill="#CCCCCC"/>
<path fill-rule="evenodd" clip-rule="evenodd" d="M59.8518 17.1285H62.2322V16.5442H59.8518V17.1285ZM65.0134 17.1285H67.4938V16.5442H65.0134V17.1285ZM67.4938 17.5514V17.1285H65.0134V17.5514H67.4938ZM62.2322 17.1285H59.8518V17.5514H62.2322V17.1285Z" fill="#CCCCCC"/>
<path fill-rule="evenodd" clip-rule="evenodd" d="M19.9387 4.9853H24.5508C24.0099 4.63727 23.2662 4.40137 22.2422 4.40137C21.223 4.40137 20.4803 4.63727 19.9387 4.9853ZM19.2721 5.56924H25.2135C25.0236 5.34191 24.8 5.14499 24.5504 4.9853H19.9387C19.6883 5.14528 19.4636 5.34215 19.2721 5.56924Z" fill="#CCCCCC"/>
<path fill-rule="evenodd" clip-rule="evenodd" d="M18.8958 6.13358H25.5856C25.4828 5.93257 25.3582 5.74351 25.2139 5.56982H19.2721C19.1265 5.74347 19.0003 5.93251 18.8958 6.13358Z" fill="#CCCCCC"/>
<path fill-rule="evenodd" clip-rule="evenodd" d="M18.6556 6.717H25.8204C25.7599 6.51567 25.6814 6.32022 25.5857 6.13306H18.8958C18.7987 6.32024 18.7183 6.51565 18.6556 6.717ZM18.5214 7.30132H21.1539C21.3351 7.05649 21.6688 6.81787 22.2822 6.81787C22.9151 6.81787 23.2499 7.05649 23.4261 7.30132H25.9488C25.9214 7.10365 25.8786 6.90841 25.8208 6.71738H18.6556C18.5885 6.93195 18.547 7.13177 18.5214 7.30132Z" fill="#CCCCCC"/>
<path fill-rule="evenodd" clip-rule="evenodd" d="M18.481 7.86528H20.9417V7.82492C20.9417 7.82492 20.963 7.55953 21.1539 7.30151H18.5214C18.4736 7.61618 18.481 7.82492 18.481 7.82492V7.86528ZM23.6224 7.86528H25.983V7.69921C25.9789 7.5661 25.9674 7.43333 25.9484 7.30151H23.4257C23.6119 7.55953 23.6224 7.82492 23.6224 7.82492V7.86528ZM18.481 8.44921H20.9417V7.86528H18.481V8.44921ZM23.6224 8.44921H25.983V7.86528H23.6224V8.44921Z" fill="#CCCCCC"/>
<path fill-rule="evenodd" clip-rule="evenodd" d="M18.481 9.03389H20.9417V8.44995H18.481V9.03389ZM23.6224 9.03389H25.983V8.44995H23.6224V9.03389ZM18.481 9.59765H20.9417V9.03389H18.481V9.59765ZM23.6224 9.59765H25.983V9.03389H23.6224V9.59765Z" fill="#CCCCCC"/>
<path fill-rule="evenodd" clip-rule="evenodd" d="M18.481 10.1811H20.9417V9.59717H18.481V10.1811ZM23.6224 10.1811H25.983V9.59717H23.6224V10.1811ZM18.481 10.7449H20.9417V10.1811H18.481V10.7449ZM23.6224 10.7449H25.983V10.1811H23.6224V10.7449Z" fill="#CCCCCC"/>
<path fill-rule="evenodd" clip-rule="evenodd" d="M18.481 11.3292H20.9417V10.7449H18.481V11.3292ZM23.6224 11.3292H25.983V10.7449H23.6224V11.3292ZM18.481 11.9131H20.9417V11.3292H18.481V11.9131ZM23.6224 11.9131H25.983V11.3292H23.6224V11.9131Z" fill="#CCCCCC"/>
<path fill-rule="evenodd" clip-rule="evenodd" d="M18.481 12.4768H20.9417V11.9131H18.481V12.4768ZM23.6224 12.4768H25.983V11.9131H23.6224V12.4768Z" fill="#CCCCCC"/>
<path fill-rule="evenodd" clip-rule="evenodd" d="M18.481 13.0611H20.9417V12.4768H18.481V13.0611ZM23.6224 13.0611H25.983V12.4768H23.6224V13.0611Z" fill="#CCCCCC"/>
<path fill-rule="evenodd" clip-rule="evenodd" d="M18.481 13.6447H20.9417V13.0608H18.481V13.6447ZM23.6224 13.6447H25.983V13.0608H23.6224V13.6447Z" fill="#CCCCCC"/>
<path fill-rule="evenodd" clip-rule="evenodd" d="M18.481 14.2088H20.9417V13.645H18.481V14.2088ZM23.6224 14.2088H25.983V13.645H23.6224V14.2088ZM18.481 14.7927H20.9417V14.2088H18.481V14.7927ZM23.6224 14.7927H25.983V14.2088H23.6224V14.7927ZM18.481 15.377H20.9417V14.7931H18.481V15.377ZM23.6224 15.377H25.983V14.7931H23.6224V15.377Z" fill="#CCCCCC"/>
<path fill-rule="evenodd" clip-rule="evenodd" d="M18.481 15.9405H20.9417V15.3767H18.481V15.9405ZM23.6224 15.9405H25.983V15.3767H23.6224V15.9405ZM18.481 16.5244H20.9417V15.9405H18.481V16.5244ZM23.6224 16.5244H25.983V15.9405H23.6224V16.5244Z" fill="#CCCCCC"/>
<path fill-rule="evenodd" clip-rule="evenodd" d="M18.481 17.1086H20.9417V16.5247H18.481V17.1086ZM23.6224 17.1086H25.983V16.5247H23.6224V17.1086Z" fill="#CCCCCC"/>
<path fill-rule="evenodd" clip-rule="evenodd" d="M18.481 17.6722H20.9417V17.1084H18.481V17.6722ZM23.6224 17.6722H25.983V17.1084H23.6224V17.6722ZM18.481 18.2565H20.9417V17.6722H18.481V18.2565ZM23.6224 18.2565H25.983V17.6722H23.6224V18.2565Z" fill="#CCCCCC"/>
<path fill-rule="evenodd" clip-rule="evenodd" d="M18.4811 18.8201H20.9417V18.2563H18.4811V18.8201ZM23.6224 18.8201H25.983V18.2563H23.6224V18.8201ZM18.4811 19.4044H20.9417V18.8201H18.4811V19.4044ZM23.6224 19.4044H25.983V18.8201H23.6224V19.4044ZM15.3872 19.988H25.983V19.4044H23.6224V19.5453H20.9417V19.4044H18.4811V19.5453H15.1L15.3872 19.988Z" fill="#CCCCCC"/>
<path fill-rule="evenodd" clip-rule="evenodd" d="M15.753 20.5528H25.983V19.9883H15.3871L15.753 20.5528ZM16.1313 21.1364H25.983V20.5528H15.753L16.1313 21.1364Z" fill="#CCCCCC"/>
<path fill-rule="evenodd" clip-rule="evenodd" d="M16.51 21.7204H25.983V21.1365H16.1313L16.51 21.7204ZM18.5811 22.2846H20.9017V21.9621H23.6825V22.2846H25.983V21.7204H16.51L16.6407 21.9222H18.5811V22.2846Z" fill="#CCCCCC"/>
<path fill-rule="evenodd" clip-rule="evenodd" d="M18.5811 22.8685H20.9017V22.2842H18.5811V22.8685ZM23.6825 22.8685H25.983V22.2842H23.6825V22.8685Z" fill="#CCCCCC"/>
<path fill-rule="evenodd" clip-rule="evenodd" d="M18.5811 23.452H20.9017V22.8684H18.5811V23.452ZM23.6825 23.452H25.983V22.8684H23.6825V23.452ZM18.5811 24.0157H20.9017V23.452H18.5811V24.0157ZM23.6825 24.0157H25.983V23.452H23.6825V24.0157Z" fill="#CCCCCC"/>
<path fill-rule="evenodd" clip-rule="evenodd" d="M18.5811 24.6002H20.9017V24.0159H18.5811V24.6002ZM23.6825 24.6002H25.983V24.0159H23.6825V24.6002ZM18.5811 25.1845H20.9017V24.6002H18.5811V25.1845ZM23.6825 25.1845H25.983V24.6002H23.6825V25.1845ZM18.5811 25.7483H20.9017V25.1845H18.5811V25.7483ZM23.6825 25.7483H25.983V25.1845H23.6825V25.7483Z" fill="#CCCCCC"/>
<path fill-rule="evenodd" clip-rule="evenodd" d="M18.5811 26.3316H20.9017V25.748H18.5811V26.3316ZM23.6825 26.3316H25.983V25.748H23.6825V26.3316Z" fill="#CCCCCC"/>
</svg>
