<svg width="61" height="33" viewBox="0 0 61 33" fill="none" xmlns="http://www.w3.org/2000/svg">
<path fill-rule="evenodd" clip-rule="evenodd" d="M26.6014 28.31C24.0174 30.4323 20.6029 31.7241 17.0037 31.7241C8.51343 31.7241 1.70744 24.8948 1.70744 16.5203C1.70744 8.12237 8.51343 1.29303 17.0037 1.29303C22.6332 1.29303 27.5245 4.33848 30.2006 8.95282C30.5696 9.04517 30.8467 9.13752 31.2154 9.22987C28.5397 4.06178 23.1869 0.554932 17.0037 0.554932C8.14404 0.554932 0.968994 7.66097 0.968994 16.5203C0.968994 25.3569 8.14438 32.5549 17.0037 32.5549C21.1566 32.5549 24.9402 30.894 27.8012 28.31H26.6014Z" fill="#CCCCCC"/>
<path fill-rule="evenodd" clip-rule="evenodd" d="M19.0339 27.572H60.9084V21.2964H19.0339V27.572Z" fill="#CCCCCC"/>
<path fill-rule="evenodd" clip-rule="evenodd" d="M21.1563 10.0598L20.9716 10.8906H18.9413C18.3876 16.7971 18.0185 21.5725 17.6494 23.7878C16.819 27.756 13.1275 29.9707 10.7281 29.9707C9.89766 29.9707 8.88251 29.602 8.88251 28.5868C8.88251 28.0331 9.34391 27.5717 9.89766 27.5717C10.7281 27.5717 11.3742 28.2174 11.8356 28.9555C13.1278 28.2174 13.3122 27.5717 13.8659 24.9873C14.1429 23.7878 14.881 15.2279 15.2501 10.8906H13.5889L13.7736 10.0598H15.4348L15.6195 8.58356C16.5423 3.13877 20.5105 2.49268 21.9874 2.49268C22.7255 2.49268 24.2021 2.86173 24.2021 3.87688C24.2021 4.52263 23.6483 4.79968 23.0946 4.79968C22.0794 4.79968 21.618 4.24593 21.1563 3.41513C19.495 4.15358 19.2183 8.21417 19.0336 10.0594H21.1563V10.0598ZM20.9719 17.6272C20.9719 13.2903 23.7407 9.50637 28.447 9.50637C31.4005 9.50637 33.061 10.7986 33.061 13.6593C33.061 17.9966 30.2926 21.6651 25.5859 21.6651C22.6332 21.6651 20.9719 20.3729 20.9719 17.6272ZM29.2778 14.3054C29.2778 13.1979 29.1855 10.5219 27.5246 10.5219C25.1252 10.5219 24.7558 15.2282 24.7558 16.9818C24.7558 17.9969 24.8482 20.7427 26.5091 20.7427C28.9084 20.7423 29.2778 16.0587 29.2778 14.3054ZM34.0765 17.6272C34.0765 13.2903 36.9376 9.50637 41.644 9.50637C44.5051 9.50637 46.235 10.7986 46.235 13.6593C46.235 17.9966 43.3972 21.6651 38.6909 21.6651C35.8298 21.6651 34.0765 20.3729 34.0765 17.6272ZM42.4744 14.3054C42.4744 13.1979 42.3824 10.5219 40.7212 10.5219C38.2295 10.5219 37.9528 15.2282 37.9528 16.9818C37.9528 17.9969 37.9528 20.7427 39.6137 20.7427C42.105 20.7423 42.4744 16.0587 42.4744 14.3054ZM60.5397 20.2809C58.8781 21.019 56.8478 21.6648 55.464 21.6648C54.7259 21.6648 54.8176 20.557 54.8176 20.0959C54.8176 19.5428 54.8176 18.8037 55.0026 17.3508L54.9099 17.2582C53.9871 19.1731 52.1415 21.6648 49.7421 21.6648C47.8962 21.6648 47.0654 19.7269 47.0654 18.089C47.0654 14.028 50.2952 9.69106 54.9099 9.69106H55.8327C56.2021 6.82997 56.2021 5.63047 56.2021 4.70733C56.2021 4.43062 56.2021 4.15358 55.925 4.15358C55.648 4.15358 55.2793 4.24593 54.3561 4.52263L54.1718 3.78453C56.0177 3.13877 58.048 2.76938 59.8933 2.67703C60.0783 2.67703 60.1703 2.67703 60.1703 3.04608C60.1703 5.44543 58.3244 17.9963 58.3244 19.2658C58.3244 19.5428 58.3244 20.0039 58.6938 20.0039C58.8781 20.0039 59.5246 19.8189 60.2627 19.5425L60.5397 20.2809ZM54.5405 16.3357C55.1869 14.7668 55.3713 13.1979 55.7407 10.7986C55.5556 10.7059 55.3713 10.7059 55.2793 10.7059C52.4182 10.7059 51.0337 14.9512 51.0337 17.2582C51.0337 17.8119 51.1263 19.1731 51.9568 19.1731C53.1566 19.1734 54.1718 17.2585 54.5405 16.3357Z" fill="#CCCCCC"/>
<path fill-rule="evenodd" clip-rule="evenodd" d="M21.5257 22.7725H22.5408L23.8327 24.7105V22.7725H24.6635V26.4637H23.925L22.3561 24.3418V26.4637H21.5257V22.7725ZM27.0625 22.7725H29.9236V23.511H28.17V24.1564H29.2778V24.9872H28.17V25.6329H29.9236V26.4637H27.0625V22.7725ZM32.9694 23.511H31.9542V22.7725H35.0917V23.511H34.0765V26.4637H32.9694V23.511ZM36.9376 22.7725H38.0444L38.5065 24.7105H38.5982L39.0596 22.7725H39.9831L40.4441 24.7105H40.5368L40.9982 22.7725H41.8283L40.9055 26.4637H39.9831L39.429 24.4334L38.8752 26.4637H37.9528L36.9376 22.7725ZM45.5892 26.5564C44.5051 26.5564 43.7666 25.8183 43.7666 24.6181C43.7666 23.4186 44.5047 22.6802 45.5892 22.6802C46.6971 22.6802 47.3425 23.4183 47.3425 24.6181C47.3425 25.818 46.6967 26.5564 45.5892 26.5564ZM44.9435 24.6178C44.9435 25.6329 45.2205 25.818 45.5892 25.818C45.9586 25.818 46.235 25.6329 46.235 24.6178C46.235 23.6033 45.9586 23.4183 45.5892 23.4183C45.1278 23.4183 44.9435 23.6953 44.9435 24.6178ZM49.5571 22.7725H51.4031C52.6026 22.7725 52.8796 23.3256 52.8796 23.7877C52.8796 24.2491 52.6026 24.6178 52.1415 24.7105L52.8796 26.4637H51.6801L51.1264 24.8948H50.665V26.4637H49.5571V22.7725ZM50.665 24.2491H51.2187C51.4951 24.2491 51.7724 24.064 51.7724 23.8797C51.7724 23.6033 51.5874 23.4183 51.2187 23.4183H50.665V24.2491ZM55.1869 22.7725H56.2944V24.2491L57.4016 22.7725H58.4167L57.4939 23.972L58.6011 26.4637H57.4939L56.7558 24.8948L56.2944 25.5413V26.4637H55.1869V22.7725Z" fill="white"/>
</svg>
