<svg width="29" height="29" viewBox="0 0 29 29" fill="none" xmlns="http://www.w3.org/2000/svg">
<path d="M17.9359 4.42993C19.4193 4.82889 20.7718 5.6106 21.858 6.69677C22.9441 7.78294 23.7258 9.13544 24.1248 10.6188" stroke="white" stroke-width="1.5" stroke-linecap="round" stroke-linejoin="round"/>
<path d="M17.0306 7.81189C17.9205 8.05128 18.7318 8.52024 19.3833 9.17181C20.0349 9.82338 20.5039 10.6347 20.7433 11.5245" stroke="white" stroke-width="1.5" stroke-linecap="round" stroke-linejoin="round"/>
<path d="M10.615 13.7067C11.5224 15.5624 13.0263 17.0599 14.8859 17.9592C15.022 18.0237 15.1727 18.0516 15.3229 18.0401C15.4731 18.0286 15.6178 17.9781 15.7425 17.8936L18.4812 16.0684C18.6022 15.9876 18.7414 15.9382 18.8862 15.9248C19.0311 15.9114 19.177 15.9342 19.3107 15.9914L24.4339 18.1876C24.6079 18.2615 24.7532 18.39 24.8479 18.5536C24.9426 18.7173 24.9815 18.9073 24.9589 19.095C24.7967 20.3619 24.1784 21.5264 23.2196 22.3703C22.2608 23.2143 21.0273 23.6799 19.75 23.68C15.8049 23.68 12.0214 22.1128 9.23179 19.3232C6.44218 16.5336 4.875 12.7501 4.875 8.80498C4.87512 7.52777 5.34074 6.29439 6.18471 5.33575C7.02867 4.37711 8.1931 3.75894 9.46 3.59697C9.64771 3.57434 9.83769 3.6133 10.0013 3.70798C10.165 3.80267 10.2934 3.94796 10.3674 4.12197L12.5654 9.24948C12.6219 9.38196 12.6449 9.52635 12.6322 9.66983C12.6195 9.81331 12.5716 9.95145 12.4928 10.072L10.6728 12.8527C10.5901 12.9779 10.5414 13.1224 10.5313 13.2721C10.5212 13.4218 10.55 13.5715 10.615 13.7067V13.7067Z" stroke="white" stroke-width="1.5" stroke-linecap="round" stroke-linejoin="round"/>
</svg>
