<svg width="65" height="33" viewBox="0 0 65 33" fill="none" xmlns="http://www.w3.org/2000/svg">
<rect x="0.5" y="1.05469" width="64" height="31" rx="4.79412" fill="#1A1A1A" stroke="#333333"/>
<g clip-path="url(#clip0_3173_6022)">
<rect width="11" height="11" transform="translate(5 4.55469)" fill="#1A1A1A"/>
<path d="M13.7083 9.59668H7.29167C6.78541 9.59668 6.375 10.0071 6.375 10.5133V13.7217C6.375 14.2279 6.78541 14.6383 7.29167 14.6383H13.7083C14.2146 14.6383 14.625 14.2279 14.625 13.7217V10.5133C14.625 10.0071 14.2146 9.59668 13.7083 9.59668Z" stroke="white" stroke-width="0.916667" stroke-linecap="round" stroke-linejoin="round"/>
<path d="M8.20837 9.59668V7.76335C8.20837 7.15556 8.44982 6.57266 8.87959 6.14289C9.30936 5.71312 9.89225 5.47168 10.5 5.47168C11.1078 5.47168 11.6907 5.71312 12.1205 6.14289C12.5503 6.57266 12.7917 7.15556 12.7917 7.76335V9.59668" stroke="white" stroke-width="0.916667" stroke-linecap="round" stroke-linejoin="round"/>
</g>
<path d="M21.278 13.6317C20.772 13.6317 20.3173 13.5437 19.914 13.3677C19.518 13.1844 19.2063 12.935 18.979 12.6197C18.7517 12.297 18.6343 11.9267 18.627 11.5087H19.694C19.7307 11.868 19.8773 12.1724 20.134 12.4217C20.398 12.6637 20.7793 12.7847 21.278 12.7847C21.7547 12.7847 22.1287 12.6674 22.4 12.4327C22.6787 12.1907 22.818 11.8827 22.818 11.5087C22.818 11.2154 22.7373 10.977 22.576 10.7937C22.4147 10.6104 22.213 10.471 21.971 10.3757C21.729 10.2804 21.4027 10.1777 20.992 10.0677C20.486 9.93569 20.079 9.80369 19.771 9.67169C19.4703 9.53969 19.21 9.33435 18.99 9.05569C18.7773 8.76969 18.671 8.38835 18.671 7.91169C18.671 7.49369 18.7773 7.12335 18.99 6.80069C19.2027 6.47802 19.4997 6.22869 19.881 6.05269C20.2697 5.87669 20.7133 5.78869 21.212 5.78869C21.9307 5.78869 22.5173 5.96835 22.972 6.32769C23.434 6.68702 23.6943 7.16369 23.753 7.75769H22.653C22.6163 7.46435 22.4623 7.20769 22.191 6.98769C21.9197 6.76035 21.5603 6.64669 21.113 6.64669C20.695 6.64669 20.354 6.75669 20.09 6.97669C19.826 7.18935 19.694 7.49002 19.694 7.87869C19.694 8.15735 19.771 8.38469 19.925 8.56069C20.0863 8.73669 20.2807 8.87235 20.508 8.96769C20.7427 9.05569 21.069 9.15835 21.487 9.27569C21.993 9.41502 22.4 9.55435 22.708 9.69369C23.016 9.82569 23.28 10.0347 23.5 10.3207C23.72 10.5994 23.83 10.9807 23.83 11.4647C23.83 11.8387 23.731 12.1907 23.533 12.5207C23.335 12.8507 23.0417 13.1184 22.653 13.3237C22.2643 13.529 21.806 13.6317 21.278 13.6317ZM30.8031 10.3097C30.8031 10.5004 30.7921 10.702 30.7701 10.9147H25.9521C25.9887 11.5087 26.1904 11.9744 26.5571 12.3117C26.9311 12.6417 27.3821 12.8067 27.9101 12.8067C28.3427 12.8067 28.7021 12.7077 28.9881 12.5097C29.2814 12.3044 29.4867 12.033 29.6041 11.6957H30.6821C30.5207 12.275 30.1981 12.748 29.7141 13.1147C29.2301 13.474 28.6287 13.6537 27.9101 13.6537C27.3381 13.6537 26.8247 13.5254 26.3701 13.2687C25.9227 13.012 25.5707 12.649 25.3141 12.1797C25.0574 11.703 24.9291 11.153 24.9291 10.5297C24.9291 9.90635 25.0537 9.36002 25.3031 8.89069C25.5524 8.42135 25.9007 8.06202 26.3481 7.81269C26.8027 7.55602 27.3234 7.42769 27.9101 7.42769C28.4821 7.42769 28.9881 7.55235 29.4281 7.80169C29.8681 8.05102 30.2054 8.39569 30.4401 8.83569C30.6821 9.26835 30.8031 9.75969 30.8031 10.3097ZM29.7691 10.1007C29.7691 9.71935 29.6847 9.39302 29.5161 9.12169C29.3474 8.84302 29.1164 8.63402 28.8231 8.49469C28.5371 8.34802 28.2181 8.27469 27.8661 8.27469C27.3601 8.27469 26.9274 8.43602 26.5681 8.75869C26.2161 9.08135 26.0144 9.52869 25.9631 10.1007H29.7691ZM31.7503 10.5297C31.7503 9.90635 31.875 9.36369 32.1243 8.90169C32.3737 8.43235 32.7183 8.06935 33.1583 7.81269C33.6057 7.55602 34.1153 7.42769 34.6873 7.42769C35.428 7.42769 36.0367 7.60735 36.5133 7.96669C36.9973 8.32602 37.3163 8.82469 37.4703 9.46269H36.3923C36.2897 9.09602 36.088 8.80635 35.7873 8.59369C35.494 8.38102 35.1273 8.27469 34.6873 8.27469C34.1153 8.27469 33.6533 8.47269 33.3013 8.86869C32.9493 9.25735 32.7733 9.81102 32.7733 10.5297C32.7733 11.2557 32.9493 11.8167 33.3013 12.2127C33.6533 12.6087 34.1153 12.8067 34.6873 12.8067C35.1273 12.8067 35.494 12.704 35.7873 12.4987C36.0807 12.2934 36.2823 12 36.3923 11.6187H37.4703C37.309 12.2347 36.9863 12.7297 36.5023 13.1037C36.0183 13.4704 35.4133 13.6537 34.6873 13.6537C34.1153 13.6537 33.6057 13.5254 33.1583 13.2687C32.7183 13.012 32.3737 12.649 32.1243 12.1797C31.875 11.7104 31.7503 11.1604 31.7503 10.5297ZM44.152 7.52669V13.5547H43.151V12.6637C42.9603 12.9717 42.6927 13.2137 42.348 13.3897C42.0107 13.5584 41.6367 13.6427 41.226 13.6427C40.7567 13.6427 40.335 13.5474 39.961 13.3567C39.587 13.1587 39.29 12.8654 39.07 12.4767C38.8573 12.088 38.751 11.615 38.751 11.0577V7.52669H39.741V10.9257C39.741 11.5197 39.8913 11.978 40.192 12.3007C40.4927 12.616 40.9033 12.7737 41.424 12.7737C41.9593 12.7737 42.381 12.6087 42.689 12.2787C42.997 11.9487 43.151 11.4684 43.151 10.8377V7.52669H44.152ZM46.8431 8.50569C47.0191 8.16102 47.2685 7.89335 47.5911 7.70269C47.9211 7.51202 48.3208 7.41669 48.7901 7.41669V8.45069H48.5261C47.4041 8.45069 46.8431 9.05935 46.8431 10.2767V13.5547H45.8421V7.52669H46.8431V8.50569ZM55.4456 10.3097C55.4456 10.5004 55.4346 10.702 55.4126 10.9147H50.5946C50.6313 11.5087 50.833 11.9744 51.1996 12.3117C51.5736 12.6417 52.0246 12.8067 52.5526 12.8067C52.9853 12.8067 53.3446 12.7077 53.6306 12.5097C53.924 12.3044 54.1293 12.033 54.2466 11.6957H55.3246C55.1633 12.275 54.8406 12.748 54.3566 13.1147C53.8726 13.474 53.2713 13.6537 52.5526 13.6537C51.9806 13.6537 51.4673 13.5254 51.0126 13.2687C50.5653 13.012 50.2133 12.649 49.9566 12.1797C49.7 11.703 49.5716 11.153 49.5716 10.5297C49.5716 9.90635 49.6963 9.36002 49.9456 8.89069C50.195 8.42135 50.5433 8.06202 50.9906 7.81269C51.4453 7.55602 51.966 7.42769 52.5526 7.42769C53.1246 7.42769 53.6306 7.55235 54.0706 7.80169C54.5106 8.05102 54.848 8.39569 55.0826 8.83569C55.3246 9.26835 55.4456 9.75969 55.4456 10.3097ZM54.4116 10.1007C54.4116 9.71935 54.3273 9.39302 54.1586 9.12169C53.99 8.84302 53.759 8.63402 53.4656 8.49469C53.1796 8.34802 52.8606 8.27469 52.5086 8.27469C52.0026 8.27469 51.57 8.43602 51.2106 8.75869C50.8586 9.08135 50.657 9.52869 50.6056 10.1007H54.4116Z" fill="white"/>
<path d="M11.8032 20.7707C11.8032 21.2187 11.6952 21.6387 11.4792 22.0307C11.2712 22.4227 10.9392 22.7387 10.4832 22.9787C10.0352 23.2187 9.46719 23.3387 8.77919 23.3387H7.37519V26.5547H5.69519V18.1787H8.77919C9.42719 18.1787 9.97919 18.2907 10.4352 18.5147C10.8912 18.7387 11.2312 19.0467 11.4552 19.4387C11.6872 19.8307 11.8032 20.2747 11.8032 20.7707ZM8.70719 21.9827C9.17119 21.9827 9.51519 21.8787 9.73919 21.6707C9.96319 21.4547 10.0752 21.1547 10.0752 20.7707C10.0752 19.9547 9.61919 19.5467 8.70719 19.5467H7.37519V21.9827H8.70719ZM12.564 23.2067C12.564 22.5347 12.696 21.9387 12.96 21.4187C13.232 20.8987 13.596 20.4987 14.052 20.2187C14.516 19.9387 15.032 19.7987 15.6 19.7987C16.096 19.7987 16.528 19.8987 16.896 20.0987C17.272 20.2987 17.572 20.5507 17.796 20.8547V19.9067H19.488V26.5547H17.796V25.5827C17.58 25.8947 17.28 26.1547 16.896 26.3627C16.52 26.5627 16.084 26.6627 15.588 26.6627C15.028 26.6627 14.516 26.5187 14.052 26.2307C13.596 25.9427 13.232 25.5387 12.96 25.0187C12.696 24.4907 12.564 23.8867 12.564 23.2067ZM17.796 23.2307C17.796 22.8227 17.716 22.4747 17.556 22.1867C17.396 21.8907 17.18 21.6667 16.908 21.5147C16.636 21.3547 16.344 21.2747 16.032 21.2747C15.72 21.2747 15.432 21.3507 15.168 21.5027C14.904 21.6547 14.688 21.8787 14.52 22.1747C14.36 22.4627 14.28 22.8067 14.28 23.2067C14.28 23.6067 14.36 23.9587 14.52 24.2627C14.688 24.5587 14.904 24.7867 15.168 24.9467C15.44 25.1067 15.728 25.1867 16.032 25.1867C16.344 25.1867 16.636 25.1107 16.908 24.9587C17.18 24.7987 17.396 24.5747 17.556 24.2867C17.716 23.9907 17.796 23.6387 17.796 23.2307ZM27.4888 19.9067L23.3728 29.6987H21.5848L23.0248 26.3867L20.3608 19.9067H22.2448L23.9608 24.5507L25.7008 19.9067H27.4888ZM36.6504 19.8107C37.4664 19.8107 38.1224 20.0627 38.6184 20.5667C39.1224 21.0627 39.3744 21.7587 39.3744 22.6547V26.5547H37.6944V22.8827C37.6944 22.3627 37.5624 21.9667 37.2984 21.6947C37.0344 21.4147 36.6744 21.2747 36.2184 21.2747C35.7624 21.2747 35.3984 21.4147 35.1264 21.6947C34.8624 21.9667 34.7304 22.3627 34.7304 22.8827V26.5547H33.0504V22.8827C33.0504 22.3627 32.9184 21.9667 32.6544 21.6947C32.3904 21.4147 32.0304 21.2747 31.5744 21.2747C31.1104 21.2747 30.7424 21.4147 30.4704 21.6947C30.2064 21.9667 30.0744 22.3627 30.0744 22.8827V26.5547H28.3944V19.9067H30.0744V20.7107C30.2904 20.4307 30.5664 20.2107 30.9024 20.0507C31.2464 19.8907 31.6224 19.8107 32.0304 19.8107C32.5504 19.8107 33.0144 19.9227 33.4224 20.1467C33.8304 20.3627 34.1464 20.6747 34.3704 21.0827C34.5864 20.6987 34.8984 20.3907 35.3064 20.1587C35.7224 19.9267 36.1704 19.8107 36.6504 19.8107ZM47.1486 23.0867C47.1486 23.3267 47.1326 23.5427 47.1006 23.7347H42.2406C42.2806 24.2147 42.4486 24.5907 42.7446 24.8627C43.0406 25.1347 43.4046 25.2707 43.8366 25.2707C44.4606 25.2707 44.9046 25.0027 45.1686 24.4667H46.9806C46.7886 25.1067 46.4206 25.6347 45.8766 26.0507C45.3326 26.4587 44.6646 26.6627 43.8726 26.6627C43.2326 26.6627 42.6566 26.5227 42.1446 26.2427C41.6406 25.9547 41.2446 25.5507 40.9566 25.0307C40.6766 24.5107 40.5366 23.9107 40.5366 23.2307C40.5366 22.5427 40.6766 21.9387 40.9566 21.4187C41.2366 20.8987 41.6286 20.4987 42.1326 20.2187C42.6366 19.9387 43.2166 19.7987 43.8726 19.7987C44.5046 19.7987 45.0686 19.9347 45.5646 20.2067C46.0686 20.4787 46.4566 20.8667 46.7286 21.3707C47.0086 21.8667 47.1486 22.4387 47.1486 23.0867ZM45.4086 22.6067C45.4006 22.1747 45.2446 21.8307 44.9406 21.5747C44.6366 21.3107 44.2646 21.1787 43.8246 21.1787C43.4086 21.1787 43.0566 21.3067 42.7686 21.5627C42.4886 21.8107 42.3166 22.1587 42.2526 22.6067H45.4086ZM52.0589 19.8107C52.8509 19.8107 53.4909 20.0627 53.9789 20.5667C54.4669 21.0627 54.7109 21.7587 54.7109 22.6547V26.5547H53.0309V22.8827C53.0309 22.3547 52.8989 21.9507 52.6349 21.6707C52.3709 21.3827 52.0109 21.2387 51.5549 21.2387C51.0909 21.2387 50.7229 21.3827 50.4509 21.6707C50.1869 21.9507 50.0549 22.3547 50.0549 22.8827V26.5547H48.3749V19.9067H50.0549V20.7347C50.2789 20.4467 50.5629 20.2227 50.9069 20.0627C51.2589 19.8947 51.6429 19.8107 52.0589 19.8107ZM58.2645 21.2867V24.5027C58.2645 24.7267 58.3165 24.8907 58.4205 24.9947C58.5325 25.0907 58.7165 25.1387 58.9725 25.1387H59.7525V26.5547H58.6965C57.2805 26.5547 56.5725 25.8667 56.5725 24.4907V21.2867H55.7805V19.9067H56.5725V18.2627H58.2645V19.9067H59.7525V21.2867H58.2645Z" fill="white"/>
<defs>
<clipPath id="clip0_3173_6022">
<rect width="11" height="11" fill="white" transform="translate(5 4.55469)"/>
</clipPath>
</defs>
</svg>
