<svg width="40" height="41" viewBox="0 0 40 41" fill="none" xmlns="http://www.w3.org/2000/svg">
<g clip-path="url(#clip0_629_3558)">
<path d="M35.9801 35.2227L33.6783 9.2819C33.6369 8.76855 33.2063 8.3794 32.6847 8.3794H27.8327C27.8244 4.06559 24.3138 0.554932 20 0.554932C15.6862 0.554932 12.1755 4.06559 12.1672 8.3794H7.31522C6.80187 8.3794 6.37132 8.76855 6.32164 9.2819L4.01984 35.2227C4.01984 35.2558 4.01984 35.2807 4.01984 35.3138C4.01984 38.2034 6.67767 40.5549 9.93994 40.5549H30.06C33.3223 40.5549 35.9801 38.2034 35.9801 35.3138C35.9801 35.2807 35.9801 35.2558 35.9801 35.2227ZM20 2.5421C23.2208 2.5421 25.8373 5.15853 25.8455 8.3794H14.1544C14.1627 5.15853 16.7791 2.5421 20 2.5421ZM30.06 38.5595H9.93994C7.78717 38.5595 6.03184 37.1271 6.007 35.3469L8.22601 10.3666H12.1672V13.8524C12.1672 14.3989 12.6143 14.846 13.1608 14.846C13.7073 14.846 14.1544 14.3989 14.1544 13.8524V10.3666H25.8455V13.8524C25.8455 14.3989 26.2927 14.846 26.8391 14.846C27.3856 14.846 27.8327 14.3989 27.8327 13.8524V10.3666H31.7739L33.9929 35.3552C33.9681 37.1271 32.2128 38.5595 30.06 38.5595Z" fill="#00B307"/>
<path d="M24.1316 21.238L18.2694 27.1002L15.8766 24.7073C15.4874 24.3182 14.8581 24.3182 14.469 24.7073C14.0798 25.0965 14.0798 25.7257 14.469 26.1149L17.5657 29.2116C17.7561 29.402 18.0128 29.5014 18.2694 29.5014C18.5261 29.5014 18.7745 29.402 18.9732 29.2116L25.5391 22.6456C25.9283 22.2565 25.9283 21.6272 25.5391 21.238C25.15 20.8572 24.5207 20.8572 24.1316 21.238Z" fill="#00B307"/>
</g>
<defs>
<clipPath id="clip0_629_3558">
<rect width="40" height="40" fill="white" transform="translate(0 0.554932)"/>
</clipPath>
</defs>
</svg>
