<svg width="45" height="33" viewBox="0 0 45 33" fill="none" xmlns="http://www.w3.org/2000/svg">
<rect x="0.5" y="1.05469" width="44" height="30.7647" rx="4.79412" fill="#1A1A1A" stroke="#333333"/>
<path fill-rule="evenodd" clip-rule="evenodd" d="M14.2298 21.5437H11.5037L9.45943 13.5153C9.3624 13.146 9.15638 12.8195 8.85333 12.6656C8.09703 12.2789 7.26364 11.9712 6.35449 11.816V11.5069H10.7461C11.3522 11.5069 11.8067 11.9712 11.8825 12.5104L12.9432 18.3015L15.668 11.5069H18.3184L14.2298 21.5437ZM19.8327 21.5437H17.2581L19.3781 11.5069H21.9527L19.8327 21.5437ZM25.2856 14.2874C25.3614 13.7468 25.8159 13.4377 26.3463 13.4377C27.1797 13.3601 28.0875 13.5153 28.8451 13.9007L29.2997 11.7397C28.5421 11.4306 27.7087 11.2754 26.9524 11.2754C24.4535 11.2754 22.6352 12.6656 22.6352 14.5951C22.6352 16.063 23.9232 16.8337 24.8323 17.298C25.8159 17.761 26.1947 18.0701 26.119 18.533C26.119 19.2275 25.3614 19.5366 24.6051 19.5366C23.6959 19.5366 22.7868 19.3051 21.9547 18.9184L21.5001 21.0807C22.4093 21.4661 23.3929 21.6213 24.302 21.6213C27.1039 21.6975 28.8451 20.3086 28.8451 18.2239C28.8451 15.5987 25.2856 15.4448 25.2856 14.2874ZM37.8554 21.5437L35.8111 11.5069H33.6153C33.1608 11.5069 32.7062 11.816 32.5547 12.2789L28.7692 21.5437H31.4196L31.9486 20.0771H35.205L35.5081 21.5437H37.8554ZM33.9923 14.2097L34.7486 17.9924H32.6286L33.9923 14.2097Z" fill="white"/>
</svg>
